  0
SECTION
  2
HEADER
  9
$ACADVER
  1
AC1014
  9
$HANDSEED
  5
FFFF
  9
$MEASUREMENT
 70
     1
  0
ENDSEC
  0
SECTION
  2
TABLES
  0
TABLE
  2
VPORT
  5
8
330
0
100
AcDbSymbolTable
 70
     4
  0
VPORT
  5
2E
330
8
100
AcDbSymbolTableRecord
100
AcDbViewportTableRecord
  2
*ACTIVE
 70
     0
 10
0.0
 20
0.0
 11
1.0
 21
1.0
 12
210.0
 22
148.5
 13
0.0
 23
0.0
 14
10.0
 24
10.0
 15
10.0
 25
10.0
 16
0.0
 26
0.0
 36
1.0
 17
0.0
 27
0.0
 37
0.0
 40
341.0
 41
1.24
 42
50.0
 43
0.0
 44
0.0
 50
0.0
 51
0.0
 71
     0
 72
   100
 73
     1
 74
     3
 75
     0
 76
     0
 77
     0
 78
     0
  0
ENDTAB
  0
TABLE
  2
LTYPE
  5
5
330
0
100
AcDbSymbolTable
 70
     1
  0
LTYPE
  5
14
330
5
100
AcDbSymbolTableRecord
100
AcDbLinetypeTableRecord
  2
BYBLOCK
 70
     0
  3

 72
    65
 73
     0
 40
0.0
  0
LTYPE
  5
15
330
5
100
AcDbSymbolTableRecord
100
AcDbLinetypeTableRecord
  2
BYLAYER
 70
     0
  3

 72
    65
 73
     0
 40
0.0
  0
LTYPE
  5
16
330
5
100
AcDbSymbolTableRecord
100
AcDbLinetypeTableRecord
  2
CONTINUOUS
 70
     0
  3
Solid line
 72
    65
 73
     0
 40
0.0
  0
ENDTAB
  0
TABLE
  2
LAYER
  5
2
100
AcDbSymbolTable
 70
13
  0
LAYER
  5
50
100
AcDbSymbolTableRecord
100
AcDbLayerTableRecord
  2
0
 70
0
  6
CONTINUOUS
  0
LAYER
  5
51
100
AcDbSymbolTableRecord
100
AcDbLayerTableRecord
  2
Cut_out
 70
0
  6
CONTINUOUS
  0
LAYER
  5
52
100
AcDbSymbolTableRecord
100
AcDbLayerTableRecord
  2
Scratch
 70
0
  6
CONTINUOUS
  0
LAYER
  5
53
100
AcDbSymbolTableRecord
100
AcDbLayerTableRecord
  2
GBase
 70
0
  6
CONTINUOUS
  0
LAYER
  5
54
100
AcDbSymbolTableRecord
100
AcDbLayerTableRecord
  2
TBase
 70
0
  6
CONTINUOUS
  0
LAYER
  5
55
100
AcDbSymbolTableRecord
100
AcDbLayerTableRecord
  2
GHull3
 70
0
  6
CONTINUOUS
  0
LAYER
  5
56
100
AcDbSymbolTableRecord
100
AcDbLayerTableRecord
  2
Hull2
 70
0
  6
CONTINUOUS
  0
LAYER
  5
57
100
AcDbSymbolTableRecord
100
AcDbLayerTableRecord
  2
THull3
 70
0
  6
CONTINUOUS
  0
LAYER
  5
58
100
AcDbSymbolTableRecord
100
AcDbLayerTableRecord
  2
GHull1
 70
0
  6
CONTINUOUS
  0
LAYER
  5
59
100
AcDbSymbolTableRecord
100
AcDbLayerTableRecord
  2
THull1
 70
0
  6
CONTINUOUS
  0
LAYER
  5
5a
100
AcDbSymbolTableRecord
100
AcDbLayerTableRecord
  2
GHull0
 70
0
  6
CONTINUOUS
  0
LAYER
  5
5b
100
AcDbSymbolTableRecord
100
AcDbLayerTableRecord
  2
THull0
 70
0
  6
CONTINUOUS
  0
LAYER
  5
5c
100
AcDbSymbolTableRecord
100
AcDbLayerTableRecord
  2
Text
 70
0
  6
CONTINUOUS
  0
ENDTAB
  0
TABLE
  2
STYLE
  5
3
330
0
100
AcDbSymbolTable
 70
     1
  0
STYLE
  5
11
330
3
100
AcDbSymbolTableRecord
100
AcDbTextStyleTableRecord
  2
STANDARD
 70
     0
 40
0.0
 41
1.0
 50
0.0
 71
     0
 42
2.5
  3
txt
  4

  0
ENDTAB
  0
TABLE
  2
VIEW
  5
6
330
0
100
AcDbSymbolTable
 70
     0
  0
ENDTAB
  0
TABLE
  2
UCS
  5
7
330
0
100
AcDbSymbolTable
 70
     0
  0
ENDTAB
  0
TABLE
  2
APPID
  5
9
330
0
100
AcDbSymbolTable
 70
     2
  0
APPID
  5
12
330
9
100
AcDbSymbolTableRecord
100
AcDbRegAppTableRecord
  2
ACAD
 70
     0
  0
ENDTAB
  0
TABLE
  2
DIMSTYLE
  5
A
330
0
100
AcDbSymbolTable
 70
     1
  0
DIMSTYLE
105
27
330
A
100
AcDbSymbolTableRecord
100
AcDbDimStyleTableRecord
  2
ISO-25
 70
     0
  3

  4

  5

  6

  7

 40
1.0
 41
2.5
 42
0.625
 43
3.75
 44
1.25
 45
0.0
 46
0.0
 47
0.0
 48
0.0
140
2.5
141
2.5
142
0.0
143
0.03937007874016
144
1.0
145
0.0
146
1.0
147
0.625
 71
     0
 72
     0
 73
     0
 74
     0
 75
     0
 76
     0
 77
     1
 78
     8
170
     0
171
     3
172
     1
173
     0
174
     0
175
     0
176
     0
177
     0
178
     0
270
     2
271
     2
272
     2
273
     2
274
     3
340
11
275
     0
280
     0
281
     0
282
     0
283
     0
284
     8
285
     0
286
     0
287
     3
288
     0
  0
ENDTAB
  0
TABLE
  2
BLOCK_RECORD
  5
1
330
0
100
AcDbSymbolTable
 70
     1
  0
BLOCK_RECORD
  5
1F
330
1
100
AcDbSymbolTableRecord
100
AcDbBlockTableRecord
  2
*MODEL_SPACE
  0
BLOCK_RECORD
  5
1B
330
1
100
AcDbSymbolTableRecord
100
AcDbBlockTableRecord
  2
*PAPER_SPACE
  0
ENDTAB
  0
ENDSEC
  0
SECTION
  2
BLOCKS
  0
BLOCK
  5
20
330
1F
100
AcDbEntity
  8
0
100
AcDbBlockBegin
  2
*MODEL_SPACE
 70
     0
 10
0.0
 20
0.0
 30
0.0
  3
*MODEL_SPACE
  1

  0
ENDBLK
  5
21
330
1F
100
AcDbEntity
  8
0
100
AcDbBlockEnd
  0
BLOCK
  5
1C
330
1B
100
AcDbEntity
 67
     1
  8
0
100
AcDbBlockBegin
  2
*PAPER_SPACE
  1

  0
ENDBLK
  5
1D
330
1B
100
AcDbEntity
 67
     1
  8
0
100
AcDbBlockEnd
  0
ENDSEC
  0
SECTION
  2
ENTITIES
  0
LWPOLYLINE
  5
100
100
AcDbEntity
  8
Cut_out
 62
7
100
AcDbPolyline
 90
19
 70
0
 10
-10.263148
 20
28.366213
 30
0.0
 10
-37.631551
 20
33.782876
 30
0.0
 10
-33.497782
 20
15.537274
 30
0.0
 10
-63.717057
 20
0.285102
 30
0.0
 10
-39.912250
 20
-12.686396
 30
0.0
 10
-40.482424
 20
-49.035038
 30
0.0
 10
-20.668842
 20
-39.769711
 30
0.0
 10
-9.978061
 20
-65.285027
 30
0.0
 10
14.824550
 20
-42.192955
 30
0.0
 10
50.032855
 20
-52.028456
 30
0.0
 10
34.780674
 20
-14.254366
 30
0.0
 10
63.431968
 20
-13.684193
 30
0.0
 10
57.017499
 20
3.563592
 30
0.0
 10
73.695117
 20
11.546050
 30
0.0
 10
53.168818
 20
21.809200
 30
0.0
 10
67.850822
 20
44.758743
 30
0.0
 10
27.653485
 20
28.081123
 30
0.0
 10
9.407887
 20
32.072349
 30
0.0
 10
-10.263148
 20
28.366213
 30
0.0
  0
LWPOLYLINE
  5
101
100
AcDbEntity
  8
GBase
 62
7
100
AcDbPolyline
 90
43
 70
0
 10
29.721974
 20
24.673417
 30
0.0
 10
25.469030
 20
25.649561
 30
0.0
 10
17.765546
 20
27.417678
 30
0.0
 10
15.207579
 20
28.391144
 30
0.0
 10
11.973674
 20
29.078931
 30
0.0
 10
8.100137
 20
29.493885
 30
0.0
 10
4.183480
 20
29.664675
 30
0.0
 10
0.313239
 20
29.400049
 30
0.0
 10
-3.421049
 20
28.508755
 30
0.0
 10
-8.607748
 20
26.612656
 30
0.0
 10
-13.925718
 20
24.420489
 30
0.0
 10
-19.174179
 20
21.887892
 30
0.0
 10
-24.152351
 20
18.970507
 30
0.0
 10
-28.659447
 20
15.623967
 30
0.0
 10
-32.494683
 20
11.803917
 30
0.0
 10
-35.457282
 20
7.465964
 30
0.0
 10
-37.346461
 20
2.565796
 30
0.0
 10
-37.998510
 20
-2.592944
 30
0.0
 10
-37.525362
 20
-7.784761
 30
0.0
 10
-36.078287
 20
-12.923040
 30
0.0
 10
-33.808557
 20
-17.921167
 30
0.0
 10
-30.867443
 20
-22.692613
 30
0.0
 10
-27.406212
 20
-27.150708
 30
0.0
 10
-23.576141
 20
-31.208951
 30
0.0
 10
-19.528493
 20
-34.780671
 30
0.0
 10
-16.426436
 20
-36.995071
 30
0.0
 10
-13.023140
 20
-38.906449
 30
0.0
 10
-9.390568
 20
-40.474702
 30
0.0
 10
-5.600673
 20
-41.659725
 30
0.0
 10
2.163248
 20
-42.719638
 30
0.0
 10
9.692974
 20
-41.765304
 30
0.0
 10
16.192151
 20
-38.824492
 30
0.0
 10
21.928885
 20
-34.189274
 30
0.0
 10
26.465424
 20
-28.353032
 30
0.0
 10
29.364011
 20
-21.809201
 30
0.0
 10
30.381589
 20
-17.657402
 30
0.0
 10
31.195058
 20
-13.486045
 30
0.0
 10
31.734452
 20
-10.269022
 30
0.0
 10
31.929798
 20
-8.980254
 30
0.0
 10
31.723609
 20
-0.943271
 30
0.0
 10
29.259200
 20
8.846680
 30
0.0
 10
28.675166
 20
18.727898
 30
0.0
 10
29.721974
 20
24.673417
 30
0.0
  0
LWPOLYLINE
  5
102
100
AcDbEntity
  8
TBase
 62
7
100
AcDbPolyline
 90
25
 70
0
 10
28.223662
 20
24.660073
 30
0.0
 10
27.760391
 20
21.025206
 30
0.0
 10
28.009844
 20
16.535079
 30
0.0
 10
28.829471
 20
8.196270
 30
0.0
 10
31.929798
 20
-8.980254
 30
0.0
 10
32.935525
 20
-8.973763
 30
0.0
 10
35.383848
 20
-8.927253
 30
0.0
 10
38.421482
 20
-8.800366
 30
0.0
 10
41.195142
 20
-8.552659
 30
0.0
 10
44.234063
 20
-7.711101
 30
0.0
 10
47.064642
 20
-6.176602
 30
0.0
 10
49.633166
 20
-4.155214
 30
0.0
 10
51.885923
 20
-1.853099
 30
0.0
 10
53.318989
 20
0.341998
 30
0.0
 10
54.024078
 20
2.850840
 30
0.0
 10
54.076544
 20
5.941682
 30
0.0
 10
53.637555
 20
9.050303
 30
0.0
 10
52.679109
 20
12.016995
 30
0.0
 10
51.173205
 20
14.681991
 30
0.0
 10
48.135292
 20
17.884104
 30
0.0
 10
44.418448
 20
20.408997
 30
0.0
 10
40.301570
 20
22.386717
 30
0.0
 10
36.063566
 20
23.947324
 30
0.0
 10
33.277833
 20
24.528324
 30
0.0
 10
28.223662
 20
24.660073
 30
0.0
  0
LWPOLYLINE
  5
103
100
AcDbEntity
  8
GHull3
 62
7
100
AcDbPolyline
 90
42
 70
0
 10
9.464044
 20
-39.634611
 30
0.0
 10
16.616125
 20
-36.515096
 30
0.0
 10
22.279772
 20
-31.488182
 30
0.0
 10
26.347732
 20
-24.942912
 30
0.0
 10
28.712741
 20
-17.268161
 30
0.0
 10
29.664070
 20
-9.600381
 30
0.0
 10
29.572938
 20
-1.829251
 30
0.0
 10
28.136714
 20
5.779573
 30
0.0
 10
25.052783
 20
12.960435
 30
0.0
 10
22.134476
 20
17.984172
 30
0.0
 10
18.561158
 20
22.757314
 30
0.0
 10
13.658699
 20
26.325865
 30
0.0
 10
6.752961
 20
27.735836
 30
0.0
 10
0.623791
 20
27.374309
 30
0.0
 10
-5.543157
 20
26.276594
 30
0.0
 10
-11.560321
 20
24.451294
 30
0.0
 10
-17.240133
 20
21.907004
 30
0.0
 10
-22.302223
 20
18.869438
 30
0.0
 10
-27.028523
 20
15.235810
 30
0.0
 10
-31.164474
 20
11.006696
 30
0.0
 10
-34.455523
 20
6.182699
 30
0.0
 10
-35.491206
 20
3.707102
 30
0.0
 10
-36.084406
 20
1.054411
 30
0.0
 10
-36.303712
 20
-1.677415
 30
0.0
 10
-36.217727
 20
-4.390530
 30
0.0
 10
-35.827239
 20
-6.674301
 30
0.0
 10
-35.115153
 20
-8.896942
 30
0.0
 10
-34.208805
 20
-11.069094
 30
0.0
 10
-33.235533
 20
-13.201536
 30
0.0
 10
-31.746193
 20
-16.377778
 30
0.0
 10
-30.125021
 20
-19.498225
 30
0.0
 10
-28.296898
 20
-22.486365
 30
0.0
 10
-26.186713
 20
-25.265859
 30
0.0
 10
-22.177309
 20
-29.743315
 30
0.0
 10
-17.821370
 20
-33.951954
 30
0.0
 10
-13.039258
 20
-37.545263
 30
0.0
 10
-7.751339
 20
-40.176844
 30
0.0
 10
-3.932949
 20
-40.873538
 30
0.0
 10
0.809440
 20
-40.873538
 30
0.0
 10
5.575284
 20
-40.389019
 30
0.0
 10
9.464044
 20
-39.635824
 30
0.0
 10
9.464044
 20
-39.634611
 30
0.0
  0
LWPOLYLINE
  5
104
100
AcDbEntity
  8
Hull2
 62
7
100
AcDbPolyline
 90
29
 70
0
 10
-10.317612
 20
14.688510
 30
0.0
 10
-13.898715
 20
12.293855
 30
0.0
 10
-17.935122
 20
9.264820
 30
0.0
 10
-21.388168
 20
5.848238
 30
0.0
 10
-23.219200
 20
2.290883
 30
0.0
 10
-23.080313
 20
-2.838421
 30
0.0
 10
-21.274381
 20
-8.177360
 30
0.0
 10
-18.500583
 20
-13.296674
 30
0.0
 10
-15.458089
 20
-17.767045
 30
0.0
 10
-11.688873
 20
-21.863586
 30
0.0
 10
-6.845017
 20
-25.404854
 30
0.0
 10
-1.444398
 20
-27.747862
 30
0.0
 10
3.995088
 20
-28.249597
 30
0.0
 10
9.034575
 20
-26.586095
 30
0.0
 10
13.718854
 20
-23.235270
 30
0.0
 10
17.573000
 20
-18.838643
 30
0.0
 10
20.122070
 20
-14.037676
 30
0.0
 10
21.509068
 20
-9.218224
 30
0.0
 10
22.205325
 20
-4.097640
 30
0.0
 10
21.985948
 20
1.016988
 30
0.0
 10
20.626040
 20
5.818661
 30
0.0
 10
18.375386
 20
10.136717
 30
0.0
 10
15.350090
 20
14.391161
 30
0.0
 10
11.686976
 20
17.887115
 30
0.0
 10
7.522863
 20
19.929778
 30
0.0
 10
2.689158
 20
20.366576
 30
0.0
 10
-1.757758
 20
19.392966
 30
0.0
 10
-6.024481
 20
17.377445
 30
0.0
 10
-10.317612
 20
14.688510
 30
0.0
  0
LWPOLYLINE
  5
105
100
AcDbEntity
  8
THull3
 62
7
100
AcDbPolyline
 90
17
 70
0
 10
50.175400
 20
13.969295
 30
0.0
 10
46.357653
 20
16.714713
 30
0.0
 10
41.765319
 20
18.245605
 30
0.0
 10
38.517980
 20
18.912463
 30
0.0
 10
35.350848
 20
18.530692
 30
0.0
 10
32.804072
 20
16.545863
 30
0.0
 10
31.217080
 20
13.684194
 30
0.0
 10
30.355740
 20
7.147222
 30
0.0
 10
32.072343
 20
0.855275
 30
0.0
 10
35.618491
 20
-3.187840
 30
0.0
 10
40.482424
 20
-5.131561
 30
0.0
 10
45.603168
 20
-3.618935
 30
0.0
 10
49.890310
 20
0.000001
 30
0.0
 10
51.724199
 20
2.637621
 30
0.0
 10
52.598642
 20
5.701764
 30
0.0
 10
52.159972
 20
10.080386
 30
0.0
 10
50.175400
 20
13.969295
 30
0.0
  0
LWPOLYLINE
  5
106
100
AcDbEntity
  8
GHull1
 62
7
100
AcDbPolyline
 90
17
 70
0
 10
9.740325
 20
-0.783307
 30
0.0
 10
8.940319
 20
-4.647804
 30
0.0
 10
6.758625
 20
-7.803613
 30
0.0
 10
3.522744
 20
-9.931286
 30
0.0
 10
-0.439834
 20
-10.711490
 30
0.0
 10
-4.402412
 20
-9.931286
 30
0.0
 10
-7.638293
 20
-7.803613
 30
0.0
 10
-9.819986
 20
-4.647804
 30
0.0
 10
-10.619993
 20
-0.783307
 30
0.0
 10
-9.819986
 20
3.081162
 30
0.0
 10
-7.638293
 20
6.236971
 30
0.0
 10
-4.402412
 20
8.364644
 30
0.0
 10
-0.439834
 20
9.144847
 30
0.0
 10
3.522744
 20
8.364644
 30
0.0
 10
6.758625
 20
6.236971
 30
0.0
 10
8.940319
 20
3.081162
 30
0.0
 10
9.740325
 20
-0.783307
 30
0.0
  0
LWPOLYLINE
  5
107
100
AcDbEntity
  8
THull1
 62
7
100
AcDbPolyline
 90
17
 70
0
 10
49.959740
 20
7.982459
 30
0.0
 10
49.472607
 20
5.353813
 30
0.0
 10
48.144151
 20
3.207230
 30
0.0
 10
46.173788
 20
1.759967
 30
0.0
 10
43.760932
 20
1.229276
 30
0.0
 10
41.348076
 20
1.759967
 30
0.0
 10
39.377710
 20
3.207230
 30
0.0
 10
38.049254
 20
5.353813
 30
0.0
 10
37.562121
 20
7.982459
 30
0.0
 10
38.049254
 20
10.611105
 30
0.0
 10
39.377710
 20
12.757659
 30
0.0
 10
41.348076
 20
14.204922
 30
0.0
 10
43.760932
 20
14.735641
 30
0.0
 10
46.173788
 20
14.204922
 30
0.0
 10
48.144151
 20
12.757659
 30
0.0
 10
49.472607
 20
10.611105
 30
0.0
 10
49.959740
 20
7.982459
 30
0.0
  0
LWPOLYLINE
  5
108
100
AcDbEntity
  8
GHull0
 62
7
100
AcDbPolyline
 90
9
 70
0
 10
1.425438
 20
-1.140346
 30
0.0
 10
0.903561
 20
-2.349866
 30
0.0
 10
-0.356358
 20
-2.850867
 30
0.0
 10
-1.616280
 20
-2.349866
 30
0.0
 10
-2.138157
 20
-1.140346
 30
0.0
 10
-1.616280
 20
0.069173
 30
0.0
 10
-0.356358
 20
0.570174
 30
0.0
 10
0.903561
 20
0.069173
 30
0.0
 10
1.425438
 20
-1.140346
 30
0.0
  0
LWPOLYLINE
  5
109
100
AcDbEntity
  8
THull0
 62
7
100
AcDbPolyline
 90
9
 70
0
 10
43.333300
 20
7.269735
 30
0.0
 10
43.041048
 20
6.564179
 30
0.0
 10
42.335492
 20
6.271938
 30
0.0
 10
41.629937
 20
6.564179
 30
0.0
 10
41.337687
 20
7.269735
 30
0.0
 10
41.629937
 20
7.975290
 30
0.0
 10
42.335492
 20
8.267531
 30
0.0
 10
43.041048
 20
7.975290
 30
0.0
 10
43.333300
 20
7.269735
 30
0.0
  0
LWPOLYLINE
  5
10a
100
AcDbEntity
  8
Text
 62
7
100
AcDbPolyline
 90
65
 70
0
 10
-13.044551
 20
37.994283
 30
0.0
 10
-13.080040
 20
37.501633
 30
0.0
 10
-13.186495
 20
37.037922
 30
0.0
 10
-13.363916
 20
36.603153
 30
0.0
 10
-13.612303
 20
36.197323
 30
0.0
 10
-13.878958
 20
35.879682
 30
0.0
 10
-14.177304
 20
35.610276
 30
0.0
 10
-14.507343
 20
35.389101
 30
0.0
 10
-14.869075
 20
35.216158
 30
0.0
 10
-14.592094
 20
34.831684
 30
0.0
 10
-14.080837
 20
34.174363
 30
0.0
 10
-13.683968
 20
33.752683
 30
0.0
 10
-13.121722
 20
33.215248
 30
0.0
 10
-13.536518
 20
33.049882
 30
0.0
 10
-14.262738
 20
32.741202
 30
0.0
 10
-14.862189
 20
32.462840
 30
0.0
 10
-15.425801
 20
32.189988
 30
0.0
 10
-15.530192
 20
32.328480
 30
0.0
 10
-15.683498
 20
32.545520
 30
0.0
 10
-15.885727
 20
32.841109
 30
0.0
 10
-16.136871
 20
33.215248
 30
0.0
 10
-16.278465
 20
33.460538
 30
0.0
 10
-16.449686
 20
33.777485
 30
0.0
 10
-16.650535
 20
34.166094
 30
0.0
 10
-16.881009
 20
34.626359
 30
0.0
 10
-16.883832
 20
34.626359
 30
0.0
 10
-16.886654
 20
34.626359
 30
0.0
 10
-16.889476
 20
34.626359
 30
0.0
 10
-16.892298
 20
34.626359
 30
0.0
 10
-16.906071
 20
34.144047
 30
0.0
 10
-16.919843
 20
33.661732
 30
0.0
 10
-16.933616
 20
33.179420
 30
0.0
 10
-16.947388
 20
32.697105
 30
0.0
 10
-17.723223
 20
32.697105
 30
0.0
 10
-18.499060
 20
32.697105
 30
0.0
 10
-19.274894
 20
32.697105
 30
0.0
 10
-20.050729
 20
32.697105
 30
0.0
 10
-20.084147
 20
33.395424
 30
0.0
 10
-20.123765
 20
34.288739
 30
0.0
 10
-20.169587
 20
35.377045
 30
0.0
 10
-20.221606
 20
36.660343
 30
0.0
 10
-20.254335
 20
37.551586
 30
0.0
 10
-20.302911
 20
38.599238
 30
0.0
 10
-20.367334
 20
39.803299
 30
0.0
 10
-20.447604
 20
41.163771
 30
0.0
 10
-19.706220
 20
41.233703
 30
0.0
 10
-18.997910
 20
41.283656
 30
0.0
 10
-18.322671
 20
41.313628
 30
0.0
 10
-17.680505
 20
41.323619
 30
0.0
 10
-16.594009
 20
41.271594
 30
0.0
 10
-15.652380
 20
41.115531
 30
0.0
 10
-14.855616
 20
40.855424
 30
0.0
 10
-14.203720
 20
40.491278
 30
0.0
 10
-13.696688
 20
40.023088
 30
0.0
 10
-13.334520
 20
39.450860
 30
0.0
 10
-13.117218
 20
38.774588
 30
0.0
 10
-13.044782
 20
37.994277
 30
0.0
 10
-13.044782
 20
37.994277
 30
0.0
 10
-13.044780
 20
37.994277
 30
0.0
 10
-13.044780
 20
37.994277
 30
0.0
 10
-13.044777
 20
37.994277
 30
0.0
 10
-13.044777
 20
37.994277
 30
0.0
 10
-13.044777
 20
37.994277
 30
0.0
 10
-13.044774
 20
37.994277
 30
0.0
 10
-13.044551
 20
37.994283
 30
0.0
  0
LWPOLYLINE
  5
10b
100
AcDbEntity
  8
Text
 62
7
100
AcDbPolyline
 90
11
 70
0
 10
-15.547069
 20
36.803658
 30
0.0
 10
-15.657316
 20
37.252897
 30
0.0
 10
-15.988041
 20
37.553311
 30
0.0
 10
-16.354603
 20
37.671819
 30
0.0
 10
-16.803841
 20
37.696626
 30
0.0
 10
-16.820380
 20
36.754046
 30
0.0
 10
-16.836918
 20
35.811469
 30
0.0
 10
-16.404217
 20
35.862453
 30
0.0
 10
-16.021121
 20
36.015417
 30
0.0
 10
-15.665591
 20
36.344765
 30
0.0
 10
-15.547069
 20
36.803658
 30
0.0
  0
LWPOLYLINE
  5
10c
100
AcDbEntity
  8
Text
 62
7
100
AcDbPolyline
 90
6
 70
0
 10
-8.904927
 20
41.163771
 30
0.0
 10
-9.119898
 20
36.660343
 30
0.0
 10
-9.263216
 20
32.697105
 30
0.0
 10
-12.355534
 20
32.697105
 30
0.0
 10
-12.730359
 20
41.163771
 30
0.0
 10
-8.904927
 20
41.163771
 30
0.0
  0
LWPOLYLINE
  5
10d
100
AcDbEntity
  8
Text
 62
7
100
AcDbPolyline
 90
27
 70
0
 10
-1.678494
 20
41.163771
 30
0.0
 10
-1.770826
 20
39.635524
 30
0.0
 10
-1.893468
 20
37.277704
 30
0.0
 10
-1.969265
 20
35.085244
 30
0.0
 10
-2.031272
 20
32.586863
 30
0.0
 10
-2.942158
 20
33.293796
 30
0.0
 10
-4.230621
 20
34.279093
 30
0.0
 10
-5.027128
 20
34.837196
 30
0.0
 10
-6.137825
 20
35.618545
 30
0.0
 10
-6.165398
 20
34.157825
 30
0.0
 10
-6.192943
 20
32.697105
 30
0.0
 10
-7.080400
 20
32.697105
 30
0.0
 10
-7.967856
 20
32.697105
 30
0.0
 10
-8.040892
 20
34.312164
 30
0.0
 10
-8.171807
 20
36.919414
 30
0.0
 10
-8.310987
 20
39.237269
 30
0.0
 10
-8.452925
 20
41.163771
 30
0.0
 10
-7.069376
 20
41.163771
 30
0.0
 10
-5.685827
 20
41.163771
 30
0.0
 10
-4.660567
 20
40.193632
 30
0.0
 10
-3.635304
 20
39.223494
 30
0.0
 10
-3.640836
 20
39.818802
 30
0.0
 10
-3.657346
 20
40.270803
 30
0.0
 10
-3.682153
 20
40.662161
 30
0.0
 10
-3.723488
 20
41.163771
 30
0.0
 10
-2.700988
 20
41.163771
 30
0.0
 10
-1.678494
 20
41.163771
 30
0.0
  0
LWPOLYLINE
  5
10e
100
AcDbEntity
  8
Text
 62
7
100
AcDbPolyline
 90
42
 70
0
 10
6.148764
 20
36.318589
 30
0.0
 10
6.079857
 20
35.641969
 30
0.0
 10
5.983399
 20
34.549188
 30
0.0
 10
5.929650
 20
33.700317
 30
0.0
 10
5.878669
 20
32.708128
 30
0.0
 10
4.970537
 20
32.546900
 30
0.0
 10
3.723417
 20
32.493157
 30
0.0
 10
1.814830
 20
32.730178
 30
0.0
 10
1.008335
 20
33.026458
 30
0.0
 10
0.300369
 20
33.441246
 30
0.0
 10
-0.379693
 20
34.075142
 30
0.0
 10
-0.865451
 20
34.846845
 30
0.0
 10
-1.156905
 20
35.756348
 30
0.0
 10
-1.254057
 20
36.803658
 30
0.0
 10
-1.168964
 20
37.814445
 30
0.0
 10
-0.913683
 20
38.708102
 30
0.0
 10
-0.488213
 20
39.484628
 30
0.0
 10
0.107445
 20
40.144023
 30
0.0
 10
0.797495
 20
40.638389
 30
0.0
 10
1.588832
 20
40.991511
 30
0.0
 10
2.481456
 20
41.203387
 30
0.0
 10
3.475369
 20
41.274016
 30
0.0
 10
4.292541
 20
41.243691
 30
0.0
 10
5.167602
 20
41.152748
 30
0.0
 10
5.319183
 20
39.413663
 30
0.0
 10
5.470768
 20
37.674579
 30
0.0
 10
5.029793
 20
37.777929
 30
0.0
 10
4.434484
 20
37.812382
 30
0.0
 10
3.621439
 20
37.681465
 30
0.0
 10
2.891082
 20
37.288728
 30
0.0
 10
2.312303
 20
36.619000
 30
0.0
 10
2.119379
 20
35.789422
 30
0.0
 10
2.283364
 20
35.027366
 30
0.0
 10
2.775325
 20
34.460994
 30
0.0
 10
3.369256
 20
34.168848
 30
0.0
 10
4.048633
 20
34.086169
 30
0.0
 10
4.004536
 20
34.640140
 30
0.0
 10
3.960439
 20
35.194111
 30
0.0
 10
3.906698
 20
35.646104
 30
0.0
 10
3.811611
 20
36.318589
 30
0.0
 10
4.980189
 20
36.318589
 30
0.0
 10
6.148764
 20
36.318589
 30
0.0
  0
LWPOLYLINE
  5
10f
100
AcDbEntity
  8
Text
 62
7
100
AcDbPolyline
 90
26
 70
0
 10
13.832705
 20
37.994283
 30
0.0
 10
13.690761
 20
37.037922
 30
0.0
 10
13.264952
 20
36.197323
 30
0.0
 10
12.699952
 20
35.610276
 30
0.0
 10
12.008183
 20
35.216158
 30
0.0
 10
12.796421
 20
34.174363
 30
0.0
 10
13.755534
 20
33.215248
 30
0.0
 10
12.614518
 20
32.741202
 30
0.0
 10
11.451455
 20
32.189988
 30
0.0
 10
10.740387
 20
33.215248
 30
0.0
 10
9.996246
 20
34.626359
 30
0.0
 10
9.985211
 20
34.626359
 30
0.0
 10
9.930090
 20
32.697105
 30
0.0
 10
6.826747
 20
32.697105
 30
0.0
 10
6.655870
 20
36.660343
 30
0.0
 10
6.429872
 20
41.163771
 30
0.0
 10
7.879568
 20
41.283656
 30
0.0
 10
9.196973
 20
41.323625
 30
0.0
 10
11.225098
 20
41.115537
 30
0.0
 10
12.673759
 20
40.491284
 30
0.0
 10
13.542955
 20
39.450866
 30
0.0
 10
13.832693
 20
37.994283
 30
0.0
 10
13.832696
 20
37.994283
 30
0.0
 10
13.832699
 20
37.994283
 30
0.0
 10
13.832702
 20
37.994283
 30
0.0
 10
13.832705
 20
37.994283
 30
0.0
  0
LWPOLYLINE
  5
110
100
AcDbEntity
  8
Text
 62
7
100
AcDbPolyline
 90
11
 70
0
 10
11.330186
 20
36.803658
 30
0.0
 10
11.219939
 20
37.252897
 30
0.0
 10
10.889214
 20
37.553311
 30
0.0
 10
10.522656
 20
37.671819
 30
0.0
 10
10.073417
 20
37.696626
 30
0.0
 10
10.056879
 20
36.754046
 30
0.0
 10
10.040341
 20
35.811469
 30
0.0
 10
10.473044
 20
35.862453
 30
0.0
 10
10.856141
 20
36.015417
 30
0.0
 10
11.211670
 20
36.344765
 30
0.0
 10
11.330186
 20
36.803658
 30
0.0
  0
LWPOLYLINE
  5
111
100
AcDbEntity
  8
Text
 62
7
100
AcDbPolyline
 90
14
 70
0
 10
20.888260
 20
32.697105
 30
0.0
 10
17.873114
 20
32.697105
 30
0.0
 10
17.669163
 20
33.430222
 30
0.0
 10
17.035266
 20
33.093980
 30
0.0
 10
16.313173
 20
32.537254
 30
0.0
 10
15.998980
 20
33.204224
 30
0.0
 10
15.728885
 20
33.760950
 30
0.0
 10
15.431228
 20
32.697105
 30
0.0
 10
13.832705
 20
32.697105
 30
0.0
 10
14.924111
 20
37.189509
 30
0.0
 10
15.679276
 20
41.163771
 30
0.0
 10
18.992080
 20
41.163771
 30
0.0
 10
19.835439
 20
37.134389
 30
0.0
 10
20.888260
 20
32.697105
 30
0.0
  0
LWPOLYLINE
  5
112
100
AcDbEntity
  8
Text
 62
7
100
AcDbPolyline
 90
7
 70
0
 10
17.410091
 20
34.505091
 30
0.0
 10
17.079364
 20
35.453182
 30
0.0
 10
16.643903
 20
36.456392
 30
0.0
 10
16.247028
 20
35.409085
 30
0.0
 10
15.894250
 20
34.268069
 30
0.0
 10
16.643903
 20
34.334214
 30
0.0
 10
17.410091
 20
34.505091
 30
0.0
  0
LWPOLYLINE
  5
113
100
AcDbEntity
  8
Text
 62
7
100
AcDbPolyline
 90
25
 70
0
 10
28.235961
 20
37.823406
 30
0.0
 10
28.173429
 20
37.079781
 30
0.0
 10
27.985841
 20
36.414361
 30
0.0
 10
27.673201
 20
35.827144
 30
0.0
 10
27.235506
 20
35.318133
 30
0.0
 10
26.694452
 20
34.906958
 30
0.0
 10
26.071748
 20
34.613264
 30
0.0
 10
25.367398
 20
34.437050
 30
0.0
 10
24.581403
 20
34.378311
 30
0.0
 10
24.515256
 20
32.697105
 30
0.0
 10
21.478059
 20
32.697105
 30
0.0
 10
21.318209
 20
36.803658
 30
0.0
 10
21.092211
 20
41.163771
 30
0.0
 10
21.572110
 20
41.238526
 30
0.0
 10
22.151921
 20
41.291923
 30
0.0
 10
22.831637
 20
41.323963
 30
0.0
 10
23.611264
 20
41.334660
 30
0.0
 10
24.572443
 20
41.284012
 30
0.0
 10
25.433026
 20
41.132083
 30
0.0
 10
26.193016
 20
40.878868
 30
0.0
 10
26.852409
 20
40.524374
 30
0.0
 10
27.457708
 20
40.010360
 30
0.0
 10
27.890066
 20
39.388864
 30
0.0
 10
28.149485
 20
38.659884
 30
0.0
 10
28.235961
 20
37.823406
 30
0.0
  0
LWPOLYLINE
  5
114
100
AcDbEntity
  8
Text
 62
7
100
AcDbPolyline
 90
9
 70
0
 10
25.948417
 20
36.897364
 30
0.0
 10
25.693474
 20
37.542284
 30
0.0
 10
24.928669
 20
37.757262
 30
0.0
 10
24.680621
 20
37.740723
 30
0.0
 10
24.625500
 20
35.811469
 30
0.0
 10
25.617684
 20
36.104989
 30
0.0
 10
25.948417
 20
36.897362
 30
0.0
 10
25.948417
 20
36.897364
 30
0.0
 10
25.948417
 20
36.897364
 30
0.0
  0
ENDSEC
  0
SECTION
  2
OBJECTS
  0
DICTIONARY
  5
C
330
0
100
AcDbDictionary
  3
ACAD_GROUP
350
D
  3
ACAD_MLINESTYLE
350
17
  0
DICTIONARY
  5
D
330
C
100
AcDbDictionary
  0
DICTIONARY
  5
1A
330
C
100
AcDbDictionary
  0
DICTIONARY
  5
17
330
C
100
AcDbDictionary
  3
STANDARD
350
18
  0
DICTIONARY
  5
19
330
C
100
AcDbDictionary
  0
ENDSEC
  0
EOF
