solid OpenSCAD_Model
  facet normal -1 0 0
    outer loop
      vertex -15.283 -5.196 0
      vertex -15.283 -5.196 10
      vertex -15.283 0 0
    endloop
  endfacet
  facet normal -1 0 0
    outer loop
      vertex -15.283 0 0
      vertex -15.283 -5.196 10
      vertex -15.283 0 10
    endloop
  endfacet
  facet normal -0.806238 -0.591592 0
    outer loop
      vertex -15.283 -5.196 0
      vertex -8.762 -14.083 0
      vertex -15.283 -5.196 10
    endloop
  endfacet
  facet normal -0.806238 -0.591592 0
    outer loop
      vertex -15.283 -5.196 10
      vertex -8.762 -14.083 0
      vertex -8.762 -14.083 10
    endloop
  endfacet
  facet normal 0 0 -1
    outer loop
      vertex -15.283 -5.196 0
      vertex -15.283 0 0
      vertex -8.762 -14.083 0
    endloop
  endfacet
  facet normal 0 0 -1
    outer loop
      vertex -10.283 -5.196 0
      vertex -15.283 0 0
      vertex -10.283 0 0
    endloop
  endfacet
  facet normal 0 0 -1
    outer loop
      vertex -8.762 -14.083 0
      vertex -15.283 0 0
      vertex -10.283 -5.196 0
    endloop
  endfacet
  facet normal 0 0 -1
    outer loop
      vertex -3.762 -14.083 0
      vertex 3.929 -19.083 0
      vertex -8.762 -14.083 0
    endloop
  endfacet
  facet normal 0 0 -1
    outer loop
      vertex 10.283 -5.196 0
      vertex 10.283 0 0
      vertex 15.283 0 0
    endloop
  endfacet
  facet normal 0 0 -1
    outer loop
      vertex 10.283 -5.196 0
      vertex 15.283 0 0
      vertex 3.929 -14.083 0
    endloop
  endfacet
  facet normal 0 0 -1
    outer loop
      vertex 3.929 -14.083 0
      vertex 15.283 0 0
      vertex 15.283 -5.196 0
    endloop
  endfacet
  facet normal 0 0 -1
    outer loop
      vertex 3.929 -14.083 0
      vertex 15.283 -5.196 0
      vertex 8.929 -14.083 0
    endloop
  endfacet
  facet normal 0 0 -1
    outer loop
      vertex 3.929 -14.083 0
      vertex 8.929 -14.083 0
      vertex 3.929 -19.083 0
    endloop
  endfacet
  facet normal 0 0 -1
    outer loop
      vertex 3.929 -14.083 0
      vertex 3.929 -19.083 0
      vertex -3.762 -14.083 0
    endloop
  endfacet
  facet normal 0 0 -1
    outer loop
      vertex -8.762 -14.083 0
      vertex 3.929 -19.083 0
      vertex -3.762 -19.083 0
    endloop
  endfacet
  facet normal 0 0 -1
    outer loop
      vertex -3.762 -14.083 0
      vertex -8.762 -14.083 0
      vertex -10.283 -5.196 0
    endloop
  endfacet
  facet normal 0 1 0
    outer loop
      vertex -10.283 0 10
      vertex -10.283 0 0
      vertex -15.283 0 10
    endloop
  endfacet
  facet normal 0 1 0
    outer loop
      vertex -15.283 0 10
      vertex -10.283 0 0
      vertex -15.283 0 0
    endloop
  endfacet
  facet normal 0 0 1
    outer loop
      vertex -15.283 0 10
      vertex -15.283 -5.196 10
      vertex -8.762 -14.083 10
    endloop
  endfacet
  facet normal 0 0 1
    outer loop
      vertex -3.762 -14.083 10
      vertex -15.283 0 10
      vertex -3.762 -19.083 10
    endloop
  endfacet
  facet normal 0 0 1
    outer loop
      vertex -3.762 -19.083 10
      vertex -15.283 0 10
      vertex -8.762 -14.083 10
    endloop
  endfacet
  facet normal 0 0 1
    outer loop
      vertex -10.283 -5.196 10
      vertex -10.283 0 10
      vertex -15.283 0 10
    endloop
  endfacet
  facet normal 0 0 1
    outer loop
      vertex 10.283 -5.196 10
      vertex 3.929 -14.083 10
      vertex 8.929 -14.083 10
    endloop
  endfacet
  facet normal 0 0 1
    outer loop
      vertex 15.283 0 10
      vertex 10.283 0 10
      vertex 15.283 -5.196 10
    endloop
  endfacet
  facet normal 0 0 1
    outer loop
      vertex 15.283 -5.196 10
      vertex 10.283 -5.196 10
      vertex 8.929 -14.083 10
    endloop
  endfacet
  facet normal 0 0 1
    outer loop
      vertex 8.929 -14.083 10
      vertex 3.929 -14.083 10
      vertex 3.929 -19.083 10
    endloop
  endfacet
  facet normal 0 0 1
    outer loop
      vertex 3.929 -19.083 10
      vertex -3.762 -14.083 10
      vertex -3.762 -19.083 10
    endloop
  endfacet
  facet normal 0 0 1
    outer loop
      vertex -10.283 -5.196 10
      vertex -15.283 0 10
      vertex -3.762 -14.083 10
    endloop
  endfacet
  facet normal 0 0 1
    outer loop
      vertex 3.929 -14.083 10
      vertex -3.762 -14.083 10
      vertex 3.929 -19.083 10
    endloop
  endfacet
  facet normal 0 0 1
    outer loop
      vertex 10.283 0 10
      vertex 10.283 -5.196 10
      vertex 15.283 -5.196 10
    endloop
  endfacet
  facet normal -0.707107 -0.707107 0
    outer loop
      vertex -8.762 -14.083 10
      vertex -8.762 -14.083 0
      vertex -3.762 -19.083 0
    endloop
  endfacet
  facet normal -0.707107 -0.707107 0
    outer loop
      vertex -3.762 -19.083 10
      vertex -8.762 -14.083 10
      vertex -3.762 -19.083 0
    endloop
  endfacet
  facet normal 0 -1 0
    outer loop
      vertex -3.762 -19.083 10
      vertex -3.762 -19.083 0
      vertex 3.929 -19.083 0
    endloop
  endfacet
  facet normal 0 -1 0
    outer loop
      vertex 3.929 -19.083 10
      vertex -3.762 -19.083 10
      vertex 3.929 -19.083 0
    endloop
  endfacet
  facet normal 0.707107 -0.707107 0
    outer loop
      vertex 3.929 -19.083 10
      vertex 3.929 -19.083 0
      vertex 8.929 -14.083 0
    endloop
  endfacet
  facet normal 0.707107 -0.707107 0
    outer loop
      vertex 8.929 -14.083 10
      vertex 3.929 -19.083 10
      vertex 8.929 -14.083 0
    endloop
  endfacet
  facet normal 0.813467 -0.58161 0
    outer loop
      vertex 8.929 -14.083 10
      vertex 8.929 -14.083 0
      vertex 15.283 -5.196 0
    endloop
  endfacet
  facet normal 0.813467 -0.58161 0
    outer loop
      vertex 15.283 -5.196 10
      vertex 8.929 -14.083 10
      vertex 15.283 -5.196 0
    endloop
  endfacet
  facet normal 1 0 0
    outer loop
      vertex 15.283 -5.196 10
      vertex 15.283 -5.196 0
      vertex 15.283 0 0
    endloop
  endfacet
  facet normal 1 0 0
    outer loop
      vertex 15.283 0 10
      vertex 15.283 -5.196 10
      vertex 15.283 0 0
    endloop
  endfacet
  facet normal 0 1 0
    outer loop
      vertex 15.283 0 10
      vertex 15.283 0 0
      vertex 10.283 0 10
    endloop
  endfacet
  facet normal 0 1 0
    outer loop
      vertex 10.283 0 10
      vertex 15.283 0 0
      vertex 10.283 0 0
    endloop
  endfacet
  facet normal -1 0 0
    outer loop
      vertex 10.283 0 10
      vertex 10.283 0 0
      vertex 10.283 -5.196 10
    endloop
  endfacet
  facet normal -1 0 0
    outer loop
      vertex 10.283 -5.196 10
      vertex 10.283 0 0
      vertex 10.283 -5.196 0
    endloop
  endfacet
  facet normal -0.813467 0.58161 0
    outer loop
      vertex 10.283 -5.196 10
      vertex 10.283 -5.196 0
      vertex 3.929 -14.083 10
    endloop
  endfacet
  facet normal -0.813467 0.58161 0
    outer loop
      vertex 3.929 -14.083 10
      vertex 10.283 -5.196 0
      vertex 3.929 -14.083 0
    endloop
  endfacet
  facet normal 0 1 0
    outer loop
      vertex 3.929 -14.083 10
      vertex 3.929 -14.083 0
      vertex -3.762 -14.083 10
    endloop
  endfacet
  facet normal 0 1 0
    outer loop
      vertex -3.762 -14.083 10
      vertex 3.929 -14.083 0
      vertex -3.762 -14.083 0
    endloop
  endfacet
  facet normal 0.806238 0.591592 0
    outer loop
      vertex -10.283 -5.196 10
      vertex -3.762 -14.083 10
      vertex -3.762 -14.083 0
    endloop
  endfacet
  facet normal 0.806238 0.591592 0
    outer loop
      vertex -10.283 -5.196 0
      vertex -10.283 -5.196 10
      vertex -3.762 -14.083 0
    endloop
  endfacet
  facet normal 1 0 0
    outer loop
      vertex -10.283 0 0
      vertex -10.283 0 10
      vertex -10.283 -5.196 10
    endloop
  endfacet
  facet normal 1 0 0
    outer loop
      vertex -10.283 -5.196 0
      vertex -10.283 0 0
      vertex -10.283 -5.196 10
    endloop
  endfacet
endsolid OpenSCAD_Model
