  0
SECTION
  2
HEADER
  9
$ACADVER
  1
AC1014
  9
$HANDSEED
  5
FFFF
  9
$MEASUREMENT
 70
     1
  0
ENDSEC
  0
SECTION
  2
TABLES
  0
TABLE
  2
VPORT
  5
8
330
0
100
AcDbSymbolTable
 70
     4
  0
VPORT
  5
2E
330
8
100
AcDbSymbolTableRecord
100
AcDbViewportTableRecord
  2
*ACTIVE
 70
     0
 10
0.0
 20
0.0
 11
1.0
 21
1.0
 12
210.0
 22
148.5
 13
0.0
 23
0.0
 14
10.0
 24
10.0
 15
10.0
 25
10.0
 16
0.0
 26
0.0
 36
1.0
 17
0.0
 27
0.0
 37
0.0
 40
341.0
 41
1.24
 42
50.0
 43
0.0
 44
0.0
 50
0.0
 51
0.0
 71
     0
 72
   100
 73
     1
 74
     3
 75
     0
 76
     0
 77
     0
 78
     0
  0
ENDTAB
  0
TABLE
  2
LTYPE
  5
5
330
0
100
AcDbSymbolTable
 70
     1
  0
LTYPE
  5
14
330
5
100
AcDbSymbolTableRecord
100
AcDbLinetypeTableRecord
  2
BYBLOCK
 70
     0
  3

 72
    65
 73
     0
 40
0.0
  0
LTYPE
  5
15
330
5
100
AcDbSymbolTableRecord
100
AcDbLinetypeTableRecord
  2
BYLAYER
 70
     0
  3

 72
    65
 73
     0
 40
0.0
  0
LTYPE
  5
16
330
5
100
AcDbSymbolTableRecord
100
AcDbLinetypeTableRecord
  2
CONTINUOUS
 70
     0
  3
Solid line
 72
    65
 73
     0
 40
0.0
  0
ENDTAB
  0
TABLE
  2
LAYER
  5
2
100
AcDbSymbolTable
 70
6
  0
LAYER
  5
50
100
AcDbSymbolTableRecord
100
AcDbLayerTableRecord
  2
0
 70
0
  6
CONTINUOUS
  0
LAYER
  5
51
100
AcDbSymbolTableRecord
100
AcDbLayerTableRecord
  2
Nucleon_rear
 70
0
  6
CONTINUOUS
  0
LAYER
  5
52
100
AcDbSymbolTableRecord
100
AcDbLayerTableRecord
  2
Mavic
 70
0
  6
CONTINUOUS
  0
LAYER
  5
53
100
AcDbSymbolTableRecord
100
AcDbLayerTableRecord
  2
mavic_ksyrium
 70
0
  6
CONTINUOUS
  0
LAYER
  5
54
100
AcDbSymbolTableRecord
100
AcDbLayerTableRecord
  2
Nucleon_Front
 70
0
  6
CONTINUOUS
  0
LAYER
  5
55
100
AcDbSymbolTableRecord
100
AcDbLayerTableRecord
  2
Instructions
 70
0
  6
CONTINUOUS
  0
ENDTAB
  0
TABLE
  2
STYLE
  5
3
330
0
100
AcDbSymbolTable
 70
     1
  0
STYLE
  5
11
330
3
100
AcDbSymbolTableRecord
100
AcDbTextStyleTableRecord
  2
STANDARD
 70
     0
 40
0.0
 41
1.0
 50
0.0
 71
     0
 42
2.5
  3
txt
  4

  0
ENDTAB
  0
TABLE
  2
VIEW
  5
6
330
0
100
AcDbSymbolTable
 70
     0
  0
ENDTAB
  0
TABLE
  2
UCS
  5
7
330
0
100
AcDbSymbolTable
 70
     0
  0
ENDTAB
  0
TABLE
  2
APPID
  5
9
330
0
100
AcDbSymbolTable
 70
     2
  0
APPID
  5
12
330
9
100
AcDbSymbolTableRecord
100
AcDbRegAppTableRecord
  2
ACAD
 70
     0
  0
ENDTAB
  0
TABLE
  2
DIMSTYLE
  5
A
330
0
100
AcDbSymbolTable
 70
     1
  0
DIMSTYLE
105
27
330
A
100
AcDbSymbolTableRecord
100
AcDbDimStyleTableRecord
  2
ISO-25
 70
     0
  3

  4

  5

  6

  7

 40
1.0
 41
2.5
 42
0.625
 43
3.75
 44
1.25
 45
0.0
 46
0.0
 47
0.0
 48
0.0
140
2.5
141
2.5
142
0.0
143
0.03937007874016
144
1.0
145
0.0
146
1.0
147
0.625
 71
     0
 72
     0
 73
     0
 74
     0
 75
     0
 76
     0
 77
     1
 78
     8
170
     0
171
     3
172
     1
173
     0
174
     0
175
     0
176
     0
177
     0
178
     0
270
     2
271
     2
272
     2
273
     2
274
     3
340
11
275
     0
280
     0
281
     0
282
     0
283
     0
284
     8
285
     0
286
     0
287
     3
288
     0
  0
ENDTAB
  0
TABLE
  2
BLOCK_RECORD
  5
1
330
0
100
AcDbSymbolTable
 70
     1
  0
BLOCK_RECORD
  5
1F
330
1
100
AcDbSymbolTableRecord
100
AcDbBlockTableRecord
  2
*MODEL_SPACE
  0
BLOCK_RECORD
  5
1B
330
1
100
AcDbSymbolTableRecord
100
AcDbBlockTableRecord
  2
*PAPER_SPACE
  0
ENDTAB
  0
ENDSEC
  0
SECTION
  2
BLOCKS
  0
BLOCK
  5
20
330
1F
100
AcDbEntity
  8
0
100
AcDbBlockBegin
  2
*MODEL_SPACE
 70
     0
 10
0.0
 20
0.0
 30
0.0
  3
*MODEL_SPACE
  1

  0
ENDBLK
  5
21
330
1F
100
AcDbEntity
  8
0
100
AcDbBlockEnd
  0
BLOCK
  5
1C
330
1B
100
AcDbEntity
 67
     1
  8
0
100
AcDbBlockBegin
  2
*PAPER_SPACE
  1

  0
ENDBLK
  5
1D
330
1B
100
AcDbEntity
 67
     1
  8
0
100
AcDbBlockEnd
  0
ENDSEC
  0
SECTION
  2
ENTITIES
  0
LWPOLYLINE
  5
100
100
AcDbEntity
  8
Nucleon_rear
 62
7
100
AcDbPolyline
 90
7
 70
0
 10
-10.282745
 20
4.602991
 30
0.0
 10
-10.282745
 20
-5.471383
 30
0.0
 10
-5.954893
 20
-13.782740
 30
0.0
 10
6.188330
 20
-13.782740
 30
0.0
 10
10.183838
 20
-5.471383
 30
0.0
 10
10.183838
 20
4.602991
 30
0.0
 10
-10.282745
 20
4.602991
 30
0.0
  0
LWPOLYLINE
  5
101
100
AcDbEntity
  8
Nucleon_rear
 62
7
100
AcDbPolyline
 90
2
 70
0
 10
-10.282745
 20
-0.182338
 30
0.0
 10
10.183838
 20
-0.182338
 30
0.0
  0
LWPOLYLINE
  5
102
100
AcDbEntity
  8
Mavic
 62
7
100
AcDbPolyline
 90
20
 70
0
 10
-9.783838
 20
4.608127
 30
0.0
 10
-9.783838
 20
-6.198158
 30
0.0
 10
-9.562030
 20
-6.734479
 30
0.0
 10
-8.936435
 20
-8.148419
 30
0.0
 10
-7.966791
 20
-10.147439
 30
0.0
 10
-6.712834
 20
-12.438995
 30
0.0
 10
-5.234302
 20
-14.730552
 30
0.0
 10
-3.590932
 20
-16.729571
 30
0.0
 10
-1.842464
 20
-18.143511
 30
0.0
 10
-0.048633
 20
-18.679832
 30
0.0
 10
1.745197
 20
-18.143511
 30
0.0
 10
3.493666
 20
-16.729571
 30
0.0
 10
5.137035
 20
-14.730552
 30
0.0
 10
6.615567
 20
-12.438995
 30
0.0
 10
7.869527
 20
-10.147439
 30
0.0
 10
8.839172
 20
-8.148419
 30
0.0
 10
9.464766
 20
-6.734479
 30
0.0
 10
9.686574
 20
-6.198158
 30
0.0
 10
9.686574
 20
4.608127
 30
0.0
 10
-9.783838
 20
4.608127
 30
0.0
  0
LWPOLYLINE
  5
103
100
AcDbEntity
  8
Mavic
 62
7
100
AcDbPolyline
 90
2
 70
0
 10
-9.783838
 20
-0.166744
 30
0.0
 10
9.686574
 20
-0.166744
 30
0.0
  0
LWPOLYLINE
  5
104
100
AcDbEntity
  8
mavic_ksyrium
 62
7
100
AcDbPolyline
 90
7
 70
0
 10
-9.632730
 20
4.604243
 30
0.0
 10
-9.632730
 20
-6.198827
 30
0.0
 10
-5.462613
 20
-19.681725
 30
0.0
 10
5.629898
 20
-19.681725
 30
0.0
 10
9.633208
 20
-6.198827
 30
0.0
 10
9.633208
 20
4.604243
 30
0.0
 10
-9.632730
 20
4.604243
 30
0.0
  0
LWPOLYLINE
  5
105
100
AcDbEntity
  8
mavic_ksyrium
 62
7
100
AcDbPolyline
 90
2
 70
0
 10
-9.632730
 20
-0.169207
 30
0.0
 10
9.633208
 20
-0.169207
 30
0.0
  0
LWPOLYLINE
  5
106
100
AcDbEntity
  8
Nucleon_Front
 62
7
100
AcDbPolyline
 90
8
 70
0
 10
-10.283076
 20
4.604399
 30
0.0
 10
-10.283076
 20
-5.196134
 30
0.0
 10
-3.762251
 20
-14.083058
 30
0.0
 10
3.928976
 20
-14.083058
 30
0.0
 10
10.282602
 20
-5.196134
 30
0.0
 10
10.282602
 20
4.604399
 30
0.0
 10
-10.283076
 20
4.604399
 30
0.0
 10
-10.283076
 20
4.604399
 30
0.0
  0
SPLINE
  5
107
100
AcDbEntity
  8
Instructions
 62
1
100
AcDbSpline
 70
8
 71
3
 72
8
 73
4
 74
0
 40
0
 40
0
 40
0
 40
0
 40
1
 40
1
 40
1
 40
1
 10
21.721655
 20
199.617993
 30
0.0
 10
22.738701
 20
203.925822
 30
0.0
 10
25.448882
 20
207.287052
 30
0.0
 10
30.363516
 20
209.415812
 30
0.0
  0
LWPOLYLINE
  5
108
100
AcDbEntity
  8
Instructions
 62
1
100
AcDbPolyline
 90
2
 70
0
 10
21.822218
 20
195.897153
 30
0.0
 10
21.721655
 20
199.617993
 30
0.0
  0
SPLINE
  5
109
100
AcDbEntity
  8
Instructions
 62
1
100
AcDbSpline
 70
8
 71
3
 72
8
 73
4
 74
0
 40
0
 40
0
 40
0
 40
0
 40
1
 40
1
 40
1
 40
1
 10
34.966546
 20
209.415812
 30
0.0
 10
40.146786
 20
207.545587
 30
0.0
 10
42.223461
 20
203.898788
 30
0.0
 10
43.644436
 20
199.617993
 30
0.0
  0
LWPOLYLINE
  5
10a
100
AcDbEntity
  8
Instructions
 62
1
100
AcDbPolyline
 90
2
 70
0
 10
30.363516
 20
209.415812
 30
0.0
 10
34.966546
 20
209.415812
 30
0.0
  0
LWPOLYLINE
  5
10b
100
AcDbEntity
  8
Instructions
 62
1
100
AcDbPolyline
 90
3
 70
0
 10
43.644436
 20
199.617993
 30
0.0
 10
43.644436
 20
195.897153
 30
0.0
 10
21.822218
 20
195.897153
 30
0.0
  0
LWPOLYLINE
  5
10c
100
AcDbEntity
  8
Instructions
 62
5
100
AcDbPolyline
 90
2
 70
0
 10
21.617116
 20
199.617993
 30
0.0
 10
43.731993
 20
199.617993
 30
0.0
  0
SPLINE
  5
10d
100
AcDbEntity
  8
Instructions
 62
7
100
AcDbSpline
 70
8
 71
3
 72
8
 73
4
 74
0
 40
0
 40
0
 40
0
 40
0
 40
1
 40
1
 40
1
 40
1
 10
16.550069
 20
175.150280
 30
0.0
 10
18.139409
 20
181.982454
 30
0.0
 10
22.374616
 20
187.313333
 30
0.0
 10
30.054725
 20
190.689525
 30
0.0
  0
LWPOLYLINE
  5
10e
100
AcDbEntity
  8
Instructions
 62
7
100
AcDbPolyline
 90
2
 70
0
 10
16.707219
 20
169.249063
 30
0.0
 10
16.550069
 20
175.150280
 30
0.0
  0
SPLINE
  5
10f
100
AcDbEntity
  8
Instructions
 62
7
100
AcDbSpline
 70
8
 71
3
 72
8
 73
4
 74
0
 40
0
 40
0
 40
0
 40
0
 40
1
 40
1
 40
1
 40
1
 10
37.247892
 20
190.689525
 30
0.0
 10
45.343065
 20
187.723367
 30
0.0
 10
48.588291
 20
181.939579
 30
0.0
 10
50.808852
 20
175.150280
 30
0.0
  0
LWPOLYLINE
  5
110
100
AcDbEntity
  8
Instructions
 62
7
100
AcDbPolyline
 90
2
 70
0
 10
30.054725
 20
190.689525
 30
0.0
 10
37.247892
 20
190.689525
 30
0.0
  0
LWPOLYLINE
  5
111
100
AcDbEntity
  8
Instructions
 62
7
100
AcDbPolyline
 90
3
 70
0
 10
50.808852
 20
175.150280
 30
0.0
 10
50.808852
 20
169.249063
 30
0.0
 10
16.707219
 20
169.249063
 30
0.0
  0
LWPOLYLINE
  5
112
100
AcDbEntity
  8
Instructions
 62
7
100
AcDbPolyline
 90
2
 70
0
 10
16.386705
 20
175.150280
 30
0.0
 10
50.945676
 20
175.150280
 30
0.0
  0
LWPOLYLINE
  5
113
100
AcDbEntity
  8
Instructions
 62
7
100
AcDbPolyline
 90
13
 70
0
 10
17.173316
 20
138.608533
 30
0.0
 10
17.016166
 20
144.509750
 30
0.0
 10
18.716756
 20
149.345303
 30
0.0
 10
21.484455
 20
153.575367
 30
0.0
 10
25.394174
 20
157.157430
 30
0.0
 10
30.520822
 20
160.048995
 30
0.0
 10
37.713989
 20
160.048995
 30
0.0
 10
42.935772
 20
157.324385
 30
0.0
 10
46.697448
 20
153.713050
 30
0.0
 10
49.357635
 20
149.384875
 30
0.0
 10
51.274949
 20
144.509750
 30
0.0
 10
51.274949
 20
138.608533
 30
0.0
 10
17.173316
 20
138.608533
 30
0.0
  0
LWPOLYLINE
  5
114
100
AcDbEntity
  8
Instructions
 62
7
100
AcDbPolyline
 90
2
 70
0
 10
16.852802
 20
144.509750
 30
0.0
 10
51.411774
 20
144.509750
 30
0.0
  0
LWPOLYLINE
  5
115
100
AcDbEntity
  8
Instructions
 62
7
100
AcDbPolyline
 90
13
 70
0
 10
51.358014
 20
131.304192
 30
0.0
 10
51.515164
 20
125.402976
 30
0.0
 10
49.814574
 20
120.567422
 30
0.0
 10
47.046874
 20
116.337358
 30
0.0
 10
43.137155
 20
112.755296
 30
0.0
 10
38.010507
 20
109.863730
 30
0.0
 10
30.817341
 20
109.863730
 30
0.0
 10
25.595558
 20
112.588340
 30
0.0
 10
21.833882
 20
116.199676
 30
0.0
 10
19.173694
 20
120.527850
 30
0.0
 10
17.256381
 20
125.402976
 30
0.0
 10
17.256381
 20
131.304192
 30
0.0
 10
51.358014
 20
131.304192
 30
0.0
  0
LWPOLYLINE
  5
116
100
AcDbEntity
  8
Instructions
 62
7
100
AcDbPolyline
 90
2
 70
0
 10
51.678528
 20
125.402976
 30
0.0
 10
17.119556
 20
125.402976
 30
0.0
  0
LWPOLYLINE
  5
117
100
AcDbEntity
  8
Instructions
 62
7
100
AcDbPolyline
 90
13
 70
0
 10
16.960608
 20
5.600390
 30
0.0
 10
17.117759
 20
-0.300821
 30
0.0
 10
15.417168
 20
-5.136388
 30
0.0
 10
12.649469
 20
-9.366448
 30
0.0
 10
8.739750
 20
-12.948525
 30
0.0
 10
3.613102
 20
-15.840089
 30
0.0
 10
-3.580064
 20
-15.840089
 30
0.0
 10
-8.801847
 20
-13.115459
 30
0.0
 10
-12.563523
 20
-9.504144
 30
0.0
 10
-15.223711
 20
-5.175956
 30
0.0
 10
-17.141024
 20
-0.300821
 30
0.0
 10
-17.141024
 20
5.600390
 30
0.0
 10
16.960608
 20
5.600390
 30
0.0
  0
LWPOLYLINE
  5
118
100
AcDbEntity
  8
Instructions
 62
1
100
AcDbPolyline
 90
2
 70
0
 10
17.281123
 20
-0.300821
 30
0.0
 10
-17.277849
 20
-0.300821
 30
0.0
  0
LWPOLYLINE
  5
119
100
AcDbEntity
  8
Instructions
 62
7
100
AcDbPolyline
 90
2
 70
0
 10
39.252133
 20
100.405819
 30
0.0
 10
5.688715
 20
13.084048
 30
0.0
  0
ENDSEC
  0
SECTION
  2
OBJECTS
  0
DICTIONARY
  5
C
330
0
100
AcDbDictionary
  3
ACAD_GROUP
350
D
  3
ACAD_MLINESTYLE
350
17
  0
DICTIONARY
  5
D
330
C
100
AcDbDictionary
  0
DICTIONARY
  5
1A
330
C
100
AcDbDictionary
  0
DICTIONARY
  5
17
330
C
100
AcDbDictionary
  3
STANDARD
350
18
  0
DICTIONARY
  5
19
330
C
100
AcDbDictionary
  0
ENDSEC
  0
EOF
