  0
SECTION
  2
HEADER
  9
$ACADVER
  1
AC1014
  9
$HANDSEED
  5
FFFF
  9
$MEASUREMENT
 70
     1
  0
ENDSEC
  0
SECTION
  2
TABLES
  0
TABLE
  2
VPORT
  5
8
330
0
100
AcDbSymbolTable
 70
     4
  0
VPORT
  5
2E
330
8
100
AcDbSymbolTableRecord
100
AcDbViewportTableRecord
  2
*ACTIVE
 70
     0
 10
0.0
 20
0.0
 11
1.0
 21
1.0
 12
210.0
 22
148.5
 13
0.0
 23
0.0
 14
10.0
 24
10.0
 15
10.0
 25
10.0
 16
0.0
 26
0.0
 36
1.0
 17
0.0
 27
0.0
 37
0.0
 40
341.0
 41
1.24
 42
50.0
 43
0.0
 44
0.0
 50
0.0
 51
0.0
 71
     0
 72
   100
 73
     1
 74
     3
 75
     0
 76
     0
 77
     0
 78
     0
  0
ENDTAB
  0
TABLE
  2
LTYPE
  5
5
330
0
100
AcDbSymbolTable
 70
     1
  0
LTYPE
  5
14
330
5
100
AcDbSymbolTableRecord
100
AcDbLinetypeTableRecord
  2
BYBLOCK
 70
     0
  3

 72
    65
 73
     0
 40
0.0
  0
LTYPE
  5
15
330
5
100
AcDbSymbolTableRecord
100
AcDbLinetypeTableRecord
  2
BYLAYER
 70
     0
  3

 72
    65
 73
     0
 40
0.0
  0
LTYPE
  5
16
330
5
100
AcDbSymbolTableRecord
100
AcDbLinetypeTableRecord
  2
CONTINUOUS
 70
     0
  3
Solid line
 72
    65
 73
     0
 40
0.0
  0
ENDTAB
  0
TABLE
  2
LAYER
  5
2
100
AcDbSymbolTable
 70
5
  0
LAYER
  5
50
100
AcDbSymbolTableRecord
100
AcDbLayerTableRecord
  2
0
 70
0
  6
CONTINUOUS
  0
LAYER
  5
51
100
AcDbSymbolTableRecord
100
AcDbLayerTableRecord
  2
Nucleon_rear
 70
0
  6
CONTINUOUS
  0
LAYER
  5
52
100
AcDbSymbolTableRecord
100
AcDbLayerTableRecord
  2
Mavic
 70
0
  6
CONTINUOUS
  0
LAYER
  5
53
100
AcDbSymbolTableRecord
100
AcDbLayerTableRecord
  2
mavic_ksyrium
 70
0
  6
CONTINUOUS
  0
LAYER
  5
54
100
AcDbSymbolTableRecord
100
AcDbLayerTableRecord
  2
Nucleon_Front
 70
0
  6
CONTINUOUS
  0
ENDTAB
  0
TABLE
  2
STYLE
  5
3
330
0
100
AcDbSymbolTable
 70
     1
  0
STYLE
  5
11
330
3
100
AcDbSymbolTableRecord
100
AcDbTextStyleTableRecord
  2
STANDARD
 70
     0
 40
0.0
 41
1.0
 50
0.0
 71
     0
 42
2.5
  3
txt
  4

  0
ENDTAB
  0
TABLE
  2
VIEW
  5
6
330
0
100
AcDbSymbolTable
 70
     0
  0
ENDTAB
  0
TABLE
  2
UCS
  5
7
330
0
100
AcDbSymbolTable
 70
     0
  0
ENDTAB
  0
TABLE
  2
APPID
  5
9
330
0
100
AcDbSymbolTable
 70
     2
  0
APPID
  5
12
330
9
100
AcDbSymbolTableRecord
100
AcDbRegAppTableRecord
  2
ACAD
 70
     0
  0
ENDTAB
  0
TABLE
  2
DIMSTYLE
  5
A
330
0
100
AcDbSymbolTable
 70
     1
  0
DIMSTYLE
105
27
330
A
100
AcDbSymbolTableRecord
100
AcDbDimStyleTableRecord
  2
ISO-25
 70
     0
  3

  4

  5

  6

  7

 40
1.0
 41
2.5
 42
0.625
 43
3.75
 44
1.25
 45
0.0
 46
0.0
 47
0.0
 48
0.0
140
2.5
141
2.5
142
0.0
143
0.03937007874016
144
1.0
145
0.0
146
1.0
147
0.625
 71
     0
 72
     0
 73
     0
 74
     0
 75
     0
 76
     0
 77
     1
 78
     8
170
     0
171
     3
172
     1
173
     0
174
     0
175
     0
176
     0
177
     0
178
     0
270
     2
271
     2
272
     2
273
     2
274
     3
340
11
275
     0
280
     0
281
     0
282
     0
283
     0
284
     8
285
     0
286
     0
287
     3
288
     0
  0
ENDTAB
  0
TABLE
  2
BLOCK_RECORD
  5
1
330
0
100
AcDbSymbolTable
 70
     1
  0
BLOCK_RECORD
  5
1F
330
1
100
AcDbSymbolTableRecord
100
AcDbBlockTableRecord
  2
*MODEL_SPACE
  0
BLOCK_RECORD
  5
1B
330
1
100
AcDbSymbolTableRecord
100
AcDbBlockTableRecord
  2
*PAPER_SPACE
  0
ENDTAB
  0
ENDSEC
  0
SECTION
  2
BLOCKS
  0
BLOCK
  5
20
330
1F
100
AcDbEntity
  8
0
100
AcDbBlockBegin
  2
*MODEL_SPACE
 70
     0
 10
0.0
 20
0.0
 30
0.0
  3
*MODEL_SPACE
  1

  0
ENDBLK
  5
21
330
1F
100
AcDbEntity
  8
0
100
AcDbBlockEnd
  0
BLOCK
  5
1C
330
1B
100
AcDbEntity
 67
     1
  8
0
100
AcDbBlockBegin
  2
*PAPER_SPACE
  1

  0
ENDBLK
  5
1D
330
1B
100
AcDbEntity
 67
     1
  8
0
100
AcDbBlockEnd
  0
ENDSEC
  0
SECTION
  2
ENTITIES
  0
LINE
  5
100
100
AcDbEntity
  8
Nucleon_rear
 62
7
100
AcDbLine
 10
-10.282745
 20
4.602991
 30
0.0
 11
-10.282745
 21
-5.471383
 31
0.0
  0
LINE
  5
101
100
AcDbEntity
  8
Nucleon_rear
 62
7
100
AcDbLine
 10
-10.282745
 20
-5.471383
 30
0.0
 11
-5.954893
 21
-13.782740
 31
0.0
  0
LINE
  5
102
100
AcDbEntity
  8
Nucleon_rear
 62
7
100
AcDbLine
 10
-5.954893
 20
-13.782740
 30
0.0
 11
6.188330
 21
-13.782740
 31
0.0
  0
LINE
  5
103
100
AcDbEntity
  8
Nucleon_rear
 62
7
100
AcDbLine
 10
6.188330
 20
-13.782740
 30
0.0
 11
10.183838
 21
-5.471383
 31
0.0
  0
LINE
  5
104
100
AcDbEntity
  8
Nucleon_rear
 62
7
100
AcDbLine
 10
10.183838
 20
-5.471383
 30
0.0
 11
10.183838
 21
4.602991
 31
0.0
  0
LINE
  5
105
100
AcDbEntity
  8
Nucleon_rear
 62
7
100
AcDbLine
 10
10.183838
 20
4.602991
 30
0.0
 11
-10.282745
 21
4.602991
 31
0.0
  0
LINE
  5
106
100
AcDbEntity
  8
Nucleon_rear
 62
7
100
AcDbLine
 10
-10.282745
 20
-0.182338
 30
0.0
 11
10.183838
 21
-0.182338
 31
0.0
  0
LINE
  5
107
100
AcDbEntity
  8
Mavic
 62
7
100
AcDbLine
 10
-9.783838
 20
4.608127
 30
0.0
 11
-9.783838
 21
-6.198158
 31
0.0
  0
LINE
  5
108
100
AcDbEntity
  8
Mavic
 62
7
100
AcDbLine
 10
-9.783838
 20
-6.198158
 30
0.0
 11
-9.562030
 21
-6.734479
 31
0.0
  0
LINE
  5
109
100
AcDbEntity
  8
Mavic
 62
7
100
AcDbLine
 10
-9.562030
 20
-6.734479
 30
0.0
 11
-8.936435
 21
-8.148419
 31
0.0
  0
LINE
  5
10a
100
AcDbEntity
  8
Mavic
 62
7
100
AcDbLine
 10
-8.936435
 20
-8.148419
 30
0.0
 11
-7.966791
 21
-10.147439
 31
0.0
  0
LINE
  5
10b
100
AcDbEntity
  8
Mavic
 62
7
100
AcDbLine
 10
-7.966791
 20
-10.147439
 30
0.0
 11
-6.712834
 21
-12.438995
 31
0.0
  0
LINE
  5
10c
100
AcDbEntity
  8
Mavic
 62
7
100
AcDbLine
 10
-6.712834
 20
-12.438995
 30
0.0
 11
-5.234302
 21
-14.730552
 31
0.0
  0
LINE
  5
10d
100
AcDbEntity
  8
Mavic
 62
7
100
AcDbLine
 10
-5.234302
 20
-14.730552
 30
0.0
 11
-3.590932
 21
-16.729571
 31
0.0
  0
LINE
  5
10e
100
AcDbEntity
  8
Mavic
 62
7
100
AcDbLine
 10
-3.590932
 20
-16.729571
 30
0.0
 11
-1.842464
 21
-18.143511
 31
0.0
  0
LINE
  5
10f
100
AcDbEntity
  8
Mavic
 62
7
100
AcDbLine
 10
-1.842464
 20
-18.143511
 30
0.0
 11
-0.048633
 21
-18.679832
 31
0.0
  0
LINE
  5
110
100
AcDbEntity
  8
Mavic
 62
7
100
AcDbLine
 10
-0.048633
 20
-18.679832
 30
0.0
 11
1.745197
 21
-18.143511
 31
0.0
  0
LINE
  5
111
100
AcDbEntity
  8
Mavic
 62
7
100
AcDbLine
 10
1.745197
 20
-18.143511
 30
0.0
 11
3.493666
 21
-16.729571
 31
0.0
  0
LINE
  5
112
100
AcDbEntity
  8
Mavic
 62
7
100
AcDbLine
 10
3.493666
 20
-16.729571
 30
0.0
 11
5.137035
 21
-14.730552
 31
0.0
  0
LINE
  5
113
100
AcDbEntity
  8
Mavic
 62
7
100
AcDbLine
 10
5.137035
 20
-14.730552
 30
0.0
 11
6.615567
 21
-12.438995
 31
0.0
  0
LINE
  5
114
100
AcDbEntity
  8
Mavic
 62
7
100
AcDbLine
 10
6.615567
 20
-12.438995
 30
0.0
 11
7.869527
 21
-10.147439
 31
0.0
  0
LINE
  5
115
100
AcDbEntity
  8
Mavic
 62
7
100
AcDbLine
 10
7.869527
 20
-10.147439
 30
0.0
 11
8.839172
 21
-8.148419
 31
0.0
  0
LINE
  5
116
100
AcDbEntity
  8
Mavic
 62
7
100
AcDbLine
 10
8.839172
 20
-8.148419
 30
0.0
 11
9.464766
 21
-6.734479
 31
0.0
  0
LINE
  5
117
100
AcDbEntity
  8
Mavic
 62
7
100
AcDbLine
 10
9.464766
 20
-6.734479
 30
0.0
 11
9.686574
 21
-6.198158
 31
0.0
  0
LINE
  5
118
100
AcDbEntity
  8
Mavic
 62
7
100
AcDbLine
 10
9.686574
 20
-6.198158
 30
0.0
 11
9.686574
 21
4.608127
 31
0.0
  0
LINE
  5
119
100
AcDbEntity
  8
Mavic
 62
7
100
AcDbLine
 10
9.686574
 20
4.608127
 30
0.0
 11
-9.783838
 21
4.608127
 31
0.0
  0
LINE
  5
11a
100
AcDbEntity
  8
Mavic
 62
7
100
AcDbLine
 10
-9.783838
 20
-0.166744
 30
0.0
 11
9.686574
 21
-0.166744
 31
0.0
  0
LINE
  5
11b
100
AcDbEntity
  8
mavic_ksyrium
 62
7
100
AcDbLine
 10
-9.632730
 20
4.604243
 30
0.0
 11
-9.632730
 21
-6.198827
 31
0.0
  0
LINE
  5
11c
100
AcDbEntity
  8
mavic_ksyrium
 62
7
100
AcDbLine
 10
-9.632730
 20
-6.198827
 30
0.0
 11
-5.462613
 21
-19.681725
 31
0.0
  0
LINE
  5
11d
100
AcDbEntity
  8
mavic_ksyrium
 62
7
100
AcDbLine
 10
-5.462613
 20
-19.681725
 30
0.0
 11
5.629898
 21
-19.681725
 31
0.0
  0
LINE
  5
11e
100
AcDbEntity
  8
mavic_ksyrium
 62
7
100
AcDbLine
 10
5.629898
 20
-19.681725
 30
0.0
 11
9.633208
 21
-6.198827
 31
0.0
  0
LINE
  5
11f
100
AcDbEntity
  8
mavic_ksyrium
 62
7
100
AcDbLine
 10
9.633208
 20
-6.198827
 30
0.0
 11
9.633208
 21
4.604243
 31
0.0
  0
LINE
  5
120
100
AcDbEntity
  8
mavic_ksyrium
 62
7
100
AcDbLine
 10
9.633208
 20
4.604243
 30
0.0
 11
-9.632730
 21
4.604243
 31
0.0
  0
LINE
  5
121
100
AcDbEntity
  8
mavic_ksyrium
 62
7
100
AcDbLine
 10
-9.632730
 20
-0.169207
 30
0.0
 11
9.633208
 21
-0.169207
 31
0.0
  0
LINE
  5
122
100
AcDbEntity
  8
Nucleon_Front
 62
7
100
AcDbLine
 10
-10.283076
 20
4.604399
 30
0.0
 11
-10.283076
 21
-5.196134
 31
0.0
  0
LINE
  5
123
100
AcDbEntity
  8
Nucleon_Front
 62
7
100
AcDbLine
 10
-10.283076
 20
-5.196134
 30
0.0
 11
-3.762251
 21
-14.083058
 31
0.0
  0
LINE
  5
124
100
AcDbEntity
  8
Nucleon_Front
 62
7
100
AcDbLine
 10
-3.762251
 20
-14.083058
 30
0.0
 11
3.928976
 21
-14.083058
 31
0.0
  0
LINE
  5
125
100
AcDbEntity
  8
Nucleon_Front
 62
7
100
AcDbLine
 10
3.928976
 20
-14.083058
 30
0.0
 11
10.282602
 21
-5.196134
 31
0.0
  0
LINE
  5
126
100
AcDbEntity
  8
Nucleon_Front
 62
7
100
AcDbLine
 10
10.282602
 20
-5.196134
 30
0.0
 11
10.282602
 21
4.604399
 31
0.0
  0
LINE
  5
127
100
AcDbEntity
  8
Nucleon_Front
 62
7
100
AcDbLine
 10
10.282602
 20
4.604399
 30
0.0
 11
-10.283076
 21
4.604399
 31
0.0
  0
LINE
  5
128
100
AcDbEntity
  8
Nucleon_Front
 62
7
100
AcDbLine
 10
-10.283076
 20
4.604399
 30
0.0
 11
-10.283076
 21
4.604399
 31
0.0
  0
ENDSEC
  0
SECTION
  2
OBJECTS
  0
DICTIONARY
  5
C
330
0
100
AcDbDictionary
  3
ACAD_GROUP
350
D
  3
ACAD_MLINESTYLE
350
17
  0
DICTIONARY
  5
D
330
C
100
AcDbDictionary
  0
DICTIONARY
  5
1A
330
C
100
AcDbDictionary
  0
DICTIONARY
  5
17
330
C
100
AcDbDictionary
  3
STANDARD
350
18
  0
DICTIONARY
  5
19
330
C
100
AcDbDictionary
  0
ENDSEC
  0
EOF
