<?xml version="1.0" encoding="UTF-8" standalone="no"?>
<!-- Created with Inkscape (http://www.inkscape.org/) -->

<svg
   xmlns:dc="http://purl.org/dc/elements/1.1/"
   xmlns:cc="http://creativecommons.org/ns#"
   xmlns:rdf="http://www.w3.org/1999/02/22-rdf-syntax-ns#"
   xmlns:svg="http://www.w3.org/2000/svg"
   xmlns="http://www.w3.org/2000/svg"
   xmlns:sodipodi="http://sodipodi.sourceforge.net/DTD/sodipodi-0.dtd"
   xmlns:inkscape="http://www.inkscape.org/namespaces/inkscape"
   width="744.09448"
   height="1052.3622"
   id="svg2"
   version="1.1"
   inkscape:version="0.48.4 r9939"
   sodipodi:docname="Rim_cross_section.dxf">
  <defs
     id="defs4" />
  <sodipodi:namedview
     id="base"
     pagecolor="#ffffff"
     bordercolor="#666666"
     borderopacity="1.0"
     inkscape:pageopacity="0.0"
     inkscape:pageshadow="2"
     inkscape:zoom="2.806416"
     inkscape:cx="-2.9625302"
     inkscape:cy="8.5821518"
     inkscape:document-units="mm"
     inkscape:current-layer="layer2"
     showgrid="false"
     inkscape:window-width="1218"
     inkscape:window-height="697"
     inkscape:window-x="54"
     inkscape:window-y="-8"
     inkscape:window-maximized="1"
     units="mm"
     showguides="true"
     inkscape:guide-bbox="true" />
  <metadata
     id="metadata7">
    <rdf:RDF>
      <cc:Work
         rdf:about="">
        <dc:format>image/svg+xml</dc:format>
        <dc:type
           rdf:resource="http://purl.org/dc/dcmitype/StillImage" />
        <dc:title></dc:title>
      </cc:Work>
    </rdf:RDF>
  </metadata>
  <g
     inkscape:label="Nucleon rear"
     inkscape:groupmode="layer"
     id="layer1"
     transform="translate(0,-2.5390623e-6)"
     style="display:none">
    <g
       id="g3018"
       transform="matrix(0.82706938,0,0,0.83482911,-70.610728,661.12926)">
      <path
         transform="translate(0,2.5390623e-6)"
         inkscape:connector-curvature="0"
         id="path3006"
         d="m 41.321569,449.10165 0,42.75917 18.541259,35.27631 52.023652,0 17.11744,-35.27631 0,-42.75917 z"
         style="fill:none;stroke:#000000;stroke-width:1px;stroke-linecap:butt;stroke-linejoin:miter;stroke-opacity:1" />
      <path
         transform="translate(0,2.5390623e-6)"
         inkscape:connector-curvature="0"
         id="path3016"
         d="m 41.321569,469.41226 87.682351,0"
         style="fill:none;stroke:#000000;stroke-width:1px;stroke-linecap:butt;stroke-linejoin:miter;stroke-opacity:1" />
    </g>
  </g>
  <g
     inkscape:groupmode="layer"
     id="layer3"
     inkscape:label="Mavic"
     style="display:none">
    <g
       transform="matrix(0.81350276,0,0,0.83300475,-235.54877,661.93038)"
       id="g3061">
      <path
         sodipodi:nodetypes="cccccccccccccccccccc"
         transform="translate(0,2.5390623e-6)"
         inkscape:connector-curvature="0"
         id="path3057"
         d="m 246.93417,449.10165 0,45.96611 0.96611,2.28132 2.72485,6.0144 4.2234,8.50312 5.46176,9.74747 6.43992,9.74747 7.15789,8.50312 7.61566,6.0144 7.81324,2.28132 7.81324,-2.28132 7.61566,-6.0144 7.15789,-8.50312 6.43992,-9.74747 5.46177,-9.74747 4.2234,-8.50312 2.72485,-6.0144 0.96611,-2.28132 0,-45.96611 z"
         style="fill:none;stroke:#000000;stroke-width:1px;stroke-linecap:butt;stroke-linejoin:miter;stroke-opacity:1" />
      <path
         transform="translate(0,2.5390623e-6)"
         inkscape:connector-curvature="0"
         id="path3059"
         d="m 246.93417,469.41226 84.80567,0"
         style="fill:none;stroke:#000000;stroke-width:1px;stroke-linecap:butt;stroke-linejoin:miter;stroke-opacity:1" />
    </g>
  </g>
  <g
     inkscape:groupmode="layer"
     id="layer4"
     inkscape:label="mavic ksyrium"
     style="display:none">
    <g
       transform="matrix(0.82935224,0,0,0.83275689,-319.6041,662.05546)"
       id="g3107">
      <path
         sodipodi:nodetypes="ccccccc"
         inkscape:connector-curvature="0"
         id="path3103"
         d="m 344.21126,449.10165 0,45.96611 17.81632,57.36854 47.39141,0 17.10366,-57.36854 0,-45.96611 z"
         style="fill:none;stroke:#000000;stroke-width:1px;stroke-linecap:butt;stroke-linejoin:miter;stroke-opacity:1" />
      <path
         inkscape:connector-curvature="0"
         id="path3105"
         d="m 344.21126,469.41226 82.31139,0"
         style="fill:none;stroke:#000000;stroke-width:1px;stroke-linecap:butt;stroke-linejoin:miter;stroke-opacity:1" />
    </g>
  </g>
  <g
     inkscape:groupmode="layer"
     id="layer2"
     inkscape:label="Nucleon_Front"
     style="display:inline">
    <path
       style="fill:none;stroke:#000000;stroke-width:0.8286075px;stroke-linecap:butt;stroke-linejoin:miter;stroke-opacity:1"
       d="m -36.436095,1036.0474 0,34.7263 23.105285,31.4891 27.25238,0 22.512845,-31.4891 0,-34.7263 -72.87051,0 z"
       id="path3024-7"
       inkscape:connector-curvature="0" />
  </g>
</svg>
