solid OpenSCAD_Model
  facet normal 0 -1 0
    outer loop
      vertex 209.911 162.636 36.0713
      vertex 227.636 162.636 0
      vertex 220.896 162.636 29.7178
    endloop
  endfacet
  facet normal 0 -1 0
    outer loop
      vertex 227.636 162.636 0
      vertex 193.822 162.636 38
      vertex 167.636 162.636 0
    endloop
  endfacet
  facet normal 0 -1 -0
    outer loop
      vertex 227.636 162.636 29.7178
      vertex 220.896 162.636 29.7178
      vertex 227.636 162.636 0
    endloop
  endfacet
  facet normal -0 -1 0
    outer loop
      vertex 220.419 162.636 50
      vertex 167.636 162.636 50
      vertex 194.469 162.636 41.9563
    endloop
  endfacet
  facet normal -0 -1 0
    outer loop
      vertex 190.863 162.636 39.382
      vertex 167.636 162.636 50
      vertex 167.636 162.636 0
    endloop
  endfacet
  facet normal -0 -1 -0
    outer loop
      vertex 190.728 162.636 40.2091
      vertex 167.636 162.636 50
      vertex 190.863 162.636 39.382
    endloop
  endfacet
  facet normal -0 -1 0
    outer loop
      vertex 190.964 162.636 40.6754
      vertex 167.636 162.636 50
      vertex 190.728 162.636 40.2091
    endloop
  endfacet
  facet normal -0 -1 0
    outer loop
      vertex 191.128 162.636 41
      vertex 167.636 162.636 50
      vertex 190.964 162.636 40.6754
    endloop
  endfacet
  facet normal -0 -1 0
    outer loop
      vertex 191.478 162.636 41.2501
      vertex 167.636 162.636 50
      vertex 191.128 162.636 41
    endloop
  endfacet
  facet normal 0 -1 0
    outer loop
      vertex 167.636 162.636 50
      vertex 191.994 162.636 41.618
      vertex 192.459 162.636 41.7513
    endloop
  endfacet
  facet normal -0 -1 0
    outer loop
      vertex 191.994 162.636 41.618
      vertex 167.636 162.636 50
      vertex 191.478 162.636 41.2501
    endloop
  endfacet
  facet normal 0 -1 0
    outer loop
      vertex 167.636 162.636 50
      vertex 192.459 162.636 41.7513
      vertex 193.176 162.636 41.9563
    endloop
  endfacet
  facet normal 0 -1 0
    outer loop
      vertex 220.419 162.636 50
      vertex 194.469 162.636 41.9563
      vertex 209.911 162.636 43.7627
    endloop
  endfacet
  facet normal 0 -1 0
    outer loop
      vertex 193.176 162.636 41.9563
      vertex 194.469 162.636 41.9563
      vertex 167.636 162.636 50
    endloop
  endfacet
  facet normal 0 -1 0
    outer loop
      vertex 194.469 162.636 41.9563
      vertex 194.903 162.636 41.8321
      vertex 209.911 162.636 43.7627
    endloop
  endfacet
  facet normal 0 -1 0
    outer loop
      vertex 227.636 162.636 0
      vertex 209.911 162.636 36.0713
      vertex 194.619 162.636 38.1089
    endloop
  endfacet
  facet normal 0 -1 0
    outer loop
      vertex 194.903 162.636 41.8321
      vertex 195.651 162.636 41.618
      vertex 209.911 162.636 43.7627
    endloop
  endfacet
  facet normal 0 -1 0
    outer loop
      vertex 196.917 162.636 40.2091
      vertex 209.911 162.636 36.0713
      vertex 209.911 162.636 43.7627
    endloop
  endfacet
  facet normal 0 -1 0
    outer loop
      vertex 196.212 162.636 41.218
      vertex 209.911 162.636 43.7627
      vertex 195.651 162.636 41.618
    endloop
  endfacet
  facet normal 0 -1 0
    outer loop
      vertex 196.517 162.636 41
      vertex 209.911 162.636 43.7627
      vertex 196.212 162.636 41.218
    endloop
  endfacet
  facet normal 0 -1 0
    outer loop
      vertex 196.778 162.636 40.4832
      vertex 209.911 162.636 43.7627
      vertex 196.517 162.636 41
    endloop
  endfacet
  facet normal 0 -1 0
    outer loop
      vertex 196.917 162.636 40.2091
      vertex 209.911 162.636 43.7627
      vertex 196.778 162.636 40.4832
    endloop
  endfacet
  facet normal 0 -1 0
    outer loop
      vertex 196.87 162.636 39.9232
      vertex 209.911 162.636 36.0713
      vertex 196.917 162.636 40.2091
    endloop
  endfacet
  facet normal 0 -1 0
    outer loop
      vertex 196.782 162.636 39.382
      vertex 209.911 162.636 36.0713
      vertex 196.87 162.636 39.9232
    endloop
  endfacet
  facet normal 0 -1 -0
    outer loop
      vertex 196.782 162.636 39.382
      vertex 196.556 162.636 39.1306
      vertex 209.911 162.636 36.0713
    endloop
  endfacet
  facet normal 0 -1 -0
    outer loop
      vertex 196.556 162.636 39.1306
      vertex 196.135 162.636 38.6617
      vertex 209.911 162.636 36.0713
    endloop
  endfacet
  facet normal 0 -1 -0
    outer loop
      vertex 196.135 162.636 38.6617
      vertex 195.466 162.636 38.3494
      vertex 209.911 162.636 36.0713
    endloop
  endfacet
  facet normal 0 -1 -0
    outer loop
      vertex 195.466 162.636 38.3494
      vertex 195.088 162.636 38.1729
      vertex 209.911 162.636 36.0713
    endloop
  endfacet
  facet normal 0 -1 -0
    outer loop
      vertex 195.088 162.636 38.1729
      vertex 194.619 162.636 38.1089
      vertex 209.911 162.636 36.0713
    endloop
  endfacet
  facet normal 0 -1 -0
    outer loop
      vertex 194.619 162.636 38.1089
      vertex 193.822 162.636 38
      vertex 227.636 162.636 0
    endloop
  endfacet
  facet normal -0 -1 0
    outer loop
      vertex 193.822 162.636 38
      vertex 193.336 162.636 38.0665
      vertex 167.636 162.636 0
    endloop
  endfacet
  facet normal -0 -1 0
    outer loop
      vertex 193.336 162.636 38.0665
      vertex 192.557 162.636 38.1729
      vertex 167.636 162.636 0
    endloop
  endfacet
  facet normal -0 -1 0
    outer loop
      vertex 192.557 162.636 38.1729
      vertex 191.929 162.636 38.4663
      vertex 167.636 162.636 0
    endloop
  endfacet
  facet normal -0 -1 0
    outer loop
      vertex 191.929 162.636 38.4663
      vertex 191.51 162.636 38.6617
      vertex 167.636 162.636 0
    endloop
  endfacet
  facet normal -0 -1 0
    outer loop
      vertex 191.51 162.636 38.6617
      vertex 191.247 162.636 38.955
      vertex 167.636 162.636 0
    endloop
  endfacet
  facet normal -0 -1 0
    outer loop
      vertex 191.247 162.636 38.955
      vertex 190.863 162.636 39.382
      vertex 167.636 162.636 0
    endloop
  endfacet
  facet normal 0.77301 -0.634393 0
    outer loop
      vertex 231.583 164.601 29.7178
      vertex 231.172 164.101 29.7178
      vertex 231.172 164.101 0
    endloop
  endfacet
  facet normal 0.77301 -0.634393 0
    outer loop
      vertex 231.794 164.858 0
      vertex 231.794 164.858 30
      vertex 231.583 164.601 29.7178
    endloop
  endfacet
  facet normal 0.77301 -0.634393 0
    outer loop
      vertex 231.794 164.858 30
      vertex 231.583 164.601 30
      vertex 231.583 164.601 29.7178
    endloop
  endfacet
  facet normal 0.77301 -0.634393 -1.7788e-016
    outer loop
      vertex 231.794 164.858 0
      vertex 231.583 164.601 29.7178
      vertex 231.172 164.101 0
    endloop
  endfacet
  facet normal 1 0 0
    outer loop
      vertex 232.636 227.636 20
      vertex 232.636 167.636 0
      vertex 232.636 227.636 0
    endloop
  endfacet
  facet normal 1 0 0
    outer loop
      vertex 232.636 227.636 20
      vertex 232.636 167.636 30
      vertex 232.636 167.636 0
    endloop
  endfacet
  facet normal -0.77301 0.634393 0
    outer loop
      vertex 163.479 230.414 0
      vertex 163.479 230.414 29.7178
      vertex 164.101 231.172 0
    endloop
  endfacet
  facet normal -0.77301 0.634393 0
    outer loop
      vertex 164.101 231.172 0
      vertex 163.479 230.414 29.7178
      vertex 164.101 231.172 29.7178
    endloop
  endfacet
  facet normal 0 0 -1
    outer loop
      vertex 162.636 227.636 0
      vertex 181.135 183.322 0
      vertex 162.636 167.636 0
    endloop
  endfacet
  facet normal 0 0 -1
    outer loop
      vertex 162.636 227.636 0
      vertex 162.732 228.612 0
      vertex 164.101 231.172 0
    endloop
  endfacet
  facet normal 0 0 -1
    outer loop
      vertex 162.732 228.612 0
      vertex 163.017 229.55 0
      vertex 163.479 230.414 0
    endloop
  endfacet
  facet normal 0 0 -1
    outer loop
      vertex 162.732 228.612 0
      vertex 163.479 230.414 0
      vertex 164.101 231.172 0
    endloop
  endfacet
  facet normal 0 0 -1
    outer loop
      vertex 162.636 227.636 0
      vertex 164.101 231.172 0
      vertex 167.636 232.636 0
    endloop
  endfacet
  facet normal 0 0 -1
    outer loop
      vertex 164.101 231.172 0
      vertex 164.858 231.794 0
      vertex 166.661 232.54 0
    endloop
  endfacet
  facet normal 0 0 -1
    outer loop
      vertex 164.858 231.794 0
      vertex 165.723 232.256 0
      vertex 166.661 232.54 0
    endloop
  endfacet
  facet normal 0 0 -1
    outer loop
      vertex 164.101 231.172 0
      vertex 166.661 232.54 0
      vertex 167.636 232.636 0
    endloop
  endfacet
  facet normal 0 0 -1
    outer loop
      vertex 162.636 167.636 0
      vertex 181.389 181.556 0
      vertex 167.636 162.636 0
    endloop
  endfacet
  facet normal 0 -0 -1
    outer loop
      vertex 183.101 181.053 0
      vertex 227.636 162.636 0
      vertex 167.636 162.636 0
    endloop
  endfacet
  facet normal 0 0 -1
    outer loop
      vertex 227.636 232.636 0
      vertex 228.612 232.54 0
      vertex 229.55 232.256 0
    endloop
  endfacet
  facet normal 0 0 -1
    outer loop
      vertex 227.636 232.636 0
      vertex 229.55 232.256 0
      vertex 232.256 229.55 0
    endloop
  endfacet
  facet normal 0 0 -1
    outer loop
      vertex 229.55 232.256 0
      vertex 230.414 231.794 0
      vertex 231.172 231.172 0
    endloop
  endfacet
  facet normal 0 0 -1
    outer loop
      vertex 229.55 232.256 0
      vertex 231.172 231.172 0
      vertex 231.794 230.414 0
    endloop
  endfacet
  facet normal 0 0 -1
    outer loop
      vertex 229.55 232.256 0
      vertex 231.794 230.414 0
      vertex 232.256 229.55 0
    endloop
  endfacet
  facet normal 0 0 -1
    outer loop
      vertex 227.636 232.636 0
      vertex 232.256 229.55 0
      vertex 232.636 227.636 0
    endloop
  endfacet
  facet normal 0 0 -1
    outer loop
      vertex 232.256 229.55 0
      vertex 232.54 228.612 0
      vertex 232.636 227.636 0
    endloop
  endfacet
  facet normal 0 0 -1
    outer loop
      vertex 232.636 167.636 0
      vertex 232.54 166.661 0
      vertex 232.256 165.723 0
    endloop
  endfacet
  facet normal 0 0 -1
    outer loop
      vertex 232.636 167.636 0
      vertex 232.256 165.723 0
      vertex 227.636 162.636 0
    endloop
  endfacet
  facet normal 0 0 -1
    outer loop
      vertex 232.256 165.723 0
      vertex 231.794 164.858 0
      vertex 231.172 164.101 0
    endloop
  endfacet
  facet normal 0 0 -1
    outer loop
      vertex 232.256 165.723 0
      vertex 231.172 164.101 0
      vertex 227.636 162.636 0
    endloop
  endfacet
  facet normal 0 0 -1
    outer loop
      vertex 231.172 164.101 0
      vertex 230.414 163.479 0
      vertex 228.612 162.732 0
    endloop
  endfacet
  facet normal 0 0 -1
    outer loop
      vertex 230.414 163.479 0
      vertex 229.55 163.017 0
      vertex 228.612 162.732 0
    endloop
  endfacet
  facet normal 0 0 -1
    outer loop
      vertex 231.172 164.101 0
      vertex 228.612 162.732 0
      vertex 227.636 162.636 0
    endloop
  endfacet
  facet normal 0 0 -1
    outer loop
      vertex 162.636 167.636 0
      vertex 167.636 162.636 0
      vertex 164.101 164.101 0
    endloop
  endfacet
  facet normal 0 0 -1
    outer loop
      vertex 167.636 162.636 0
      vertex 166.661 162.732 0
      vertex 164.101 164.101 0
    endloop
  endfacet
  facet normal 0 0 -1
    outer loop
      vertex 166.661 162.732 0
      vertex 165.723 163.017 0
      vertex 164.858 163.479 0
    endloop
  endfacet
  facet normal 0 0 -1
    outer loop
      vertex 166.661 162.732 0
      vertex 164.858 163.479 0
      vertex 164.101 164.101 0
    endloop
  endfacet
  facet normal 0 0 -1
    outer loop
      vertex 162.636 167.636 0
      vertex 164.101 164.101 0
      vertex 162.732 166.661 0
    endloop
  endfacet
  facet normal 0 0 -1
    outer loop
      vertex 164.101 164.101 0
      vertex 163.479 164.858 0
      vertex 162.732 166.661 0
    endloop
  endfacet
  facet normal 0 0 -1
    outer loop
      vertex 163.479 164.858 0
      vertex 163.017 165.723 0
      vertex 162.732 166.661 0
    endloop
  endfacet
  facet normal -0 0 -1
    outer loop
      vertex 181.744 184.024 0
      vertex 181.135 183.322 0
      vertex 162.636 227.636 0
    endloop
  endfacet
  facet normal 0 0 -1
    outer loop
      vertex 181.135 183.322 0
      vertex 181.003 182.402 0
      vertex 162.636 167.636 0
    endloop
  endfacet
  facet normal 0 -0 -1
    outer loop
      vertex 181.003 182.402 0
      vertex 181.389 181.556 0
      vertex 162.636 167.636 0
    endloop
  endfacet
  facet normal -0 0 -1
    outer loop
      vertex 232.636 167.636 0
      vertex 227.636 162.636 0
      vertex 184.27 182.402 0
    endloop
  endfacet
  facet normal 0 -0 -1
    outer loop
      vertex 181.389 181.556 0
      vertex 182.171 181.053 0
      vertex 167.636 162.636 0
    endloop
  endfacet
  facet normal 0 0 -1
    outer loop
      vertex 167.636 162.636 0
      vertex 182.171 181.053 0
      vertex 183.101 181.053 0
    endloop
  endfacet
  facet normal 0 0 -1
    outer loop
      vertex 183.528 184.024 0
      vertex 227.636 232.636 0
      vertex 232.636 227.636 0
    endloop
  endfacet
  facet normal 0 0 -1
    outer loop
      vertex 227.636 162.636 0
      vertex 183.101 181.053 0
      vertex 183.883 181.556 0
    endloop
  endfacet
  facet normal 0 0 -1
    outer loop
      vertex 232.636 167.636 0
      vertex 184.137 183.322 0
      vertex 232.636 227.636 0
    endloop
  endfacet
  facet normal 0 0 -1
    outer loop
      vertex 227.636 162.636 0
      vertex 183.883 181.556 0
      vertex 184.27 182.402 0
    endloop
  endfacet
  facet normal 0 0 -1
    outer loop
      vertex 182.636 184.286 0
      vertex 162.636 227.636 0
      vertex 167.636 232.636 0
    endloop
  endfacet
  facet normal 0 0 -1
    outer loop
      vertex 232.636 167.636 0
      vertex 184.27 182.402 0
      vertex 184.137 183.322 0
    endloop
  endfacet
  facet normal -0 0 -1
    outer loop
      vertex 227.636 232.636 0
      vertex 183.528 184.024 0
      vertex 167.636 232.636 0
    endloop
  endfacet
  facet normal 0 0 -1
    outer loop
      vertex 184.137 183.322 0
      vertex 183.528 184.024 0
      vertex 232.636 227.636 0
    endloop
  endfacet
  facet normal 0 0 -1
    outer loop
      vertex 183.528 184.024 0
      vertex 182.636 184.286 0
      vertex 167.636 232.636 0
    endloop
  endfacet
  facet normal -0 0 -1
    outer loop
      vertex 182.636 184.286 0
      vertex 181.744 184.024 0
      vertex 162.636 227.636 0
    endloop
  endfacet
  facet normal 0 1 0
    outer loop
      vertex 167.636 232.636 0
      vertex 227.636 232.636 20
      vertex 227.636 232.636 0
    endloop
  endfacet
  facet normal 0 1 0
    outer loop
      vertex 167.636 232.636 0
      vertex 167.636 232.636 30
      vertex 227.636 232.636 20
    endloop
  endfacet
  facet normal -0.0980171 -0.995185 0
    outer loop
      vertex 167.636 162.636 0
      vertex 166.661 162.732 50
      vertex 166.661 162.732 0
    endloop
  endfacet
  facet normal -0.0980171 -0.995185 0
    outer loop
      vertex 167.636 162.636 0
      vertex 167.636 162.636 50
      vertex 166.661 162.732 50
    endloop
  endfacet
  facet normal 0.312348 0.156174 0.937043
    outer loop
      vertex 232.256 229.55 20
      vertex 212.256 209.55 30
      vertex 232.256 169.55 30
    endloop
  endfacet
  facet normal 0.0980171 -0.995185 0
    outer loop
      vertex 228.612 162.732 0
      vertex 227.636 162.636 29.7178
      vertex 227.636 162.636 0
    endloop
  endfacet
  facet normal 0.0980171 -0.995185 0
    outer loop
      vertex 228.612 162.732 0
      vertex 228.612 162.732 29.7178
      vertex 227.636 162.636 29.7178
    endloop
  endfacet
  facet normal -0.471397 0.881921 0
    outer loop
      vertex 164.858 231.794 0
      vertex 164.858 231.794 30
      vertex 165.723 232.256 0
    endloop
  endfacet
  facet normal -0.471397 0.881921 0
    outer loop
      vertex 165.723 232.256 0
      vertex 164.858 231.794 30
      vertex 165.723 232.256 30
    endloop
  endfacet
  facet normal -0.77301 -0.634393 0
    outer loop
      vertex 163.479 164.858 0
      vertex 164.101 164.101 50
      vertex 163.479 164.858 50
    endloop
  endfacet
  facet normal -0.77301 -0.634393 0
    outer loop
      vertex 163.479 164.858 0
      vertex 164.101 164.101 0
      vertex 164.101 164.101 50
    endloop
  endfacet
  facet normal 0.471397 -0.881921 0
    outer loop
      vertex 230.414 163.479 0
      vertex 229.55 163.017 29.7178
      vertex 229.55 163.017 0
    endloop
  endfacet
  facet normal 0.471397 -0.881921 0
    outer loop
      vertex 230.414 163.479 0
      vertex 230.414 163.479 29.7178
      vertex 229.55 163.017 29.7178
    endloop
  endfacet
  facet normal 0.881921 -0.471397 0
    outer loop
      vertex 232.256 165.723 0
      vertex 231.794 164.858 30
      vertex 231.794 164.858 0
    endloop
  endfacet
  facet normal 0.881921 -0.471397 0
    outer loop
      vertex 232.256 165.723 0
      vertex 232.256 165.723 30
      vertex 231.794 164.858 30
    endloop
  endfacet
  facet normal 0.95694 -0.290285 0
    outer loop
      vertex 232.54 166.661 0
      vertex 232.256 165.723 30
      vertex 232.256 165.723 0
    endloop
  endfacet
  facet normal 0.95694 -0.290285 0
    outer loop
      vertex 232.54 166.661 0
      vertex 232.54 166.661 30
      vertex 232.256 165.723 30
    endloop
  endfacet
  facet normal 0.857833 0.0844892 0.506935
    outer loop
      vertex 232.54 168.612 30
      vertex 232.636 227.636 20
      vertex 232.54 228.612 20
    endloop
  endfacet
  facet normal 0.857833 0.0844892 0.506935
    outer loop
      vertex 232.54 168.612 30
      vertex 232.636 167.636 30
      vertex 232.636 227.636 20
    endloop
  endfacet
  facet normal 0.258777 0.212373 0.942301
    outer loop
      vertex 231.172 231.172 20
      vertex 211.172 211.172 30
      vertex 211.379 210.919 30
    endloop
  endfacet
  facet normal 0.0980171 0.995185 -0
    outer loop
      vertex 227.636 232.636 0
      vertex 227.636 232.636 20
      vertex 228.612 232.54 0
    endloop
  endfacet
  facet normal 0.0980171 0.995185 -0
    outer loop
      vertex 228.612 232.54 0
      vertex 227.636 232.636 20
      vertex 228.612 232.54 20
    endloop
  endfacet
  facet normal 0.290285 -0.95694 0
    outer loop
      vertex 229.55 163.017 0
      vertex 228.612 162.732 29.7178
      vertex 228.612 162.732 0
    endloop
  endfacet
  facet normal 0.290285 -0.95694 0
    outer loop
      vertex 229.55 163.017 0
      vertex 229.55 163.017 29.7178
      vertex 228.612 162.732 29.7178
    endloop
  endfacet
  facet normal -0.634393 0.77301 -4.53086e-017
    outer loop
      vertex 164.101 231.172 0
      vertex 164.601 231.583 29.7178
      vertex 164.858 231.794 0
    endloop
  endfacet
  facet normal -0.634393 0.77301 0
    outer loop
      vertex 164.101 231.172 0
      vertex 164.101 231.172 29.7178
      vertex 164.601 231.583 29.7178
    endloop
  endfacet
  facet normal -0.634393 0.77301 0
    outer loop
      vertex 164.601 231.583 29.7178
      vertex 164.858 231.794 30
      vertex 164.858 231.794 0
    endloop
  endfacet
  facet normal -0.634393 0.77301 0
    outer loop
      vertex 164.601 231.583 29.7178
      vertex 164.601 231.583 30
      vertex 164.858 231.794 30
    endloop
  endfacet
  facet normal -0.0980171 0.995185 0
    outer loop
      vertex 166.661 232.54 0
      vertex 166.661 232.54 30
      vertex 167.636 232.636 0
    endloop
  endfacet
  facet normal -0.0980171 0.995185 0
    outer loop
      vertex 167.636 232.636 0
      vertex 166.661 232.54 30
      vertex 167.636 232.636 30
    endloop
  endfacet
  facet normal -0.290285 0.95694 0
    outer loop
      vertex 165.723 232.256 0
      vertex 165.723 232.256 30
      vertex 166.661 232.54 0
    endloop
  endfacet
  facet normal -0.290285 0.95694 0
    outer loop
      vertex 166.661 232.54 0
      vertex 165.723 232.256 30
      vertex 166.661 232.54 30
    endloop
  endfacet
  facet normal -0.881921 0.471397 0
    outer loop
      vertex 163.017 229.55 0
      vertex 163.017 229.55 29.7178
      vertex 163.479 230.414 0
    endloop
  endfacet
  facet normal -0.881921 0.471397 0
    outer loop
      vertex 163.479 230.414 0
      vertex 163.017 229.55 29.7178
      vertex 163.479 230.414 29.7178
    endloop
  endfacet
  facet normal -0.634393 -0.77301 0
    outer loop
      vertex 164.858 163.479 0
      vertex 164.101 164.101 50
      vertex 164.101 164.101 0
    endloop
  endfacet
  facet normal -0.634393 -0.77301 0
    outer loop
      vertex 164.858 163.479 0
      vertex 164.858 163.479 50
      vertex 164.101 164.101 50
    endloop
  endfacet
  facet normal 0.995185 -0.0980171 0
    outer loop
      vertex 232.636 167.636 0
      vertex 232.54 166.661 30
      vertex 232.54 166.661 0
    endloop
  endfacet
  facet normal 0.995185 -0.0980171 0
    outer loop
      vertex 232.636 167.636 0
      vertex 232.636 167.636 30
      vertex 232.54 166.661 30
    endloop
  endfacet
  facet normal 0.476476 0.144538 0.867225
    outer loop
      vertex 232.256 169.55 30
      vertex 232.54 228.612 20
      vertex 232.256 229.55 20
    endloop
  endfacet
  facet normal 0.476476 0.144538 0.867225
    outer loop
      vertex 232.256 169.55 30
      vertex 232.54 168.612 30
      vertex 232.54 228.612 20
    endloop
  endfacet
  facet normal 0.881921 0.471397 0
    outer loop
      vertex 232.256 229.55 20
      vertex 232.256 229.55 0
      vertex 231.794 230.414 0
    endloop
  endfacet
  facet normal 0.881921 0.471397 0
    outer loop
      vertex 231.794 230.414 20
      vertex 232.256 229.55 20
      vertex 231.794 230.414 0
    endloop
  endfacet
  facet normal 0.77301 0.634393 0
    outer loop
      vertex 231.794 230.414 20
      vertex 231.794 230.414 0
      vertex 231.172 231.172 0
    endloop
  endfacet
  facet normal 0.77301 0.634393 0
    outer loop
      vertex 231.172 231.172 20
      vertex 231.794 230.414 20
      vertex 231.172 231.172 0
    endloop
  endfacet
  facet normal 0.290285 0.95694 -0
    outer loop
      vertex 228.612 232.54 0
      vertex 228.612 232.54 20
      vertex 229.55 232.256 0
    endloop
  endfacet
  facet normal 0.290285 0.95694 -0
    outer loop
      vertex 229.55 232.256 0
      vertex 228.612 232.54 20
      vertex 229.55 232.256 20
    endloop
  endfacet
  facet normal -0.471397 -0.881921 0
    outer loop
      vertex 165.723 163.017 0
      vertex 164.858 163.479 50
      vertex 164.858 163.479 0
    endloop
  endfacet
  facet normal -0.471397 -0.881921 0
    outer loop
      vertex 165.723 163.017 0
      vertex 165.723 163.017 50
      vertex 164.858 163.479 50
    endloop
  endfacet
  facet normal 0 0 1
    outer loop
      vertex 162.636 167.636 50
      vertex 172.619 213.166 50
      vertex 162.636 220.419 50
    endloop
  endfacet
  facet normal 0 0 1
    outer loop
      vertex 193.218 194.619 50
      vertex 182.636 185.018 50
      vertex 184.699 183.827 50
    endloop
  endfacet
  facet normal -0 -0 1
    outer loop
      vertex 162.732 166.661 50
      vertex 164.101 164.101 50
      vertex 162.636 167.636 50
    endloop
  endfacet
  facet normal -0 -0 1
    outer loop
      vertex 163.017 165.723 50
      vertex 163.479 164.858 50
      vertex 162.732 166.661 50
    endloop
  endfacet
  facet normal -0 -0 1
    outer loop
      vertex 163.479 164.858 50
      vertex 164.101 164.101 50
      vertex 162.732 166.661 50
    endloop
  endfacet
  facet normal -0 -0 1
    outer loop
      vertex 164.101 164.101 50
      vertex 167.636 162.636 50
      vertex 162.636 167.636 50
    endloop
  endfacet
  facet normal -0 -0 1
    outer loop
      vertex 164.858 163.479 50
      vertex 166.661 162.732 50
      vertex 164.101 164.101 50
    endloop
  endfacet
  facet normal -0 -0 1
    outer loop
      vertex 165.723 163.017 50
      vertex 166.661 162.732 50
      vertex 164.858 163.479 50
    endloop
  endfacet
  facet normal -0 -0 1
    outer loop
      vertex 166.661 162.732 50
      vertex 167.636 162.636 50
      vertex 164.101 164.101 50
    endloop
  endfacet
  facet normal 0 0 1
    outer loop
      vertex 172.619 213.166 50
      vertex 180.574 183.827 50
      vertex 182.636 185.018 50
    endloop
  endfacet
  facet normal 0 0 1
    outer loop
      vertex 220.419 162.636 50
      vertex 213.166 172.619 50
      vertex 167.636 162.636 50
    endloop
  endfacet
  facet normal 0 0 1
    outer loop
      vertex 213.166 172.619 50
      vertex 212.502 173.356 50
      vertex 167.636 162.636 50
    endloop
  endfacet
  facet normal 0 0 1
    outer loop
      vertex 193.955 193.955 50
      vertex 193.218 194.619 50
      vertex 184.699 183.827 50
    endloop
  endfacet
  facet normal 0 -0 1
    outer loop
      vertex 167.636 162.636 50
      vertex 180.574 181.446 50
      vertex 162.636 167.636 50
    endloop
  endfacet
  facet normal 0 0 1
    outer loop
      vertex 180.574 183.827 50
      vertex 172.619 213.166 50
      vertex 162.636 167.636 50
    endloop
  endfacet
  facet normal 0 -0 1
    outer loop
      vertex 180.574 181.446 50
      vertex 180.574 183.827 50
      vertex 162.636 167.636 50
    endloop
  endfacet
  facet normal 0 -0 1
    outer loop
      vertex 182.636 185.018 50
      vertex 193.218 194.619 50
      vertex 172.619 213.166 50
    endloop
  endfacet
  facet normal 0 0 1
    outer loop
      vertex 193.955 193.955 50
      vertex 184.699 181.446 50
      vertex 212.502 173.356 50
    endloop
  endfacet
  facet normal 0 0 1
    outer loop
      vertex 193.955 193.955 50
      vertex 184.699 183.827 50
      vertex 184.699 181.446 50
    endloop
  endfacet
  facet normal 0 0 1
    outer loop
      vertex 212.502 173.356 50
      vertex 182.636 180.255 50
      vertex 167.636 162.636 50
    endloop
  endfacet
  facet normal 0 0 1
    outer loop
      vertex 184.699 181.446 50
      vertex 182.636 180.255 50
      vertex 212.502 173.356 50
    endloop
  endfacet
  facet normal 0 0 1
    outer loop
      vertex 182.636 180.255 50
      vertex 180.574 181.446 50
      vertex 167.636 162.636 50
    endloop
  endfacet
  facet normal -0.290285 -0.95694 0
    outer loop
      vertex 166.661 162.732 0
      vertex 165.723 163.017 50
      vertex 165.723 163.017 0
    endloop
  endfacet
  facet normal -0.290285 -0.95694 0
    outer loop
      vertex 166.661 162.732 0
      vertex 166.661 162.732 50
      vertex 165.723 163.017 50
    endloop
  endfacet
  facet normal 0.634393 -0.77301 0
    outer loop
      vertex 231.172 164.101 0
      vertex 230.414 163.479 29.7178
      vertex 230.414 163.479 0
    endloop
  endfacet
  facet normal 0.634393 -0.77301 0
    outer loop
      vertex 231.172 164.101 0
      vertex 231.172 164.101 29.7178
      vertex 230.414 163.479 29.7178
    endloop
  endfacet
  facet normal 0.995185 0.0980171 0
    outer loop
      vertex 232.636 227.636 20
      vertex 232.636 227.636 0
      vertex 232.54 228.612 0
    endloop
  endfacet
  facet normal 0.995185 0.0980171 0
    outer loop
      vertex 232.54 228.612 20
      vertex 232.636 227.636 20
      vertex 232.54 228.612 0
    endloop
  endfacet
  facet normal -0.995185 0.0980171 0
    outer loop
      vertex 162.636 227.636 0
      vertex 162.636 227.636 29.7178
      vertex 162.732 228.612 0
    endloop
  endfacet
  facet normal -0.995185 0.0980171 0
    outer loop
      vertex 162.732 228.612 0
      vertex 162.636 227.636 29.7178
      vertex 162.732 228.612 29.7178
    endloop
  endfacet
  facet normal 0.95694 0.290285 0
    outer loop
      vertex 232.54 228.612 20
      vertex 232.54 228.612 0
      vertex 232.256 229.55 0
    endloop
  endfacet
  facet normal 0.95694 0.290285 0
    outer loop
      vertex 232.256 229.55 20
      vertex 232.54 228.612 20
      vertex 232.256 229.55 0
    endloop
  endfacet
  facet normal 0.258777 0.212373 0.942301
    outer loop
      vertex 231.794 230.414 20
      vertex 231.172 231.172 20
      vertex 211.379 210.919 30
    endloop
  endfacet
  facet normal 0.258777 0.212373 0.942301
    outer loop
      vertex 211.794 210.414 30
      vertex 231.794 230.414 20
      vertex 211.379 210.919 30
    endloop
  endfacet
  facet normal 0.471397 0.881921 -0
    outer loop
      vertex 229.55 232.256 0
      vertex 229.55 232.256 20
      vertex 230.414 231.794 0
    endloop
  endfacet
  facet normal 0.471397 0.881921 -0
    outer loop
      vertex 230.414 231.794 0
      vertex 229.55 232.256 20
      vertex 230.414 231.794 20
    endloop
  endfacet
  facet normal -0.95694 0.290285 0
    outer loop
      vertex 162.732 228.612 0
      vertex 162.732 228.612 29.7178
      vertex 163.017 229.55 0
    endloop
  endfacet
  facet normal -0.95694 0.290285 0
    outer loop
      vertex 163.017 229.55 0
      vertex 162.732 228.612 29.7178
      vertex 163.017 229.55 29.7178
    endloop
  endfacet
  facet normal -1 0 0
    outer loop
      vertex 162.636 194.469 41.9563
      vertex 162.636 220.419 50
      vertex 162.636 209.911 43.7627
    endloop
  endfacet
  facet normal -1 0 0
    outer loop
      vertex 162.636 194.469 41.9563
      vertex 162.636 167.636 50
      vertex 162.636 220.419 50
    endloop
  endfacet
  facet normal -1 0 0
    outer loop
      vertex 162.636 196.917 40.2091
      vertex 162.636 209.911 43.7627
      vertex 162.636 209.911 36.0713
    endloop
  endfacet
  facet normal -1 0 0
    outer loop
      vertex 162.636 227.636 0
      vertex 162.636 209.911 36.0713
      vertex 162.636 220.896 29.7178
    endloop
  endfacet
  facet normal -1 0 0
    outer loop
      vertex 162.636 227.636 0
      vertex 162.636 220.896 29.7178
      vertex 162.636 227.636 29.7178
    endloop
  endfacet
  facet normal -1 0 0
    outer loop
      vertex 162.636 196.87 39.9232
      vertex 162.636 196.917 40.2091
      vertex 162.636 209.911 36.0713
    endloop
  endfacet
  facet normal -1 0 0
    outer loop
      vertex 162.636 196.917 40.2091
      vertex 162.636 196.778 40.4832
      vertex 162.636 209.911 43.7627
    endloop
  endfacet
  facet normal -1 0 0
    outer loop
      vertex 162.636 196.778 40.4832
      vertex 162.636 196.517 41
      vertex 162.636 209.911 43.7627
    endloop
  endfacet
  facet normal -1 0 0
    outer loop
      vertex 162.636 194.469 41.9563
      vertex 162.636 209.911 43.7627
      vertex 162.636 195.651 41.618
    endloop
  endfacet
  facet normal -1 0 0
    outer loop
      vertex 162.636 196.517 41
      vertex 162.636 195.651 41.618
      vertex 162.636 209.911 43.7627
    endloop
  endfacet
  facet normal -1 0 0
    outer loop
      vertex 162.636 193.176 41.9563
      vertex 162.636 167.636 50
      vertex 162.636 194.469 41.9563
    endloop
  endfacet
  facet normal -1 0 0
    outer loop
      vertex 162.636 191.994 41.618
      vertex 162.636 167.636 50
      vertex 162.636 193.176 41.9563
    endloop
  endfacet
  facet normal -1 0 0
    outer loop
      vertex 162.636 191.478 41.2501
      vertex 162.636 167.636 50
      vertex 162.636 191.994 41.618
    endloop
  endfacet
  facet normal -1 0 0
    outer loop
      vertex 162.636 191.128 41
      vertex 162.636 167.636 50
      vertex 162.636 191.478 41.2501
    endloop
  endfacet
  facet normal -1 0 0
    outer loop
      vertex 162.636 167.636 0
      vertex 162.636 167.636 50
      vertex 162.636 190.863 39.382
    endloop
  endfacet
  facet normal -1 0 0
    outer loop
      vertex 162.636 167.636 50
      vertex 162.636 191.128 41
      vertex 162.636 190.964 40.6754
    endloop
  endfacet
  facet normal -1 0 0
    outer loop
      vertex 162.636 167.636 50
      vertex 162.636 190.964 40.6754
      vertex 162.636 190.728 40.2091
    endloop
  endfacet
  facet normal -1 0 0
    outer loop
      vertex 162.636 167.636 50
      vertex 162.636 190.728 40.2091
      vertex 162.636 190.808 39.7228
    endloop
  endfacet
  facet normal -1 0 0
    outer loop
      vertex 162.636 167.636 50
      vertex 162.636 190.808 39.7228
      vertex 162.636 190.863 39.382
    endloop
  endfacet
  facet normal -1 0 0
    outer loop
      vertex 162.636 167.636 0
      vertex 162.636 190.863 39.382
      vertex 162.636 191.128 39.0877
    endloop
  endfacet
  facet normal -1 0 0
    outer loop
      vertex 162.636 167.636 0
      vertex 162.636 191.128 39.0877
      vertex 162.636 191.51 38.6617
    endloop
  endfacet
  facet normal -1 0 0
    outer loop
      vertex 162.636 167.636 0
      vertex 162.636 191.51 38.6617
      vertex 162.636 191.929 38.4663
    endloop
  endfacet
  facet normal -1 0 0
    outer loop
      vertex 162.636 167.636 0
      vertex 162.636 191.929 38.4663
      vertex 162.636 192.557 38.1729
    endloop
  endfacet
  facet normal -1 0 0
    outer loop
      vertex 162.636 167.636 0
      vertex 162.636 193.822 38
      vertex 162.636 227.636 0
    endloop
  endfacet
  facet normal -1 0 0
    outer loop
      vertex 162.636 167.636 0
      vertex 162.636 192.557 38.1729
      vertex 162.636 193.336 38.0665
    endloop
  endfacet
  facet normal -1 0 0
    outer loop
      vertex 162.636 196.782 39.382
      vertex 162.636 196.87 39.9232
      vertex 162.636 209.911 36.0713
    endloop
  endfacet
  facet normal -1 0 0
    outer loop
      vertex 162.636 167.636 0
      vertex 162.636 193.336 38.0665
      vertex 162.636 193.822 38
    endloop
  endfacet
  facet normal -1 0 0
    outer loop
      vertex 162.636 227.636 0
      vertex 162.636 193.822 38
      vertex 162.636 209.911 36.0713
    endloop
  endfacet
  facet normal -1 0 0
    outer loop
      vertex 162.636 193.822 38
      vertex 162.636 195.088 38.1729
      vertex 162.636 209.911 36.0713
    endloop
  endfacet
  facet normal -1 0 0
    outer loop
      vertex 162.636 195.088 38.1729
      vertex 162.636 196.135 38.6617
      vertex 162.636 209.911 36.0713
    endloop
  endfacet
  facet normal -1 0 0
    outer loop
      vertex 162.636 196.135 38.6617
      vertex 162.636 196.782 39.382
      vertex 162.636 209.911 36.0713
    endloop
  endfacet
  facet normal 0.634393 0.77301 -0
    outer loop
      vertex 230.414 231.794 0
      vertex 230.414 231.794 20
      vertex 231.172 231.172 0
    endloop
  endfacet
  facet normal 0.634393 0.77301 -0
    outer loop
      vertex 231.172 231.172 0
      vertex 230.414 231.794 20
      vertex 231.172 231.172 20
    endloop
  endfacet
  facet normal 0.212373 0.258777 0.942301
    outer loop
      vertex 211.172 211.172 30
      vertex 230.414 231.794 20
      vertex 210.667 211.586 30
    endloop
  endfacet
  facet normal 0.212373 0.258777 0.942301
    outer loop
      vertex 211.172 211.172 30
      vertex 231.172 231.172 20
      vertex 230.414 231.794 20
    endloop
  endfacet
  facet normal 0.0844892 0.857833 0.506935
    outer loop
      vertex 167.636 232.636 30
      vertex 168.612 232.54 30
      vertex 227.636 232.636 20
    endloop
  endfacet
  facet normal 0.0844892 0.857833 0.506935
    outer loop
      vertex 227.636 232.636 20
      vertex 168.612 232.54 30
      vertex 228.612 232.54 20
    endloop
  endfacet
  facet normal 0.16337 0.305643 0.938026
    outer loop
      vertex 230.414 231.794 20
      vertex 210.126 211.948 30
      vertex 210.414 211.794 30
    endloop
  endfacet
  facet normal 0.144538 0.476476 0.867225
    outer loop
      vertex 169.55 232.256 30
      vertex 228.612 232.54 20
      vertex 168.612 232.54 30
    endloop
  endfacet
  facet normal 0.144538 0.476476 0.867225
    outer loop
      vertex 169.55 232.256 30
      vertex 229.55 232.256 20
      vertex 228.612 232.54 20
    endloop
  endfacet
  facet normal 0.156174 0.312348 0.937043
    outer loop
      vertex 229.55 232.256 20
      vertex 169.55 232.256 30
      vertex 209.55 212.256 30
    endloop
  endfacet
  facet normal 0.16337 0.305643 0.938026
    outer loop
      vertex 210.126 211.948 30
      vertex 229.55 232.256 20
      vertex 209.55 212.256 30
    endloop
  endfacet
  facet normal 0.16337 0.305643 0.938026
    outer loop
      vertex 210.126 211.948 30
      vertex 230.414 231.794 20
      vertex 229.55 232.256 20
    endloop
  endfacet
  facet normal 0.212373 0.258777 0.942301
    outer loop
      vertex 230.414 231.794 20
      vertex 210.414 211.794 30
      vertex 210.667 211.586 30
    endloop
  endfacet
  facet normal -0.995185 -0.0980171 0
    outer loop
      vertex 162.636 167.636 0
      vertex 162.732 166.661 50
      vertex 162.636 167.636 50
    endloop
  endfacet
  facet normal -0.995185 -0.0980171 0
    outer loop
      vertex 162.636 167.636 0
      vertex 162.732 166.661 0
      vertex 162.732 166.661 50
    endloop
  endfacet
  facet normal -0.95694 -0.290285 0
    outer loop
      vertex 162.732 166.661 0
      vertex 163.017 165.723 50
      vertex 162.732 166.661 50
    endloop
  endfacet
  facet normal -0.95694 -0.290285 0
    outer loop
      vertex 162.732 166.661 0
      vertex 163.017 165.723 0
      vertex 163.017 165.723 50
    endloop
  endfacet
  facet normal -0.881921 -0.471397 0
    outer loop
      vertex 163.017 165.723 0
      vertex 163.479 164.858 50
      vertex 163.017 165.723 50
    endloop
  endfacet
  facet normal -0.881921 -0.471397 0
    outer loop
      vertex 163.017 165.723 0
      vertex 163.479 164.858 0
      vertex 163.479 164.858 50
    endloop
  endfacet
  facet normal 0.305643 0.16337 0.938026
    outer loop
      vertex 232.256 229.55 20
      vertex 231.794 230.414 20
      vertex 211.948 210.126 30
    endloop
  endfacet
  facet normal 0.305643 0.16337 0.938026
    outer loop
      vertex 212.256 209.55 30
      vertex 232.256 229.55 20
      vertex 211.948 210.126 30
    endloop
  endfacet
  facet normal 0.305643 0.16337 0.938026
    outer loop
      vertex 231.794 230.414 20
      vertex 211.794 210.414 30
      vertex 211.948 210.126 30
    endloop
  endfacet
  facet normal -0.5 0.866025 0
    outer loop
      vertex 184.699 181.446 50
      vertex 184.699 181.446 48
      vertex 182.636 180.255 50
    endloop
  endfacet
  facet normal -0.5 0.866025 0
    outer loop
      vertex 182.636 180.255 50
      vertex 184.699 181.446 48
      vertex 182.636 180.255 48
    endloop
  endfacet
  facet normal 0 0 1
    outer loop
      vertex 182.636 185.018 48
      vertex 180.574 183.827 48
      vertex 181.744 184.024 48
    endloop
  endfacet
  facet normal 0 0 1
    outer loop
      vertex 181.135 183.322 48
      vertex 180.574 183.827 48
      vertex 181.003 182.402 48
    endloop
  endfacet
  facet normal 0 0 1
    outer loop
      vertex 182.636 185.018 48
      vertex 181.744 184.024 48
      vertex 182.636 184.286 48
    endloop
  endfacet
  facet normal 0 0 1
    outer loop
      vertex 181.744 184.024 48
      vertex 180.574 183.827 48
      vertex 181.135 183.322 48
    endloop
  endfacet
  facet normal 0 0 1
    outer loop
      vertex 182.636 185.018 48
      vertex 183.528 184.024 48
      vertex 184.699 183.827 48
    endloop
  endfacet
  facet normal -0 0 1
    outer loop
      vertex 182.636 184.286 48
      vertex 183.528 184.024 48
      vertex 182.636 185.018 48
    endloop
  endfacet
  facet normal 0 0 1
    outer loop
      vertex 182.636 180.255 48
      vertex 184.699 181.446 48
      vertex 183.101 181.053 48
    endloop
  endfacet
  facet normal 0 0 1
    outer loop
      vertex 183.528 184.024 48
      vertex 184.137 183.322 48
      vertex 184.699 183.827 48
    endloop
  endfacet
  facet normal -0 0 1
    outer loop
      vertex 184.27 182.402 48
      vertex 184.699 181.446 48
      vertex 184.699 183.827 48
    endloop
  endfacet
  facet normal 0 -0 1
    outer loop
      vertex 184.27 182.402 48
      vertex 184.699 183.827 48
      vertex 184.137 183.322 48
    endloop
  endfacet
  facet normal 0 0 1
    outer loop
      vertex 184.699 181.446 48
      vertex 183.883 181.556 48
      vertex 183.101 181.053 48
    endloop
  endfacet
  facet normal -0 0 1
    outer loop
      vertex 183.883 181.556 48
      vertex 184.699 181.446 48
      vertex 184.27 182.402 48
    endloop
  endfacet
  facet normal 0 -0 1
    outer loop
      vertex 182.636 180.255 48
      vertex 183.101 181.053 48
      vertex 182.171 181.053 48
    endloop
  endfacet
  facet normal 0 0 1
    outer loop
      vertex 182.636 180.255 48
      vertex 182.171 181.053 48
      vertex 180.574 181.446 48
    endloop
  endfacet
  facet normal 0 0 1
    outer loop
      vertex 182.171 181.053 48
      vertex 181.389 181.556 48
      vertex 180.574 181.446 48
    endloop
  endfacet
  facet normal 0 0 1
    outer loop
      vertex 181.389 181.556 48
      vertex 181.003 182.402 48
      vertex 180.574 181.446 48
    endloop
  endfacet
  facet normal 0 0 1
    outer loop
      vertex 181.003 182.402 48
      vertex 180.574 183.827 48
      vertex 180.574 181.446 48
    endloop
  endfacet
  facet normal -1 0 0
    outer loop
      vertex 184.699 181.446 50
      vertex 184.699 183.827 48
      vertex 184.699 181.446 48
    endloop
  endfacet
  facet normal -1 0 0
    outer loop
      vertex 184.699 181.446 50
      vertex 184.699 183.827 50
      vertex 184.699 183.827 48
    endloop
  endfacet
  facet normal 0.5 0.866025 0
    outer loop
      vertex 182.636 180.255 50
      vertex 182.636 180.255 48
      vertex 180.574 181.446 50
    endloop
  endfacet
  facet normal 0.5 0.866025 0
    outer loop
      vertex 180.574 181.446 50
      vertex 182.636 180.255 48
      vertex 180.574 181.446 48
    endloop
  endfacet
  facet normal -0.5 -0.866025 0
    outer loop
      vertex 182.636 185.018 50
      vertex 184.699 183.827 48
      vertex 184.699 183.827 50
    endloop
  endfacet
  facet normal -0.5 -0.866025 -0
    outer loop
      vertex 182.636 185.018 50
      vertex 182.636 185.018 48
      vertex 184.699 183.827 48
    endloop
  endfacet
  facet normal 1 0 -0
    outer loop
      vertex 180.574 183.827 48
      vertex 180.574 183.827 50
      vertex 180.574 181.446 50
    endloop
  endfacet
  facet normal 1 0 0
    outer loop
      vertex 180.574 181.446 48
      vertex 180.574 183.827 48
      vertex 180.574 181.446 50
    endloop
  endfacet
  facet normal 0.5 -0.866025 0
    outer loop
      vertex 180.574 183.827 50
      vertex 182.636 185.018 48
      vertex 182.636 185.018 50
    endloop
  endfacet
  facet normal 0.5 -0.866025 0
    outer loop
      vertex 180.574 183.827 50
      vertex 180.574 183.827 48
      vertex 182.636 185.018 48
    endloop
  endfacet
  facet normal 0 1 0
    outer loop
      vertex 183.101 181.053 48
      vertex 183.101 181.053 0
      vertex 182.171 181.053 48
    endloop
  endfacet
  facet normal 0 1 0
    outer loop
      vertex 182.171 181.053 48
      vertex 183.101 181.053 0
      vertex 182.171 181.053 0
    endloop
  endfacet
  facet normal -0.281733 -0.959493 0
    outer loop
      vertex 182.636 184.286 48
      vertex 183.528 184.024 0
      vertex 183.528 184.024 48
    endloop
  endfacet
  facet normal -0.281733 -0.959493 -0
    outer loop
      vertex 182.636 184.286 48
      vertex 182.636 184.286 0
      vertex 183.528 184.024 0
    endloop
  endfacet
  facet normal -0.989821 -0.142315 -0
    outer loop
      vertex 184.27 182.402 48
      vertex 184.137 183.322 0
      vertex 184.27 182.402 0
    endloop
  endfacet
  facet normal -0.989821 -0.142315 0
    outer loop
      vertex 184.27 182.402 48
      vertex 184.137 183.322 48
      vertex 184.137 183.322 0
    endloop
  endfacet
  facet normal -0.540641 0.841254 0
    outer loop
      vertex 183.883 181.556 48
      vertex 183.883 181.556 0
      vertex 183.101 181.053 48
    endloop
  endfacet
  facet normal -0.540641 0.841254 0
    outer loop
      vertex 183.101 181.053 48
      vertex 183.883 181.556 0
      vertex 183.101 181.053 0
    endloop
  endfacet
  facet normal 0.540641 0.841254 0
    outer loop
      vertex 182.171 181.053 48
      vertex 182.171 181.053 0
      vertex 181.389 181.556 48
    endloop
  endfacet
  facet normal 0.540641 0.841254 0
    outer loop
      vertex 181.389 181.556 48
      vertex 182.171 181.053 0
      vertex 181.389 181.556 0
    endloop
  endfacet
  facet normal -0.75575 -0.654861 -0
    outer loop
      vertex 184.137 183.322 48
      vertex 183.528 184.024 0
      vertex 184.137 183.322 0
    endloop
  endfacet
  facet normal -0.75575 -0.654861 0
    outer loop
      vertex 184.137 183.322 48
      vertex 183.528 184.024 48
      vertex 183.528 184.024 0
    endloop
  endfacet
  facet normal 0.909632 0.415415 -0
    outer loop
      vertex 181.003 182.402 0
      vertex 181.003 182.402 48
      vertex 181.389 181.556 48
    endloop
  endfacet
  facet normal 0.909632 0.415415 -0
    outer loop
      vertex 181.389 181.556 0
      vertex 181.003 182.402 0
      vertex 181.389 181.556 48
    endloop
  endfacet
  facet normal -0.909632 0.415415 0
    outer loop
      vertex 184.27 182.402 48
      vertex 184.27 182.402 0
      vertex 183.883 181.556 48
    endloop
  endfacet
  facet normal -0.909632 0.415415 0
    outer loop
      vertex 183.883 181.556 48
      vertex 184.27 182.402 0
      vertex 183.883 181.556 0
    endloop
  endfacet
  facet normal 0.281733 -0.959493 0
    outer loop
      vertex 181.744 184.024 48
      vertex 182.636 184.286 0
      vertex 182.636 184.286 48
    endloop
  endfacet
  facet normal 0.281733 -0.959493 0
    outer loop
      vertex 181.744 184.024 48
      vertex 181.744 184.024 0
      vertex 182.636 184.286 0
    endloop
  endfacet
  facet normal 0.989821 -0.142315 0
    outer loop
      vertex 181.003 182.402 48
      vertex 181.135 183.322 0
      vertex 181.135 183.322 48
    endloop
  endfacet
  facet normal 0.989821 -0.142315 0
    outer loop
      vertex 181.003 182.402 48
      vertex 181.003 182.402 0
      vertex 181.135 183.322 0
    endloop
  endfacet
  facet normal 0.75575 -0.654861 0
    outer loop
      vertex 181.135 183.322 48
      vertex 181.744 184.024 0
      vertex 181.744 184.024 48
    endloop
  endfacet
  facet normal 0.75575 -0.654861 0
    outer loop
      vertex 181.135 183.322 48
      vertex 181.135 183.322 0
      vertex 181.744 184.024 0
    endloop
  endfacet
  facet normal -5.27067e-016 1.13108e-017 1
    outer loop
      vertex 220.896 162.636 29.7178
      vertex 227.636 162.636 29.7178
      vertex 221.243 178.832 29.7178
    endloop
  endfacet
  facet normal -0 0 1
    outer loop
      vertex 213.467 172.862 29.7178
      vertex 220.896 162.636 29.7178
      vertex 217.312 175.975 29.7178
    endloop
  endfacet
  facet normal 0 -0 1
    outer loop
      vertex 220.896 162.636 29.7178
      vertex 221.243 178.832 29.7178
      vertex 217.312 175.975 29.7178
    endloop
  endfacet
  facet normal 0 0 1
    outer loop
      vertex 227.636 162.636 29.7178
      vertex 228.612 162.732 29.7178
      vertex 231.583 164.601 29.7178
    endloop
  endfacet
  facet normal -8.12196e-017 9.02035e-017 1
    outer loop
      vertex 220.923 179.227 29.7178
      vertex 201.338 200.979 29.7178
      vertex 197.727 197.727 29.7178
    endloop
  endfacet
  facet normal 0 -0 1
    outer loop
      vertex 229.55 163.017 29.7178
      vertex 231.583 164.601 29.7178
      vertex 228.612 162.732 29.7178
    endloop
  endfacet
  facet normal 0 -0 1
    outer loop
      vertex 230.414 163.479 29.7178
      vertex 231.583 164.601 29.7178
      vertex 229.55 163.017 29.7178
    endloop
  endfacet
  facet normal 0 -0 1
    outer loop
      vertex 231.172 164.101 29.7178
      vertex 231.583 164.601 29.7178
      vertex 230.414 163.479 29.7178
    endloop
  endfacet
  facet normal -9.12842e-017 1.83329e-016 1
    outer loop
      vertex 231.583 164.601 29.7178
      vertex 221.243 178.832 29.7178
      vertex 227.636 162.636 29.7178
    endloop
  endfacet
  facet normal -2.03138e-016 -7.55998e-016 1
    outer loop
      vertex 178.832 221.243 29.7178
      vertex 162.636 220.896 29.7178
      vertex 175.975 217.312 29.7178
    endloop
  endfacet
  facet normal -7.787e-017 9.61614e-017 1
    outer loop
      vertex 213.467 172.862 29.7178
      vertex 217.312 175.975 29.7178
      vertex 194.228 194.228 29.7178
    endloop
  endfacet
  facet normal -8.59469e-017 8.59469e-017 1
    outer loop
      vertex 217.312 175.975 29.7178
      vertex 197.727 197.727 29.7178
      vertex 194.228 194.228 29.7178
    endloop
  endfacet
  facet normal -8.12196e-017 9.02035e-017 1
    outer loop
      vertex 197.727 197.727 29.7178
      vertex 217.312 175.975 29.7178
      vertex 220.923 179.227 29.7178
    endloop
  endfacet
  facet normal -1.92323e-016 1.5574e-016 1
    outer loop
      vertex 194.228 194.228 29.7178
      vertex 175.975 217.312 29.7178
      vertex 172.862 213.467 29.7178
    endloop
  endfacet
  facet normal -1.71894e-016 1.71894e-016 1
    outer loop
      vertex 197.727 197.727 29.7178
      vertex 175.975 217.312 29.7178
      vertex 194.228 194.228 29.7178
    endloop
  endfacet
  facet normal -9.02035e-017 8.12196e-017 1
    outer loop
      vertex 179.227 220.923 29.7178
      vertex 197.727 197.727 29.7178
      vertex 200.979 201.338 29.7178
    endloop
  endfacet
  facet normal -6.69552e-016 -3.80812e-016 1
    outer loop
      vertex 179.227 220.923 29.7178
      vertex 175.975 217.312 29.7178
      vertex 197.727 197.727 29.7178
    endloop
  endfacet
  facet normal 0 0 1
    outer loop
      vertex 175.975 217.312 29.7178
      vertex 162.636 220.896 29.7178
      vertex 172.862 213.467 29.7178
    endloop
  endfacet
  facet normal -2.19361e-016 0 1
    outer loop
      vertex 162.636 227.636 29.7178
      vertex 162.636 220.896 29.7178
      vertex 178.832 221.243 29.7178
    endloop
  endfacet
  facet normal -1.83329e-016 9.12842e-017 1
    outer loop
      vertex 162.636 227.636 29.7178
      vertex 178.832 221.243 29.7178
      vertex 164.601 231.583 29.7178
    endloop
  endfacet
  facet normal 0 0 1
    outer loop
      vertex 163.479 230.414 29.7178
      vertex 164.601 231.583 29.7178
      vertex 164.101 231.172 29.7178
    endloop
  endfacet
  facet normal 0 0 1
    outer loop
      vertex 163.017 229.55 29.7178
      vertex 164.601 231.583 29.7178
      vertex 163.479 230.414 29.7178
    endloop
  endfacet
  facet normal 0 0 1
    outer loop
      vertex 162.732 228.612 29.7178
      vertex 164.601 231.583 29.7178
      vertex 163.017 229.55 29.7178
    endloop
  endfacet
  facet normal 0 0 1
    outer loop
      vertex 162.636 227.636 29.7178
      vertex 164.601 231.583 29.7178
      vertex 162.732 228.612 29.7178
    endloop
  endfacet
  facet normal -0.809017 0.587785 0
    outer loop
      vertex 178.832 221.243 29.7178
      vertex 175.975 217.312 30
      vertex 178.832 221.243 30
    endloop
  endfacet
  facet normal -0.809017 0.587785 0
    outer loop
      vertex 178.832 221.243 29.7178
      vertex 175.975 217.312 29.7178
      vertex 175.975 217.312 30
    endloop
  endfacet
  facet normal -0.587785 -0.809017 -0
    outer loop
      vertex 178.832 221.243 30
      vertex 164.601 231.583 29.7178
      vertex 178.832 221.243 29.7178
    endloop
  endfacet
  facet normal -0.587785 -0.809017 0
    outer loop
      vertex 178.832 221.243 30
      vertex 164.601 231.583 30
      vertex 164.601 231.583 29.7178
    endloop
  endfacet
  facet normal 0.347719 0.478594 -0.80625
    outer loop
      vertex 167.398 206.719 43.9216
      vertex 167.262 206.551 43.7627
      vertex 162.636 209.911 43.7627
    endloop
  endfacet
  facet normal 0.347719 0.478594 -0.80625
    outer loop
      vertex 167.398 206.719 43.9216
      vertex 162.636 209.911 43.7627
      vertex 172.619 213.166 50
    endloop
  endfacet
  facet normal 0.347719 0.478594 -0.80625
    outer loop
      vertex 162.636 209.911 43.7627
      vertex 162.636 220.419 50
      vertex 172.619 213.166 50
    endloop
  endfacet
  facet normal 0.587785 0.809017 0
    outer loop
      vertex 167.262 206.551 43.7627
      vertex 167.262 206.551 36.0713
      vertex 162.636 209.911 43.7627
    endloop
  endfacet
  facet normal 0.587785 0.809017 0
    outer loop
      vertex 162.636 209.911 43.7627
      vertex 167.262 206.551 36.0713
      vertex 162.636 209.911 36.0713
    endloop
  endfacet
  facet normal 0.341852 0.470519 0.81348
    outer loop
      vertex 172.811 213.404 29.7749
      vertex 162.636 209.911 36.0713
      vertex 167.262 206.551 36.0713
    endloop
  endfacet
  facet normal 0.341852 0.470519 0.81348
    outer loop
      vertex 172.811 213.404 29.7749
      vertex 162.636 220.896 29.7178
      vertex 162.636 209.911 36.0713
    endloop
  endfacet
  facet normal 0.341852 0.470519 0.81348
    outer loop
      vertex 172.862 213.467 29.7178
      vertex 162.636 220.896 29.7178
      vertex 172.811 213.404 29.7749
    endloop
  endfacet
  facet normal 0.743145 -0.669131 0
    outer loop
      vertex 175.975 217.312 30
      vertex 175.975 217.312 29.7178
      vertex 179.227 220.923 29.7178
    endloop
  endfacet
  facet normal 0.743145 -0.669131 0
    outer loop
      vertex 179.227 220.923 30
      vertex 175.975 217.312 30
      vertex 179.227 220.923 29.7178
    endloop
  endfacet
  facet normal -0.743145 0.669131 0
    outer loop
      vertex 200.979 201.338 29.7178
      vertex 197.727 197.727 30
      vertex 200.979 201.338 30
    endloop
  endfacet
  facet normal -0.743145 0.669131 0
    outer loop
      vertex 200.979 201.338 29.7178
      vertex 197.727 197.727 29.7178
      vertex 197.727 197.727 30
    endloop
  endfacet
  facet normal -0.669131 -0.743145 -0
    outer loop
      vertex 200.979 201.338 30
      vertex 179.227 220.923 29.7178
      vertex 200.979 201.338 29.7178
    endloop
  endfacet
  facet normal -0.669131 -0.743145 0
    outer loop
      vertex 200.979 201.338 30
      vertex 179.227 220.923 30
      vertex 179.227 220.923 29.7178
    endloop
  endfacet
  facet normal 0.395841 0.439626 -0.80625
    outer loop
      vertex 167.398 206.719 43.9216
      vertex 172.619 213.166 50
      vertex 193.218 194.619 50
    endloop
  endfacet
  facet normal 0.395841 0.439626 -0.80625
    outer loop
      vertex 193.218 194.619 50
      vertex 188.089 188.089 43.9216
      vertex 167.398 206.719 43.9216
    endloop
  endfacet
  facet normal 0.395841 0.439626 -0.80625
    outer loop
      vertex 193.218 194.619 50
      vertex 193.955 193.955 50
      vertex 188.089 188.089 43.9216
    endloop
  endfacet
  facet normal 0.395841 0.439626 -0.80625
    outer loop
      vertex 167.398 206.719 43.9216
      vertex 188.089 188.089 43.9216
      vertex 187.936 187.936 43.7627
    endloop
  endfacet
  facet normal 0.395841 0.439626 -0.80625
    outer loop
      vertex 167.398 206.719 43.9216
      vertex 187.936 187.936 43.7627
      vertex 167.262 206.551 43.7627
    endloop
  endfacet
  facet normal 0.669131 0.743145 3.30326e-014
    outer loop
      vertex 169.245 204.765 40.0451
      vertex 167.262 206.551 36.0713
      vertex 169.232 204.777 40.2091
    endloop
  endfacet
  facet normal 0.669131 0.743145 -6.72046e-015
    outer loop
      vertex 169.296 204.719 39.382
      vertex 167.262 206.551 36.0713
      vertex 169.245 204.765 40.0451
    endloop
  endfacet
  facet normal 0.669131 0.743145 2.60688e-015
    outer loop
      vertex 169.606 204.44 38.6617
      vertex 167.262 206.551 36.0713
      vertex 169.296 204.719 39.382
    endloop
  endfacet
  facet normal 0.669131 0.743145 2.95781e-016
    outer loop
      vertex 170.106 203.99 38.1729
      vertex 167.262 206.551 36.0713
      vertex 169.606 204.44 38.6617
    endloop
  endfacet
  facet normal 0.669131 0.743145 -6.62958e-015
    outer loop
      vertex 170.711 203.445 38
      vertex 167.262 206.551 36.0713
      vertex 170.106 203.99 38.1729
    endloop
  endfacet
  facet normal 0.669131 0.743145 -3.19442e-015
    outer loop
      vertex 187.936 187.936 36.0713
      vertex 167.262 206.551 36.0713
      vertex 171.316 202.9 38.1729
    endloop
  endfacet
  facet normal 0.669131 0.743145 -1.36347e-013
    outer loop
      vertex 167.262 206.551 36.0713
      vertex 170.711 203.445 38
      vertex 170.831 203.337 38.0345
    endloop
  endfacet
  facet normal 0.669131 0.743145 6.98725e-015
    outer loop
      vertex 171.02 203.167 41.9563
      vertex 167.262 206.551 43.7627
      vertex 187.936 187.936 43.7627
    endloop
  endfacet
  facet normal 0.669131 0.743145 2.98451e-014
    outer loop
      vertex 167.262 206.551 36.0713
      vertex 170.831 203.337 38.0345
      vertex 171.316 202.9 38.1729
    endloop
  endfacet
  facet normal 0.669131 0.743145 -0
    outer loop
      vertex 187.936 187.936 36.0713
      vertex 172.19 202.113 40.2091
      vertex 187.936 187.936 43.7627
    endloop
  endfacet
  facet normal 0.669131 0.743145 6.47018e-015
    outer loop
      vertex 171.316 202.9 38.1729
      vertex 171.716 202.54 38.564
      vertex 187.936 187.936 36.0713
    endloop
  endfacet
  facet normal 0.669131 0.743145 -4.31474e-014
    outer loop
      vertex 171.716 202.54 38.564
      vertex 171.816 202.45 38.6617
      vertex 187.936 187.936 36.0713
    endloop
  endfacet
  facet normal 0.669131 0.743145 -7.74827e-015
    outer loop
      vertex 171.816 202.45 38.6617
      vertex 172.063 202.227 39.2378
      vertex 187.936 187.936 36.0713
    endloop
  endfacet
  facet normal 0.669131 0.743145 1.27122e-013
    outer loop
      vertex 172.063 202.227 39.2378
      vertex 172.125 202.172 39.382
      vertex 187.936 187.936 36.0713
    endloop
  endfacet
  facet normal 0.669131 0.743145 -1.60626e-013
    outer loop
      vertex 172.125 202.172 39.382
      vertex 172.138 202.16 39.5475
      vertex 187.936 187.936 36.0713
    endloop
  endfacet
  facet normal 0.669131 0.743145 9.76206e-015
    outer loop
      vertex 172.138 202.16 39.5475
      vertex 172.19 202.113 40.2091
      vertex 187.936 187.936 36.0713
    endloop
  endfacet
  facet normal 0.669131 0.743145 3.07925e-014
    outer loop
      vertex 172.19 202.113 40.2091
      vertex 172.037 202.251 40.8417
      vertex 187.936 187.936 43.7627
    endloop
  endfacet
  facet normal 0.669131 0.743145 -1.34918e-013
    outer loop
      vertex 172.037 202.251 40.8417
      vertex 171.999 202.285 41
      vertex 187.936 187.936 43.7627
    endloop
  endfacet
  facet normal 0.669131 0.743145 1.4352e-013
    outer loop
      vertex 171.999 202.285 41
      vertex 171.916 202.36 41.1236
      vertex 187.936 187.936 43.7627
    endloop
  endfacet
  facet normal 0.669131 0.743145 -3.66679e-014
    outer loop
      vertex 171.916 202.36 41.1236
      vertex 171.585 202.658 41.618
      vertex 187.936 187.936 43.7627
    endloop
  endfacet
  facet normal 0.669131 0.743145 -2.50764e-014
    outer loop
      vertex 170.402 203.724 41.9563
      vertex 167.262 206.551 43.7627
      vertex 171.02 203.167 41.9563
    endloop
  endfacet
  facet normal 0.669131 0.743145 9.1372e-015
    outer loop
      vertex 171.585 202.658 41.618
      vertex 171.02 203.167 41.9563
      vertex 187.936 187.936 43.7627
    endloop
  endfacet
  facet normal 0.669131 0.743145 -4.0168e-015
    outer loop
      vertex 169.837 204.232 41.618
      vertex 167.262 206.551 43.7627
      vertex 170.402 203.724 41.9563
    endloop
  endfacet
  facet normal 0.669131 0.743145 2.00652e-014
    outer loop
      vertex 169.423 204.605 41
      vertex 167.262 206.551 43.7627
      vertex 169.837 204.232 41.618
    endloop
  endfacet
  facet normal 0.669131 0.743145 -1.10446e-014
    outer loop
      vertex 169.27 204.743 40.3659
      vertex 167.262 206.551 43.7627
      vertex 169.423 204.605 41
    endloop
  endfacet
  facet normal 0.669131 0.743145 -2.91954e-014
    outer loop
      vertex 169.232 204.777 40.2091
      vertex 167.262 206.551 43.7627
      vertex 169.27 204.743 40.3659
    endloop
  endfacet
  facet normal 0.669131 0.743145 -0
    outer loop
      vertex 167.262 206.551 36.0713
      vertex 167.262 206.551 43.7627
      vertex 169.232 204.777 40.2091
    endloop
  endfacet
  facet normal 0.389162 0.432208 0.81348
    outer loop
      vertex 167.262 206.551 36.0713
      vertex 187.936 187.936 36.0713
      vertex 188.089 188.089 35.9164
    endloop
  endfacet
  facet normal 0.389162 0.432208 0.81348
    outer loop
      vertex 172.811 213.404 29.7749
      vertex 167.262 206.551 36.0713
      vertex 188.089 188.089 35.9164
    endloop
  endfacet
  facet normal 0.389162 0.432208 0.81348
    outer loop
      vertex 194.228 194.228 29.7178
      vertex 172.862 213.467 29.7178
      vertex 194.172 194.172 29.7749
    endloop
  endfacet
  facet normal 0.389162 0.432208 0.81348
    outer loop
      vertex 172.811 213.404 29.7749
      vertex 188.089 188.089 35.9164
      vertex 194.172 194.172 29.7749
    endloop
  endfacet
  facet normal 0.389162 0.432208 0.81348
    outer loop
      vertex 172.811 213.404 29.7749
      vertex 194.172 194.172 29.7749
      vertex 172.862 213.467 29.7178
    endloop
  endfacet
  facet normal 0.669131 -0.743145 0
    outer loop
      vertex 201.338 200.979 30
      vertex 197.727 197.727 29.7178
      vertex 201.338 200.979 29.7178
    endloop
  endfacet
  facet normal 0.669131 -0.743145 0
    outer loop
      vertex 201.338 200.979 30
      vertex 197.727 197.727 30
      vertex 197.727 197.727 29.7178
    endloop
  endfacet
  facet normal -0.669131 0.743145 0
    outer loop
      vertex 220.923 179.227 29.7178
      vertex 217.312 175.975 29.7178
      vertex 220.923 179.227 30
    endloop
  endfacet
  facet normal -0.669131 0.743145 0
    outer loop
      vertex 220.923 179.227 30
      vertex 217.312 175.975 29.7178
      vertex 217.312 175.975 30
    endloop
  endfacet
  facet normal -0.743145 -0.669131 0
    outer loop
      vertex 220.923 179.227 29.7178
      vertex 201.338 200.979 30
      vertex 201.338 200.979 29.7178
    endloop
  endfacet
  facet normal -0.743145 -0.669131 0
    outer loop
      vertex 220.923 179.227 29.7178
      vertex 220.923 179.227 30
      vertex 201.338 200.979 30
    endloop
  endfacet
  facet normal 0.439626 0.395841 -0.80625
    outer loop
      vertex 188.089 188.089 43.9216
      vertex 193.955 193.955 50
      vertex 212.502 173.356 50
    endloop
  endfacet
  facet normal 0.439626 0.395841 -0.80625
    outer loop
      vertex 212.502 173.356 50
      vertex 206.551 167.262 43.7627
      vertex 188.089 188.089 43.9216
    endloop
  endfacet
  facet normal 0.439626 0.395841 -0.80625
    outer loop
      vertex 212.502 173.356 50
      vertex 213.166 172.619 50
      vertex 206.551 167.262 43.7627
    endloop
  endfacet
  facet normal 0.439626 0.395841 -0.80625
    outer loop
      vertex 188.089 188.089 43.9216
      vertex 206.551 167.262 43.7627
      vertex 187.936 187.936 43.7627
    endloop
  endfacet
  facet normal 0.743145 0.669131 6.98725e-015
    outer loop
      vertex 187.936 187.936 43.7627
      vertex 206.551 167.262 43.7627
      vertex 203.167 171.02 41.9563
    endloop
  endfacet
  facet normal 0.743145 0.669131 7.23902e-015
    outer loop
      vertex 187.936 187.936 36.0713
      vertex 202.172 172.125 39.382
      vertex 202.394 171.878 38.8058
    endloop
  endfacet
  facet normal 0.743145 0.669131 7.86861e-016
    outer loop
      vertex 202.113 172.19 40.2091
      vertex 202.172 172.125 39.382
      vertex 187.936 187.936 36.0713
    endloop
  endfacet
  facet normal 0.743145 0.669131 -6.89664e-014
    outer loop
      vertex 187.936 187.936 36.0713
      vertex 202.394 171.878 38.8058
      vertex 202.45 171.816 38.6617
    endloop
  endfacet
  facet normal 0.743145 0.669131 1.42466e-013
    outer loop
      vertex 187.936 187.936 36.0713
      vertex 202.45 171.816 38.6617
      vertex 202.54 171.716 38.564
    endloop
  endfacet
  facet normal 0.743145 0.669131 -4.13454e-014
    outer loop
      vertex 187.936 187.936 36.0713
      vertex 202.54 171.716 38.564
      vertex 202.9 171.316 38.1729
    endloop
  endfacet
  facet normal 0.743145 0.669131 -3.19442e-015
    outer loop
      vertex 187.936 187.936 36.0713
      vertex 202.9 171.316 38.1729
      vertex 206.551 167.262 36.0713
    endloop
  endfacet
  facet normal 0.743145 0.669131 2.98451e-014
    outer loop
      vertex 202.9 171.316 38.1729
      vertex 203.337 170.831 38.0345
      vertex 206.551 167.262 36.0713
    endloop
  endfacet
  facet normal 0.743145 0.669131 -1.36346e-013
    outer loop
      vertex 203.337 170.831 38.0345
      vertex 203.445 170.711 38
      vertex 206.551 167.262 36.0713
    endloop
  endfacet
  facet normal 0.743145 0.669131 -1.37599e-014
    outer loop
      vertex 203.445 170.711 38
      vertex 203.881 170.226 38.1385
      vertex 206.551 167.262 36.0713
    endloop
  endfacet
  facet normal 0.743145 0.669131 -7.31892e-016
    outer loop
      vertex 203.881 170.226 38.1385
      vertex 203.99 170.106 38.1729
      vertex 206.551 167.262 36.0713
    endloop
  endfacet
  facet normal 0.743145 0.669131 -5.06485e-015
    outer loop
      vertex 203.99 170.106 38.1729
      vertex 204.079 170.006 38.2701
      vertex 206.551 167.262 36.0713
    endloop
  endfacet
  facet normal 0.743145 0.669131 2.54442e-014
    outer loop
      vertex 204.232 169.837 41.618
      vertex 206.551 167.262 43.7627
      vertex 204.531 169.505 41.1226
    endloop
  endfacet
  facet normal 0.743145 0.669131 3.8238e-015
    outer loop
      vertex 204.079 170.006 38.2701
      vertex 204.44 169.606 38.6617
      vertex 206.551 167.262 36.0713
    endloop
  endfacet
  facet normal 0.743145 0.669131 0
    outer loop
      vertex 204.777 169.232 40.2091
      vertex 206.551 167.262 43.7627
      vertex 206.551 167.262 36.0713
    endloop
  endfacet
  facet normal 0.743145 0.669131 1.14017e-014
    outer loop
      vertex 204.663 169.358 39.2391
      vertex 206.551 167.262 36.0713
      vertex 204.44 169.606 38.6617
    endloop
  endfacet
  facet normal 0.743145 0.669131 -2.8255e-014
    outer loop
      vertex 204.719 169.296 39.382
      vertex 206.551 167.262 36.0713
      vertex 204.663 169.358 39.2391
    endloop
  endfacet
  facet normal 0.743145 0.669131 -6.72046e-015
    outer loop
      vertex 204.765 169.245 40.0451
      vertex 206.551 167.262 36.0713
      vertex 204.719 169.296 39.382
    endloop
  endfacet
  facet normal 0.743145 0.669131 3.30326e-014
    outer loop
      vertex 204.777 169.232 40.2091
      vertex 206.551 167.262 36.0713
      vertex 204.765 169.245 40.0451
    endloop
  endfacet
  facet normal 0.743145 0.669131 -2.91954e-014
    outer loop
      vertex 204.743 169.27 40.3659
      vertex 206.551 167.262 43.7627
      vertex 204.777 169.232 40.2091
    endloop
  endfacet
  facet normal 0.743145 0.669131 1.02447e-014
    outer loop
      vertex 204.605 169.423 41
      vertex 206.551 167.262 43.7627
      vertex 204.743 169.27 40.3659
    endloop
  endfacet
  facet normal 0.743145 0.669131 -8.4911e-014
    outer loop
      vertex 204.531 169.505 41.1226
      vertex 206.551 167.262 43.7627
      vertex 204.605 169.423 41
    endloop
  endfacet
  facet normal 0.743145 0.669131 9.63776e-015
    outer loop
      vertex 203.825 170.289 41.889
      vertex 206.551 167.262 43.7627
      vertex 204.232 169.837 41.618
    endloop
  endfacet
  facet normal 0.743145 0.669131 -2.50762e-014
    outer loop
      vertex 206.551 167.262 43.7627
      vertex 203.724 170.402 41.9563
      vertex 203.167 171.02 41.9563
    endloop
  endfacet
  facet normal 0.743145 0.669131 -7.10585e-014
    outer loop
      vertex 203.724 170.402 41.9563
      vertex 206.551 167.262 43.7627
      vertex 203.825 170.289 41.889
    endloop
  endfacet
  facet normal 0.743145 0.669131 -8.01247e-015
    outer loop
      vertex 187.936 187.936 43.7627
      vertex 203.167 171.02 41.9563
      vertex 202.76 171.472 41.6856
    endloop
  endfacet
  facet normal 0.743145 0.669131 7.55598e-014
    outer loop
      vertex 187.936 187.936 43.7627
      vertex 202.76 171.472 41.6856
      vertex 202.658 171.585 41.618
    endloop
  endfacet
  facet normal 0.743145 0.669131 2.60475e-015
    outer loop
      vertex 187.936 187.936 43.7627
      vertex 202.658 171.585 41.618
      vertex 202.36 171.916 41.1236
    endloop
  endfacet
  facet normal 0.743145 0.669131 -9.55809e-015
    outer loop
      vertex 187.936 187.936 43.7627
      vertex 202.36 171.916 41.1236
      vertex 202.285 171.999 41
    endloop
  endfacet
  facet normal 0.743145 0.669131 -6.84344e-015
    outer loop
      vertex 187.936 187.936 43.7627
      vertex 202.285 171.999 41
      vertex 202.251 172.037 40.8417
    endloop
  endfacet
  facet normal 0.743145 0.669131 -8.6688e-016
    outer loop
      vertex 187.936 187.936 43.7627
      vertex 202.251 172.037 40.8417
      vertex 202.113 172.19 40.2091
    endloop
  endfacet
  facet normal 0.743145 0.669131 0
    outer loop
      vertex 187.936 187.936 43.7627
      vertex 202.113 172.19 40.2091
      vertex 187.936 187.936 36.0713
    endloop
  endfacet
  facet normal 0.432208 0.389162 0.81348
    outer loop
      vertex 187.936 187.936 36.0713
      vertex 206.551 167.262 36.0713
      vertex 206.719 167.398 35.9164
    endloop
  endfacet
  facet normal 0.432208 0.389162 0.81348
    outer loop
      vertex 194.172 194.172 29.7749
      vertex 188.089 188.089 35.9164
      vertex 206.719 167.398 35.9164
    endloop
  endfacet
  facet normal 0.432208 0.389162 0.81348
    outer loop
      vertex 188.089 188.089 35.9164
      vertex 187.936 187.936 36.0713
      vertex 206.719 167.398 35.9164
    endloop
  endfacet
  facet normal 0.432208 0.389162 0.81348
    outer loop
      vertex 194.172 194.172 29.7749
      vertex 206.719 167.398 35.9164
      vertex 213.467 172.862 29.7178
    endloop
  endfacet
  facet normal 0.432208 0.389162 0.81348
    outer loop
      vertex 194.228 194.228 29.7178
      vertex 194.172 194.172 29.7749
      vertex 213.467 172.862 29.7178
    endloop
  endfacet
  facet normal 0.587785 -0.809017 0
    outer loop
      vertex 221.243 178.832 30
      vertex 217.312 175.975 29.7178
      vertex 221.243 178.832 29.7178
    endloop
  endfacet
  facet normal 0.587785 -0.809017 0
    outer loop
      vertex 221.243 178.832 30
      vertex 217.312 175.975 30
      vertex 217.312 175.975 29.7178
    endloop
  endfacet
  facet normal -0.809017 -0.587785 0
    outer loop
      vertex 231.583 164.601 29.7178
      vertex 221.243 178.832 30
      vertex 221.243 178.832 29.7178
    endloop
  endfacet
  facet normal -0.809017 -0.587785 0
    outer loop
      vertex 231.583 164.601 29.7178
      vertex 231.583 164.601 30
      vertex 221.243 178.832 30
    endloop
  endfacet
  facet normal 0.478594 0.347719 -0.80625
    outer loop
      vertex 220.419 162.636 50
      vertex 209.911 162.636 43.7627
      vertex 213.166 172.619 50
    endloop
  endfacet
  facet normal 0.478594 0.347719 -0.80625
    outer loop
      vertex 213.166 172.619 50
      vertex 209.911 162.636 43.7627
      vertex 206.551 167.262 43.7627
    endloop
  endfacet
  facet normal 0.809017 0.587785 0
    outer loop
      vertex 206.551 167.262 43.7627
      vertex 209.911 162.636 43.7627
      vertex 209.911 162.636 36.0713
    endloop
  endfacet
  facet normal 0.809017 0.587785 -0
    outer loop
      vertex 206.551 167.262 36.0713
      vertex 206.551 167.262 43.7627
      vertex 209.911 162.636 36.0713
    endloop
  endfacet
  facet normal 0.470519 0.341852 0.81348
    outer loop
      vertex 213.467 172.862 29.7178
      vertex 209.911 162.636 36.0713
      vertex 220.896 162.636 29.7178
    endloop
  endfacet
  facet normal 0.470519 0.341852 0.81348
    outer loop
      vertex 213.467 172.862 29.7178
      vertex 206.719 167.398 35.9164
      vertex 209.911 162.636 36.0713
    endloop
  endfacet
  facet normal 0.470519 0.341852 0.81348
    outer loop
      vertex 206.719 167.398 35.9164
      vertex 206.551 167.262 36.0713
      vertex 209.911 162.636 36.0713
    endloop
  endfacet
  facet normal -0 0 -1
    outer loop
      vertex 171.02 203.167 41.9563
      vertex 162.636 194.469 41.9563
      vertex 170.402 203.724 41.9563
    endloop
  endfacet
  facet normal 0 0 -1
    outer loop
      vertex 171.02 203.167 41.9563
      vertex 162.636 193.176 41.9563
      vertex 162.636 194.469 41.9563
    endloop
  endfacet
  facet normal -0.311578 0.261445 -0.913545
    outer loop
      vertex 171.585 202.658 41.618
      vertex 162.636 193.176 41.9563
      vertex 171.02 203.167 41.9563
    endloop
  endfacet
  facet normal -0.311578 0.261445 -0.913545
    outer loop
      vertex 171.585 202.658 41.618
      vertex 162.636 191.994 41.618
      vertex 162.636 193.176 41.9563
    endloop
  endfacet
  facet normal 0.761848 -0.639266 0.104528
    outer loop
      vertex 162.636 196.917 40.2091
      vertex 162.636 196.87 39.9232
      vertex 169.245 204.765 40.0451
    endloop
  endfacet
  facet normal 0.761848 -0.639266 0.104528
    outer loop
      vertex 169.232 204.777 40.2091
      vertex 162.636 196.917 40.2091
      vertex 169.245 204.765 40.0451
    endloop
  endfacet
  facet normal 0.15927 -0.133643 0.978148
    outer loop
      vertex 162.636 195.088 38.1729
      vertex 162.636 193.822 38
      vertex 170.711 203.445 38
    endloop
  endfacet
  facet normal 0.15927 -0.133643 0.978148
    outer loop
      vertex 170.106 203.99 38.1729
      vertex 162.636 195.088 38.1729
      vertex 170.711 203.445 38
    endloop
  endfacet
  facet normal -0.569282 0.477684 -0.669131
    outer loop
      vertex 171.999 202.285 41
      vertex 162.636 191.478 41.2501
      vertex 171.916 202.36 41.1236
    endloop
  endfacet
  facet normal -0.569282 0.477684 -0.669131
    outer loop
      vertex 171.999 202.285 41
      vertex 162.636 191.128 41
      vertex 162.636 191.478 41.2501
    endloop
  endfacet
  facet normal -0.15927 0.133643 0.978148
    outer loop
      vertex 162.636 193.336 38.0665
      vertex 162.636 192.557 38.1729
      vertex 171.316 202.9 38.1729
    endloop
  endfacet
  facet normal -0.15927 0.133643 0.978148
    outer loop
      vertex 170.831 203.337 38.0345
      vertex 162.636 193.336 38.0665
      vertex 171.316 202.9 38.1729
    endloop
  endfacet
  facet normal -0.761848 0.639266 0.104528
    outer loop
      vertex 172.138 202.16 39.5475
      vertex 162.636 190.863 39.382
      vertex 162.636 190.808 39.7228
    endloop
  endfacet
  facet normal -0.761848 0.639266 0.104528
    outer loop
      vertex 172.138 202.16 39.5475
      vertex 172.125 202.172 39.382
      vertex 162.636 190.863 39.382
    endloop
  endfacet
  facet normal 0.761848 -0.639266 0.104528
    outer loop
      vertex 162.636 196.87 39.9232
      vertex 162.636 196.782 39.382
      vertex 169.296 204.719 39.382
    endloop
  endfacet
  facet normal 0.761848 -0.639266 0.104528
    outer loop
      vertex 169.245 204.765 40.0451
      vertex 162.636 196.87 39.9232
      vertex 169.296 204.719 39.382
    endloop
  endfacet
  facet normal -0.728552 0.611327 -0.309017
    outer loop
      vertex 172.19 202.113 40.2091
      vertex 162.636 190.964 40.6754
      vertex 172.037 202.251 40.8417
    endloop
  endfacet
  facet normal -0.728552 0.611327 -0.309017
    outer loop
      vertex 172.19 202.113 40.2091
      vertex 162.636 190.728 40.2091
      vertex 162.636 190.964 40.6754
    endloop
  endfacet
  facet normal 0.45027 -0.377821 0.809017
    outer loop
      vertex 162.636 196.135 38.6617
      vertex 162.636 195.088 38.1729
      vertex 170.106 203.99 38.1729
    endloop
  endfacet
  facet normal 0.45027 -0.377821 0.809017
    outer loop
      vertex 169.606 204.44 38.6617
      vertex 162.636 196.135 38.6617
      vertex 170.106 203.99 38.1729
    endloop
  endfacet
  facet normal 0.663414 -0.55667 0.5
    outer loop
      vertex 162.636 196.782 39.382
      vertex 162.636 196.135 38.6617
      vertex 169.606 204.44 38.6617
    endloop
  endfacet
  facet normal 0.663414 -0.55667 0.5
    outer loop
      vertex 169.296 204.719 39.382
      vertex 162.636 196.782 39.382
      vertex 169.606 204.44 38.6617
    endloop
  endfacet
  facet normal 0.728552 -0.611327 -0.309017
    outer loop
      vertex 162.636 196.778 40.4832
      vertex 169.27 204.743 40.3659
      vertex 169.423 204.605 41
    endloop
  endfacet
  facet normal 0.728552 -0.611327 -0.309017
    outer loop
      vertex 162.636 196.517 41
      vertex 162.636 196.778 40.4832
      vertex 169.423 204.605 41
    endloop
  endfacet
  facet normal -0.45027 0.377821 0.809017
    outer loop
      vertex 162.636 191.929 38.4663
      vertex 162.636 191.51 38.6617
      vertex 171.816 202.45 38.6617
    endloop
  endfacet
  facet normal -0.45027 0.377821 0.809017
    outer loop
      vertex 171.716 202.54 38.564
      vertex 162.636 191.929 38.4663
      vertex 171.816 202.45 38.6617
    endloop
  endfacet
  facet normal -0.663414 0.55667 0.5
    outer loop
      vertex 172.063 202.227 39.2378
      vertex 162.636 191.51 38.6617
      vertex 162.636 191.128 39.0877
    endloop
  endfacet
  facet normal -0.663414 0.55667 0.5
    outer loop
      vertex 172.063 202.227 39.2378
      vertex 171.816 202.45 38.6617
      vertex 162.636 191.51 38.6617
    endloop
  endfacet
  facet normal -0.663414 0.55667 0.5
    outer loop
      vertex 172.125 202.172 39.382
      vertex 162.636 191.128 39.0877
      vertex 162.636 190.863 39.382
    endloop
  endfacet
  facet normal -0.663414 0.55667 0.5
    outer loop
      vertex 172.125 202.172 39.382
      vertex 172.063 202.227 39.2378
      vertex 162.636 191.128 39.0877
    endloop
  endfacet
  facet normal -0.569282 0.477684 -0.669131
    outer loop
      vertex 171.916 202.36 41.1236
      vertex 162.636 191.994 41.618
      vertex 171.585 202.658 41.618
    endloop
  endfacet
  facet normal -0.569282 0.477684 -0.669131
    outer loop
      vertex 171.916 202.36 41.1236
      vertex 162.636 191.478 41.2501
      vertex 162.636 191.994 41.618
    endloop
  endfacet
  facet normal -0.15927 0.133643 0.978148
    outer loop
      vertex 162.636 193.822 38
      vertex 162.636 193.336 38.0665
      vertex 170.831 203.337 38.0345
    endloop
  endfacet
  facet normal -0.15927 0.133643 0.978148
    outer loop
      vertex 170.711 203.445 38
      vertex 162.636 193.822 38
      vertex 170.831 203.337 38.0345
    endloop
  endfacet
  facet normal 0.728552 -0.611327 -0.309017
    outer loop
      vertex 162.636 196.917 40.2091
      vertex 169.232 204.777 40.2091
      vertex 169.27 204.743 40.3659
    endloop
  endfacet
  facet normal 0.728552 -0.611327 -0.309017
    outer loop
      vertex 162.636 196.778 40.4832
      vertex 162.636 196.917 40.2091
      vertex 169.27 204.743 40.3659
    endloop
  endfacet
  facet normal 0.311578 -0.261445 -0.913545
    outer loop
      vertex 170.402 203.724 41.9563
      vertex 162.636 195.651 41.618
      vertex 169.837 204.232 41.618
    endloop
  endfacet
  facet normal 0.311578 -0.261445 -0.913545
    outer loop
      vertex 170.402 203.724 41.9563
      vertex 162.636 194.469 41.9563
      vertex 162.636 195.651 41.618
    endloop
  endfacet
  facet normal 0.569282 -0.477684 -0.669131
    outer loop
      vertex 169.837 204.232 41.618
      vertex 162.636 196.517 41
      vertex 169.423 204.605 41
    endloop
  endfacet
  facet normal 0.569282 -0.477684 -0.669131
    outer loop
      vertex 169.837 204.232 41.618
      vertex 162.636 195.651 41.618
      vertex 162.636 196.517 41
    endloop
  endfacet
  facet normal -0.728552 0.611327 -0.309017
    outer loop
      vertex 172.037 202.251 40.8417
      vertex 162.636 191.128 41
      vertex 171.999 202.285 41
    endloop
  endfacet
  facet normal -0.728552 0.611327 -0.309017
    outer loop
      vertex 172.037 202.251 40.8417
      vertex 162.636 190.964 40.6754
      vertex 162.636 191.128 41
    endloop
  endfacet
  facet normal -0.761848 0.639266 0.104528
    outer loop
      vertex 172.19 202.113 40.2091
      vertex 162.636 190.808 39.7228
      vertex 162.636 190.728 40.2091
    endloop
  endfacet
  facet normal -0.761848 0.639266 0.104528
    outer loop
      vertex 172.19 202.113 40.2091
      vertex 172.138 202.16 39.5475
      vertex 162.636 190.808 39.7228
    endloop
  endfacet
  facet normal -0.45027 0.377821 0.809017
    outer loop
      vertex 162.636 192.557 38.1729
      vertex 162.636 191.929 38.4663
      vertex 171.716 202.54 38.564
    endloop
  endfacet
  facet normal -0.45027 0.377821 0.809017
    outer loop
      vertex 171.316 202.9 38.1729
      vertex 162.636 192.557 38.1729
      vertex 171.716 202.54 38.564
    endloop
  endfacet
  facet normal -0 0 -1
    outer loop
      vertex 203.724 170.402 41.9563
      vertex 194.469 162.636 41.9563
      vertex 203.167 171.02 41.9563
    endloop
  endfacet
  facet normal 0 0 -1
    outer loop
      vertex 203.167 171.02 41.9563
      vertex 194.469 162.636 41.9563
      vertex 193.176 162.636 41.9563
    endloop
  endfacet
  facet normal -0.261445 0.311578 -0.913545
    outer loop
      vertex 203.825 170.289 41.889
      vertex 194.903 162.636 41.8321
      vertex 203.724 170.402 41.9563
    endloop
  endfacet
  facet normal -0.261445 0.311578 -0.913545
    outer loop
      vertex 203.724 170.402 41.9563
      vertex 194.903 162.636 41.8321
      vertex 194.469 162.636 41.9563
    endloop
  endfacet
  facet normal 0.477684 -0.569282 -0.669131
    outer loop
      vertex 202.658 171.585 41.618
      vertex 191.994 162.636 41.618
      vertex 202.36 171.916 41.1236
    endloop
  endfacet
  facet normal 0.477684 -0.569282 -0.669131
    outer loop
      vertex 202.36 171.916 41.1236
      vertex 191.994 162.636 41.618
      vertex 191.478 162.636 41.2501
    endloop
  endfacet
  facet normal -0.477684 0.569282 -0.669131
    outer loop
      vertex 204.605 169.423 41
      vertex 196.517 162.636 41
      vertex 204.531 169.505 41.1226
    endloop
  endfacet
  facet normal -0.477684 0.569282 -0.669131
    outer loop
      vertex 204.531 169.505 41.1226
      vertex 196.517 162.636 41
      vertex 196.212 162.636 41.218
    endloop
  endfacet
  facet normal 0.639266 -0.761848 0.104528
    outer loop
      vertex 202.113 172.19 40.2091
      vertex 190.863 162.636 39.382
      vertex 202.172 172.125 39.382
    endloop
  endfacet
  facet normal 0.639266 -0.761848 0.104528
    outer loop
      vertex 202.113 172.19 40.2091
      vertex 190.728 162.636 40.2091
      vertex 190.863 162.636 39.382
    endloop
  endfacet
  facet normal -0.377821 0.45027 0.809017
    outer loop
      vertex 204.079 170.006 38.2701
      vertex 196.135 162.636 38.6617
      vertex 204.44 169.606 38.6617
    endloop
  endfacet
  facet normal -0.377821 0.45027 0.809017
    outer loop
      vertex 204.079 170.006 38.2701
      vertex 195.466 162.636 38.3494
      vertex 196.135 162.636 38.6617
    endloop
  endfacet
  facet normal 0.377821 -0.45027 0.809017
    outer loop
      vertex 202.54 171.716 38.564
      vertex 192.557 162.636 38.1729
      vertex 202.9 171.316 38.1729
    endloop
  endfacet
  facet normal 0.377821 -0.45027 0.809017
    outer loop
      vertex 202.54 171.716 38.564
      vertex 191.929 162.636 38.4663
      vertex 192.557 162.636 38.1729
    endloop
  endfacet
  facet normal 0.133643 -0.15927 0.978148
    outer loop
      vertex 202.9 171.316 38.1729
      vertex 193.336 162.636 38.0665
      vertex 203.337 170.831 38.0345
    endloop
  endfacet
  facet normal 0.133643 -0.15927 0.978148
    outer loop
      vertex 202.9 171.316 38.1729
      vertex 192.557 162.636 38.1729
      vertex 193.336 162.636 38.0665
    endloop
  endfacet
  facet normal 0.477684 -0.569282 -0.669131
    outer loop
      vertex 202.36 171.916 41.1236
      vertex 191.478 162.636 41.2501
      vertex 202.285 171.999 41
    endloop
  endfacet
  facet normal 0.477684 -0.569282 -0.669131
    outer loop
      vertex 202.285 171.999 41
      vertex 191.478 162.636 41.2501
      vertex 191.128 162.636 41
    endloop
  endfacet
  facet normal -0.611327 0.728552 -0.309017
    outer loop
      vertex 204.743 169.27 40.3659
      vertex 196.778 162.636 40.4832
      vertex 204.605 169.423 41
    endloop
  endfacet
  facet normal -0.611327 0.728552 -0.309017
    outer loop
      vertex 204.605 169.423 41
      vertex 196.778 162.636 40.4832
      vertex 196.517 162.636 41
    endloop
  endfacet
  facet normal -0.55667 0.663414 0.5
    outer loop
      vertex 204.719 169.296 39.382
      vertex 204.663 169.358 39.2391
      vertex 196.782 162.636 39.382
    endloop
  endfacet
  facet normal -0.55667 0.663414 0.5
    outer loop
      vertex 196.782 162.636 39.382
      vertex 204.663 169.358 39.2391
      vertex 196.556 162.636 39.1306
    endloop
  endfacet
  facet normal 0.261445 -0.311578 -0.913545
    outer loop
      vertex 203.167 171.02 41.9563
      vertex 193.176 162.636 41.9563
      vertex 202.76 171.472 41.6856
    endloop
  endfacet
  facet normal 0.261445 -0.311578 -0.913545
    outer loop
      vertex 202.76 171.472 41.6856
      vertex 193.176 162.636 41.9563
      vertex 192.459 162.636 41.7513
    endloop
  endfacet
  facet normal -0.133643 0.15927 0.978148
    outer loop
      vertex 203.445 170.711 38
      vertex 194.619 162.636 38.1089
      vertex 203.881 170.226 38.1385
    endloop
  endfacet
  facet normal -0.133643 0.15927 0.978148
    outer loop
      vertex 203.445 170.711 38
      vertex 193.822 162.636 38
      vertex 194.619 162.636 38.1089
    endloop
  endfacet
  facet normal 0.133643 -0.15927 0.978148
    outer loop
      vertex 203.337 170.831 38.0345
      vertex 193.822 162.636 38
      vertex 203.445 170.711 38
    endloop
  endfacet
  facet normal 0.133643 -0.15927 0.978148
    outer loop
      vertex 203.337 170.831 38.0345
      vertex 193.336 162.636 38.0665
      vertex 193.822 162.636 38
    endloop
  endfacet
  facet normal 0.261445 -0.311578 -0.913545
    outer loop
      vertex 202.76 171.472 41.6856
      vertex 192.459 162.636 41.7513
      vertex 202.658 171.585 41.618
    endloop
  endfacet
  facet normal 0.261445 -0.311578 -0.913545
    outer loop
      vertex 202.658 171.585 41.618
      vertex 192.459 162.636 41.7513
      vertex 191.994 162.636 41.618
    endloop
  endfacet
  facet normal 0.611327 -0.728552 -0.309017
    outer loop
      vertex 190.964 162.636 40.6754
      vertex 202.113 172.19 40.2091
      vertex 202.251 172.037 40.8417
    endloop
  endfacet
  facet normal 0.611327 -0.728552 -0.309017
    outer loop
      vertex 190.964 162.636 40.6754
      vertex 190.728 162.636 40.2091
      vertex 202.113 172.19 40.2091
    endloop
  endfacet
  facet normal -0.261445 0.311578 -0.913545
    outer loop
      vertex 204.232 169.837 41.618
      vertex 195.651 162.636 41.618
      vertex 203.825 170.289 41.889
    endloop
  endfacet
  facet normal -0.261445 0.311578 -0.913545
    outer loop
      vertex 203.825 170.289 41.889
      vertex 195.651 162.636 41.618
      vertex 194.903 162.636 41.8321
    endloop
  endfacet
  facet normal -0.477684 0.569282 -0.669131
    outer loop
      vertex 204.531 169.505 41.1226
      vertex 196.212 162.636 41.218
      vertex 204.232 169.837 41.618
    endloop
  endfacet
  facet normal -0.477684 0.569282 -0.669131
    outer loop
      vertex 204.232 169.837 41.618
      vertex 196.212 162.636 41.218
      vertex 195.651 162.636 41.618
    endloop
  endfacet
  facet normal -0.133643 0.15927 0.978148
    outer loop
      vertex 203.881 170.226 38.1385
      vertex 195.088 162.636 38.1729
      vertex 203.99 170.106 38.1729
    endloop
  endfacet
  facet normal -0.133643 0.15927 0.978148
    outer loop
      vertex 203.881 170.226 38.1385
      vertex 194.619 162.636 38.1089
      vertex 195.088 162.636 38.1729
    endloop
  endfacet
  facet normal -0.377821 0.45027 0.809017
    outer loop
      vertex 203.99 170.106 38.1729
      vertex 195.466 162.636 38.3494
      vertex 204.079 170.006 38.2701
    endloop
  endfacet
  facet normal -0.377821 0.45027 0.809017
    outer loop
      vertex 203.99 170.106 38.1729
      vertex 195.088 162.636 38.1729
      vertex 195.466 162.636 38.3494
    endloop
  endfacet
  facet normal -0.639266 0.761848 0.104528
    outer loop
      vertex 204.765 169.245 40.0451
      vertex 204.719 169.296 39.382
      vertex 196.87 162.636 39.9232
    endloop
  endfacet
  facet normal -0.639266 0.761848 0.104528
    outer loop
      vertex 196.87 162.636 39.9232
      vertex 204.719 169.296 39.382
      vertex 196.782 162.636 39.382
    endloop
  endfacet
  facet normal -0.639266 0.761848 0.104528
    outer loop
      vertex 204.777 169.232 40.2091
      vertex 204.765 169.245 40.0451
      vertex 196.917 162.636 40.2091
    endloop
  endfacet
  facet normal -0.639266 0.761848 0.104528
    outer loop
      vertex 196.917 162.636 40.2091
      vertex 204.765 169.245 40.0451
      vertex 196.87 162.636 39.9232
    endloop
  endfacet
  facet normal 0.55667 -0.663414 0.5
    outer loop
      vertex 202.172 172.125 39.382
      vertex 191.247 162.636 38.955
      vertex 202.394 171.878 38.8058
    endloop
  endfacet
  facet normal 0.55667 -0.663414 0.5
    outer loop
      vertex 202.172 172.125 39.382
      vertex 190.863 162.636 39.382
      vertex 191.247 162.636 38.955
    endloop
  endfacet
  facet normal 0.611327 -0.728552 -0.309017
    outer loop
      vertex 191.128 162.636 41
      vertex 202.251 172.037 40.8417
      vertex 202.285 171.999 41
    endloop
  endfacet
  facet normal 0.611327 -0.728552 -0.309017
    outer loop
      vertex 191.128 162.636 41
      vertex 190.964 162.636 40.6754
      vertex 202.251 172.037 40.8417
    endloop
  endfacet
  facet normal -0.55667 0.663414 0.5
    outer loop
      vertex 204.663 169.358 39.2391
      vertex 204.44 169.606 38.6617
      vertex 196.556 162.636 39.1306
    endloop
  endfacet
  facet normal -0.55667 0.663414 0.5
    outer loop
      vertex 196.556 162.636 39.1306
      vertex 204.44 169.606 38.6617
      vertex 196.135 162.636 38.6617
    endloop
  endfacet
  facet normal -0.611327 0.728552 -0.309017
    outer loop
      vertex 204.777 169.232 40.2091
      vertex 196.917 162.636 40.2091
      vertex 204.743 169.27 40.3659
    endloop
  endfacet
  facet normal -0.611327 0.728552 -0.309017
    outer loop
      vertex 204.743 169.27 40.3659
      vertex 196.917 162.636 40.2091
      vertex 196.778 162.636 40.4832
    endloop
  endfacet
  facet normal 0.55667 -0.663414 0.5
    outer loop
      vertex 202.394 171.878 38.8058
      vertex 191.51 162.636 38.6617
      vertex 202.45 171.816 38.6617
    endloop
  endfacet
  facet normal 0.55667 -0.663414 0.5
    outer loop
      vertex 202.394 171.878 38.8058
      vertex 191.247 162.636 38.955
      vertex 191.51 162.636 38.6617
    endloop
  endfacet
  facet normal 0.377821 -0.45027 0.809017
    outer loop
      vertex 202.45 171.816 38.6617
      vertex 191.929 162.636 38.4663
      vertex 202.54 171.716 38.564
    endloop
  endfacet
  facet normal 0.377821 -0.45027 0.809017
    outer loop
      vertex 202.45 171.816 38.6617
      vertex 191.51 162.636 38.6617
      vertex 191.929 162.636 38.4663
    endloop
  endfacet
  facet normal 0 0 1
    outer loop
      vertex 179.227 220.923 30
      vertex 178.832 221.243 30
      vertex 175.975 217.312 30
    endloop
  endfacet
  facet normal 0 0 1
    outer loop
      vertex 179.227 220.923 30
      vertex 169.55 232.256 30
      vertex 178.832 221.243 30
    endloop
  endfacet
  facet normal 0 0 1
    outer loop
      vertex 200.979 201.338 30
      vertex 197.727 197.727 30
      vertex 201.338 200.979 30
    endloop
  endfacet
  facet normal 0 -0 1
    outer loop
      vertex 200.979 201.338 30
      vertex 209.55 212.256 30
      vertex 179.227 220.923 30
    endloop
  endfacet
  facet normal 0 0 1
    outer loop
      vertex 231.583 164.601 30
      vertex 232.54 166.661 30
      vertex 232.636 167.636 30
    endloop
  endfacet
  facet normal 0 0 1
    outer loop
      vertex 220.923 179.227 30
      vertex 217.312 175.975 30
      vertex 221.243 178.832 30
    endloop
  endfacet
  facet normal 0 0 1
    outer loop
      vertex 231.583 164.601 30
      vertex 232.256 165.723 30
      vertex 232.54 166.661 30
    endloop
  endfacet
  facet normal 0 0 1
    outer loop
      vertex 169.55 232.256 30
      vertex 164.601 231.583 30
      vertex 178.832 221.243 30
    endloop
  endfacet
  facet normal 0 0 1
    outer loop
      vertex 231.583 164.601 30
      vertex 231.794 164.858 30
      vertex 232.256 165.723 30
    endloop
  endfacet
  facet normal -0 -0 1
    outer loop
      vertex 221.243 178.832 30
      vertex 232.256 169.55 30
      vertex 220.923 179.227 30
    endloop
  endfacet
  facet normal 0 0 1
    outer loop
      vertex 220.923 179.227 30
      vertex 212.256 209.55 30
      vertex 201.338 200.979 30
    endloop
  endfacet
  facet normal 0 0 1
    outer loop
      vertex 231.583 164.601 30
      vertex 232.636 167.636 30
      vertex 232.54 168.612 30
    endloop
  endfacet
  facet normal 0 0 1
    outer loop
      vertex 231.583 164.601 30
      vertex 232.54 168.612 30
      vertex 232.256 169.55 30
    endloop
  endfacet
  facet normal -0 -0 1
    outer loop
      vertex 220.923 179.227 30
      vertex 232.256 169.55 30
      vertex 212.256 209.55 30
    endloop
  endfacet
  facet normal 0 -0 1
    outer loop
      vertex 201.338 200.979 30
      vertex 212.256 209.55 30
      vertex 200.979 201.338 30
    endloop
  endfacet
  facet normal 0 0 1
    outer loop
      vertex 212.256 209.55 30
      vertex 209.55 212.256 30
      vertex 200.979 201.338 30
    endloop
  endfacet
  facet normal 0 0 1
    outer loop
      vertex 211.948 210.126 30
      vertex 209.55 212.256 30
      vertex 212.256 209.55 30
    endloop
  endfacet
  facet normal 0 0 1
    outer loop
      vertex 211.794 210.414 30
      vertex 211.379 210.919 30
      vertex 211.948 210.126 30
    endloop
  endfacet
  facet normal 0 0 1
    outer loop
      vertex 211.379 210.919 30
      vertex 210.126 211.948 30
      vertex 211.948 210.126 30
    endloop
  endfacet
  facet normal 0 0 1
    outer loop
      vertex 211.172 211.172 30
      vertex 210.667 211.586 30
      vertex 211.379 210.919 30
    endloop
  endfacet
  facet normal 0 0 1
    outer loop
      vertex 210.667 211.586 30
      vertex 210.126 211.948 30
      vertex 211.379 210.919 30
    endloop
  endfacet
  facet normal 0 0 1
    outer loop
      vertex 210.414 211.794 30
      vertex 210.126 211.948 30
      vertex 210.667 211.586 30
    endloop
  endfacet
  facet normal 0 0 1
    outer loop
      vertex 210.126 211.948 30
      vertex 209.55 212.256 30
      vertex 211.948 210.126 30
    endloop
  endfacet
  facet normal 0 0 1
    outer loop
      vertex 209.55 212.256 30
      vertex 169.55 232.256 30
      vertex 179.227 220.923 30
    endloop
  endfacet
  facet normal 0 0 1
    outer loop
      vertex 164.601 231.583 30
      vertex 169.55 232.256 30
      vertex 168.612 232.54 30
    endloop
  endfacet
  facet normal 0 0 1
    outer loop
      vertex 164.601 231.583 30
      vertex 168.612 232.54 30
      vertex 167.636 232.636 30
    endloop
  endfacet
  facet normal 0 0 1
    outer loop
      vertex 164.601 231.583 30
      vertex 167.636 232.636 30
      vertex 166.661 232.54 30
    endloop
  endfacet
  facet normal 0 0 1
    outer loop
      vertex 164.601 231.583 30
      vertex 166.661 232.54 30
      vertex 165.723 232.256 30
    endloop
  endfacet
  facet normal 0 0 1
    outer loop
      vertex 164.601 231.583 30
      vertex 165.723 232.256 30
      vertex 164.858 231.794 30
    endloop
  endfacet
  facet normal 0 0 1
    outer loop
      vertex 232.256 169.55 30
      vertex 221.243 178.832 30
      vertex 231.583 164.601 30
    endloop
  endfacet
endsolid OpenSCAD_Model
