solid OpenSCAD_Model
  facet normal 1.77636e-016 -1 -5.97202e-017
    outer loop
      vertex 20 -25 0
      vertex 6.62802 -25 19.7148
      vertex -20 -25 0
    endloop
  endfacet
  facet normal 0 -1 -0
    outer loop
      vertex 20 -25 14.7178
      vertex 15.994 -25 14.7178
      vertex 20 -25 0
    endloop
  endfacet
  facet normal 0 -1 0
    outer loop
      vertex 15.5518 -25 14.9736
      vertex 20 -25 0
      vertex 15.994 -25 14.7178
    endloop
  endfacet
  facet normal 4.72732e-016 -1 1.40435e-016
    outer loop
      vertex 15.5518 -25 14.9736
      vertex 6.62802 -25 19.7148
      vertex 20 -25 0
    endloop
  endfacet
  facet normal 1.47569e-016 -1 3.40815e-032
    outer loop
      vertex 4.07498 -25 28.7627
      vertex -20 -25 35
      vertex 4.07498 -25 21.0713
    endloop
  endfacet
  facet normal 5.57426e-017 -1 1.04916e-016
    outer loop
      vertex 6.62802 -25 19.7148
      vertex 4.07498 -25 21.0713
      vertex -20 -25 0
    endloop
  endfacet
  facet normal 1.47569e-016 -1 0
    outer loop
      vertex 4.07498 -25 21.0713
      vertex -20 -25 35
      vertex -20 -25 0
    endloop
  endfacet
  facet normal 2.00075e-016 -1 2.02665e-016
    outer loop
      vertex 15.5139 -25 35
      vertex -20 -25 35
      vertex 4.07498 -25 28.7627
    endloop
  endfacet
  facet normal 0.83147 0.55557 0
    outer loop
      vertex 24.6194 21.9134 5
      vertex 24.6194 21.9134 0
      vertex 23.5355 23.5355 0
    endloop
  endfacet
  facet normal 0.83147 0.55557 0
    outer loop
      vertex 23.5355 23.5355 5
      vertex 24.6194 21.9134 5
      vertex 23.5355 23.5355 0
    endloop
  endfacet
  facet normal -0.19509 -0.980785 0
    outer loop
      vertex -20 -25 0
      vertex -21.9134 -24.6194 35
      vertex -21.9134 -24.6194 0
    endloop
  endfacet
  facet normal -0.19509 -0.980785 0
    outer loop
      vertex -20 -25 0
      vertex -20 -25 35
      vertex -21.9134 -24.6194 35
    endloop
  endfacet
  facet normal 1 1.77636e-016 0
    outer loop
      vertex 25 20 5
      vertex 25 -20 0
      vertex 25 20 0
    endloop
  endfacet
  facet normal 1 1.77636e-016 0
    outer loop
      vertex 25 20 5
      vertex 25 -20 15
      vertex 25 -20 0
    endloop
  endfacet
  facet normal 0 0 -1
    outer loop
      vertex -25 20 0
      vertex -16.4289 -14.175 0
      vertex -25 -20 0
    endloop
  endfacet
  facet normal 0 0 -1
    outer loop
      vertex -25 20 0
      vertex -24.6194 21.9134 0
      vertex -23.5355 23.5355 0
    endloop
  endfacet
  facet normal 0 0 -1
    outer loop
      vertex -25 20 0
      vertex -23.5355 23.5355 0
      vertex -20 25 0
    endloop
  endfacet
  facet normal 0 0 -1
    outer loop
      vertex -23.5355 23.5355 0
      vertex -21.9134 24.6194 0
      vertex -20 25 0
    endloop
  endfacet
  facet normal 0 0 -1
    outer loop
      vertex -25 -20 0
      vertex -16.4289 -15.825 0
      vertex -20 -25 0
    endloop
  endfacet
  facet normal 0 -0 -1
    outer loop
      vertex -13.5711 -15.825 0
      vertex 20 -25 0
      vertex -20 -25 0
    endloop
  endfacet
  facet normal 0 0 -1
    outer loop
      vertex 20 25 0
      vertex 21.9134 24.6194 0
      vertex 25 20 0
    endloop
  endfacet
  facet normal 0 0 -1
    outer loop
      vertex 21.9134 24.6194 0
      vertex 23.5355 23.5355 0
      vertex 24.6194 21.9134 0
    endloop
  endfacet
  facet normal 0 0 -1
    outer loop
      vertex 21.9134 24.6194 0
      vertex 24.6194 21.9134 0
      vertex 25 20 0
    endloop
  endfacet
  facet normal 0 0 -1
    outer loop
      vertex -15 -13.35 0
      vertex -25 20 0
      vertex -20 25 0
    endloop
  endfacet
  facet normal -0 0 -1
    outer loop
      vertex 25 20 0
      vertex -13.5711 -14.175 0
      vertex 20 25 0
    endloop
  endfacet
  facet normal 0 0 -1
    outer loop
      vertex 25 -20 0
      vertex 24.6194 -21.9134 0
      vertex 20 -25 0
    endloop
  endfacet
  facet normal 0 0 -1
    outer loop
      vertex 24.6194 -21.9134 0
      vertex 23.5355 -23.5355 0
      vertex 21.9134 -24.6194 0
    endloop
  endfacet
  facet normal 0 0 -1
    outer loop
      vertex 24.6194 -21.9134 0
      vertex 21.9134 -24.6194 0
      vertex 20 -25 0
    endloop
  endfacet
  facet normal 0 0 -1
    outer loop
      vertex -25 -20 0
      vertex -20 -25 0
      vertex -23.5355 -23.5355 0
    endloop
  endfacet
  facet normal 0 0 -1
    outer loop
      vertex -20 -25 0
      vertex -21.9134 -24.6194 0
      vertex -23.5355 -23.5355 0
    endloop
  endfacet
  facet normal 0 0 -1
    outer loop
      vertex -25 -20 0
      vertex -23.5355 -23.5355 0
      vertex -24.6194 -21.9134 0
    endloop
  endfacet
  facet normal -0 0 -1
    outer loop
      vertex -15 -13.35 0
      vertex -16.4289 -14.175 0
      vertex -25 20 0
    endloop
  endfacet
  facet normal 0 -0 -1
    outer loop
      vertex -16.4289 -14.175 0
      vertex -16.4289 -15.825 0
      vertex -25 -20 0
    endloop
  endfacet
  facet normal -0 0 -1
    outer loop
      vertex 25 -20 0
      vertex 20 -25 0
      vertex -13.5711 -14.175 0
    endloop
  endfacet
  facet normal 0 -0 -1
    outer loop
      vertex -16.4289 -15.825 0
      vertex -15 -16.65 0
      vertex -20 -25 0
    endloop
  endfacet
  facet normal 0 0 -1
    outer loop
      vertex -20 -25 0
      vertex -15 -16.65 0
      vertex -13.5711 -15.825 0
    endloop
  endfacet
  facet normal 0 0 -1
    outer loop
      vertex 25 -20 0
      vertex -13.5711 -14.175 0
      vertex 25 20 0
    endloop
  endfacet
  facet normal 0 0 -1
    outer loop
      vertex 20 -25 0
      vertex -13.5711 -15.825 0
      vertex -13.5711 -14.175 0
    endloop
  endfacet
  facet normal 0 0 -1
    outer loop
      vertex 20 25 0
      vertex -13.5711 -14.175 0
      vertex -20 25 0
    endloop
  endfacet
  facet normal 0 0 -1
    outer loop
      vertex -13.5711 -14.175 0
      vertex -15 -13.35 0
      vertex -20 25 0
    endloop
  endfacet
  facet normal 0.19509 -0.980785 0
    outer loop
      vertex 21.9134 -24.6194 0
      vertex 20 -25 14.7178
      vertex 20 -25 0
    endloop
  endfacet
  facet normal 0.19509 -0.980785 0
    outer loop
      vertex 21.9134 -24.6194 0
      vertex 21.9134 -24.6194 14.7178
      vertex 20 -25 14.7178
    endloop
  endfacet
  facet normal 0.55557 -0.83147 0
    outer loop
      vertex 23.5355 -23.5355 0
      vertex 21.9134 -24.6194 14.7178
      vertex 21.9134 -24.6194 0
    endloop
  endfacet
  facet normal 0.55557 -0.83147 0
    outer loop
      vertex 23.5355 -23.5355 0
      vertex 23.5355 -23.5355 14.7178
      vertex 21.9134 -24.6194 14.7178
    endloop
  endfacet
  facet normal 0.83147 -0.55557 0
    outer loop
      vertex 24.6194 -21.9134 0
      vertex 23.5355 -23.5355 14.7178
      vertex 23.5355 -23.5355 0
    endloop
  endfacet
  facet normal 0.83147 -0.55557 0
    outer loop
      vertex 24.6194 -21.9134 0
      vertex 24.6194 -21.9134 14.7178
      vertex 23.5355 -23.5355 14.7178
    endloop
  endfacet
  facet normal -1.77636e-016 1 0
    outer loop
      vertex -20 25 0
      vertex 20 25 5
      vertex 20 25 0
    endloop
  endfacet
  facet normal -1.77636e-016 1 0
    outer loop
      vertex -20 25 0
      vertex -20 25 15
      vertex 20 25 5
    endloop
  endfacet
  facet normal 0.980785 0.19509 0
    outer loop
      vertex 25 20 5
      vertex 25 20 0
      vertex 24.6194 21.9134 0
    endloop
  endfacet
  facet normal 0.980785 0.19509 0
    outer loop
      vertex 24.6194 21.9134 5
      vertex 25 20 5
      vertex 24.6194 21.9134 0
    endloop
  endfacet
  facet normal -0.55557 0.83147 0
    outer loop
      vertex -23.5355 23.5355 0
      vertex -23.5355 23.5355 14.7178
      vertex -21.9134 24.6194 0
    endloop
  endfacet
  facet normal -0.55557 0.83147 0
    outer loop
      vertex -21.9134 24.6194 0
      vertex -23.5355 23.5355 14.7178
      vertex -21.9134 24.6194 14.7178
    endloop
  endfacet
  facet normal 0.980785 -0.19509 0
    outer loop
      vertex 24.8873 -20.5665 14.7178
      vertex 24.6194 -21.9134 14.7178
      vertex 24.6194 -21.9134 0
    endloop
  endfacet
  facet normal 0.980785 -0.19509 0
    outer loop
      vertex 25 -20 0
      vertex 25 -20 15
      vertex 24.8873 -20.5665 14.7178
    endloop
  endfacet
  facet normal 0.980785 -0.19509 0
    outer loop
      vertex 25 -20 15
      vertex 24.8873 -20.5665 15
      vertex 24.8873 -20.5665 14.7178
    endloop
  endfacet
  facet normal 0.980785 -0.19509 -4.48122e-017
    outer loop
      vertex 25 -20 0
      vertex 24.8873 -20.5665 14.7178
      vertex 24.6194 -21.9134 0
    endloop
  endfacet
  facet normal 0.773216 0.153802 0.615209
    outer loop
      vertex 24.6194 -18.0866 15
      vertex 25 20 5
      vertex 24.6194 21.9134 5
    endloop
  endfacet
  facet normal 0.773216 0.153802 0.615209
    outer loop
      vertex 24.6194 -18.0866 15
      vertex 25 -20 15
      vertex 25 20 5
    endloop
  endfacet
  facet normal 0.19509 0.980785 -0
    outer loop
      vertex 20 25 0
      vertex 20 25 5
      vertex 21.9134 24.6194 0
    endloop
  endfacet
  facet normal 0.19509 0.980785 -0
    outer loop
      vertex 21.9134 24.6194 0
      vertex 20 25 5
      vertex 21.9134 24.6194 5
    endloop
  endfacet
  facet normal 0.55557 0.83147 -0
    outer loop
      vertex 21.9134 24.6194 0
      vertex 21.9134 24.6194 5
      vertex 23.5355 23.5355 0
    endloop
  endfacet
  facet normal 0.55557 0.83147 -0
    outer loop
      vertex 23.5355 23.5355 0
      vertex 21.9134 24.6194 5
      vertex 23.5355 23.5355 5
    endloop
  endfacet
  facet normal -0.19509 0.980785 7.23709e-017
    outer loop
      vertex -21.9134 24.6194 0
      vertex -20.5665 24.8873 14.7178
      vertex -20 25 0
    endloop
  endfacet
  facet normal -0.19509 0.980785 0
    outer loop
      vertex -21.9134 24.6194 0
      vertex -21.9134 24.6194 14.7178
      vertex -20.5665 24.8873 14.7178
    endloop
  endfacet
  facet normal -0.19509 0.980785 0
    outer loop
      vertex -20.5665 24.8873 14.7178
      vertex -20 25 15
      vertex -20 25 0
    endloop
  endfacet
  facet normal -0.19509 0.980785 0
    outer loop
      vertex -20.5665 24.8873 14.7178
      vertex -20.5665 24.8873 15
      vertex -20 25 15
    endloop
  endfacet
  facet normal 0.436436 0.218218 0.872872
    outer loop
      vertex 24.6194 21.9134 5
      vertex 11.2861 8.58008 15
      vertex 24.6194 -18.0866 15
    endloop
  endfacet
  facet normal 0.153802 0.773216 0.615209
    outer loop
      vertex -20 25 15
      vertex -18.0866 24.6194 15
      vertex 20 25 5
    endloop
  endfacet
  facet normal 0.153802 0.773216 0.615209
    outer loop
      vertex 20 25 5
      vertex -18.0866 24.6194 15
      vertex 21.9134 24.6194 5
    endloop
  endfacet
  facet normal -0.83147 -0.55557 0
    outer loop
      vertex -24.6194 -21.9134 0
      vertex -23.5355 -23.5355 35
      vertex -24.6194 -21.9134 35
    endloop
  endfacet
  facet normal -0.83147 -0.55557 0
    outer loop
      vertex -24.6194 -21.9134 0
      vertex -23.5355 -23.5355 0
      vertex -23.5355 -23.5355 35
    endloop
  endfacet
  facet normal -0.980785 -0.19509 0
    outer loop
      vertex -25 -20 0
      vertex -24.6194 -21.9134 35
      vertex -25 -20 35
    endloop
  endfacet
  facet normal -0.980785 -0.19509 0
    outer loop
      vertex -25 -20 0
      vertex -24.6194 -21.9134 0
      vertex -24.6194 -21.9134 35
    endloop
  endfacet
  facet normal -0.55557 -0.83147 0
    outer loop
      vertex -21.9134 -24.6194 0
      vertex -23.5355 -23.5355 35
      vertex -23.5355 -23.5355 0
    endloop
  endfacet
  facet normal -0.55557 -0.83147 0
    outer loop
      vertex -21.9134 -24.6194 0
      vertex -21.9134 -24.6194 35
      vertex -23.5355 -23.5355 35
    endloop
  endfacet
  facet normal 0 0 1
    outer loop
      vertex -3.68145 -3.68145 35
      vertex -4.4187 -3.01762 35
      vertex -12.9375 -13.8092 35
    endloop
  endfacet
  facet normal -0 0 1
    outer loop
      vertex -21.9134 -24.6194 35
      vertex -20 -25 35
      vertex -17.0625 -16.1908 35
    endloop
  endfacet
  facet normal 0 -0 1
    outer loop
      vertex -24.6194 -21.9134 35
      vertex -17.0625 -16.1908 35
      vertex -25 -20 35
    endloop
  endfacet
  facet normal 0 -0 1
    outer loop
      vertex -23.5355 -23.5355 35
      vertex -17.0625 -16.1908 35
      vertex -24.6194 -21.9134 35
    endloop
  endfacet
  facet normal 0 -0 1
    outer loop
      vertex -21.9134 -24.6194 35
      vertex -17.0625 -16.1908 35
      vertex -23.5355 -23.5355 35
    endloop
  endfacet
  facet normal 0 0 1
    outer loop
      vertex -4.4187 -3.01762 35
      vertex -15 -12.6184 35
      vertex -12.9375 -13.8092 35
    endloop
  endfacet
  facet normal 0 0 1
    outer loop
      vertex 15.5139 -25 35
      vertex 14.866 -24.2805 35
      vertex -20 -25 35
    endloop
  endfacet
  facet normal 0 -0 1
    outer loop
      vertex -25 -20 35
      vertex -17.0625 -13.8092 35
      vertex -25 15.5139 35
    endloop
  endfacet
  facet normal 0 0 1
    outer loop
      vertex 14.866 -24.2805 35
      vertex -3.68145 -3.68145 35
      vertex -12.9375 -16.1908 35
    endloop
  endfacet
  facet normal 0 -0 1
    outer loop
      vertex -17.0625 -16.1908 35
      vertex -17.0625 -13.8092 35
      vertex -25 -20 35
    endloop
  endfacet
  facet normal 0 -0 1
    outer loop
      vertex -15 -12.6184 35
      vertex -4.4187 -3.01762 35
      vertex -25 15.5139 35
    endloop
  endfacet
  facet normal 0 0 1
    outer loop
      vertex -15 -12.6184 35
      vertex -25 15.5139 35
      vertex -17.0625 -13.8092 35
    endloop
  endfacet
  facet normal 0 0 1
    outer loop
      vertex -3.68145 -3.68145 35
      vertex -12.9375 -13.8092 35
      vertex -12.9375 -16.1908 35
    endloop
  endfacet
  facet normal 0 0 1
    outer loop
      vertex 14.866 -24.2805 35
      vertex -12.9375 -16.1908 35
      vertex -20 -25 35
    endloop
  endfacet
  facet normal 0 0 1
    outer loop
      vertex -12.9375 -16.1908 35
      vertex -15 -17.3816 35
      vertex -20 -25 35
    endloop
  endfacet
  facet normal 0 0 1
    outer loop
      vertex -15 -17.3816 35
      vertex -17.0625 -16.1908 35
      vertex -20 -25 35
    endloop
  endfacet
  facet normal 0.264251 0.395479 0.879641
    outer loop
      vertex 9.66149 10.5635 15
      vertex 21.9134 24.6194 5
      vertex 8.58008 11.2861 15
    endloop
  endfacet
  facet normal 0.264251 0.395479 0.879641
    outer loop
      vertex 9.66149 10.5635 15
      vertex 23.5355 23.5355 5
      vertex 21.9134 24.6194 5
    endloop
  endfacet
  facet normal 0.264251 0.395479 0.879641
    outer loop
      vertex 23.5355 23.5355 5
      vertex 9.66149 10.5635 15
      vertex 10.2022 10.2022 15
    endloop
  endfacet
  facet normal 0.218218 0.436436 0.872872
    outer loop
      vertex 21.9134 24.6194 5
      vertex -18.0866 24.6194 15
      vertex 8.58008 11.2861 15
    endloop
  endfacet
  facet normal -1 -1.00037e-016 1.83463e-016
    outer loop
      vertex -25 6.62802 30.1548
      vertex -25 -20 35
      vertex -25 15.5139 35
    endloop
  endfacet
  facet normal -1 -1.00037e-016 1.83463e-016
    outer loop
      vertex -25 4.07498 28.7627
      vertex -25 -20 35
      vertex -25 6.62802 30.1548
    endloop
  endfacet
  facet normal -1 -1.47569e-016 0
    outer loop
      vertex -25 -20 0
      vertex -25 -20 35
      vertex -25 4.07498 21.0713
    endloop
  endfacet
  facet normal -1 -1.47569e-016 -3.40815e-032
    outer loop
      vertex -25 -20 35
      vertex -25 4.07498 28.7627
      vertex -25 4.07498 21.0713
    endloop
  endfacet
  facet normal -1 -8.88178e-017 -6.71257e-017
    outer loop
      vertex -25 -20 0
      vertex -25 4.07498 21.0713
      vertex -25 20 0
    endloop
  endfacet
  facet normal -1 0 0
    outer loop
      vertex -25 20 0
      vertex -25 4.07498 21.0713
      vertex -25 15.5518 14.9736
    endloop
  endfacet
  facet normal -1 0 0
    outer loop
      vertex -25 20 0
      vertex -25 15.5518 14.9736
      vertex -25 15.994 14.7178
    endloop
  endfacet
  facet normal -1 0 0
    outer loop
      vertex -25 20 0
      vertex -25 15.994 14.7178
      vertex -25 20 14.7178
    endloop
  endfacet
  facet normal -0.980785 0.19509 0
    outer loop
      vertex -25 20 0
      vertex -25 20 14.7178
      vertex -24.6194 21.9134 0
    endloop
  endfacet
  facet normal -0.980785 0.19509 0
    outer loop
      vertex -24.6194 21.9134 0
      vertex -25 20 14.7178
      vertex -24.6194 21.9134 14.7178
    endloop
  endfacet
  facet normal -0.83147 0.55557 0
    outer loop
      vertex -24.6194 21.9134 0
      vertex -24.6194 21.9134 14.7178
      vertex -23.5355 23.5355 0
    endloop
  endfacet
  facet normal -0.83147 0.55557 0
    outer loop
      vertex -23.5355 23.5355 0
      vertex -24.6194 21.9134 14.7178
      vertex -23.5355 23.5355 14.7178
    endloop
  endfacet
  facet normal 0.395479 0.264251 0.879641
    outer loop
      vertex 24.6194 21.9134 5
      vertex 23.5355 23.5355 5
      vertex 10.2022 10.2022 15
    endloop
  endfacet
  facet normal 0.395479 0.264251 0.879641
    outer loop
      vertex 11.2861 8.58008 15
      vertex 24.6194 21.9134 5
      vertex 10.2022 10.2022 15
    endloop
  endfacet
  facet normal -0.5 0.866025 0
    outer loop
      vertex -12.9375 -16.1908 35
      vertex -12.9375 -16.1908 33
      vertex -15 -17.3816 35
    endloop
  endfacet
  facet normal -0.5 0.866025 0
    outer loop
      vertex -15 -17.3816 35
      vertex -12.9375 -16.1908 33
      vertex -15 -17.3816 33
    endloop
  endfacet
  facet normal 0 0 1
    outer loop
      vertex -15 -12.6184 33
      vertex -17.0625 -13.8092 33
      vertex -15 -13.35 33
    endloop
  endfacet
  facet normal -0 0 1
    outer loop
      vertex -17.0625 -13.8092 33
      vertex -16.4289 -14.175 33
      vertex -15 -13.35 33
    endloop
  endfacet
  facet normal 0 0 1
    outer loop
      vertex -16.4289 -14.175 33
      vertex -17.0625 -13.8092 33
      vertex -17.0625 -16.1908 33
    endloop
  endfacet
  facet normal 0 0 1
    outer loop
      vertex -15 -12.6184 33
      vertex -15 -13.35 33
      vertex -12.9375 -13.8092 33
    endloop
  endfacet
  facet normal 0 0 1
    outer loop
      vertex -15 -17.3816 33
      vertex -12.9375 -16.1908 33
      vertex -13.5711 -15.825 33
    endloop
  endfacet
  facet normal 0 0 1
    outer loop
      vertex -15 -13.35 33
      vertex -13.5711 -14.175 33
      vertex -12.9375 -13.8092 33
    endloop
  endfacet
  facet normal -0 0 1
    outer loop
      vertex -13.5711 -14.175 33
      vertex -12.9375 -16.1908 33
      vertex -12.9375 -13.8092 33
    endloop
  endfacet
  facet normal 0 0 1
    outer loop
      vertex -15 -17.3816 33
      vertex -13.5711 -15.825 33
      vertex -15 -16.65 33
    endloop
  endfacet
  facet normal -0 0 1
    outer loop
      vertex -13.5711 -15.825 33
      vertex -12.9375 -16.1908 33
      vertex -13.5711 -14.175 33
    endloop
  endfacet
  facet normal 0 0 1
    outer loop
      vertex -15 -17.3816 33
      vertex -16.4289 -15.825 33
      vertex -17.0625 -16.1908 33
    endloop
  endfacet
  facet normal 0 0 1
    outer loop
      vertex -15 -16.65 33
      vertex -16.4289 -15.825 33
      vertex -15 -17.3816 33
    endloop
  endfacet
  facet normal 0 -0 1
    outer loop
      vertex -16.4289 -15.825 33
      vertex -16.4289 -14.175 33
      vertex -17.0625 -16.1908 33
    endloop
  endfacet
  facet normal -1 -7.45876e-016 -0
    outer loop
      vertex -12.9375 -16.1908 35
      vertex -12.9375 -13.8092 33
      vertex -12.9375 -16.1908 33
    endloop
  endfacet
  facet normal -1 -7.45876e-016 0
    outer loop
      vertex -12.9375 -16.1908 35
      vertex -12.9375 -13.8092 35
      vertex -12.9375 -13.8092 33
    endloop
  endfacet
  facet normal 0.5 0.866025 0
    outer loop
      vertex -15 -17.3816 35
      vertex -15 -17.3816 33
      vertex -17.0625 -16.1908 35
    endloop
  endfacet
  facet normal 0.5 0.866025 0
    outer loop
      vertex -17.0625 -16.1908 35
      vertex -15 -17.3816 33
      vertex -17.0625 -16.1908 33
    endloop
  endfacet
  facet normal -0.5 -0.866025 0
    outer loop
      vertex -15 -12.6184 35
      vertex -12.9375 -13.8092 33
      vertex -12.9375 -13.8092 35
    endloop
  endfacet
  facet normal -0.5 -0.866025 -0
    outer loop
      vertex -15 -12.6184 35
      vertex -15 -12.6184 33
      vertex -12.9375 -13.8092 33
    endloop
  endfacet
  facet normal 1 0 -0
    outer loop
      vertex -17.0625 -13.8092 33
      vertex -17.0625 -13.8092 35
      vertex -17.0625 -16.1908 35
    endloop
  endfacet
  facet normal 1 0 0
    outer loop
      vertex -17.0625 -16.1908 33
      vertex -17.0625 -13.8092 33
      vertex -17.0625 -16.1908 35
    endloop
  endfacet
  facet normal 0.5 -0.866025 0
    outer loop
      vertex -17.0625 -13.8092 35
      vertex -15 -12.6184 33
      vertex -15 -12.6184 35
    endloop
  endfacet
  facet normal 0.5 -0.866025 0
    outer loop
      vertex -17.0625 -13.8092 35
      vertex -17.0625 -13.8092 33
      vertex -15 -12.6184 33
    endloop
  endfacet
  facet normal -0.5 0.866025 0
    outer loop
      vertex -13.5711 -15.825 33
      vertex -13.5711 -15.825 0
      vertex -15 -16.65 33
    endloop
  endfacet
  facet normal -0.5 0.866025 0
    outer loop
      vertex -15 -16.65 33
      vertex -13.5711 -15.825 0
      vertex -15 -16.65 0
    endloop
  endfacet
  facet normal -1 0 0
    outer loop
      vertex -13.5711 -15.825 33
      vertex -13.5711 -14.175 0
      vertex -13.5711 -15.825 0
    endloop
  endfacet
  facet normal -1 0 0
    outer loop
      vertex -13.5711 -15.825 33
      vertex -13.5711 -14.175 33
      vertex -13.5711 -14.175 0
    endloop
  endfacet
  facet normal 0.5 0.866025 0
    outer loop
      vertex -15 -16.65 33
      vertex -15 -16.65 0
      vertex -16.4289 -15.825 33
    endloop
  endfacet
  facet normal 0.5 0.866025 0
    outer loop
      vertex -16.4289 -15.825 33
      vertex -15 -16.65 0
      vertex -16.4289 -15.825 0
    endloop
  endfacet
  facet normal -0.5 -0.866025 0
    outer loop
      vertex -15 -13.35 33
      vertex -13.5711 -14.175 0
      vertex -13.5711 -14.175 33
    endloop
  endfacet
  facet normal -0.5 -0.866025 -0
    outer loop
      vertex -15 -13.35 33
      vertex -15 -13.35 0
      vertex -13.5711 -14.175 0
    endloop
  endfacet
  facet normal 0.5 -0.866025 0
    outer loop
      vertex -16.4289 -14.175 33
      vertex -15 -13.35 0
      vertex -15 -13.35 33
    endloop
  endfacet
  facet normal 0.5 -0.866025 0
    outer loop
      vertex -16.4289 -14.175 33
      vertex -16.4289 -14.175 0
      vertex -15 -13.35 0
    endloop
  endfacet
  facet normal 1 0 -0
    outer loop
      vertex -16.4289 -14.175 0
      vertex -16.4289 -14.175 33
      vertex -16.4289 -15.825 33
    endloop
  endfacet
  facet normal 1 0 0
    outer loop
      vertex -16.4289 -15.825 0
      vertex -16.4289 -14.175 0
      vertex -16.4289 -15.825 33
    endloop
  endfacet
  facet normal -4.43429e-016 -4.31291e-017 1
    outer loop
      vertex 15.994 -25 14.7178
      vertex 20 -25 14.7178
      vertex 19.6752 -21.6609 14.7178
    endloop
  endfacet
  facet normal -2.90863e-016 -2.11325e-016 1
    outer loop
      vertex 15.8302 -24.7745 14.7178
      vertex 15.994 -25 14.7178
      vertex 19.6752 -21.6609 14.7178
    endloop
  endfacet
  facet normal 0 0 1
    outer loop
      vertex 24.6194 -21.9134 14.7178
      vertex 23.607 -18.8043 14.7178
      vertex 19.6752 -21.6609 14.7178
    endloop
  endfacet
  facet normal -3.52845e-016 -1.54369e-016 1
    outer loop
      vertex 23.2869 -18.409 14.7178
      vertex 3.70199 3.34228 14.7178
      vertex 0.0903319 0.0903319 14.7178
    endloop
  endfacet
  facet normal 0 0 1
    outer loop
      vertex 21.9134 -24.6194 14.7178
      vertex 19.6752 -21.6609 14.7178
      vertex 20 -25 14.7178
    endloop
  endfacet
  facet normal 0 0 1
    outer loop
      vertex 23.5355 -23.5355 14.7178
      vertex 19.6752 -21.6609 14.7178
      vertex 21.9134 -24.6194 14.7178
    endloop
  endfacet
  facet normal 0 0 1
    outer loop
      vertex 24.6194 -21.9134 14.7178
      vertex 19.6752 -21.6609 14.7178
      vertex 23.5355 -23.5355 14.7178
    endloop
  endfacet
  facet normal 0 0 1
    outer loop
      vertex 24.8873 -20.5665 14.7178
      vertex 23.607 -18.8043 14.7178
      vertex 24.6194 -21.9134 14.7178
    endloop
  endfacet
  facet normal 0 0 1
    outer loop
      vertex -25 20 14.7178
      vertex -25 15.994 14.7178
      vertex -21.6609 19.6752 14.7178
    endloop
  endfacet
  facet normal -3.45051e-016 -1.44409e-016 1
    outer loop
      vertex 15.8302 -24.7745 14.7178
      vertex 19.6752 -21.6609 14.7178
      vertex -3.40815 -3.40815 14.7178
    endloop
  endfacet
  facet normal -1.2892e-016 1.2892e-016 1
    outer loop
      vertex 19.6752 -21.6609 14.7178
      vertex 0.0903319 0.0903319 14.7178
      vertex -3.40815 -3.40815 14.7178
    endloop
  endfacet
  facet normal -1.21829e-016 1.35305e-016 1
    outer loop
      vertex 0.0903319 0.0903319 14.7178
      vertex 19.6752 -21.6609 14.7178
      vertex 23.2869 -18.409 14.7178
    endloop
  endfacet
  facet normal -1.44242e-016 1.16805e-016 1
    outer loop
      vertex -3.40815 -3.40815 14.7178
      vertex -21.6609 19.6752 14.7178
      vertex -24.7745 15.8302 14.7178
    endloop
  endfacet
  facet normal -1.2892e-016 1.2892e-016 1
    outer loop
      vertex 0.0903319 0.0903319 14.7178
      vertex -21.6609 19.6752 14.7178
      vertex -3.40815 -3.40815 14.7178
    endloop
  endfacet
  facet normal -3.79878e-016 -1.49796e-016 1
    outer loop
      vertex -18.409 23.2869 14.7178
      vertex 0.0903319 0.0903319 14.7178
      vertex 3.34228 3.70199 14.7178
    endloop
  endfacet
  facet normal -3.79878e-016 -1.49796e-016 1
    outer loop
      vertex -18.409 23.2869 14.7178
      vertex -21.6609 19.6752 14.7178
      vertex 0.0903319 0.0903319 14.7178
    endloop
  endfacet
  facet normal 0 0 1
    outer loop
      vertex -21.6609 19.6752 14.7178
      vertex -25 15.994 14.7178
      vertex -24.7745 15.8302 14.7178
    endloop
  endfacet
  facet normal -5.80998e-016 -2.96735e-017 1
    outer loop
      vertex -21.9134 24.6194 14.7178
      vertex -21.6609 19.6752 14.7178
      vertex -18.8043 23.607 14.7178
    endloop
  endfacet
  facet normal -1.03534e-015 -1.42503e-015 1
    outer loop
      vertex -21.9134 24.6194 14.7178
      vertex -18.8043 23.607 14.7178
      vertex -20.5665 24.8873 14.7178
    endloop
  endfacet
  facet normal -0 0 1
    outer loop
      vertex -23.5355 23.5355 14.7178
      vertex -21.6609 19.6752 14.7178
      vertex -21.9134 24.6194 14.7178
    endloop
  endfacet
  facet normal -0 0 1
    outer loop
      vertex -24.6194 21.9134 14.7178
      vertex -21.6609 19.6752 14.7178
      vertex -23.5355 23.5355 14.7178
    endloop
  endfacet
  facet normal -0 0 1
    outer loop
      vertex -25 20 14.7178
      vertex -21.6609 19.6752 14.7178
      vertex -24.6194 21.9134 14.7178
    endloop
  endfacet
  facet normal -0.809017 0.587785 0
    outer loop
      vertex -18.8043 23.607 14.7178
      vertex -21.6609 19.6752 15
      vertex -18.8043 23.607 15
    endloop
  endfacet
  facet normal -0.809017 0.587785 0
    outer loop
      vertex -18.8043 23.607 14.7178
      vertex -21.6609 19.6752 14.7178
      vertex -21.6609 19.6752 15
    endloop
  endfacet
  facet normal -0.587785 -0.809017 -0
    outer loop
      vertex -18.8043 23.607 15
      vertex -20.5665 24.8873 14.7178
      vertex -18.8043 23.607 14.7178
    endloop
  endfacet
  facet normal -0.587785 -0.809017 0
    outer loop
      vertex -18.8043 23.607 15
      vertex -20.5665 24.8873 15
      vertex -20.5665 24.8873 14.7178
    endloop
  endfacet
  facet normal 0.341852 0.470519 0.81348
    outer loop
      vertex -25 15.994 14.7178
      vertex -25 15.5518 14.9736
      vertex -24.8249 15.7681 14.7749
    endloop
  endfacet
  facet normal 0.341852 0.470519 0.81348
    outer loop
      vertex -24.7745 15.8302 14.7178
      vertex -25 15.994 14.7178
      vertex -24.8249 15.7681 14.7749
    endloop
  endfacet
  facet normal 0.743145 -0.669131 0
    outer loop
      vertex -21.6609 19.6752 15
      vertex -21.6609 19.6752 14.7178
      vertex -18.409 23.2869 14.7178
    endloop
  endfacet
  facet normal 0.743145 -0.669131 0
    outer loop
      vertex -18.409 23.2869 15
      vertex -21.6609 19.6752 15
      vertex -18.409 23.2869 14.7178
    endloop
  endfacet
  facet normal -0.743145 0.669131 -1.16935e-015
    outer loop
      vertex 3.34228 3.70199 14.7178
      vertex 0.0903319 0.0903319 15
      vertex 3.34228 3.70199 15
    endloop
  endfacet
  facet normal -0.743145 0.669131 -1.094e-016
    outer loop
      vertex 3.34228 3.70199 14.7178
      vertex 0.0903319 0.0903319 14.7178
      vertex 0.0903319 0.0903319 15
    endloop
  endfacet
  facet normal -0.669131 -0.743145 -1.05289e-015
    outer loop
      vertex 3.34228 3.70199 15
      vertex -18.409 23.2869 14.7178
      vertex 3.34228 3.70199 14.7178
    endloop
  endfacet
  facet normal -0.669131 -0.743145 0
    outer loop
      vertex 3.34228 3.70199 15
      vertex -18.409 23.2869 15
      vertex -18.409 23.2869 14.7178
    endloop
  endfacet
  facet normal 0.395841 0.439626 -0.80625
    outer loop
      vertex -25 15.5139 35
      vertex -4.4187 -3.01762 35
      vertex -25 6.62802 30.1548
    endloop
  endfacet
  facet normal 0.395841 0.439626 -0.80625
    outer loop
      vertex -3.68145 -3.68145 35
      vertex -9.54728 -9.54728 28.9216
      vertex -4.4187 -3.01762 35
    endloop
  endfacet
  facet normal 0.395841 0.439626 -0.80625
    outer loop
      vertex -4.4187 -3.01762 35
      vertex -9.54728 -9.54728 28.9216
      vertex -25 4.07498 28.7627
    endloop
  endfacet
  facet normal 0.395841 0.439626 -0.80625
    outer loop
      vertex -9.54728 -9.54728 28.9216
      vertex -9.70063 -9.70063 28.7627
      vertex -25 4.07498 28.7627
    endloop
  endfacet
  facet normal 0.395841 0.439626 -0.80625
    outer loop
      vertex -4.4187 -3.01762 35
      vertex -25 4.07498 28.7627
      vertex -25 6.62802 30.1548
    endloop
  endfacet
  facet normal 0.669131 0.743145 0
    outer loop
      vertex -9.70063 -9.70063 28.7627
      vertex -9.70063 -9.70063 21.0713
      vertex -25 4.07498 28.7627
    endloop
  endfacet
  facet normal 0.669131 0.743145 1.71632e-016
    outer loop
      vertex -25 4.07498 28.7627
      vertex -9.70063 -9.70063 21.0713
      vertex -25 4.07498 21.0713
    endloop
  endfacet
  facet normal 0.389162 0.432208 0.81348
    outer loop
      vertex -9.54728 -9.54728 20.9164
      vertex -25 4.07498 21.0713
      vertex -9.70063 -9.70063 21.0713
    endloop
  endfacet
  facet normal 0.389162 0.432208 0.81348
    outer loop
      vertex -9.54728 -9.54728 20.9164
      vertex -24.8249 15.7681 14.7749
      vertex -25 4.07498 21.0713
    endloop
  endfacet
  facet normal 0.389162 0.432208 0.81348
    outer loop
      vertex -24.8249 15.7681 14.7749
      vertex -25 15.5518 14.9736
      vertex -25 4.07498 21.0713
    endloop
  endfacet
  facet normal 0.389162 0.432208 0.81348
    outer loop
      vertex -3.40815 -3.40815 14.7178
      vertex -24.7745 15.8302 14.7178
      vertex -3.46472 -3.46472 14.7749
    endloop
  endfacet
  facet normal 0.389162 0.432208 0.81348
    outer loop
      vertex -24.8249 15.7681 14.7749
      vertex -9.54728 -9.54728 20.9164
      vertex -3.46472 -3.46472 14.7749
    endloop
  endfacet
  facet normal 0.389162 0.432208 0.81348
    outer loop
      vertex -24.8249 15.7681 14.7749
      vertex -3.46472 -3.46472 14.7749
      vertex -24.7745 15.8302 14.7178
    endloop
  endfacet
  facet normal 0.669131 -0.743145 1.05289e-015
    outer loop
      vertex 3.70199 3.34228 15
      vertex 0.0903319 0.0903319 14.7178
      vertex 3.70199 3.34228 14.7178
    endloop
  endfacet
  facet normal 0.669131 -0.743145 9.86493e-017
    outer loop
      vertex 3.70199 3.34228 15
      vertex 0.0903319 0.0903319 15
      vertex 0.0903319 0.0903319 14.7178
    endloop
  endfacet
  facet normal -0.669131 0.743145 0
    outer loop
      vertex 23.2869 -18.409 14.7178
      vertex 19.6752 -21.6609 14.7178
      vertex 23.2869 -18.409 15
    endloop
  endfacet
  facet normal -0.669131 0.743145 0
    outer loop
      vertex 23.2869 -18.409 15
      vertex 19.6752 -21.6609 14.7178
      vertex 19.6752 -21.6609 15
    endloop
  endfacet
  facet normal -0.743145 -0.669131 -1.16929e-015
    outer loop
      vertex 23.2869 -18.409 14.7178
      vertex 3.70199 3.34228 15
      vertex 3.70199 3.34228 14.7178
    endloop
  endfacet
  facet normal -0.743145 -0.669131 0
    outer loop
      vertex 23.2869 -18.409 14.7178
      vertex 23.2869 -18.409 15
      vertex 3.70199 3.34228 15
    endloop
  endfacet
  facet normal 0.439626 0.395841 -0.80625
    outer loop
      vertex -9.54728 -9.54728 28.9216
      vertex -3.68145 -3.68145 35
      vertex 14.866 -24.2805 35
    endloop
  endfacet
  facet normal 0.439626 0.395841 -0.80625
    outer loop
      vertex 14.866 -24.2805 35
      vertex 4.07498 -25 28.7627
      vertex -9.54728 -9.54728 28.9216
    endloop
  endfacet
  facet normal 0.439626 0.395841 -0.80625
    outer loop
      vertex 14.866 -24.2805 35
      vertex 15.5139 -25 35
      vertex 4.07498 -25 28.7627
    endloop
  endfacet
  facet normal 0.439626 0.395841 -0.80625
    outer loop
      vertex -9.54728 -9.54728 28.9216
      vertex 4.07498 -25 28.7627
      vertex -9.70063 -9.70063 28.7627
    endloop
  endfacet
  facet normal 0.743145 0.669131 1.71692e-016
    outer loop
      vertex -9.70063 -9.70063 28.7627
      vertex 4.07498 -25 28.7627
      vertex 4.07498 -25 21.0713
    endloop
  endfacet
  facet normal 0.743145 0.669131 -0
    outer loop
      vertex -9.70063 -9.70063 21.0713
      vertex -9.70063 -9.70063 28.7627
      vertex 4.07498 -25 21.0713
    endloop
  endfacet
  facet normal 0.432208 0.389162 0.81348
    outer loop
      vertex -3.46472 -3.46472 14.7749
      vertex 4.07498 -25 21.0713
      vertex 6.62802 -25 19.7148
    endloop
  endfacet
  facet normal 0.432208 0.389162 0.81348
    outer loop
      vertex -3.46472 -3.46472 14.7749
      vertex -9.54728 -9.54728 20.9164
      vertex 4.07498 -25 21.0713
    endloop
  endfacet
  facet normal 0.432208 0.389162 0.81348
    outer loop
      vertex -9.54728 -9.54728 20.9164
      vertex -9.70063 -9.70063 21.0713
      vertex 4.07498 -25 21.0713
    endloop
  endfacet
  facet normal 0.432208 0.389162 0.81348
    outer loop
      vertex 15.8302 -24.7745 14.7178
      vertex 6.62802 -25 19.7148
      vertex 15.5518 -25 14.9736
    endloop
  endfacet
  facet normal 0.432208 0.389162 0.81348
    outer loop
      vertex 15.8302 -24.7745 14.7178
      vertex -3.40815 -3.40815 14.7178
      vertex 6.62802 -25 19.7148
    endloop
  endfacet
  facet normal 0.432208 0.389162 0.81348
    outer loop
      vertex -3.40815 -3.40815 14.7178
      vertex -3.46472 -3.46472 14.7749
      vertex 6.62802 -25 19.7148
    endloop
  endfacet
  facet normal 0.587785 -0.809017 0
    outer loop
      vertex 23.607 -18.8043 15
      vertex 19.6752 -21.6609 14.7178
      vertex 23.607 -18.8043 14.7178
    endloop
  endfacet
  facet normal 0.587785 -0.809017 0
    outer loop
      vertex 23.607 -18.8043 15
      vertex 19.6752 -21.6609 15
      vertex 19.6752 -21.6609 14.7178
    endloop
  endfacet
  facet normal -0.809017 -0.587785 0
    outer loop
      vertex 24.8873 -20.5665 14.7178
      vertex 23.607 -18.8043 15
      vertex 23.607 -18.8043 14.7178
    endloop
  endfacet
  facet normal -0.809017 -0.587785 0
    outer loop
      vertex 24.8873 -20.5665 14.7178
      vertex 24.8873 -20.5665 15
      vertex 23.607 -18.8043 15
    endloop
  endfacet
  facet normal 0.470519 0.341852 0.81348
    outer loop
      vertex 15.994 -25 14.7178
      vertex 15.8302 -24.7745 14.7178
      vertex 15.5518 -25 14.9736
    endloop
  endfacet
  facet normal 0 0 1
    outer loop
      vertex 8.58008 11.2861 15
      vertex -18.409 23.2869 15
      vertex 3.34228 3.70199 15
    endloop
  endfacet
  facet normal 0 0 1
    outer loop
      vertex -18.0866 24.6194 15
      vertex -20 25 15
      vertex -18.8043 23.607 15
    endloop
  endfacet
  facet normal 0 0 1
    outer loop
      vertex 0.0903319 0.0903319 15
      vertex 3.70199 3.34228 15
      vertex 3.34228 3.70199 15
    endloop
  endfacet
  facet normal 0 0 1
    outer loop
      vertex 19.6752 -21.6609 15
      vertex 23.607 -18.8043 15
      vertex 23.2869 -18.409 15
    endloop
  endfacet
  facet normal 0 0 1
    outer loop
      vertex 11.2861 8.58008 15
      vertex 3.70199 3.34228 15
      vertex 23.2869 -18.409 15
    endloop
  endfacet
  facet normal 0 -0 1
    outer loop
      vertex 24.8873 -20.5665 15
      vertex 25 -20 15
      vertex 23.607 -18.8043 15
    endloop
  endfacet
  facet normal 0 0 1
    outer loop
      vertex 24.6194 -18.0866 15
      vertex 23.2869 -18.409 15
      vertex 23.607 -18.8043 15
    endloop
  endfacet
  facet normal 0 0 1
    outer loop
      vertex 25 -20 15
      vertex 24.6194 -18.0866 15
      vertex 23.607 -18.8043 15
    endloop
  endfacet
  facet normal 0 0 1
    outer loop
      vertex 24.6194 -18.0866 15
      vertex 11.2861 8.58008 15
      vertex 23.2869 -18.409 15
    endloop
  endfacet
  facet normal 0 0 1
    outer loop
      vertex 9.66149 10.5635 15
      vertex 3.34228 3.70199 15
      vertex 3.70199 3.34228 15
    endloop
  endfacet
  facet normal 0 0 1
    outer loop
      vertex 9.66149 10.5635 15
      vertex 3.70199 3.34228 15
      vertex 11.2861 8.58008 15
    endloop
  endfacet
  facet normal 0 0 1
    outer loop
      vertex 9.66149 10.5635 15
      vertex 11.2861 8.58008 15
      vertex 10.2022 10.2022 15
    endloop
  endfacet
  facet normal 0 0 1
    outer loop
      vertex 8.58008 11.2861 15
      vertex 3.34228 3.70199 15
      vertex 9.66149 10.5635 15
    endloop
  endfacet
  facet normal 0 0 1
    outer loop
      vertex -18.0866 24.6194 15
      vertex -18.409 23.2869 15
      vertex 8.58008 11.2861 15
    endloop
  endfacet
  facet normal -0 0 1
    outer loop
      vertex -18.8043 23.607 15
      vertex -18.409 23.2869 15
      vertex -18.0866 24.6194 15
    endloop
  endfacet
  facet normal 0 0 1
    outer loop
      vertex -18.409 23.2869 15
      vertex -18.8043 23.607 15
      vertex -21.6609 19.6752 15
    endloop
  endfacet
  facet normal 0 0 1
    outer loop
      vertex -18.8043 23.607 15
      vertex -20 25 15
      vertex -20.5665 24.8873 15
    endloop
  endfacet
endsolid OpenSCAD_Model
