solid OpenSCAD_Model
  facet normal 1 -8.88178e-017 1.19963e-016
    outer loop
      vertex 25 20 0
      vertex 25 6.62802 19.7148
      vertex 25 -20 0
    endloop
  endfacet
  facet normal 1 -8.86857e-016 0
    outer loop
      vertex 25 20 14.7178
      vertex 25 15.994 14.7178
      vertex 25 20 0
    endloop
  endfacet
  facet normal 1 1.65708e-016 2.86493e-016
    outer loop
      vertex 25 15.5518 14.9736
      vertex 25 20 0
      vertex 25 15.994 14.7178
    endloop
  endfacet
  facet normal 1 1.49687e-016 2.81733e-016
    outer loop
      vertex 25 15.5518 14.9736
      vertex 25 6.62802 19.7148
      vertex 25 20 0
    endloop
  endfacet
  facet normal 1 0 0
    outer loop
      vertex 25 4.07498 28.7627
      vertex 25 -20 35
      vertex 25 4.07498 21.0713
    endloop
  endfacet
  facet normal 1 0 0
    outer loop
      vertex 25 6.62802 19.7148
      vertex 25 4.07498 21.0713
      vertex 25 -20 0
    endloop
  endfacet
  facet normal 1 0 0
    outer loop
      vertex 25 4.07498 21.0713
      vertex 25 -20 35
      vertex 25 -20 0
    endloop
  endfacet
  facet normal 1 0 0
    outer loop
      vertex 25 15.5139 35
      vertex 25 -20 35
      vertex 25 4.07498 28.7627
    endloop
  endfacet
  facet normal -0.55557 0.83147 0
    outer loop
      vertex -23.5355 23.5355 0
      vertex -23.5355 23.5355 5
      vertex -21.9134 24.6194 0
    endloop
  endfacet
  facet normal -0.55557 0.83147 0
    outer loop
      vertex -21.9134 24.6194 0
      vertex -23.5355 23.5355 5
      vertex -21.9134 24.6194 5
    endloop
  endfacet
  facet normal 0.980785 -0.19509 0
    outer loop
      vertex 25 -20 0
      vertex 24.6194 -21.9134 35
      vertex 24.6194 -21.9134 0
    endloop
  endfacet
  facet normal 0.980785 -0.19509 0
    outer loop
      vertex 25 -20 0
      vertex 25 -20 35
      vertex 24.6194 -21.9134 35
    endloop
  endfacet
  facet normal 8.88178e-017 1 -0
    outer loop
      vertex -20 25 0
      vertex -20 25 5
      vertex 20 25 0
    endloop
  endfacet
  facet normal 8.88178e-017 1 -0
    outer loop
      vertex 20 25 0
      vertex -20 25 5
      vertex 20 25 15
    endloop
  endfacet
  facet normal 0 0 -1
    outer loop
      vertex -25 -20 0
      vertex -23.5355 -23.5355 0
      vertex -24.6194 -21.9134 0
    endloop
  endfacet
  facet normal 0 0 -1
    outer loop
      vertex -25 -20 0
      vertex 13.35 -15 0
      vertex -20 -25 0
    endloop
  endfacet
  facet normal 0 0 -1
    outer loop
      vertex -25 20 0
      vertex -24.6194 21.9134 0
      vertex -20 25 0
    endloop
  endfacet
  facet normal 0 0 -1
    outer loop
      vertex -24.6194 21.9134 0
      vertex -23.5355 23.5355 0
      vertex -21.9134 24.6194 0
    endloop
  endfacet
  facet normal 0 0 -1
    outer loop
      vertex -24.6194 21.9134 0
      vertex -21.9134 24.6194 0
      vertex -20 25 0
    endloop
  endfacet
  facet normal 0 0 -1
    outer loop
      vertex 14.175 -13.5711 0
      vertex 13.35 -15 0
      vertex -25 -20 0
    endloop
  endfacet
  facet normal -0 -0 -1
    outer loop
      vertex 15.825 -16.4289 0
      vertex 20 -25 0
      vertex 14.175 -16.4289 0
    endloop
  endfacet
  facet normal 0 0 -1
    outer loop
      vertex 20 25 0
      vertex 21.9134 24.6194 0
      vertex 25 20 0
    endloop
  endfacet
  facet normal 0 0 -1
    outer loop
      vertex 21.9134 24.6194 0
      vertex 23.5355 23.5355 0
      vertex 24.6194 21.9134 0
    endloop
  endfacet
  facet normal 0 0 -1
    outer loop
      vertex 21.9134 24.6194 0
      vertex 24.6194 21.9134 0
      vertex 25 20 0
    endloop
  endfacet
  facet normal 0 0 -1
    outer loop
      vertex 25 -20 0
      vertex 24.6194 -21.9134 0
      vertex 23.5355 -23.5355 0
    endloop
  endfacet
  facet normal 0 0 -1
    outer loop
      vertex 25 -20 0
      vertex 23.5355 -23.5355 0
      vertex 20 -25 0
    endloop
  endfacet
  facet normal 0 0 -1
    outer loop
      vertex 23.5355 -23.5355 0
      vertex 21.9134 -24.6194 0
      vertex 20 -25 0
    endloop
  endfacet
  facet normal 0 -0 -1
    outer loop
      vertex 14.175 -16.4289 0
      vertex 20 -25 0
      vertex -20 -25 0
    endloop
  endfacet
  facet normal 0 0 -1
    outer loop
      vertex -25 -20 0
      vertex -20 -25 0
      vertex -23.5355 -23.5355 0
    endloop
  endfacet
  facet normal 0 0 -1
    outer loop
      vertex -20 -25 0
      vertex -21.9134 -24.6194 0
      vertex -23.5355 -23.5355 0
    endloop
  endfacet
  facet normal 0 -0 -1
    outer loop
      vertex -20 25 0
      vertex 14.175 -13.5711 0
      vertex -25 20 0
    endloop
  endfacet
  facet normal -0 0 -1
    outer loop
      vertex 14.175 -13.5711 0
      vertex -25 -20 0
      vertex -25 20 0
    endloop
  endfacet
  facet normal -0 0 -1
    outer loop
      vertex 25 -20 0
      vertex 20 -25 0
      vertex 15.825 -16.4289 0
    endloop
  endfacet
  facet normal 0 -0 -1
    outer loop
      vertex 13.35 -15 0
      vertex 14.175 -16.4289 0
      vertex -20 -25 0
    endloop
  endfacet
  facet normal 0 -0 -1
    outer loop
      vertex 16.65 -15 0
      vertex 25 -20 0
      vertex 15.825 -16.4289 0
    endloop
  endfacet
  facet normal 0 0 -1
    outer loop
      vertex 25 20 0
      vertex 25 -20 0
      vertex 15.825 -13.5711 0
    endloop
  endfacet
  facet normal 0 0 -1
    outer loop
      vertex 25 -20 0
      vertex 16.65 -15 0
      vertex 15.825 -13.5711 0
    endloop
  endfacet
  facet normal -0 0 -1
    outer loop
      vertex 25 20 0
      vertex 14.175 -13.5711 0
      vertex 20 25 0
    endloop
  endfacet
  facet normal 0 0 -1
    outer loop
      vertex 25 20 0
      vertex 15.825 -13.5711 0
      vertex 14.175 -13.5711 0
    endloop
  endfacet
  facet normal -0 0 -1
    outer loop
      vertex 20 25 0
      vertex 14.175 -13.5711 0
      vertex -20 25 0
    endloop
  endfacet
  facet normal 0.980785 0.19509 0
    outer loop
      vertex 24.6194 21.9134 14.7178
      vertex 25 20 0
      vertex 24.6194 21.9134 0
    endloop
  endfacet
  facet normal 0.980785 0.19509 0
    outer loop
      vertex 24.6194 21.9134 14.7178
      vertex 25 20 14.7178
      vertex 25 20 0
    endloop
  endfacet
  facet normal 0.83147 0.55557 0
    outer loop
      vertex 23.5355 23.5355 14.7178
      vertex 24.6194 21.9134 0
      vertex 23.5355 23.5355 0
    endloop
  endfacet
  facet normal 0.83147 0.55557 0
    outer loop
      vertex 23.5355 23.5355 14.7178
      vertex 24.6194 21.9134 14.7178
      vertex 24.6194 21.9134 0
    endloop
  endfacet
  facet normal 0.55557 0.83147 -0
    outer loop
      vertex 21.9134 24.6194 0
      vertex 21.9134 24.6194 14.7178
      vertex 23.5355 23.5355 0
    endloop
  endfacet
  facet normal 0.55557 0.83147 -0
    outer loop
      vertex 23.5355 23.5355 0
      vertex 21.9134 24.6194 14.7178
      vertex 23.5355 23.5355 14.7178
    endloop
  endfacet
  facet normal -1 8.88178e-017 0
    outer loop
      vertex -25 -20 0
      vertex -25 20 5
      vertex -25 20 0
    endloop
  endfacet
  facet normal -1 8.88178e-017 0
    outer loop
      vertex -25 -20 0
      vertex -25 -20 15
      vertex -25 20 5
    endloop
  endfacet
  facet normal -0.19509 0.980785 0
    outer loop
      vertex -21.9134 24.6194 0
      vertex -21.9134 24.6194 5
      vertex -20 25 0
    endloop
  endfacet
  facet normal -0.19509 0.980785 0
    outer loop
      vertex -20 25 0
      vertex -21.9134 24.6194 5
      vertex -20 25 5
    endloop
  endfacet
  facet normal -0.83147 -0.55557 0
    outer loop
      vertex -24.6194 -21.9134 0
      vertex -23.5355 -23.5355 0
      vertex -24.6194 -21.9134 14.7178
    endloop
  endfacet
  facet normal -0.83147 -0.55557 0
    outer loop
      vertex -24.6194 -21.9134 14.7178
      vertex -23.5355 -23.5355 0
      vertex -23.5355 -23.5355 14.7178
    endloop
  endfacet
  facet normal 0.19509 0.980785 0
    outer loop
      vertex 20.5665 24.8873 14.7178
      vertex 21.9134 24.6194 14.7178
      vertex 21.9134 24.6194 0
    endloop
  endfacet
  facet normal 0.19509 0.980785 -0
    outer loop
      vertex 20 25 0
      vertex 20 25 15
      vertex 20.5665 24.8873 14.7178
    endloop
  endfacet
  facet normal 0.19509 0.980785 0
    outer loop
      vertex 20 25 15
      vertex 20.5665 24.8873 15
      vertex 20.5665 24.8873 14.7178
    endloop
  endfacet
  facet normal 0.19509 0.980785 1.94514e-016
    outer loop
      vertex 20 25 0
      vertex 20.5665 24.8873 14.7178
      vertex 21.9134 24.6194 0
    endloop
  endfacet
  facet normal -0.153802 0.773216 0.615209
    outer loop
      vertex -21.9134 24.6194 5
      vertex 18.0866 24.6194 15
      vertex -20 25 5
    endloop
  endfacet
  facet normal -0.153802 0.773216 0.615209
    outer loop
      vertex -20 25 5
      vertex 18.0866 24.6194 15
      vertex 20 25 15
    endloop
  endfacet
  facet normal -0.980785 0.19509 0
    outer loop
      vertex -25 20 0
      vertex -25 20 5
      vertex -24.6194 21.9134 0
    endloop
  endfacet
  facet normal -0.980785 0.19509 0
    outer loop
      vertex -24.6194 21.9134 0
      vertex -25 20 5
      vertex -24.6194 21.9134 5
    endloop
  endfacet
  facet normal -0.83147 0.55557 0
    outer loop
      vertex -24.6194 21.9134 0
      vertex -24.6194 21.9134 5
      vertex -23.5355 23.5355 0
    endloop
  endfacet
  facet normal -0.83147 0.55557 0
    outer loop
      vertex -23.5355 23.5355 0
      vertex -24.6194 21.9134 5
      vertex -23.5355 23.5355 5
    endloop
  endfacet
  facet normal -1.00037e-016 -1 -1.83463e-016
    outer loop
      vertex 20 -25 35
      vertex -15.5139 -25 35
      vertex -6.62802 -25 30.1548
    endloop
  endfacet
  facet normal -4.48217e-016 -1 1.73004e-015
    outer loop
      vertex 20 -25 35
      vertex -6.62802 -25 30.1548
      vertex -4.07498 -25 28.7627
    endloop
  endfacet
  facet normal 0 -1 -0
    outer loop
      vertex 20 -25 35
      vertex -4.07498 -25 21.0713
      vertex 20 -25 0
    endloop
  endfacet
  facet normal 0 -1 0
    outer loop
      vertex -4.07498 -25 28.7627
      vertex -4.07498 -25 21.0713
      vertex 20 -25 35
    endloop
  endfacet
  facet normal -8.88178e-017 -1 -1.01479e-016
    outer loop
      vertex -4.07498 -25 21.0713
      vertex -20 -25 0
      vertex 20 -25 0
    endloop
  endfacet
  facet normal -3.67572e-016 -1 1.09195e-016
    outer loop
      vertex -4.07498 -25 21.0713
      vertex -15.5518 -25 14.9736
      vertex -20 -25 0
    endloop
  endfacet
  facet normal 0 -1 0
    outer loop
      vertex -15.5518 -25 14.9736
      vertex -15.994 -25 14.7178
      vertex -20 -25 0
    endloop
  endfacet
  facet normal 0 -1 0
    outer loop
      vertex -15.994 -25 14.7178
      vertex -20 -25 14.7178
      vertex -20 -25 0
    endloop
  endfacet
  facet normal -0.980785 -0.19509 0
    outer loop
      vertex -24.8873 -20.5665 14.7178
      vertex -24.8873 -20.5665 15
      vertex -25 -20 15
    endloop
  endfacet
  facet normal -0.980785 -0.19509 -1.14713e-016
    outer loop
      vertex -25 -20 0
      vertex -24.6194 -21.9134 0
      vertex -24.8873 -20.5665 14.7178
    endloop
  endfacet
  facet normal -0.980785 -0.19509 0
    outer loop
      vertex -24.6194 -21.9134 0
      vertex -24.6194 -21.9134 14.7178
      vertex -24.8873 -20.5665 14.7178
    endloop
  endfacet
  facet normal -0.980785 -0.19509 0
    outer loop
      vertex -25 -20 0
      vertex -24.8873 -20.5665 14.7178
      vertex -25 -20 15
    endloop
  endfacet
  facet normal -0.218218 0.436436 0.872872
    outer loop
      vertex 18.0866 24.6194 15
      vertex -21.9134 24.6194 5
      vertex -8.58008 11.2861 15
    endloop
  endfacet
  facet normal -0.773216 0.153802 0.615209
    outer loop
      vertex -25 -20 15
      vertex -24.6194 -18.0866 15
      vertex -25 20 5
    endloop
  endfacet
  facet normal -0.773216 0.153802 0.615209
    outer loop
      vertex -25 20 5
      vertex -24.6194 -18.0866 15
      vertex -24.6194 21.9134 5
    endloop
  endfacet
  facet normal 0.55557 -0.83147 0
    outer loop
      vertex 23.5355 -23.5355 0
      vertex 21.9134 -24.6194 35
      vertex 21.9134 -24.6194 0
    endloop
  endfacet
  facet normal 0.55557 -0.83147 0
    outer loop
      vertex 23.5355 -23.5355 0
      vertex 23.5355 -23.5355 35
      vertex 21.9134 -24.6194 35
    endloop
  endfacet
  facet normal 0.19509 -0.980785 0
    outer loop
      vertex 21.9134 -24.6194 0
      vertex 20 -25 35
      vertex 20 -25 0
    endloop
  endfacet
  facet normal 0.19509 -0.980785 0
    outer loop
      vertex 21.9134 -24.6194 0
      vertex 21.9134 -24.6194 35
      vertex 20 -25 35
    endloop
  endfacet
  facet normal 0.83147 -0.55557 0
    outer loop
      vertex 24.6194 -21.9134 0
      vertex 23.5355 -23.5355 35
      vertex 23.5355 -23.5355 0
    endloop
  endfacet
  facet normal 0.83147 -0.55557 0
    outer loop
      vertex 24.6194 -21.9134 0
      vertex 24.6194 -21.9134 35
      vertex 23.5355 -23.5355 35
    endloop
  endfacet
  facet normal 0 0 1
    outer loop
      vertex 12.6184 -15 35
      vertex 3.01762 -4.4187 35
      vertex -15.5139 -25 35
    endloop
  endfacet
  facet normal 0 0 1
    outer loop
      vertex 25 -20 35
      vertex 17.3816 -15 35
      vertex 16.1908 -17.0625 35
    endloop
  endfacet
  facet normal 0 0 1
    outer loop
      vertex 21.9134 -24.6194 35
      vertex 16.1908 -17.0625 35
      vertex 20 -25 35
    endloop
  endfacet
  facet normal 0 0 1
    outer loop
      vertex 23.5355 -23.5355 35
      vertex 16.1908 -17.0625 35
      vertex 21.9134 -24.6194 35
    endloop
  endfacet
  facet normal 0 0 1
    outer loop
      vertex 24.6194 -21.9134 35
      vertex 16.1908 -17.0625 35
      vertex 23.5355 -23.5355 35
    endloop
  endfacet
  facet normal 0 0 1
    outer loop
      vertex 24.2805 14.866 35
      vertex 3.68145 -3.68145 35
      vertex 16.1908 -12.9375 35
    endloop
  endfacet
  facet normal 0 0 1
    outer loop
      vertex 25 15.5139 35
      vertex 24.2805 14.866 35
      vertex 25 -20 35
    endloop
  endfacet
  facet normal 0 0 1
    outer loop
      vertex 20 -25 35
      vertex 13.8092 -17.0625 35
      vertex -15.5139 -25 35
    endloop
  endfacet
  facet normal 0 0 1
    outer loop
      vertex 13.8092 -12.9375 35
      vertex 3.68145 -3.68145 35
      vertex 3.01762 -4.4187 35
    endloop
  endfacet
  facet normal 0 0 1
    outer loop
      vertex 3.01762 -4.4187 35
      vertex 12.6184 -15 35
      vertex 13.8092 -12.9375 35
    endloop
  endfacet
  facet normal 0 0 1
    outer loop
      vertex 12.6184 -15 35
      vertex -15.5139 -25 35
      vertex 13.8092 -17.0625 35
    endloop
  endfacet
  facet normal 0 0 1
    outer loop
      vertex 3.68145 -3.68145 35
      vertex 13.8092 -12.9375 35
      vertex 16.1908 -12.9375 35
    endloop
  endfacet
  facet normal 0 0 1
    outer loop
      vertex 24.2805 14.866 35
      vertex 16.1908 -12.9375 35
      vertex 25 -20 35
    endloop
  endfacet
  facet normal 0 0 1
    outer loop
      vertex 16.1908 -12.9375 35
      vertex 17.3816 -15 35
      vertex 25 -20 35
    endloop
  endfacet
  facet normal 0 0 1
    outer loop
      vertex 16.1908 -17.0625 35
      vertex 24.6194 -21.9134 35
      vertex 25 -20 35
    endloop
  endfacet
  facet normal 0 0 1
    outer loop
      vertex 20 -25 35
      vertex 16.1908 -17.0625 35
      vertex 13.8092 -17.0625 35
    endloop
  endfacet
  facet normal -0.395479 0.264251 0.879641
    outer loop
      vertex -10.5635 9.66149 15
      vertex -23.5355 23.5355 5
      vertex -24.6194 21.9134 5
    endloop
  endfacet
  facet normal -0.395479 0.264251 0.879641
    outer loop
      vertex -11.2861 8.58008 15
      vertex -10.5635 9.66149 15
      vertex -24.6194 21.9134 5
    endloop
  endfacet
  facet normal -0.264251 0.395479 0.879641
    outer loop
      vertex -10.2022 10.2022 15
      vertex -21.9134 24.6194 5
      vertex -23.5355 23.5355 5
    endloop
  endfacet
  facet normal -0.264251 0.395479 0.879641
    outer loop
      vertex -10.2022 10.2022 15
      vertex -8.58008 11.2861 15
      vertex -21.9134 24.6194 5
    endloop
  endfacet
  facet normal -0.436436 0.218218 0.872872
    outer loop
      vertex -24.6194 21.9134 5
      vertex -24.6194 -18.0866 15
      vertex -11.2861 8.58008 15
    endloop
  endfacet
  facet normal -0.19509 -0.980785 0
    outer loop
      vertex -20 -25 0
      vertex -21.9134 -24.6194 14.7178
      vertex -21.9134 -24.6194 0
    endloop
  endfacet
  facet normal -0.19509 -0.980785 0
    outer loop
      vertex -20 -25 0
      vertex -20 -25 14.7178
      vertex -21.9134 -24.6194 14.7178
    endloop
  endfacet
  facet normal -0.55557 -0.83147 0
    outer loop
      vertex -21.9134 -24.6194 0
      vertex -23.5355 -23.5355 14.7178
      vertex -23.5355 -23.5355 0
    endloop
  endfacet
  facet normal -0.55557 -0.83147 0
    outer loop
      vertex -21.9134 -24.6194 0
      vertex -21.9134 -24.6194 14.7178
      vertex -23.5355 -23.5355 14.7178
    endloop
  endfacet
  facet normal -0.395479 0.264251 0.879641
    outer loop
      vertex -10.2022 10.2022 15
      vertex -23.5355 23.5355 5
      vertex -10.5635 9.66149 15
    endloop
  endfacet
  facet normal -0.866025 -0.5 -0
    outer loop
      vertex 17.3816 -15 35
      vertex 16.1908 -12.9375 33
      vertex 17.3816 -15 33
    endloop
  endfacet
  facet normal -0.866025 -0.5 0
    outer loop
      vertex 17.3816 -15 35
      vertex 16.1908 -12.9375 35
      vertex 16.1908 -12.9375 33
    endloop
  endfacet
  facet normal 0 0 1
    outer loop
      vertex 13.8092 -12.9375 33
      vertex 12.6184 -15 33
      vertex 13.35 -15 33
    endloop
  endfacet
  facet normal 0 0 1
    outer loop
      vertex 13.8092 -12.9375 33
      vertex 13.35 -15 33
      vertex 14.175 -13.5711 33
    endloop
  endfacet
  facet normal 0 0 1
    outer loop
      vertex 13.35 -15 33
      vertex 12.6184 -15 33
      vertex 13.8092 -17.0625 33
    endloop
  endfacet
  facet normal -0 0 1
    outer loop
      vertex 13.8092 -12.9375 33
      vertex 14.175 -13.5711 33
      vertex 16.1908 -12.9375 33
    endloop
  endfacet
  facet normal 0 -0 1
    outer loop
      vertex 16.1908 -17.0625 33
      vertex 17.3816 -15 33
      vertex 15.825 -16.4289 33
    endloop
  endfacet
  facet normal 0 0 1
    outer loop
      vertex 14.175 -13.5711 33
      vertex 15.825 -13.5711 33
      vertex 16.1908 -12.9375 33
    endloop
  endfacet
  facet normal -0 0 1
    outer loop
      vertex 15.825 -13.5711 33
      vertex 17.3816 -15 33
      vertex 16.1908 -12.9375 33
    endloop
  endfacet
  facet normal 0 0 1
    outer loop
      vertex 17.3816 -15 33
      vertex 16.65 -15 33
      vertex 15.825 -16.4289 33
    endloop
  endfacet
  facet normal 0 -0 1
    outer loop
      vertex 16.65 -15 33
      vertex 17.3816 -15 33
      vertex 15.825 -13.5711 33
    endloop
  endfacet
  facet normal 0 0 1
    outer loop
      vertex 16.1908 -17.0625 33
      vertex 14.175 -16.4289 33
      vertex 13.8092 -17.0625 33
    endloop
  endfacet
  facet normal 0 0 1
    outer loop
      vertex 15.825 -16.4289 33
      vertex 14.175 -16.4289 33
      vertex 16.1908 -17.0625 33
    endloop
  endfacet
  facet normal 0 0 1
    outer loop
      vertex 14.175 -16.4289 33
      vertex 13.35 -15 33
      vertex 13.8092 -17.0625 33
    endloop
  endfacet
  facet normal 0 -1 0
    outer loop
      vertex 13.8092 -12.9375 35
      vertex 16.1908 -12.9375 33
      vertex 16.1908 -12.9375 35
    endloop
  endfacet
  facet normal 0 -1 0
    outer loop
      vertex 13.8092 -12.9375 35
      vertex 13.8092 -12.9375 33
      vertex 16.1908 -12.9375 33
    endloop
  endfacet
  facet normal -0.866025 0.5 0
    outer loop
      vertex 17.3816 -15 35
      vertex 17.3816 -15 33
      vertex 16.1908 -17.0625 35
    endloop
  endfacet
  facet normal -0.866025 0.5 0
    outer loop
      vertex 16.1908 -17.0625 35
      vertex 17.3816 -15 33
      vertex 16.1908 -17.0625 33
    endloop
  endfacet
  facet normal 0.866025 -0.5 0
    outer loop
      vertex 12.6184 -15 35
      vertex 13.8092 -12.9375 33
      vertex 13.8092 -12.9375 35
    endloop
  endfacet
  facet normal 0.866025 -0.5 0
    outer loop
      vertex 12.6184 -15 35
      vertex 12.6184 -15 33
      vertex 13.8092 -12.9375 33
    endloop
  endfacet
  facet normal 0 1 0
    outer loop
      vertex 16.1908 -17.0625 35
      vertex 16.1908 -17.0625 33
      vertex 13.8092 -17.0625 35
    endloop
  endfacet
  facet normal 0 1 0
    outer loop
      vertex 13.8092 -17.0625 35
      vertex 16.1908 -17.0625 33
      vertex 13.8092 -17.0625 33
    endloop
  endfacet
  facet normal 0.866025 0.5 -0
    outer loop
      vertex 12.6184 -15 33
      vertex 12.6184 -15 35
      vertex 13.8092 -17.0625 35
    endloop
  endfacet
  facet normal 0.866025 0.5 -0
    outer loop
      vertex 13.8092 -17.0625 33
      vertex 12.6184 -15 33
      vertex 13.8092 -17.0625 35
    endloop
  endfacet
  facet normal -0.866025 -0.5 -0
    outer loop
      vertex 16.65 -15 33
      vertex 15.825 -13.5711 0
      vertex 16.65 -15 0
    endloop
  endfacet
  facet normal -0.866025 -0.5 0
    outer loop
      vertex 16.65 -15 33
      vertex 15.825 -13.5711 33
      vertex 15.825 -13.5711 0
    endloop
  endfacet
  facet normal 0 -1 0
    outer loop
      vertex 14.175 -13.5711 33
      vertex 15.825 -13.5711 0
      vertex 15.825 -13.5711 33
    endloop
  endfacet
  facet normal 0 -1 0
    outer loop
      vertex 14.175 -13.5711 33
      vertex 14.175 -13.5711 0
      vertex 15.825 -13.5711 0
    endloop
  endfacet
  facet normal -0.866025 0.5 0
    outer loop
      vertex 16.65 -15 33
      vertex 16.65 -15 0
      vertex 15.825 -16.4289 33
    endloop
  endfacet
  facet normal -0.866025 0.5 0
    outer loop
      vertex 15.825 -16.4289 33
      vertex 16.65 -15 0
      vertex 15.825 -16.4289 0
    endloop
  endfacet
  facet normal 0.866025 -0.5 0
    outer loop
      vertex 13.35 -15 33
      vertex 14.175 -13.5711 0
      vertex 14.175 -13.5711 33
    endloop
  endfacet
  facet normal 0.866025 -0.5 0
    outer loop
      vertex 13.35 -15 33
      vertex 13.35 -15 0
      vertex 14.175 -13.5711 0
    endloop
  endfacet
  facet normal 0.866025 0.5 -0
    outer loop
      vertex 13.35 -15 0
      vertex 13.35 -15 33
      vertex 14.175 -16.4289 33
    endloop
  endfacet
  facet normal 0.866025 0.5 -0
    outer loop
      vertex 14.175 -16.4289 0
      vertex 13.35 -15 0
      vertex 14.175 -16.4289 33
    endloop
  endfacet
  facet normal 0 1 0
    outer loop
      vertex 15.825 -16.4289 33
      vertex 15.825 -16.4289 0
      vertex 14.175 -16.4289 33
    endloop
  endfacet
  facet normal 0 1 0
    outer loop
      vertex 14.175 -16.4289 33
      vertex 15.825 -16.4289 0
      vertex 14.175 -16.4289 0
    endloop
  endfacet
  facet normal 0 0 1
    outer loop
      vertex -23.607 -18.8043 14.7178
      vertex -24.6194 -21.9134 14.7178
      vertex -19.6752 -21.6609 14.7178
    endloop
  endfacet
  facet normal 0 0 1
    outer loop
      vertex -19.6752 -21.6609 14.7178
      vertex -24.6194 -21.9134 14.7178
      vertex -23.5355 -23.5355 14.7178
    endloop
  endfacet
  facet normal 0 0 1
    outer loop
      vertex -19.6752 -21.6609 14.7178
      vertex -23.5355 -23.5355 14.7178
      vertex -21.9134 -24.6194 14.7178
    endloop
  endfacet
  facet normal -4.43429e-016 4.31291e-017 1
    outer loop
      vertex -15.994 -25 14.7178
      vertex -19.6752 -21.6609 14.7178
      vertex -20 -25 14.7178
    endloop
  endfacet
  facet normal -1.21829e-016 -1.35305e-016 1
    outer loop
      vertex -0.0903319 0.0903319 14.7178
      vertex -23.2869 -18.409 14.7178
      vertex -19.6752 -21.6609 14.7178
    endloop
  endfacet
  facet normal -1.2892e-016 -1.2892e-016 1
    outer loop
      vertex -19.6752 -21.6609 14.7178
      vertex 3.40815 -3.40815 14.7178
      vertex -0.0903319 0.0903319 14.7178
    endloop
  endfacet
  facet normal 0 0 1
    outer loop
      vertex 25 15.994 14.7178
      vertex 21.6609 19.6752 14.7178
      vertex 24.7745 15.8302 14.7178
    endloop
  endfacet
  facet normal -1.2892e-016 -1.2892e-016 1
    outer loop
      vertex -0.0903319 0.0903319 14.7178
      vertex 3.40815 -3.40815 14.7178
      vertex 21.6609 19.6752 14.7178
    endloop
  endfacet
  facet normal 0 0 1
    outer loop
      vertex 25 20 14.7178
      vertex 21.6609 19.6752 14.7178
      vertex 25 15.994 14.7178
    endloop
  endfacet
  facet normal 0 0 1
    outer loop
      vertex 24.6194 21.9134 14.7178
      vertex 21.6609 19.6752 14.7178
      vertex 25 20 14.7178
    endloop
  endfacet
  facet normal 0 0 1
    outer loop
      vertex 23.5355 23.5355 14.7178
      vertex 21.6609 19.6752 14.7178
      vertex 24.6194 21.9134 14.7178
    endloop
  endfacet
  facet normal 0 0 1
    outer loop
      vertex 21.9134 24.6194 14.7178
      vertex 21.6609 19.6752 14.7178
      vertex 23.5355 23.5355 14.7178
    endloop
  endfacet
  facet normal -1.03534e-015 1.42503e-015 1
    outer loop
      vertex 20.5665 24.8873 14.7178
      vertex 18.8043 23.607 14.7178
      vertex 21.9134 24.6194 14.7178
    endloop
  endfacet
  facet normal -5.80998e-016 2.96735e-017 1
    outer loop
      vertex 18.8043 23.607 14.7178
      vertex 21.6609 19.6752 14.7178
      vertex 21.9134 24.6194 14.7178
    endloop
  endfacet
  facet normal -1.44242e-016 -1.16805e-016 1
    outer loop
      vertex 21.6609 19.6752 14.7178
      vertex 3.40815 -3.40815 14.7178
      vertex 24.7745 15.8302 14.7178
    endloop
  endfacet
  facet normal -3.79878e-016 1.49796e-016 1
    outer loop
      vertex 18.409 23.2869 14.7178
      vertex -0.0903319 0.0903319 14.7178
      vertex 21.6609 19.6752 14.7178
    endloop
  endfacet
  facet normal -3.79878e-016 1.49796e-016 1
    outer loop
      vertex -3.34228 3.70199 14.7178
      vertex -0.0903319 0.0903319 14.7178
      vertex 18.409 23.2869 14.7178
    endloop
  endfacet
  facet normal -3.45051e-016 1.44409e-016 1
    outer loop
      vertex -19.6752 -21.6609 14.7178
      vertex -15.8302 -24.7745 14.7178
      vertex 3.40815 -3.40815 14.7178
    endloop
  endfacet
  facet normal -3.52845e-016 1.54369e-016 1
    outer loop
      vertex -3.70199 3.34228 14.7178
      vertex -23.2869 -18.409 14.7178
      vertex -0.0903319 0.0903319 14.7178
    endloop
  endfacet
  facet normal -2.90863e-016 2.11325e-016 1
    outer loop
      vertex -15.8302 -24.7745 14.7178
      vertex -19.6752 -21.6609 14.7178
      vertex -15.994 -25 14.7178
    endloop
  endfacet
  facet normal 0 0 1
    outer loop
      vertex -19.6752 -21.6609 14.7178
      vertex -21.9134 -24.6194 14.7178
      vertex -20 -25 14.7178
    endloop
  endfacet
  facet normal 0 0 1
    outer loop
      vertex -23.607 -18.8043 14.7178
      vertex -24.8873 -20.5665 14.7178
      vertex -24.6194 -21.9134 14.7178
    endloop
  endfacet
  facet normal -0.587785 -0.809017 -0
    outer loop
      vertex -19.6752 -21.6609 15
      vertex -23.607 -18.8043 14.7178
      vertex -19.6752 -21.6609 14.7178
    endloop
  endfacet
  facet normal -0.587785 -0.809017 0
    outer loop
      vertex -19.6752 -21.6609 15
      vertex -23.607 -18.8043 15
      vertex -23.607 -18.8043 14.7178
    endloop
  endfacet
  facet normal 0.809017 -0.587785 0
    outer loop
      vertex -24.8873 -20.5665 15
      vertex -24.8873 -20.5665 14.7178
      vertex -23.607 -18.8043 14.7178
    endloop
  endfacet
  facet normal 0.809017 -0.587785 0
    outer loop
      vertex -23.607 -18.8043 15
      vertex -24.8873 -20.5665 15
      vertex -23.607 -18.8043 14.7178
    endloop
  endfacet
  facet normal -0.470519 0.341852 0.81348
    outer loop
      vertex -15.994 -25 14.7178
      vertex -15.5518 -25 14.9736
      vertex -15.7681 -24.8249 14.7749
    endloop
  endfacet
  facet normal -0.470519 0.341852 0.81348
    outer loop
      vertex -15.8302 -24.7745 14.7178
      vertex -15.994 -25 14.7178
      vertex -15.7681 -24.8249 14.7749
    endloop
  endfacet
  facet normal 0.669131 0.743145 -0
    outer loop
      vertex -19.6752 -21.6609 14.7178
      vertex -23.2869 -18.409 14.7178
      vertex -19.6752 -21.6609 15
    endloop
  endfacet
  facet normal 0.669131 0.743145 0
    outer loop
      vertex -19.6752 -21.6609 15
      vertex -23.2869 -18.409 14.7178
      vertex -23.2869 -18.409 15
    endloop
  endfacet
  facet normal -0.669131 -0.743145 -9.87085e-017
    outer loop
      vertex -0.0903319 0.0903319 15
      vertex -3.70199 3.34228 14.7178
      vertex -0.0903319 0.0903319 14.7178
    endloop
  endfacet
  facet normal -0.669131 -0.743145 -1.05289e-015
    outer loop
      vertex -0.0903319 0.0903319 15
      vertex -3.70199 3.34228 15
      vertex -3.70199 3.34228 14.7178
    endloop
  endfacet
  facet normal 0.743145 -0.669131 0
    outer loop
      vertex -23.2869 -18.409 15
      vertex -23.2869 -18.409 14.7178
      vertex -3.70199 3.34228 14.7178
    endloop
  endfacet
  facet normal 0.743145 -0.669131 1.16935e-015
    outer loop
      vertex -3.70199 3.34228 15
      vertex -23.2869 -18.409 15
      vertex -3.70199 3.34228 14.7178
    endloop
  endfacet
  facet normal -0.439626 0.395841 -0.80625
    outer loop
      vertex -15.5139 -25 35
      vertex 3.01762 -4.4187 35
      vertex -6.62802 -25 30.1548
    endloop
  endfacet
  facet normal -0.439626 0.395841 -0.80625
    outer loop
      vertex 3.68145 -3.68145 35
      vertex 9.54728 -9.54728 28.9216
      vertex 3.01762 -4.4187 35
    endloop
  endfacet
  facet normal -0.439626 0.395841 -0.80625
    outer loop
      vertex 3.01762 -4.4187 35
      vertex 9.54728 -9.54728 28.9216
      vertex -4.07498 -25 28.7627
    endloop
  endfacet
  facet normal -0.439626 0.395841 -0.80625
    outer loop
      vertex 9.54728 -9.54728 28.9216
      vertex 9.70063 -9.70063 28.7627
      vertex -4.07498 -25 28.7627
    endloop
  endfacet
  facet normal -0.439626 0.395841 -0.80625
    outer loop
      vertex 3.01762 -4.4187 35
      vertex -4.07498 -25 28.7627
      vertex -6.62802 -25 30.1548
    endloop
  endfacet
  facet normal -0.743145 0.669131 0
    outer loop
      vertex 9.70063 -9.70063 21.0713
      vertex -4.07498 -25 28.7627
      vertex 9.70063 -9.70063 28.7627
    endloop
  endfacet
  facet normal -0.743145 0.669131 -1.71692e-016
    outer loop
      vertex 9.70063 -9.70063 21.0713
      vertex -4.07498 -25 21.0713
      vertex -4.07498 -25 28.7627
    endloop
  endfacet
  facet normal -0.432208 0.389162 0.81348
    outer loop
      vertex -15.7681 -24.8249 14.7749
      vertex -15.5518 -25 14.9736
      vertex -4.07498 -25 21.0713
    endloop
  endfacet
  facet normal -0.432208 0.389162 0.81348
    outer loop
      vertex 9.70063 -9.70063 21.0713
      vertex 9.54728 -9.54728 20.9164
      vertex -4.07498 -25 21.0713
    endloop
  endfacet
  facet normal -0.432208 0.389162 0.81348
    outer loop
      vertex 9.54728 -9.54728 20.9164
      vertex -15.7681 -24.8249 14.7749
      vertex -4.07498 -25 21.0713
    endloop
  endfacet
  facet normal -0.432208 0.389162 0.81348
    outer loop
      vertex 3.46472 -3.46472 14.7749
      vertex -15.7681 -24.8249 14.7749
      vertex 9.54728 -9.54728 20.9164
    endloop
  endfacet
  facet normal -0.432208 0.389162 0.81348
    outer loop
      vertex 3.46472 -3.46472 14.7749
      vertex -15.8302 -24.7745 14.7178
      vertex -15.7681 -24.8249 14.7749
    endloop
  endfacet
  facet normal -0.432208 0.389162 0.81348
    outer loop
      vertex 3.40815 -3.40815 14.7178
      vertex -15.8302 -24.7745 14.7178
      vertex 3.46472 -3.46472 14.7749
    endloop
  endfacet
  facet normal 0.743145 0.669131 1.094e-016
    outer loop
      vertex -3.34228 3.70199 15
      vertex -0.0903319 0.0903319 15
      vertex -0.0903319 0.0903319 14.7178
    endloop
  endfacet
  facet normal 0.743145 0.669131 1.16935e-015
    outer loop
      vertex -3.34228 3.70199 14.7178
      vertex -3.34228 3.70199 15
      vertex -0.0903319 0.0903319 14.7178
    endloop
  endfacet
  facet normal -0.743145 -0.669131 0
    outer loop
      vertex 21.6609 19.6752 14.7178
      vertex 18.409 23.2869 15
      vertex 18.409 23.2869 14.7178
    endloop
  endfacet
  facet normal -0.743145 -0.669131 0
    outer loop
      vertex 21.6609 19.6752 14.7178
      vertex 21.6609 19.6752 15
      vertex 18.409 23.2869 15
    endloop
  endfacet
  facet normal 0.669131 -0.743145 0
    outer loop
      vertex 18.409 23.2869 15
      vertex -3.34228 3.70199 14.7178
      vertex 18.409 23.2869 14.7178
    endloop
  endfacet
  facet normal 0.669131 -0.743145 1.05505e-015
    outer loop
      vertex 18.409 23.2869 15
      vertex -3.34228 3.70199 15
      vertex -3.34228 3.70199 14.7178
    endloop
  endfacet
  facet normal -0.395841 0.439626 -0.80625
    outer loop
      vertex 3.68145 -3.68145 35
      vertex 24.2805 14.866 35
      vertex 9.54728 -9.54728 28.9216
    endloop
  endfacet
  facet normal -0.395841 0.439626 -0.80625
    outer loop
      vertex 25 15.5139 35
      vertex 25 4.07498 28.7627
      vertex 24.2805 14.866 35
    endloop
  endfacet
  facet normal -0.395841 0.439626 -0.80625
    outer loop
      vertex 24.2805 14.866 35
      vertex 25 4.07498 28.7627
      vertex 9.54728 -9.54728 28.9216
    endloop
  endfacet
  facet normal -0.395841 0.439626 -0.80625
    outer loop
      vertex 25 4.07498 28.7627
      vertex 9.70063 -9.70063 28.7627
      vertex 9.54728 -9.54728 28.9216
    endloop
  endfacet
  facet normal -0.669131 0.743145 -8.58159e-017
    outer loop
      vertex 25 4.07498 21.0713
      vertex 9.70063 -9.70063 28.7627
      vertex 25 4.07498 28.7627
    endloop
  endfacet
  facet normal -0.669131 0.743145 0
    outer loop
      vertex 25 4.07498 21.0713
      vertex 9.70063 -9.70063 21.0713
      vertex 9.70063 -9.70063 28.7627
    endloop
  endfacet
  facet normal -0.389162 0.432208 0.81348
    outer loop
      vertex 25 4.07498 21.0713
      vertex 9.54728 -9.54728 20.9164
      vertex 9.70063 -9.70063 21.0713
    endloop
  endfacet
  facet normal -0.389162 0.432208 0.81348
    outer loop
      vertex 25 4.07498 21.0713
      vertex 3.46472 -3.46472 14.7749
      vertex 9.54728 -9.54728 20.9164
    endloop
  endfacet
  facet normal -0.389162 0.432208 0.81348
    outer loop
      vertex 25 6.62802 19.7148
      vertex 3.46472 -3.46472 14.7749
      vertex 25 4.07498 21.0713
    endloop
  endfacet
  facet normal -0.389162 0.432208 0.81348
    outer loop
      vertex 3.40815 -3.40815 14.7178
      vertex 3.46472 -3.46472 14.7749
      vertex 25 6.62802 19.7148
    endloop
  endfacet
  facet normal -0.389162 0.432208 0.81348
    outer loop
      vertex 25 15.5518 14.9736
      vertex 24.7745 15.8302 14.7178
      vertex 25 6.62802 19.7148
    endloop
  endfacet
  facet normal -0.389162 0.432208 0.81348
    outer loop
      vertex 24.7745 15.8302 14.7178
      vertex 3.40815 -3.40815 14.7178
      vertex 25 6.62802 19.7148
    endloop
  endfacet
  facet normal 0.809017 0.587785 0
    outer loop
      vertex 18.8043 23.607 15
      vertex 21.6609 19.6752 15
      vertex 21.6609 19.6752 14.7178
    endloop
  endfacet
  facet normal 0.809017 0.587785 -0
    outer loop
      vertex 18.8043 23.607 14.7178
      vertex 18.8043 23.607 15
      vertex 21.6609 19.6752 14.7178
    endloop
  endfacet
  facet normal 0.587785 -0.809017 0
    outer loop
      vertex 20.5665 24.8873 15
      vertex 18.8043 23.607 14.7178
      vertex 20.5665 24.8873 14.7178
    endloop
  endfacet
  facet normal 0.587785 -0.809017 0
    outer loop
      vertex 20.5665 24.8873 15
      vertex 18.8043 23.607 15
      vertex 18.8043 23.607 14.7178
    endloop
  endfacet
  facet normal -0.341852 0.470519 0.81348
    outer loop
      vertex 25 15.5518 14.9736
      vertex 25 15.994 14.7178
      vertex 24.7745 15.8302 14.7178
    endloop
  endfacet
  facet normal -0 0 1
    outer loop
      vertex -25 -20 15
      vertex -24.8873 -20.5665 15
      vertex -23.607 -18.8043 15
    endloop
  endfacet
  facet normal 0 0 1
    outer loop
      vertex -19.6752 -21.6609 15
      vertex -23.2869 -18.409 15
      vertex -23.607 -18.8043 15
    endloop
  endfacet
  facet normal 0 0 1
    outer loop
      vertex -24.6194 -18.0866 15
      vertex -23.607 -18.8043 15
      vertex -23.2869 -18.409 15
    endloop
  endfacet
  facet normal 0 0 1
    outer loop
      vertex -0.0903319 0.0903319 15
      vertex -3.34228 3.70199 15
      vertex -3.70199 3.34228 15
    endloop
  endfacet
  facet normal 0 0 1
    outer loop
      vertex -11.2861 8.58008 15
      vertex -23.2869 -18.409 15
      vertex -3.70199 3.34228 15
    endloop
  endfacet
  facet normal 0 0 1
    outer loop
      vertex 21.6609 19.6752 15
      vertex 18.8043 23.607 15
      vertex 18.409 23.2869 15
    endloop
  endfacet
  facet normal -0 0 1
    outer loop
      vertex -8.58008 11.2861 15
      vertex -3.34228 3.70199 15
      vertex 18.409 23.2869 15
    endloop
  endfacet
  facet normal 0 0 1
    outer loop
      vertex 20.5665 24.8873 15
      vertex 20 25 15
      vertex 18.8043 23.607 15
    endloop
  endfacet
  facet normal 0 0 1
    outer loop
      vertex 18.0866 24.6194 15
      vertex 18.409 23.2869 15
      vertex 18.8043 23.607 15
    endloop
  endfacet
  facet normal 0 0 1
    outer loop
      vertex 20 25 15
      vertex 18.0866 24.6194 15
      vertex 18.8043 23.607 15
    endloop
  endfacet
  facet normal 0 0 1
    outer loop
      vertex 18.0866 24.6194 15
      vertex -8.58008 11.2861 15
      vertex 18.409 23.2869 15
    endloop
  endfacet
  facet normal 0 0 1
    outer loop
      vertex -10.5635 9.66149 15
      vertex -3.70199 3.34228 15
      vertex -3.34228 3.70199 15
    endloop
  endfacet
  facet normal -0 0 1
    outer loop
      vertex -10.5635 9.66149 15
      vertex -3.34228 3.70199 15
      vertex -8.58008 11.2861 15
    endloop
  endfacet
  facet normal 0 0 1
    outer loop
      vertex -10.5635 9.66149 15
      vertex -8.58008 11.2861 15
      vertex -10.2022 10.2022 15
    endloop
  endfacet
  facet normal -0 0 1
    outer loop
      vertex -11.2861 8.58008 15
      vertex -3.70199 3.34228 15
      vertex -10.5635 9.66149 15
    endloop
  endfacet
  facet normal -0 0 1
    outer loop
      vertex -24.6194 -18.0866 15
      vertex -23.2869 -18.409 15
      vertex -11.2861 8.58008 15
    endloop
  endfacet
  facet normal 0 0 1
    outer loop
      vertex -25 -20 15
      vertex -23.607 -18.8043 15
      vertex -24.6194 -18.0866 15
    endloop
  endfacet
endsolid OpenSCAD_Model
