solid OpenSCAD_Model
  facet normal -1 7.62385e-017 0
    outer loop
      vertex -9.5 8 -12
      vertex -9.5 8 4
      vertex -9.5 31.3 -12
    endloop
  endfacet
  facet normal -1 7.62385e-017 0
    outer loop
      vertex -9.5 31.3 -12
      vertex -9.5 8 4
      vertex -9.5 31.3 4
    endloop
  endfacet
  facet normal 0 -1 0
    outer loop
      vertex 31.49 -11.5 -4
      vertex 8 -11.5 12
      vertex 8 -11.5 -4
    endloop
  endfacet
  facet normal 0 -1 0
    outer loop
      vertex 31.49 -11.5 -4
      vertex 31.49 -11.5 12
      vertex 8 -11.5 12
    endloop
  endfacet
  facet normal 0 0 -1
    outer loop
      vertex -9.5 8 -12
      vertex -9.5 31.3 -12
      vertex -5.99406 8 -12
    endloop
  endfacet
  facet normal 0 0 -1
    outer loop
      vertex -5.99406 8 -12
      vertex -9.5 31.3 -12
      vertex -5.99406 31.3 -12
    endloop
  endfacet
  facet normal 0 0 -1
    outer loop
      vertex 5.99406 8 -12
      vertex 11.0581 12.5214 -12
      vertex 8 8 -12
    endloop
  endfacet
  facet normal 0 0 -1
    outer loop
      vertex 5.99406 8 -12
      vertex 5.99406 29.5666 -12
      vertex 11.0581 13.4786 -12
    endloop
  endfacet
  facet normal 0 0 -1
    outer loop
      vertex 5.99406 29.5666 -12
      vertex 5.99406 31.3 -12
      vertex 9.5 31.3 -12
    endloop
  endfacet
  facet normal 0 0 -1
    outer loop
      vertex 5.99406 29.5666 -12
      vertex 9.5 31.3 -12
      vertex 13.0083 27.503 -12
    endloop
  endfacet
  facet normal 0 0 -1
    outer loop
      vertex 5.99406 29.5666 -12
      vertex 13.0083 27.503 -12
      vertex 13.0738 26.5143 -12
    endloop
  endfacet
  facet normal 0 0 -1
    outer loop
      vertex 5.99406 29.5666 -12
      vertex 13.0738 26.5143 -12
      vertex 13.2046 25.5311 -12
    endloop
  endfacet
  facet normal -0 -0 -1
    outer loop
      vertex 13.2046 25.5311 -12
      vertex 13.4001 24.5586 -12
      vertex 5.99406 29.5666 -12
    endloop
  endfacet
  facet normal -0 -0 -1
    outer loop
      vertex 13.4001 24.5586 -12
      vertex 13.6595 23.6012 -12
      vertex 5.99406 29.5666 -12
    endloop
  endfacet
  facet normal -0 0 -1
    outer loop
      vertex 11.503 14.3262 -12
      vertex 11.0581 13.4786 -12
      vertex 5.99406 29.5666 -12
    endloop
  endfacet
  facet normal 0 0 -1
    outer loop
      vertex 11.503 14.3262 -12
      vertex 5.99406 29.5666 -12
      vertex 13.6595 23.6012 -12
    endloop
  endfacet
  facet normal 0 0 -1
    outer loop
      vertex 11.503 14.3262 -12
      vertex 13.6595 23.6012 -12
      vertex 13.9815 22.6631 -12
    endloop
  endfacet
  facet normal 0 0 -1
    outer loop
      vertex 13.2411 11.0146 -12
      vertex 8 -7.5 -12
      vertex 8 8 -12
    endloop
  endfacet
  facet normal -0 0 -1
    outer loop
      vertex 15.3086 20.0045 -12
      vertex 12.2908 14.87 -12
      vertex 14.8079 20.8608 -12
    endloop
  endfacet
  facet normal 0 -0 -1
    outer loop
      vertex 16.474 18.4005 -12
      vertex 17.1336 17.6597 -12
      vertex 14.1361 14.646 -12
    endloop
  endfacet
  facet normal -0 0 -1
    outer loop
      vertex 19.3851 15.7206 -12
      vertex 14.9259 13.3007 -12
      vertex 18.5924 16.3168 -12
    endloop
  endfacet
  facet normal 0 0 -1
    outer loop
      vertex 14.7709 12.0706 -12
      vertex 21.0799 14.6917 -12
      vertex 21.9746 14.2634 -12
    endloop
  endfacet
  facet normal -0 0 -1
    outer loop
      vertex 13.2411 11.0146 -12
      vertex 8 8 -12
      vertex 12.2908 11.13 -12
    endloop
  endfacet
  facet normal -0 -0 -1
    outer loop
      vertex 24.8005 13.3452 -12
      vertex 31.49 7.5 -12
      vertex 23.839 13.5887 -12
    endloop
  endfacet
  facet normal -0 -0 -1
    outer loop
      vertex 25.776 13.1658 -12
      vertex 31.49 7.5 -12
      vertex 24.8005 13.3452 -12
    endloop
  endfacet
  facet normal 0 0 -1
    outer loop
      vertex 25.776 13.1658 -12
      vertex 26.3128 13.1034 -12
      vertex 31.49 7.5 -12
    endloop
  endfacet
  facet normal 0 0 -1
    outer loop
      vertex 31.49 -7.5 -12
      vertex 8 -7.5 -12
      vertex 14.1361 11.354 -12
    endloop
  endfacet
  facet normal 0 0 -1
    outer loop
      vertex 31.49 -7.5 -12
      vertex 14.1361 11.354 -12
      vertex 31.49 7.5 -12
    endloop
  endfacet
  facet normal 0 0 -1
    outer loop
      vertex 12.2908 14.87 -12
      vertex 13.9815 22.6631 -12
      vertex 14.3649 21.7483 -12
    endloop
  endfacet
  facet normal 0 -0 -1
    outer loop
      vertex 11.0581 13.4786 -12
      vertex 11.0581 12.5214 -12
      vertex 5.99406 8 -12
    endloop
  endfacet
  facet normal 0 0 -1
    outer loop
      vertex 14.1361 14.646 -12
      vertex 17.1336 17.6597 -12
      vertex 17.8408 16.9641 -12
    endloop
  endfacet
  facet normal 0 -0 -1
    outer loop
      vertex 11.0581 12.5214 -12
      vertex 11.3591 11.948 -12
      vertex 8 8 -12
    endloop
  endfacet
  facet normal 0 -0 -1
    outer loop
      vertex 19.3851 15.7206 -12
      vertex 20.2155 15.1781 -12
      vertex 15 13 -12
    endloop
  endfacet
  facet normal 0 -0 -1
    outer loop
      vertex 11.3591 11.948 -12
      vertex 11.503 11.6738 -12
      vertex 8 8 -12
    endloop
  endfacet
  facet normal -0 0 -1
    outer loop
      vertex 22.8956 13.8952 -12
      vertex 14.7709 12.0706 -12
      vertex 21.9746 14.2634 -12
    endloop
  endfacet
  facet normal 0 -0 -1
    outer loop
      vertex 11.503 11.6738 -12
      vertex 12.2908 11.13 -12
      vertex 8 8 -12
    endloop
  endfacet
  facet normal 0 -0 -1
    outer loop
      vertex 23.839 13.5887 -12
      vertex 31.49 7.5 -12
      vertex 14.1361 11.354 -12
    endloop
  endfacet
  facet normal -0 0 -1
    outer loop
      vertex 23.839 13.5887 -12
      vertex 14.1361 11.354 -12
      vertex 22.8956 13.8952 -12
    endloop
  endfacet
  facet normal 0 -0 -1
    outer loop
      vertex 20.2155 15.1781 -12
      vertex 21.0799 14.6917 -12
      vertex 14.845 12.3713 -12
    endloop
  endfacet
  facet normal 0 -0 -1
    outer loop
      vertex 13.2411 11.0146 -12
      vertex 14.1361 11.354 -12
      vertex 8 -7.5 -12
    endloop
  endfacet
  facet normal 0 0 -1
    outer loop
      vertex 22.8956 13.8952 -12
      vertex 14.1361 11.354 -12
      vertex 14.7709 12.0706 -12
    endloop
  endfacet
  facet normal -0 0 -1
    outer loop
      vertex 18.5924 16.3168 -12
      vertex 14.7709 13.9294 -12
      vertex 17.8408 16.9641 -12
    endloop
  endfacet
  facet normal 0 0 -1
    outer loop
      vertex 21.0799 14.6917 -12
      vertex 14.7709 12.0706 -12
      vertex 14.845 12.3713 -12
    endloop
  endfacet
  facet normal 0 0 -1
    outer loop
      vertex 20.2155 15.1781 -12
      vertex 14.845 12.3713 -12
      vertex 15 13 -12
    endloop
  endfacet
  facet normal 0 0 -1
    outer loop
      vertex 19.3851 15.7206 -12
      vertex 15 13 -12
      vertex 14.9259 13.3007 -12
    endloop
  endfacet
  facet normal -0 0 -1
    outer loop
      vertex 16.474 18.4005 -12
      vertex 13.2411 14.9854 -12
      vertex 15.8647 19.1832 -12
    endloop
  endfacet
  facet normal 0 0 -1
    outer loop
      vertex 18.5924 16.3168 -12
      vertex 14.9259 13.3007 -12
      vertex 14.7709 13.9294 -12
    endloop
  endfacet
  facet normal 0 0 -1
    outer loop
      vertex 17.8408 16.9641 -12
      vertex 14.7709 13.9294 -12
      vertex 14.1361 14.646 -12
    endloop
  endfacet
  facet normal -0 0 -1
    outer loop
      vertex 15.8647 19.1832 -12
      vertex 13.2411 14.9854 -12
      vertex 15.3086 20.0045 -12
    endloop
  endfacet
  facet normal 0 0 -1
    outer loop
      vertex 16.474 18.4005 -12
      vertex 14.1361 14.646 -12
      vertex 13.2411 14.9854 -12
    endloop
  endfacet
  facet normal -0 0 -1
    outer loop
      vertex 14.8079 20.8608 -12
      vertex 12.2908 14.87 -12
      vertex 14.3649 21.7483 -12
    endloop
  endfacet
  facet normal -0 0 -1
    outer loop
      vertex 13.2411 14.9854 -12
      vertex 12.2908 14.87 -12
      vertex 15.3086 20.0045 -12
    endloop
  endfacet
  facet normal -0 0 -1
    outer loop
      vertex 12.2908 14.87 -12
      vertex 11.503 14.3262 -12
      vertex 13.9815 22.6631 -12
    endloop
  endfacet
  facet normal 0 -0.894427 -0.447214
    outer loop
      vertex 31.49 -7.5 -12
      vertex 31.49 -11.5 -4
      vertex 8 -7.58173 -11.8365
    endloop
  endfacet
  facet normal 0 -0.894427 -0.447214
    outer loop
      vertex 8 -7.5 -12
      vertex 31.49 -7.5 -12
      vertex 8 -7.58173 -11.8365
    endloop
  endfacet
  facet normal 1 -2.36848e-016 -5.62513e-016
    outer loop
      vertex 31.49 -11.5 -4
      vertex 31.49 -7.5 -12
      vertex 31.49 7.5 -12
    endloop
  endfacet
  facet normal -0.0945742 0.995518 0
    outer loop
      vertex -9.5 31.3 -12
      vertex -9.5 31.3 4
      vertex -7.5 31.49 -4
    endloop
  endfacet
  facet normal -0.0945742 0.995518 0
    outer loop
      vertex -7.5 31.49 -4
      vertex -9.5 31.3 4
      vertex -7.5 31.49 12
    endloop
  endfacet
  facet normal -0.970143 7.39622e-017 0.242536
    outer loop
      vertex -9.5 8 4
      vertex -9.47478 8 4.10088
      vertex -9.5 31.3 4
    endloop
  endfacet
  facet normal -0.970143 7.39546e-017 0.242536
    outer loop
      vertex -9.5 31.3 4
      vertex -9.47478 8 4.10088
      vertex -7.5 31.49 12
    endloop
  endfacet
  facet normal 0.633813 0.760639 0.140388
    outer loop
      vertex 7.5 31.49 12
      vertex 13.0082 27.504 8.72835
      vertex 9.5 31.3 4
    endloop
  endfacet
  facet normal 0.633813 0.760639 0.140388
    outer loop
      vertex 7.5 31.49 12
      vertex 13.0505 26.8649 12
      vertex 13.0082 27.504 8.72835
    endloop
  endfacet
  facet normal 0.633813 0.760639 0.140388
    outer loop
      vertex 9.5 31.3 4
      vertex 13.0082 27.504 8.72835
      vertex 13.0082 28.1412 5.27629
    endloop
  endfacet
  facet normal 0.633813 0.760639 0.140388
    outer loop
      vertex 31.49 11.5 12
      vertex 29.7143 13.0989 11.354
      vertex 29.5841 13.0881 12
    endloop
  endfacet
  facet normal -0 -0.894427 -0.447214
    outer loop
      vertex 31.49 -11.5 -4
      vertex 8 -11.5 -4
      vertex 8 -7.58173 -11.8365
    endloop
  endfacet
  facet normal 1 0 0
    outer loop
      vertex 31.49 7.5 4
      vertex 31.49 6.77004 4.30735
      vertex 31.49 6.49519 3.75
    endloop
  endfacet
  facet normal 1 0 0
    outer loop
      vertex 31.49 7.5 4
      vertex 31.49 5.3033 2.1967
      vertex 31.49 7.5 -12
    endloop
  endfacet
  facet normal 1 0 0
    outer loop
      vertex 31.49 7.5 4
      vertex 31.49 6.49519 3.75
      vertex 31.49 5.95015 2.93429
    endloop
  endfacet
  facet normal 1 0 0
    outer loop
      vertex 31.49 7.5 4
      vertex 31.49 5.95015 2.93429
      vertex 31.49 5.94988 2.93398
    endloop
  endfacet
  facet normal 1 0 0
    outer loop
      vertex 31.49 7.5 4
      vertex 31.49 5.94988 2.93398
      vertex 31.49 5.3033 2.1967
    endloop
  endfacet
  facet normal 1 0 0
    outer loop
      vertex 31.49 7.5 -12
      vertex 31.49 5.3033 2.1967
      vertex 31.49 4.56571 1.54985
    endloop
  endfacet
  facet normal 1 0 0
    outer loop
      vertex 31.49 7.5 -12
      vertex 31.49 4.56571 1.54985
      vertex 31.49 3.75 1.00481
    endloop
  endfacet
  facet normal 1 0 0
    outer loop
      vertex 31.49 7.5 -12
      vertex 31.49 3.75 1.00481
      vertex 31.49 2.87013 0.570904
    endloop
  endfacet
  facet normal 1 0 0
    outer loop
      vertex 31.49 7.5 -12
      vertex 31.49 2.87013 0.570904
      vertex 31.49 1.94114 0.255556
    endloop
  endfacet
  facet normal 1 0 0
    outer loop
      vertex 31.49 7.5 -12
      vertex 31.49 -0.978946 0.0641635
      vertex 31.49 -11.5 -4
    endloop
  endfacet
  facet normal 1 0 0
    outer loop
      vertex 31.49 1.94114 0.255556
      vertex 31.49 0.978946 0.0641635
      vertex 31.49 7.5 -12
    endloop
  endfacet
  facet normal 1 0 0
    outer loop
      vertex 31.49 0.978946 0.0641635
      vertex 31.49 0 2.66231e-015
      vertex 31.49 7.5 -12
    endloop
  endfacet
  facet normal 1 0 0
    outer loop
      vertex 31.49 0 2.66231e-015
      vertex 31.49 -0.978946 0.0641635
      vertex 31.49 7.5 -12
    endloop
  endfacet
  facet normal 1 0 0
    outer loop
      vertex 31.49 -0.978946 0.0641635
      vertex 31.49 -1.94114 0.255556
      vertex 31.49 -11.5 -4
    endloop
  endfacet
  facet normal 1 0 0
    outer loop
      vertex 31.49 -1.94114 0.255556
      vertex 31.49 -2.87013 0.570904
      vertex 31.49 -11.5 -4
    endloop
  endfacet
  facet normal 1 0 0
    outer loop
      vertex 31.49 -2.87013 0.570904
      vertex 31.49 -3.75 1.00481
      vertex 31.49 -11.5 -4
    endloop
  endfacet
  facet normal 1 0 0
    outer loop
      vertex 31.49 -3.75 1.00481
      vertex 31.49 -4.56571 1.54985
      vertex 31.49 -11.5 -4
    endloop
  endfacet
  facet normal 1 0 0
    outer loop
      vertex 31.49 -4.56571 1.54985
      vertex 31.49 -5.3033 2.1967
      vertex 31.49 -11.5 -4
    endloop
  endfacet
  facet normal 1 0 0
    outer loop
      vertex 31.49 -5.3033 2.1967
      vertex 31.49 -5.94988 2.93398
      vertex 31.49 -11.5 -4
    endloop
  endfacet
  facet normal 1 0 0
    outer loop
      vertex 31.49 -5.94988 2.93398
      vertex 31.49 -5.95015 2.93429
      vertex 31.49 -11.5 -4
    endloop
  endfacet
  facet normal 1 0 0
    outer loop
      vertex 31.49 -5.95015 2.93429
      vertex 31.49 -6.49519 3.75
      vertex 31.49 -11.5 -4
    endloop
  endfacet
  facet normal 1 0 0
    outer loop
      vertex 31.49 -7.24444 5.55886
      vertex 31.49 -11.5 12
      vertex 31.49 -11.5 -4
    endloop
  endfacet
  facet normal 1 0 0
    outer loop
      vertex 31.49 -6.9291 4.62987
      vertex 31.49 -11.5 -4
      vertex 31.49 -6.49519 3.75
    endloop
  endfacet
  facet normal 1 0 0
    outer loop
      vertex 31.49 -7.24444 5.55886
      vertex 31.49 -11.5 -4
      vertex 31.49 -6.9291 4.62987
    endloop
  endfacet
  facet normal 1 0 0
    outer loop
      vertex 31.49 -7.43584 6.52105
      vertex 31.49 -11.5 12
      vertex 31.49 -7.24444 5.55886
    endloop
  endfacet
  facet normal 1 0 0
    outer loop
      vertex 31.49 -7.5 7.5
      vertex 31.49 -11.5 12
      vertex 31.49 -7.43584 6.52105
    endloop
  endfacet
  facet normal 1 0 0
    outer loop
      vertex 31.49 -7.43584 8.47895
      vertex 31.49 -11.5 12
      vertex 31.49 -7.5 7.5
    endloop
  endfacet
  facet normal 1 0 0
    outer loop
      vertex 31.49 -7.24444 9.44114
      vertex 31.49 -11.5 12
      vertex 31.49 -7.43584 8.47895
    endloop
  endfacet
  facet normal 1 0 0
    outer loop
      vertex 31.49 -7.01663 10.1123
      vertex 31.49 -11.5 12
      vertex 31.49 -7.24444 9.44114
    endloop
  endfacet
  facet normal 0 0 1
    outer loop
      vertex 7.5 31.49 12
      vertex -7.5 31.49 12
      vertex 11.503 14.3262 12
    endloop
  endfacet
  facet normal 0 0 1
    outer loop
      vertex 31.49 11.5 12
      vertex 29.5841 13.0881 12
      vertex 28.7438 13.0185 12
    endloop
  endfacet
  facet normal 0 0 1
    outer loop
      vertex 18.5924 16.3168 12
      vertex 14.7709 13.9294 12
      vertex 14.845 13.6287 12
    endloop
  endfacet
  facet normal 0 -0 1
    outer loop
      vertex 31.49 5.99406 12
      vertex 31.49 11.5 12
      vertex 29.5666 5.99406 12
    endloop
  endfacet
  facet normal 0 0 1
    outer loop
      vertex 31.49 11.5 12
      vertex 28.7438 13.0185 12
      vertex 29.5666 5.99406 12
    endloop
  endfacet
  facet normal 0 0 1
    outer loop
      vertex 29.5666 5.99406 12
      vertex 28.7438 13.0185 12
      vertex 27.752 13.0021 12
    endloop
  endfacet
  facet normal 0 0 1
    outer loop
      vertex 29.5666 5.99406 12
      vertex 27.752 13.0021 12
      vertex 26.7613 13.0512 12
    endloop
  endfacet
  facet normal 0 0 1
    outer loop
      vertex 29.5666 5.99406 12
      vertex 26.7613 13.0512 12
      vertex 25.776 13.1658 12
    endloop
  endfacet
  facet normal 0 0 1
    outer loop
      vertex 29.5666 5.99406 12
      vertex 25.776 13.1658 12
      vertex 24.8005 13.3452 12
    endloop
  endfacet
  facet normal 0 0 1
    outer loop
      vertex 29.5666 5.99406 12
      vertex 24.8005 13.3452 12
      vertex 23.839 13.5887 12
    endloop
  endfacet
  facet normal 0 0 1
    outer loop
      vertex 29.5666 5.99406 12
      vertex 23.839 13.5887 12
      vertex 14.1361 11.354 12
    endloop
  endfacet
  facet normal 0 0 1
    outer loop
      vertex 23.839 13.5887 12
      vertex 22.8956 13.8952 12
      vertex 14.1361 11.354 12
    endloop
  endfacet
  facet normal 0 0 1
    outer loop
      vertex 17.8408 16.9641 12
      vertex 14.1361 14.646 12
      vertex 14.7709 13.9294 12
    endloop
  endfacet
  facet normal 0 0 1
    outer loop
      vertex 11.0581 13.4786 12
      vertex -7.5 31.49 12
      vertex -7.5 8 12
    endloop
  endfacet
  facet normal 0 0 1
    outer loop
      vertex 14.7709 12.0706 12
      vertex 21.9746 14.2634 12
      vertex 21.0799 14.6917 12
    endloop
  endfacet
  facet normal 0 0 1
    outer loop
      vertex 15.3086 20.0045 12
      vertex 12.2908 14.87 12
      vertex 13.2411 14.9854 12
    endloop
  endfacet
  facet normal 0 0 1
    outer loop
      vertex 17.8408 16.9641 12
      vertex 17.1336 17.6597 12
      vertex 14.1361 14.646 12
    endloop
  endfacet
  facet normal 0 0 1
    outer loop
      vertex 13.2411 14.9854 12
      vertex 16.474 18.4005 12
      vertex 15.8647 19.1832 12
    endloop
  endfacet
  facet normal 0 0 1
    outer loop
      vertex 15.8647 19.1832 12
      vertex 15.3086 20.0045 12
      vertex 13.2411 14.9854 12
    endloop
  endfacet
  facet normal 0 0 1
    outer loop
      vertex 12.2908 14.87 12
      vertex 14.8079 20.8608 12
      vertex 14.3649 21.7483 12
    endloop
  endfacet
  facet normal 0 0 1
    outer loop
      vertex 12.2908 14.87 12
      vertex 14.3649 21.7483 12
      vertex 13.9815 22.6631 12
    endloop
  endfacet
  facet normal 0 0 1
    outer loop
      vertex 8 8 12
      vertex 11.0581 12.5214 12
      vertex 11.0581 13.4786 12
    endloop
  endfacet
  facet normal 0 0 1
    outer loop
      vertex 11.503 14.3262 12
      vertex 13.6595 23.6012 12
      vertex 13.4001 24.5586 12
    endloop
  endfacet
  facet normal 0 0 1
    outer loop
      vertex 7.5 31.49 12
      vertex 13.4001 24.5586 12
      vertex 13.2046 25.5311 12
    endloop
  endfacet
  facet normal 0 0 1
    outer loop
      vertex 7.5 31.49 12
      vertex 13.2046 25.5311 12
      vertex 13.0738 26.5143 12
    endloop
  endfacet
  facet normal 0 0 1
    outer loop
      vertex 13.0505 26.8649 12
      vertex 7.5 31.49 12
      vertex 13.0738 26.5143 12
    endloop
  endfacet
  facet normal 0 0 1
    outer loop
      vertex 17.8408 16.9641 12
      vertex 14.7709 13.9294 12
      vertex 18.5924 16.3168 12
    endloop
  endfacet
  facet normal 0 0 1
    outer loop
      vertex 11.0581 13.4786 12
      vertex -7.5 8 12
      vertex 8 8 12
    endloop
  endfacet
  facet normal 0 0 1
    outer loop
      vertex 7.5 31.49 12
      vertex 11.503 14.3262 12
      vertex 13.4001 24.5586 12
    endloop
  endfacet
  facet normal 0 0 1
    outer loop
      vertex 11.503 14.3262 12
      vertex 13.9815 22.6631 12
      vertex 13.6595 23.6012 12
    endloop
  endfacet
  facet normal 0 -0 1
    outer loop
      vertex 11.0581 13.4786 12
      vertex 11.503 14.3262 12
      vertex -7.5 31.49 12
    endloop
  endfacet
  facet normal 0 0 1
    outer loop
      vertex 12.2908 14.87 12
      vertex 15.3086 20.0045 12
      vertex 14.8079 20.8608 12
    endloop
  endfacet
  facet normal 0 0 1
    outer loop
      vertex 11.503 14.3262 12
      vertex 12.2908 14.87 12
      vertex 13.9815 22.6631 12
    endloop
  endfacet
  facet normal 0 0 1
    outer loop
      vertex 14.1361 14.646 12
      vertex 17.1336 17.6597 12
      vertex 16.474 18.4005 12
    endloop
  endfacet
  facet normal 0 0 1
    outer loop
      vertex 18.5924 16.3168 12
      vertex 14.845 13.6287 12
      vertex 19.3851 15.7206 12
    endloop
  endfacet
  facet normal 0 0 1
    outer loop
      vertex 15 13 12
      vertex 20.2155 15.1781 12
      vertex 19.3851 15.7206 12
    endloop
  endfacet
  facet normal -0 0 1
    outer loop
      vertex 13.2411 14.9854 12
      vertex 14.1361 14.646 12
      vertex 16.474 18.4005 12
    endloop
  endfacet
  facet normal 0 0 1
    outer loop
      vertex 14.9259 12.6993 12
      vertex 21.0799 14.6917 12
      vertex 20.2155 15.1781 12
    endloop
  endfacet
  facet normal 0 0 1
    outer loop
      vertex 21.9746 14.2634 12
      vertex 14.7709 12.0706 12
      vertex 22.8956 13.8952 12
    endloop
  endfacet
  facet normal 0 0 1
    outer loop
      vertex 19.3851 15.7206 12
      vertex 14.845 13.6287 12
      vertex 15 13 12
    endloop
  endfacet
  facet normal 0 0 1
    outer loop
      vertex 20.2155 15.1781 12
      vertex 15 13 12
      vertex 14.9259 12.6993 12
    endloop
  endfacet
  facet normal 0 0 1
    outer loop
      vertex 21.0799 14.6917 12
      vertex 14.9259 12.6993 12
      vertex 14.7709 12.0706 12
    endloop
  endfacet
  facet normal 0 0 1
    outer loop
      vertex 22.8956 13.8952 12
      vertex 14.7709 12.0706 12
      vertex 14.1361 11.354 12
    endloop
  endfacet
  facet normal 0 0 1
    outer loop
      vertex 11.0581 12.5214 12
      vertex 8 8 12
      vertex 11.202 12.2471 12
    endloop
  endfacet
  facet normal 0 0 1
    outer loop
      vertex 29.5666 5.99406 12
      vertex 14.1361 11.354 12
      vertex 8 5.99406 12
    endloop
  endfacet
  facet normal 0 0 1
    outer loop
      vertex 12.2908 11.13 12
      vertex 8 8 12
      vertex 8 5.99406 12
    endloop
  endfacet
  facet normal -0 0 1
    outer loop
      vertex 13.2411 11.0146 12
      vertex 8 5.99406 12
      vertex 14.1361 11.354 12
    endloop
  endfacet
  facet normal 0 0 1
    outer loop
      vertex 12.2908 11.13 12
      vertex 8 5.99406 12
      vertex 13.2411 11.0146 12
    endloop
  endfacet
  facet normal 0 0 1
    outer loop
      vertex 11.503 11.6738 12
      vertex 8 8 12
      vertex 12.2908 11.13 12
    endloop
  endfacet
  facet normal 0 0 1
    outer loop
      vertex 11.202 12.2471 12
      vertex 8 8 12
      vertex 11.503 11.6738 12
    endloop
  endfacet
  facet normal 0 0 1
    outer loop
      vertex 31.49 -11.5 12
      vertex 9.43335 -5.99406 12
      vertex 8 -11.5 12
    endloop
  endfacet
  facet normal 0 0 1
    outer loop
      vertex 31.49 -5.99406 12
      vertex 9.43335 -5.99406 12
      vertex 31.49 -11.5 12
    endloop
  endfacet
  facet normal 0 0 1
    outer loop
      vertex 9.43335 -5.99406 12
      vertex 8 -5.99406 12
      vertex 8 -11.5 12
    endloop
  endfacet
  facet normal -0.970143 1.10046e-016 0.242536
    outer loop
      vertex -7.5 8 12
      vertex -7.5 31.49 12
      vertex -9.47478 8 4.10088
    endloop
  endfacet
  facet normal 4.02906e-015 0.999718 -0.0237433
    outer loop
      vertex -6.9291 31.475 -4.62987
      vertex -7.5 31.49 -4
      vertex -6.61848 31.49 -4
    endloop
  endfacet
  facet normal 1.75397e-015 0.999718 -0.0237433
    outer loop
      vertex -9.5 31.3 -12
      vertex -7.5 31.49 -4
      vertex -7.43584 31.4301 -6.52105
    endloop
  endfacet
  facet normal 1.95584e-015 0.999718 -0.0237433
    outer loop
      vertex -7.5 31.49 -4
      vertex -6.9291 31.475 -4.62987
      vertex -7.24444 31.453 -5.55886
    endloop
  endfacet
  facet normal 5.31873e-015 0.999718 -0.0237433
    outer loop
      vertex -7.5 31.49 -4
      vertex -7.24444 31.453 -5.55886
      vertex -7.43584 31.4301 -6.52105
    endloop
  endfacet
  facet normal 8.51311e-015 0.999718 -0.0237433
    outer loop
      vertex -9.5 31.3 -12
      vertex -7.43584 31.4301 -6.52105
      vertex -7.5 31.4069 -7.5
    endloop
  endfacet
  facet normal -7.04697e-016 0.999718 -0.0237433
    outer loop
      vertex -9.5 31.3 -12
      vertex -7.5 31.4069 -7.5
      vertex -7.43584 31.3836 -8.47895
    endloop
  endfacet
  facet normal -1.46131e-017 0.999718 -0.0237433
    outer loop
      vertex -9.5 31.3 -12
      vertex -7.43584 31.3836 -8.47895
      vertex -7.24444 31.3608 -9.44114
    endloop
  endfacet
  facet normal 7.42765e-016 0.999718 -0.0237433
    outer loop
      vertex -9.5 31.3 -12
      vertex -7.24444 31.3608 -9.44114
      vertex -6.9291 31.3387 -10.3701
    endloop
  endfacet
  facet normal 1.1122e-015 0.999718 -0.0237433
    outer loop
      vertex -9.5 31.3 -12
      vertex -6.9291 31.3387 -10.3701
      vertex -6.76097 31.3306 -10.711
    endloop
  endfacet
  facet normal 0 0.999718 -0.0237433
    outer loop
      vertex 7.5 31.49 -4
      vertex 6.78452 31.482 -4.3367
      vertex 6.61848 31.49 -4
    endloop
  endfacet
  facet normal -0 1 0
    outer loop
      vertex 5.3033 31.49 -2.1967
      vertex 7.5 31.49 12
      vertex 7.5 31.49 -4
    endloop
  endfacet
  facet normal 0 1 0
    outer loop
      vertex 6.49519 31.49 -3.75
      vertex 7.5 31.49 -4
      vertex 6.61848 31.49 -4
    endloop
  endfacet
  facet normal 0 1 0
    outer loop
      vertex 5.95015 31.49 -2.93429
      vertex 7.5 31.49 -4
      vertex 6.49519 31.49 -3.75
    endloop
  endfacet
  facet normal 0 1 0
    outer loop
      vertex 5.3033 31.49 -2.1967
      vertex 7.5 31.49 -4
      vertex 5.95015 31.49 -2.93429
    endloop
  endfacet
  facet normal 2.36848e-016 1 -1.4803e-016
    outer loop
      vertex -7.5 31.49 12
      vertex 7.5 31.49 12
      vertex 1.74386e-015 31.49 2.66231e-015
    endloop
  endfacet
  facet normal 0 1 0
    outer loop
      vertex 7.5 31.49 12
      vertex 5.3033 31.49 -2.1967
      vertex 4.56571 31.49 -1.54985
    endloop
  endfacet
  facet normal 0 1 0
    outer loop
      vertex 7.5 31.49 12
      vertex 4.56571 31.49 -1.54985
      vertex 3.75 31.49 -1.00481
    endloop
  endfacet
  facet normal 0 1 0
    outer loop
      vertex 7.5 31.49 12
      vertex 3.75 31.49 -1.00481
      vertex 2.87013 31.49 -0.570904
    endloop
  endfacet
  facet normal 0 1 0
    outer loop
      vertex 7.5 31.49 12
      vertex 2.87013 31.49 -0.570904
      vertex 1.94114 31.49 -0.255556
    endloop
  endfacet
  facet normal 0 1 0
    outer loop
      vertex 7.5 31.49 12
      vertex 1.94114 31.49 -0.255556
      vertex 0.978946 31.49 -0.0641635
    endloop
  endfacet
  facet normal 0 1 0
    outer loop
      vertex 7.5 31.49 12
      vertex 0.978946 31.49 -0.0641635
      vertex 1.74386e-015 31.49 2.66231e-015
    endloop
  endfacet
  facet normal 1.86411e-017 1 -2.84409e-016
    outer loop
      vertex -7.5 31.49 12
      vertex 1.74386e-015 31.49 2.66231e-015
      vertex -0.978946 31.49 -0.0641635
    endloop
  endfacet
  facet normal 5.289e-017 1 -2.65896e-016
    outer loop
      vertex -7.5 31.49 12
      vertex -0.978946 31.49 -0.0641635
      vertex -1.94114 31.49 -0.255556
    endloop
  endfacet
  facet normal 8.52735e-017 1 -2.51208e-016
    outer loop
      vertex -7.5 31.49 12
      vertex -1.94114 31.49 -0.255556
      vertex -2.87013 31.49 -0.570904
    endloop
  endfacet
  facet normal 1.17947e-016 1 -2.39174e-016
    outer loop
      vertex -7.5 31.49 12
      vertex -2.87013 31.49 -0.570904
      vertex -3.74963 31.49 -1.00463
    endloop
  endfacet
  facet normal 1.17947e-016 1 -2.39174e-016
    outer loop
      vertex -7.5 31.49 12
      vertex -3.74963 31.49 -1.00463
      vertex -3.75 31.49 -1.00481
    endloop
  endfacet
  facet normal 4.0302e-015 1 -1.98747e-015
    outer loop
      vertex -6.49537 31.49 -3.75037
      vertex -6.61848 31.49 -4
      vertex -7.5 31.49 -4
    endloop
  endfacet
  facet normal 1.53048e-016 1 -2.29052e-016
    outer loop
      vertex -7.5 31.49 12
      vertex -3.75 31.49 -1.00481
      vertex -4.56571 31.49 -1.54985
    endloop
  endfacet
  facet normal 1.6173e-015 1 0
    outer loop
      vertex -7.5 31.49 12
      vertex -5.3033 31.49 -2.1967
      vertex -7.5 31.49 -4
    endloop
  endfacet
  facet normal 1.93241e-016 1 -2.20349e-016
    outer loop
      vertex -4.56571 31.49 -1.54985
      vertex -5.3033 31.49 -2.1967
      vertex -7.5 31.49 12
    endloop
  endfacet
  facet normal 5.77445e-015 1 -5.06406e-015
    outer loop
      vertex -5.3033 31.49 -2.1967
      vertex -5.95015 31.49 -2.93429
      vertex -7.5 31.49 -4
    endloop
  endfacet
  facet normal 4.24071e-015 1 -2.83355e-015
    outer loop
      vertex -5.95015 31.49 -2.93429
      vertex -6.49519 31.49 -3.75
      vertex -7.5 31.49 -4
    endloop
  endfacet
  facet normal 4.0302e-015 1 -1.98747e-015
    outer loop
      vertex -6.49519 31.49 -3.75
      vertex -6.49537 31.49 -3.75037
      vertex -7.5 31.49 -4
    endloop
  endfacet
  facet normal 0.669133 0.743143 -0
    outer loop
      vertex 9.5 31.3 -12
      vertex 9.5 31.3 4
      vertex 13.0082 28.1412 -10.7237
    endloop
  endfacet
  facet normal 0.669133 0.743143 -0
    outer loop
      vertex 13.0082 28.1412 -10.7237
      vertex 9.5 31.3 4
      vertex 13.0082 28.1412 5.27629
    endloop
  endfacet
  facet normal 0.669133 0.743143 -0
    outer loop
      vertex 29.7143 13.0989 -4.64601
      vertex 29.7143 13.0989 11.354
      vertex 31.49 11.5 -4
    endloop
  endfacet
  facet normal 0.669133 0.743143 -0
    outer loop
      vertex 31.49 11.5 -4
      vertex 29.7143 13.0989 11.354
      vertex 31.49 11.5 12
    endloop
  endfacet
  facet normal 1 -0 0
    outer loop
      vertex 31.49 5.99406 12
      vertex 31.49 6.49519 11.25
      vertex 31.49 11.5 12
    endloop
  endfacet
  facet normal 1 -0 0
    outer loop
      vertex 31.49 6.49519 11.25
      vertex 31.49 6.9291 10.3701
      vertex 31.49 11.5 12
    endloop
  endfacet
  facet normal 1 -0 0
    outer loop
      vertex 31.49 6.9291 10.3701
      vertex 31.49 7.24431 9.44153
      vertex 31.49 11.5 12
    endloop
  endfacet
  facet normal 1 -0 0
    outer loop
      vertex 31.49 7.24431 9.44153
      vertex 31.49 7.24444 9.44114
      vertex 31.49 11.5 12
    endloop
  endfacet
  facet normal 1 -0 0
    outer loop
      vertex 31.49 7.24444 9.44114
      vertex 31.49 7.43584 8.47895
      vertex 31.49 11.5 12
    endloop
  endfacet
  facet normal 1 -4.52738e-015 1.53684e-015
    outer loop
      vertex 31.49 6.9291 4.62987
      vertex 31.49 7.5 4
      vertex 31.49 7.24444 5.55886
    endloop
  endfacet
  facet normal 1 -0 0
    outer loop
      vertex 31.49 7.43584 8.47895
      vertex 31.49 7.5 7.5
      vertex 31.49 11.5 12
    endloop
  endfacet
  facet normal 1 -1.83676e-015 1.36247e-015
    outer loop
      vertex 31.49 7.43584 6.52105
      vertex 31.49 7.5 4
      vertex 31.49 11.5 12
    endloop
  endfacet
  facet normal 1 0 0
    outer loop
      vertex 31.49 7.43584 6.52105
      vertex 31.49 11.5 12
      vertex 31.49 7.5 7.5
    endloop
  endfacet
  facet normal 1 -6.28096e-015 1.24936e-015
    outer loop
      vertex 31.49 7.24444 5.55886
      vertex 31.49 7.5 4
      vertex 31.49 7.43584 6.52105
    endloop
  endfacet
  facet normal 1 3.84057e-015 9.12136e-015
    outer loop
      vertex 31.49 6.77004 4.30735
      vertex 31.49 7.5 4
      vertex 31.49 6.9291 4.62987
    endloop
  endfacet
  facet normal 1 6.45251e-016 -4.31143e-016
    outer loop
      vertex 31.49 -11.5 12
      vertex 31.49 -6.49496 11.2503
      vertex 31.49 -5.99406 12
    endloop
  endfacet
  facet normal 1 5.07565e-015 1.20547e-014
    outer loop
      vertex 31.49 -11.5 12
      vertex 31.49 -7.01663 10.1123
      vertex 31.49 -6.9291 10.3701
    endloop
  endfacet
  facet normal 1 6.61011e-016 -3.25974e-016
    outer loop
      vertex 31.49 -11.5 12
      vertex 31.49 -6.9291 10.3701
      vertex 31.49 -6.49537 11.2496
    endloop
  endfacet
  facet normal 1 6.61011e-016 -3.25974e-016
    outer loop
      vertex 31.49 -11.5 12
      vertex 31.49 -6.49537 11.2496
      vertex 31.49 -6.49519 11.25
    endloop
  endfacet
  facet normal 1 6.45251e-016 -4.31143e-016
    outer loop
      vertex 31.49 -11.5 12
      vertex 31.49 -6.49519 11.25
      vertex 31.49 -6.49496 11.2503
    endloop
  endfacet
  facet normal 0.0945742 0.995518 0
    outer loop
      vertex 7.5 31.49 -4
      vertex 9.5 31.3 4
      vertex 9.5 31.3 -12
    endloop
  endfacet
  facet normal 0.0945742 0.995518 -0
    outer loop
      vertex 7.5 31.49 -4
      vertex 7.5 31.49 12
      vertex 9.5 31.3 4
    endloop
  endfacet
  facet normal 1.01305e-015 0.999718 -0.0237433
    outer loop
      vertex -9.5 31.3 -12
      vertex -6.49519 31.3178 -11.25
      vertex -5.99406 31.3 -12
    endloop
  endfacet
  facet normal 3.20859e-016 0.999718 -0.0237433
    outer loop
      vertex -9.5 31.3 -12
      vertex -6.76097 31.3306 -10.711
      vertex -6.49519 31.3178 -11.25
    endloop
  endfacet
  facet normal 0 0.999718 -0.0237433
    outer loop
      vertex 5.99406 31.3 -12
      vertex 6.49519 31.3178 -11.25
      vertex 9.5 31.3 -12
    endloop
  endfacet
  facet normal 1.20395e-014 0.999718 -0.0237433
    outer loop
      vertex 9.5 31.3 -12
      vertex 6.49519 31.3178 -11.25
      vertex 6.49848 31.318 -11.2433
    endloop
  endfacet
  facet normal -7.18349e-016 0.999718 -0.0237433
    outer loop
      vertex 6.49848 31.318 -11.2433
      vertex 6.9291 31.3387 -10.3701
      vertex 9.5 31.3 -12
    endloop
  endfacet
  facet normal -2.65278e-015 0.999718 -0.0237433
    outer loop
      vertex 6.9291 31.3387 -10.3701
      vertex 7.24444 31.3608 -9.44114
      vertex 9.5 31.3 -12
    endloop
  endfacet
  facet normal 1.22826e-015 0.999718 -0.0237433
    outer loop
      vertex 7.24444 31.3608 -9.44114
      vertex 7.43584 31.3836 -8.47895
      vertex 9.5 31.3 -12
    endloop
  endfacet
  facet normal 2.267e-015 0.999718 -0.0237433
    outer loop
      vertex 7.43584 31.3836 -8.47895
      vertex 7.5 31.4069 -7.5
      vertex 9.5 31.3 -12
    endloop
  endfacet
  facet normal -6.63772e-015 0.999718 -0.0237433
    outer loop
      vertex 7.5 31.4069 -7.5
      vertex 7.43584 31.4301 -6.52105
      vertex 9.5 31.3 -12
    endloop
  endfacet
  facet normal -1.42198e-016 0.999718 -0.0237433
    outer loop
      vertex 7.43584 31.4301 -6.52105
      vertex 7.5 31.49 -4
      vertex 9.5 31.3 -12
    endloop
  endfacet
  facet normal -5.31872e-015 0.999718 -0.0237433
    outer loop
      vertex 7.24444 31.453 -5.55886
      vertex 7.5 31.49 -4
      vertex 7.43584 31.4301 -6.52105
    endloop
  endfacet
  facet normal -3.28911e-015 0.999718 -0.0237433
    outer loop
      vertex 6.9291 31.475 -4.62987
      vertex 6.78452 31.482 -4.3367
      vertex 7.5 31.49 -4
    endloop
  endfacet
  facet normal -2.18132e-015 0.999718 -0.0237433
    outer loop
      vertex 6.9291 31.475 -4.62987
      vertex 7.5 31.49 -4
      vertex 7.24444 31.453 -5.55886
    endloop
  endfacet
  facet normal 1 8.88178e-016 0
    outer loop
      vertex 31.49 7.5 4
      vertex 31.49 7.5 -12
      vertex 31.49 11.5 -4
    endloop
  endfacet
  facet normal 1 8.88178e-016 0
    outer loop
      vertex 31.49 11.5 12
      vertex 31.49 7.5 4
      vertex 31.49 11.5 -4
    endloop
  endfacet
  facet normal 0.695535 0.642639 -0.32132
    outer loop
      vertex 13.0082 27.504 -11.998
      vertex 13.0083 27.503 -12
      vertex 9.5 31.3 -12
    endloop
  endfacet
  facet normal 0.695535 0.642639 -0.32132
    outer loop
      vertex 13.0082 28.1412 -10.7237
      vertex 13.0082 27.504 -11.998
      vertex 9.5 31.3 -12
    endloop
  endfacet
  facet normal 0.695535 0.642639 -0.32132
    outer loop
      vertex 26.7613 13.0512 -11.1334
      vertex 31.49 7.5 -12
      vertex 26.3128 13.1034 -12
    endloop
  endfacet
  facet normal 0.695535 0.642639 -0.32132
    outer loop
      vertex 26.7613 13.0512 -11.1334
      vertex 27.752 13.0021 -9.08727
      vertex 31.49 7.5 -12
    endloop
  endfacet
  facet normal 0.695535 0.642639 -0.32132
    outer loop
      vertex 28.7438 13.0185 -6.90767
      vertex 31.49 7.5 -12
      vertex 27.752 13.0021 -9.08727
    endloop
  endfacet
  facet normal 0.695535 0.642639 -0.32132
    outer loop
      vertex 31.49 11.5 -4
      vertex 31.49 7.5 -12
      vertex 28.7438 13.0185 -6.90767
    endloop
  endfacet
  facet normal 0.695535 0.642639 -0.32132
    outer loop
      vertex 29.7143 13.0989 -4.64601
      vertex 31.49 11.5 -4
      vertex 28.7438 13.0185 -6.90767
    endloop
  endfacet
  facet normal 0.997859 -1.99445e-016 0.0654031
    outer loop
      vertex -7.5 8 -7.5
      vertex -7.43584 8 -8.47895
      vertex -7.43584 31.3836 -8.47895
    endloop
  endfacet
  facet normal 0.997859 -2.01728e-016 0.0654031
    outer loop
      vertex -7.5 31.4069 -7.5
      vertex -7.5 8 -7.5
      vertex -7.43584 31.3836 -8.47895
    endloop
  endfacet
  facet normal 0.896873 -2.38198e-016 0.442289
    outer loop
      vertex -6.9291 8 -10.3701
      vertex -6.49519 8 -11.25
      vertex -6.49519 31.3178 -11.25
    endloop
  endfacet
  facet normal 0.896873 -2.72617e-016 0.442289
    outer loop
      vertex -6.76097 31.3306 -10.711
      vertex -6.9291 8 -10.3701
      vertex -6.49519 31.3178 -11.25
    endloop
  endfacet
  facet normal 0.896873 -2.37984e-016 0.442289
    outer loop
      vertex -6.9291 31.3387 -10.3701
      vertex -6.9291 8 -10.3701
      vertex -6.76097 31.3306 -10.711
    endloop
  endfacet
  facet normal -0.896873 1.01241e-016 0.442289
    outer loop
      vertex 6.49848 31.318 -11.2433
      vertex 6.49519 8 -11.25
      vertex 6.92006 8 -10.3885
    endloop
  endfacet
  facet normal -0.896873 1.03423e-016 0.442289
    outer loop
      vertex 6.49848 31.318 -11.2433
      vertex 6.49519 31.3178 -11.25
      vertex 6.49519 8 -11.25
    endloop
  endfacet
  facet normal -0.896873 1.0333e-016 0.442289
    outer loop
      vertex 6.9291 8 -10.3701
      vertex 6.9291 31.3387 -10.3701
      vertex 6.92006 8 -10.3885
    endloop
  endfacet
  facet normal -0.896873 7.66203e-017 0.442289
    outer loop
      vertex 6.92006 8 -10.3885
      vertex 6.9291 31.3387 -10.3701
      vertex 6.49848 31.318 -11.2433
    endloop
  endfacet
  facet normal 0.997859 -1.76736e-016 -0.0654031
    outer loop
      vertex -7.43584 8 -6.52105
      vertex -7.5 31.4069 -7.5
      vertex -7.43584 31.4301 -6.52105
    endloop
  endfacet
  facet normal 0.997859 -1.76911e-016 -0.0654031
    outer loop
      vertex -7.43584 8 -6.52105
      vertex -7.5 8 -7.5
      vertex -7.5 31.4069 -7.5
    endloop
  endfacet
  facet normal 0.321439 1.38227e-016 -0.94693
    outer loop
      vertex -1.94114 31.49 -0.255556
      vertex -1.94114 8 -0.255556
      vertex -2.87013 31.49 -0.570904
    endloop
  endfacet
  facet normal 0.321439 1.39028e-016 -0.94693
    outer loop
      vertex -2.87013 31.49 -0.570904
      vertex -1.94114 8 -0.255556
      vertex -2.87013 8 -0.570904
    endloop
  endfacet
  facet normal -0.94693 2.39944e-016 -0.321439
    outer loop
      vertex 7.24444 31.453 -5.55886
      vertex 6.9291 8 -4.62987
      vertex 6.9291 31.475 -4.62987
    endloop
  endfacet
  facet normal -0.94693 2.4017e-016 -0.321439
    outer loop
      vertex 7.24444 31.453 -5.55886
      vertex 7.24444 8 -5.55886
      vertex 6.9291 8 -4.62987
    endloop
  endfacet
  facet normal -0.321439 2.72721e-016 -0.94693
    outer loop
      vertex 2.87013 31.49 -0.570904
      vertex 2.87013 8 -0.570904
      vertex 1.94114 31.49 -0.255556
    endloop
  endfacet
  facet normal -0.321439 2.77998e-016 -0.94693
    outer loop
      vertex 1.94114 31.49 -0.255556
      vertex 2.87013 8 -0.570904
      vertex 1.94114 8 -0.255556
    endloop
  endfacet
  facet normal -0.997859 1.76911e-016 0.0654031
    outer loop
      vertex 7.5 31.4069 -7.5
      vertex 7.43584 31.3836 -8.47895
      vertex 7.5 8 -7.5
    endloop
  endfacet
  facet normal -0.997859 1.79571e-016 0.0654031
    outer loop
      vertex 7.5 8 -7.5
      vertex 7.43584 31.3836 -8.47895
      vertex 7.43584 8 -8.47895
    endloop
  endfacet
  facet normal 0.94693 -1.18327e-016 -0.321439
    outer loop
      vertex -6.9291 8 -4.62987
      vertex -7.24444 31.453 -5.55886
      vertex -6.9291 31.475 -4.62987
    endloop
  endfacet
  facet normal 0.94693 -1.1844e-016 -0.321439
    outer loop
      vertex -6.9291 8 -4.62987
      vertex -7.24444 8 -5.55886
      vertex -7.24444 31.453 -5.55886
    endloop
  endfacet
  facet normal 0.75184 -5.02118e-018 -0.659346
    outer loop
      vertex -5.3033 8 -2.1967
      vertex -5.95015 31.49 -2.93429
      vertex -5.3033 31.49 -2.1967
    endloop
  endfacet
  facet normal 0.75184 -5.02116e-018 -0.659346
    outer loop
      vertex -5.3033 8 -2.1967
      vertex -5.95015 8 -2.93429
      vertex -5.95015 31.49 -2.93429
    endloop
  endfacet
  facet normal 0.19509 1.74876e-016 -0.980785
    outer loop
      vertex -0.978946 31.49 -0.0641635
      vertex -0.978946 8 -0.0641635
      vertex -1.94114 31.49 -0.255556
    endloop
  endfacet
  facet normal 0.19509 1.73138e-016 -0.980785
    outer loop
      vertex -1.94114 31.49 -0.255556
      vertex -0.978946 8 -0.0641635
      vertex -1.94114 8 -0.255556
    endloop
  endfacet
  facet normal -0.659346 2.81005e-016 -0.75184
    outer loop
      vertex 5.3033 31.49 -2.1967
      vertex 5.3033 8 -2.1967
      vertex 4.56571 31.49 -1.54985
    endloop
  endfacet
  facet normal -0.659346 2.88112e-016 -0.75184
    outer loop
      vertex 4.56571 31.49 -1.54985
      vertex 5.3033 8 -2.1967
      vertex 4.56571 8 -1.54985
    endloop
  endfacet
  facet normal -0.980785 2.22656e-016 -0.19509
    outer loop
      vertex 7.43584 31.4301 -6.52105
      vertex 7.24444 8 -5.55886
      vertex 7.24444 31.453 -5.55886
    endloop
  endfacet
  facet normal -0.980785 2.22873e-016 -0.19509
    outer loop
      vertex 7.43584 31.4301 -6.52105
      vertex 7.43584 8 -6.52105
      vertex 7.24444 8 -5.55886
    endloop
  endfacet
  facet normal 0.896873 -7.96287e-017 -0.442289
    outer loop
      vertex -6.92006 8 -4.61154
      vertex -6.9291 31.475 -4.62987
      vertex -6.61848 31.49 -4
    endloop
  endfacet
  facet normal 0.896873 -1.48846e-016 -0.442289
    outer loop
      vertex -6.49537 31.49 -3.75037
      vertex -6.92006 8 -4.61154
      vertex -6.61848 31.49 -4
    endloop
  endfacet
  facet normal 0.896873 -8.5996e-017 -0.442289
    outer loop
      vertex -6.92006 8 -4.61154
      vertex -6.9291 8 -4.62987
      vertex -6.9291 31.475 -4.62987
    endloop
  endfacet
  facet normal 0.896873 -7.75795e-017 -0.442289
    outer loop
      vertex -6.49519 8 -3.75
      vertex -6.49537 31.49 -3.75037
      vertex -6.49519 31.49 -3.75
    endloop
  endfacet
  facet normal 0.896873 -7.7469e-017 -0.442289
    outer loop
      vertex -6.49519 8 -3.75
      vertex -6.92006 8 -4.61154
      vertex -6.49537 31.49 -3.75037
    endloop
  endfacet
  facet normal 0.83147 -4.16567e-017 -0.55557
    outer loop
      vertex -5.95015 8 -2.93429
      vertex -6.49519 31.49 -3.75
      vertex -5.95015 31.49 -2.93429
    endloop
  endfacet
  facet normal 0.83147 -4.16571e-017 -0.55557
    outer loop
      vertex -5.95015 8 -2.93429
      vertex -6.49519 8 -3.75
      vertex -6.49519 31.49 -3.75
    endloop
  endfacet
  facet normal 0.980785 -1.48774e-016 -0.19509
    outer loop
      vertex -7.24444 8 -5.55886
      vertex -7.43584 31.4301 -6.52105
      vertex -7.24444 31.453 -5.55886
    endloop
  endfacet
  facet normal 0.980785 -1.48919e-016 -0.19509
    outer loop
      vertex -7.24444 8 -5.55886
      vertex -7.43584 8 -6.52105
      vertex -7.43584 31.4301 -6.52105
    endloop
  endfacet
  facet normal 0.659346 3.88072e-017 -0.75184
    outer loop
      vertex -4.56571 31.49 -1.54985
      vertex -4.56571 8 -1.54985
      vertex -5.3033 31.49 -2.1967
    endloop
  endfacet
  facet normal 0.659346 3.17003e-017 -0.75184
    outer loop
      vertex -5.3033 31.49 -2.1967
      vertex -4.56571 8 -1.54985
      vertex -5.3033 8 -2.1967
    endloop
  endfacet
  facet normal 0.442289 1.03013e-016 -0.896873
    outer loop
      vertex -3.74963 31.49 -1.00463
      vertex -3.75 8 -1.00481
      vertex -3.75 31.49 -1.00481
    endloop
  endfacet
  facet normal 0.442289 1.03242e-016 -0.896873
    outer loop
      vertex -3.74963 31.49 -1.00463
      vertex -2.88846 8 -0.579943
      vertex -3.75 8 -1.00481
    endloop
  endfacet
  facet normal 0.442289 1.03013e-016 -0.896873
    outer loop
      vertex -2.87013 8 -0.570904
      vertex -2.88846 8 -0.579943
      vertex -2.87013 31.49 -0.570904
    endloop
  endfacet
  facet normal 0.442289 1.05844e-016 -0.896873
    outer loop
      vertex -2.87013 31.49 -0.570904
      vertex -2.88846 8 -0.579943
      vertex -3.74963 31.49 -1.00463
    endloop
  endfacet
  facet normal -0.896873 2.61536e-016 -0.442289
    outer loop
      vertex 6.61848 31.49 -4
      vertex 6.49519 8 -3.75
      vertex 6.49519 31.49 -3.75
    endloop
  endfacet
  facet normal -0.896873 2.83195e-016 -0.442289
    outer loop
      vertex 6.61848 31.49 -4
      vertex 6.78452 31.482 -4.3367
      vertex 6.49519 8 -3.75
    endloop
  endfacet
  facet normal -0.896873 2.53336e-016 -0.442289
    outer loop
      vertex 6.78452 31.482 -4.3367
      vertex 6.9291 31.475 -4.62987
      vertex 6.9291 8 -4.62987
    endloop
  endfacet
  facet normal -0.896873 2.73461e-016 -0.442289
    outer loop
      vertex 6.78452 31.482 -4.3367
      vertex 6.9291 8 -4.62987
      vertex 6.49519 8 -3.75
    endloop
  endfacet
  facet normal -0.75184 2.79256e-016 -0.659346
    outer loop
      vertex 5.95015 31.49 -2.93429
      vertex 5.3033 8 -2.1967
      vertex 5.3033 31.49 -2.1967
    endloop
  endfacet
  facet normal -0.75184 2.79256e-016 -0.659346
    outer loop
      vertex 5.95015 31.49 -2.93429
      vertex 5.95015 8 -2.93429
      vertex 5.3033 8 -2.1967
    endloop
  endfacet
  facet normal -0.442289 2.8697e-016 -0.896873
    outer loop
      vertex 3.75 31.49 -1.00481
      vertex 3.75 8 -1.00481
      vertex 2.87013 31.49 -0.570904
    endloop
  endfacet
  facet normal -0.442289 2.8697e-016 -0.896873
    outer loop
      vertex 2.87013 31.49 -0.570904
      vertex 3.75 8 -1.00481
      vertex 2.87013 8 -0.570904
    endloop
  endfacet
  facet normal -0.83147 4.62073e-016 0.55557
    outer loop
      vertex 6.49519 8 -11.25
      vertex 5.99406 29.5666 -12
      vertex 6.48384 8 -11.267
    endloop
  endfacet
  facet normal -0.83147 7.3707e-017 0.55557
    outer loop
      vertex 6.49519 8 -11.25
      vertex 6.49519 31.3178 -11.25
      vertex 5.99406 29.5666 -12
    endloop
  endfacet
  facet normal -0.83147 0 0.55557
    outer loop
      vertex 6.49519 31.3178 -11.25
      vertex 5.99406 31.3 -12
      vertex 5.99406 29.5666 -12
    endloop
  endfacet
  facet normal -0.94693 1.31127e-016 0.321439
    outer loop
      vertex 7.24444 31.3608 -9.44114
      vertex 6.9291 31.3387 -10.3701
      vertex 7.24444 8 -9.44114
    endloop
  endfacet
  facet normal -0.94693 1.31252e-016 0.321439
    outer loop
      vertex 7.24444 8 -9.44114
      vertex 6.9291 31.3387 -10.3701
      vertex 6.9291 8 -10.3701
    endloop
  endfacet
  facet normal 0.55557 6.52357e-017 -0.83147
    outer loop
      vertex -3.75 31.49 -1.00481
      vertex -3.75 8 -1.00481
      vertex -4.56571 31.49 -1.54985
    endloop
  endfacet
  facet normal 0.55557 7.5739e-017 -0.83147
    outer loop
      vertex -4.56571 31.49 -1.54985
      vertex -3.75 8 -1.00481
      vertex -4.56571 8 -1.54985
    endloop
  endfacet
  facet normal -0.83147 2.7273e-016 -0.55557
    outer loop
      vertex 6.49519 31.49 -3.75
      vertex 5.95015 8 -2.93429
      vertex 5.95015 31.49 -2.93429
    endloop
  endfacet
  facet normal -0.83147 2.7273e-016 -0.55557
    outer loop
      vertex 6.49519 31.49 -3.75
      vertex 6.49519 8 -3.75
      vertex 5.95015 8 -2.93429
    endloop
  endfacet
  facet normal 0.0654031 2.07047e-016 -0.997859
    outer loop
      vertex 1.74386e-015 31.49 2.66231e-015
      vertex -3.47197e-015 8 -2.55351e-015
      vertex -0.978946 31.49 -0.0641635
    endloop
  endfacet
  facet normal 0.0654031 2.06855e-016 -0.997859
    outer loop
      vertex -0.978946 31.49 -0.0641635
      vertex -3.47197e-015 8 -2.55351e-015
      vertex -0.978946 8 -0.0641635
    endloop
  endfacet
  facet normal -0.55557 2.85805e-016 -0.83147
    outer loop
      vertex 4.56571 31.49 -1.54985
      vertex 4.56571 8 -1.54985
      vertex 3.75 31.49 -1.00481
    endloop
  endfacet
  facet normal -0.55557 2.96309e-016 -0.83147
    outer loop
      vertex 3.75 31.49 -1.00481
      vertex 4.56571 8 -1.54985
      vertex 3.75 8 -1.00481
    endloop
  endfacet
  facet normal -0.83147 1.02727e-016 0.55557
    outer loop
      vertex 5.99406 8 -12
      vertex 6.48384 8 -11.267
      vertex 5.99406 29.5666 -12
    endloop
  endfacet
  facet normal -0.997859 2.01528e-016 -0.0654031
    outer loop
      vertex 7.5 31.4069 -7.5
      vertex 7.43584 8 -6.52105
      vertex 7.43584 31.4301 -6.52105
    endloop
  endfacet
  facet normal -0.997859 2.01728e-016 -0.0654031
    outer loop
      vertex 7.5 31.4069 -7.5
      vertex 7.5 8 -7.5
      vertex 7.43584 8 -6.52105
    endloop
  endfacet
  facet normal -0.980785 1.56625e-016 0.19509
    outer loop
      vertex 7.43584 31.3836 -8.47895
      vertex 7.24444 31.3608 -9.44114
      vertex 7.43584 8 -8.47895
    endloop
  endfacet
  facet normal -0.980785 1.56778e-016 0.19509
    outer loop
      vertex 7.43584 8 -8.47895
      vertex 7.24444 31.3608 -9.44114
      vertex 7.24444 8 -9.44114
    endloop
  endfacet
  facet normal 0.83147 -3.1695e-016 0.55557
    outer loop
      vertex -6.49519 8 -11.25
      vertex -5.99406 8 -12
      vertex -5.99406 31.3 -12
    endloop
  endfacet
  facet normal 0.83147 -2.43001e-016 0.55557
    outer loop
      vertex -6.49519 31.3178 -11.25
      vertex -6.49519 8 -11.25
      vertex -5.99406 31.3 -12
    endloop
  endfacet
  facet normal 0.94693 -2.29113e-016 0.321439
    outer loop
      vertex -7.24444 8 -9.44114
      vertex -6.9291 8 -10.3701
      vertex -6.9291 31.3387 -10.3701
    endloop
  endfacet
  facet normal 0.94693 -2.28896e-016 0.321439
    outer loop
      vertex -7.24444 31.3608 -9.44114
      vertex -7.24444 8 -9.44114
      vertex -6.9291 31.3387 -10.3701
    endloop
  endfacet
  facet normal -0.19509 2.57968e-016 -0.980785
    outer loop
      vertex 1.94114 31.49 -0.255556
      vertex 1.94114 8 -0.255556
      vertex 0.978946 31.49 -0.0641635
    endloop
  endfacet
  facet normal -0.19509 2.59706e-016 -0.980785
    outer loop
      vertex 0.978946 31.49 -0.0641635
      vertex 1.94114 8 -0.255556
      vertex 0.978946 8 -0.0641635
    endloop
  endfacet
  facet normal -0.0654031 2.35293e-016 -0.997859
    outer loop
      vertex 0.978946 31.49 -0.0641635
      vertex 0.978946 8 -0.0641635
      vertex 1.74386e-015 31.49 2.66231e-015
    endloop
  endfacet
  facet normal -0.0654031 2.36092e-016 -0.997859
    outer loop
      vertex 1.74386e-015 31.49 2.66231e-015
      vertex 0.978946 8 -0.0641635
      vertex -3.47197e-015 8 -2.55351e-015
    endloop
  endfacet
  facet normal 0.980785 -2.16117e-016 0.19509
    outer loop
      vertex -7.43584 8 -8.47895
      vertex -7.24444 8 -9.44114
      vertex -7.24444 31.3608 -9.44114
    endloop
  endfacet
  facet normal 0.980785 -2.15906e-016 0.19509
    outer loop
      vertex -7.43584 31.3836 -8.47895
      vertex -7.43584 8 -8.47895
      vertex -7.24444 31.3608 -9.44114
    endloop
  endfacet
  facet normal -1.15536e-016 0.83147 0.55557
    outer loop
      vertex 31.49 -5.95015 2.93429
      vertex 8 -6.49519 3.75
      vertex 31.49 -6.49519 3.75
    endloop
  endfacet
  facet normal -1.15536e-016 0.83147 0.55557
    outer loop
      vertex 31.49 -5.95015 2.93429
      vertex 8 -5.95015 2.93429
      vertex 8 -6.49519 3.75
    endloop
  endfacet
  facet normal -1.80772e-016 -0.55557 0.83147
    outer loop
      vertex 8 4.56571 1.54985
      vertex 31.49 3.75 1.00481
      vertex 31.49 4.56571 1.54985
    endloop
  endfacet
  facet normal -1.80772e-016 -0.55557 0.83147
    outer loop
      vertex 8 4.56571 1.54985
      vertex 8 3.75 1.00481
      vertex 31.49 3.75 1.00481
    endloop
  endfacet
  facet normal 1.0034e-016 0.896873 -0.442289
    outer loop
      vertex 31.49 -6.49519 11.25
      vertex 31.49 -6.49537 11.2496
      vertex 8 -6.49519 11.25
    endloop
  endfacet
  facet normal 1.17192e-016 0.896873 -0.442289
    outer loop
      vertex 8 -6.49519 11.25
      vertex 31.49 -6.49537 11.2496
      vertex 8 -6.92006 10.3885
    endloop
  endfacet
  facet normal 9.89181e-018 0.997859 -0.0654031
    outer loop
      vertex 31.49 -7.43584 8.47895
      vertex 31.49 -7.5 7.5
      vertex 8 -7.43584 8.47895
    endloop
  endfacet
  facet normal 1.2365e-017 0.997859 -0.0654031
    outer loop
      vertex 8 -7.43584 8.47895
      vertex 31.49 -7.5 7.5
      vertex 8 -7.5 7.5
    endloop
  endfacet
  facet normal -1.56353e-016 -0.659346 0.75184
    outer loop
      vertex 8 5.3033 2.1967
      vertex 31.49 4.56571 1.54985
      vertex 31.49 5.3033 2.1967
    endloop
  endfacet
  facet normal -1.6346e-016 -0.659346 0.75184
    outer loop
      vertex 8 5.3033 2.1967
      vertex 8 4.56571 1.54985
      vertex 31.49 4.56571 1.54985
    endloop
  endfacet
  facet normal -2.17871e-016 -0.19509 0.980785
    outer loop
      vertex 8 1.94114 0.255556
      vertex 31.49 0.978946 0.0641635
      vertex 31.49 1.94114 0.255556
    endloop
  endfacet
  facet normal -2.1787e-016 -0.19509 0.980785
    outer loop
      vertex 8 1.94114 0.255556
      vertex 8 0.978946 0.0641635
      vertex 31.49 0.978946 0.0641635
    endloop
  endfacet
  facet normal -6.07702e-017 0.94693 0.321439
    outer loop
      vertex 31.49 -6.9291 4.62987
      vertex 8 -7.24444 5.55886
      vertex 31.49 -7.24444 5.55886
    endloop
  endfacet
  facet normal -6.07696e-017 0.94693 0.321439
    outer loop
      vertex 31.49 -6.9291 4.62987
      vertex 8 -6.9291 4.62987
      vertex 8 -7.24444 5.55886
    endloop
  endfacet
  facet normal 2.95062e-017 0.980785 -0.19509
    outer loop
      vertex 31.49 -7.24444 9.44114
      vertex 31.49 -7.43584 8.47895
      vertex 8 -7.24444 9.44114
    endloop
  endfacet
  facet normal 2.95065e-017 0.980785 -0.19509
    outer loop
      vertex 8 -7.24444 9.44114
      vertex 31.49 -7.43584 8.47895
      vertex 8 -7.43584 8.47895
    endloop
  endfacet
  facet normal -1.99231e-016 0.442289 0.896873
    outer loop
      vertex 8 -2.87013 0.570904
      vertex 31.49 -3.75 1.00481
      vertex 31.49 -2.87013 0.570904
    endloop
  endfacet
  facet normal -1.94992e-016 0.442289 0.896873
    outer loop
      vertex 8 -2.87013 0.570904
      vertex 8 -3.75 1.00481
      vertex 31.49 -3.75 1.00481
    endloop
  endfacet
  facet normal -2.21664e-016 -0.0654031 0.997859
    outer loop
      vertex 8 0.978946 0.0641635
      vertex 31.49 0 2.66231e-015
      vertex 31.49 0.978946 0.0641635
    endloop
  endfacet
  facet normal -2.21569e-016 -0.0654031 0.997859
    outer loop
      vertex 8 0.978946 0.0641635
      vertex 8 0 -2.55351e-015
      vertex 31.49 0 2.66231e-015
    endloop
  endfacet
  facet normal -1.23647e-017 0.997859 0.0654031
    outer loop
      vertex 31.49 -7.43584 6.52105
      vertex 8 -7.5 7.5
      vertex 31.49 -7.5 7.5
    endloop
  endfacet
  facet normal -1.23648e-017 0.997859 0.0654031
    outer loop
      vertex 31.49 -7.43584 6.52105
      vertex 8 -7.43584 6.52105
      vertex 8 -7.5 7.5
    endloop
  endfacet
  facet normal 4.86157e-017 0.94693 -0.321439
    outer loop
      vertex 31.49 -6.9291 10.3701
      vertex 31.49 -7.01663 10.1123
      vertex 8 -6.9291 10.3701
    endloop
  endfacet
  facet normal 2.94565e-017 0.94693 -0.321439
    outer loop
      vertex 8 -6.9291 10.3701
      vertex 31.49 -7.01663 10.1123
      vertex 8 -7.24444 9.44114
    endloop
  endfacet
  facet normal 4.86162e-017 0.94693 -0.321439
    outer loop
      vertex 31.49 -7.01663 10.1123
      vertex 31.49 -7.24444 9.44114
      vertex 8 -7.24444 9.44114
    endloop
  endfacet
  facet normal -1.6346e-016 0.659346 0.75184
    outer loop
      vertex 8 -4.56571 1.54985
      vertex 31.49 -5.3033 2.1967
      vertex 31.49 -4.56571 1.54985
    endloop
  endfacet
  facet normal -1.56352e-016 0.659346 0.75184
    outer loop
      vertex 8 -4.56571 1.54985
      vertex 8 -5.3033 2.1967
      vertex 31.49 -5.3033 2.1967
    endloop
  endfacet
  facet normal -9.19784e-017 -0.896873 0.442289
    outer loop
      vertex 8 6.49519 3.75
      vertex 31.49 6.49519 3.75
      vertex 31.49 6.77004 4.30735
    endloop
  endfacet
  facet normal -8.36167e-017 -0.896873 0.442289
    outer loop
      vertex 31.49 6.9291 4.62987
      vertex 8 6.9291 4.62987
      vertex 31.49 6.77004 4.30735
    endloop
  endfacet
  facet normal -1.19606e-016 -0.896873 0.442289
    outer loop
      vertex 8 6.9291 4.62987
      vertex 8 6.49519 3.75
      vertex 31.49 6.77004 4.30735
    endloop
  endfacet
  facet normal 1.08802e-016 0.896873 -0.442289
    outer loop
      vertex 31.49 -6.49537 11.2496
      vertex 31.49 -6.9291 10.3701
      vertex 8 -6.92006 10.3885
    endloop
  endfacet
  facet normal 6.68934e-017 0.896873 -0.442289
    outer loop
      vertex 8 -6.92006 10.3885
      vertex 31.49 -6.9291 10.3701
      vertex 8 -6.9291 10.3701
    endloop
  endfacet
  facet normal -3.6883e-017 0.980785 0.19509
    outer loop
      vertex 31.49 -7.24444 5.55886
      vertex 8 -7.43584 6.52105
      vertex 31.49 -7.43584 6.52105
    endloop
  endfacet
  facet normal -3.68827e-017 0.980785 0.19509
    outer loop
      vertex 31.49 -7.24444 5.55886
      vertex 8 -7.24444 5.55886
      vertex 8 -7.43584 6.52105
    endloop
  endfacet
  facet normal -8.36165e-017 0.896873 0.442289
    outer loop
      vertex 31.49 -6.49519 3.75
      vertex 8 -6.9291 4.62987
      vertex 31.49 -6.9291 4.62987
    endloop
  endfacet
  facet normal -9.19784e-017 0.896873 0.442289
    outer loop
      vertex 31.49 -6.49519 3.75
      vertex 8 -6.49519 3.75
      vertex 8 -6.9291 4.62987
    endloop
  endfacet
  facet normal -2.17871e-016 0.19509 0.980785
    outer loop
      vertex 8 -0.978946 0.0641635
      vertex 31.49 -1.94114 0.255556
      vertex 31.49 -0.978946 0.0641635
    endloop
  endfacet
  facet normal -2.1787e-016 0.19509 0.980785
    outer loop
      vertex 8 -0.978946 0.0641635
      vertex 8 -1.94114 0.255556
      vertex 31.49 -1.94114 0.255556
    endloop
  endfacet
  facet normal -1.80772e-016 0.55557 0.83147
    outer loop
      vertex 8 -3.75 1.00481
      vertex 31.49 -4.56571 1.54985
      vertex 31.49 -3.75 1.00481
    endloop
  endfacet
  facet normal -1.80772e-016 0.55557 0.83147
    outer loop
      vertex 8 -3.75 1.00481
      vertex 8 -4.56571 1.54985
      vertex 31.49 -4.56571 1.54985
    endloop
  endfacet
  facet normal -1.2446e-016 0.75184 0.659346
    outer loop
      vertex 31.49 -5.3033 2.1967
      vertex 8 -5.31678 2.21207
      vertex 31.49 -5.94988 2.93398
    endloop
  endfacet
  facet normal -1.37118e-016 0.75184 0.659346
    outer loop
      vertex 31.49 -5.3033 2.1967
      vertex 8 -5.3033 2.1967
      vertex 8 -5.31678 2.21207
    endloop
  endfacet
  facet normal -1.37118e-016 0.75184 0.659346
    outer loop
      vertex 31.49 -5.94988 2.93398
      vertex 8 -5.95015 2.93429
      vertex 31.49 -5.95015 2.93429
    endloop
  endfacet
  facet normal -1.68055e-016 0.75184 0.659346
    outer loop
      vertex 31.49 -5.94988 2.93398
      vertex 8 -5.31678 2.21207
      vertex 8 -5.95015 2.93429
    endloop
  endfacet
  facet normal -2.1035e-016 -0.321439 0.94693
    outer loop
      vertex 8 2.87013 0.570904
      vertex 31.49 1.94114 0.255556
      vertex 31.49 2.87013 0.570904
    endloop
  endfacet
  facet normal -2.1035e-016 -0.321439 0.94693
    outer loop
      vertex 8 2.87013 0.570904
      vertex 8 1.94114 0.255556
      vertex 31.49 1.94114 0.255556
    endloop
  endfacet
  facet normal -6.07696e-017 -0.94693 0.321439
    outer loop
      vertex 8 7.24444 5.55886
      vertex 31.49 6.9291 4.62987
      vertex 31.49 7.24444 5.55886
    endloop
  endfacet
  facet normal -6.0769e-017 -0.94693 0.321439
    outer loop
      vertex 8 7.24444 5.55886
      vertex 8 6.9291 4.62987
      vertex 31.49 6.9291 4.62987
    endloop
  endfacet
  facet normal 1.23647e-017 -0.997859 -0.0654031
    outer loop
      vertex 8 7.43584 8.47895
      vertex 8 7.5 7.5
      vertex 31.49 7.5 7.5
    endloop
  endfacet
  facet normal 9.89181e-018 -0.997859 -0.0654031
    outer loop
      vertex 31.49 7.43584 8.47895
      vertex 8 7.43584 8.47895
      vertex 31.49 7.5 7.5
    endloop
  endfacet
  facet normal -3.68827e-017 -0.980785 0.19509
    outer loop
      vertex 8 7.43584 6.52105
      vertex 31.49 7.24444 5.55886
      vertex 31.49 7.43584 6.52105
    endloop
  endfacet
  facet normal -3.6883e-017 -0.980785 0.19509
    outer loop
      vertex 8 7.43584 6.52105
      vertex 8 7.24444 5.55886
      vertex 31.49 7.24444 5.55886
    endloop
  endfacet
  facet normal -1.1133e-016 -0.75184 0.659346
    outer loop
      vertex 8 5.31678 2.21207
      vertex 31.49 5.3033 2.1967
      vertex 31.49 5.94988 2.93398
    endloop
  endfacet
  facet normal -1.37118e-016 -0.75184 0.659346
    outer loop
      vertex 8 5.31678 2.21207
      vertex 8 5.3033 2.1967
      vertex 31.49 5.3033 2.1967
    endloop
  endfacet
  facet normal -1.37118e-016 -0.75184 0.659346
    outer loop
      vertex 8 5.95015 2.93429
      vertex 31.49 5.94988 2.93398
      vertex 31.49 5.95015 2.93429
    endloop
  endfacet
  facet normal -1.68037e-016 -0.75184 0.659346
    outer loop
      vertex 8 5.95015 2.93429
      vertex 8 5.31678 2.21207
      vertex 31.49 5.94988 2.93398
    endloop
  endfacet
  facet normal 5.15221e-016 0.83147 -0.55557
    outer loop
      vertex 9.43335 -5.99406 12
      vertex 8 -6.49519 11.25
      vertex 8 -5.99406 12
    endloop
  endfacet
  facet normal 6.2531e-015 0.83147 -0.55557
    outer loop
      vertex 9.43335 -5.99406 12
      vertex 31.49 -6.49496 11.2503
      vertex 31.49 -6.49519 11.25
    endloop
  endfacet
  facet normal 1.2604e-016 0.83147 -0.55557
    outer loop
      vertex 9.43335 -5.99406 12
      vertex 31.49 -6.49519 11.25
      vertex 8 -6.49519 11.25
    endloop
  endfacet
  facet normal -2.1035e-016 0.321439 0.94693
    outer loop
      vertex 8 -1.94114 0.255556
      vertex 31.49 -2.87013 0.570904
      vertex 31.49 -1.94114 0.255556
    endloop
  endfacet
  facet normal -2.10351e-016 0.321439 0.94693
    outer loop
      vertex 8 -1.94114 0.255556
      vertex 8 -2.87013 0.570904
      vertex 31.49 -2.87013 0.570904
    endloop
  endfacet
  facet normal -2.21569e-016 0.0654031 0.997859
    outer loop
      vertex 8 0 -2.55351e-015
      vertex 31.49 -0.978946 0.0641635
      vertex 31.49 0 2.66231e-015
    endloop
  endfacet
  facet normal -2.21664e-016 0.0654031 0.997859
    outer loop
      vertex 8 0 -2.55351e-015
      vertex 8 -0.978946 0.0641635
      vertex 31.49 -0.978946 0.0641635
    endloop
  endfacet
  facet normal -1.94992e-016 -0.442289 0.896873
    outer loop
      vertex 8 3.75 1.00481
      vertex 31.49 2.87013 0.570904
      vertex 31.49 3.75 1.00481
    endloop
  endfacet
  facet normal -1.9923e-016 -0.442289 0.896873
    outer loop
      vertex 8 3.75 1.00481
      vertex 8 2.87013 0.570904
      vertex 31.49 2.87013 0.570904
    endloop
  endfacet
  facet normal -1.15536e-016 -0.83147 0.55557
    outer loop
      vertex 8 6.49519 3.75
      vertex 31.49 5.95015 2.93429
      vertex 31.49 6.49519 3.75
    endloop
  endfacet
  facet normal -1.15536e-016 -0.83147 0.55557
    outer loop
      vertex 8 6.49519 3.75
      vertex 8 5.95015 2.93429
      vertex 31.49 5.95015 2.93429
    endloop
  endfacet
  facet normal 1.02728e-016 -0.83147 -0.55557
    outer loop
      vertex 8 6.48384 11.267
      vertex 29.5666 5.99406 12
      vertex 8 5.99406 12
    endloop
  endfacet
  facet normal -1.23648e-017 -0.997859 0.0654031
    outer loop
      vertex 8 7.5 7.5
      vertex 31.49 7.43584 6.52105
      vertex 31.49 7.5 7.5
    endloop
  endfacet
  facet normal -1.23647e-017 -0.997859 0.0654031
    outer loop
      vertex 8 7.5 7.5
      vertex 8 7.43584 6.52105
      vertex 31.49 7.43584 6.52105
    endloop
  endfacet
  facet normal 1.00445e-016 0.83147 -0.55557
    outer loop
      vertex 9.43335 -5.99406 12
      vertex 31.49 -5.99406 12
      vertex 31.49 -6.49496 11.2503
    endloop
  endfacet
  facet normal 3.74561e-017 -0.94693 -0.321439
    outer loop
      vertex 31.49 6.9291 10.3701
      vertex 8 6.93567 10.3508
      vertex 31.49 7.24431 9.44153
    endloop
  endfacet
  facet normal 2.43078e-017 -0.94693 -0.321439
    outer loop
      vertex 31.49 6.9291 10.3701
      vertex 8 6.9291 10.3701
      vertex 8 6.93567 10.3508
    endloop
  endfacet
  facet normal 4.86157e-017 -0.94693 -0.321439
    outer loop
      vertex 31.49 7.24431 9.44153
      vertex 8 7.24444 9.44114
      vertex 31.49 7.24444 9.44114
    endloop
  endfacet
  facet normal 4.90383e-017 -0.94693 -0.321439
    outer loop
      vertex 31.49 7.24431 9.44153
      vertex 8 6.93567 10.3508
      vertex 8 7.24444 9.44114
    endloop
  endfacet
  facet normal 3.34461e-017 -0.896873 -0.442289
    outer loop
      vertex 8 6.49519 11.25
      vertex 8 6.9291 10.3701
      vertex 31.49 6.9291 10.3701
    endloop
  endfacet
  facet normal 3.34467e-017 -0.896873 -0.442289
    outer loop
      vertex 31.49 6.49519 11.25
      vertex 8 6.49519 11.25
      vertex 31.49 6.9291 10.3701
    endloop
  endfacet
  facet normal 2.95065e-017 -0.980785 -0.19509
    outer loop
      vertex 8 7.24444 9.44114
      vertex 8 7.43584 8.47895
      vertex 31.49 7.43584 8.47895
    endloop
  endfacet
  facet normal 2.95062e-017 -0.980785 -0.19509
    outer loop
      vertex 31.49 7.24444 9.44114
      vertex 8 7.24444 9.44114
      vertex 31.49 7.43584 8.47895
    endloop
  endfacet
  facet normal 4.20141e-017 -0.83147 -0.55557
    outer loop
      vertex 29.5666 5.99406 12
      vertex 8 6.49519 11.25
      vertex 31.49 6.49519 11.25
    endloop
  endfacet
  facet normal 3.83961e-016 -0.83147 -0.55557
    outer loop
      vertex 31.49 5.99406 12
      vertex 29.5666 5.99406 12
      vertex 31.49 6.49519 11.25
    endloop
  endfacet
  facet normal 2.48194e-015 -0.83147 -0.55557
    outer loop
      vertex 29.5666 5.99406 12
      vertex 8 6.48384 11.267
      vertex 8 6.49519 11.25
    endloop
  endfacet
  facet normal 1 0 0
    outer loop
      vertex 13.0082 27.504 -11.998
      vertex 13.0082 28.1412 -10.7237
      vertex 13.0082 28.1412 5.27629
    endloop
  endfacet
  facet normal 1 0 0
    outer loop
      vertex 13.0082 27.504 8.72835
      vertex 13.0082 27.504 -11.998
      vertex 13.0082 28.1412 5.27629
    endloop
  endfacet
  facet normal -0.0825793 0.996584 -1.78957e-015
    outer loop
      vertex 29.5841 13.0881 12
      vertex 29.7143 13.0989 11.354
      vertex 28.7438 13.0185 12
    endloop
  endfacet
  facet normal -0.0825793 0.996584 0
    outer loop
      vertex 28.7438 13.0185 12
      vertex 29.7143 13.0989 11.354
      vertex 29.7143 13.0989 -4.64601
    endloop
  endfacet
  facet normal -0.0825793 0.996584 0
    outer loop
      vertex 28.7438 13.0185 12
      vertex 29.7143 13.0989 -4.64601
      vertex 28.7438 13.0185 -6.90767
    endloop
  endfacet
  facet normal 0.490424 0.871484 0
    outer loop
      vertex 21.0799 14.6917 12
      vertex 21.0799 14.6917 -12
      vertex 20.2155 15.1781 12
    endloop
  endfacet
  facet normal 0.490424 0.871484 0
    outer loop
      vertex 20.2155 15.1781 12
      vertex 21.0799 14.6917 -12
      vertex 20.2155 15.1781 -12
    endloop
  endfacet
  facet normal 0.115485 0.993309 0
    outer loop
      vertex 26.7613 13.0512 12
      vertex 26.7613 13.0512 -11.1334
      vertex 25.776 13.1658 12
    endloop
  endfacet
  facet normal 0.115485 0.993309 0
    outer loop
      vertex 25.776 13.1658 12
      vertex 26.7613 13.0512 -11.1334
      vertex 25.776 13.1658 -12
    endloop
  endfacet
  facet normal 0.115485 0.993309 -3.39686e-015
    outer loop
      vertex 26.7613 13.0512 -11.1334
      vertex 26.3128 13.1034 -12
      vertex 25.776 13.1658 -12
    endloop
  endfacet
  facet normal 0.789141 0.614213 -0
    outer loop
      vertex 15.8647 19.1832 -12
      vertex 15.8647 19.1832 12
      vertex 16.474 18.4005 12
    endloop
  endfacet
  facet normal 0.789141 0.614213 -0
    outer loop
      vertex 16.474 18.4005 -12
      vertex 15.8647 19.1832 -12
      vertex 16.474 18.4005 12
    endloop
  endfacet
  facet normal 0.965209 0.26148 -0
    outer loop
      vertex 13.4001 24.5586 -12
      vertex 13.4001 24.5586 12
      vertex 13.6595 23.6012 12
    endloop
  endfacet
  facet normal 0.965209 0.26148 -0
    outer loop
      vertex 13.6595 23.6012 -12
      vertex 13.4001 24.5586 -12
      vertex 13.6595 23.6012 12
    endloop
  endfacet
  facet normal 0.997814 0.0660906 2.84505e-016
    outer loop
      vertex 13.0738 26.5143 12
      vertex 13.0082 27.504 8.72835
      vertex 13.0505 26.8649 12
    endloop
  endfacet
  facet normal 0.997814 0.0660906 0
    outer loop
      vertex 13.0738 26.5143 12
      vertex 13.0738 26.5143 -12
      vertex 13.0082 27.504 8.72835
    endloop
  endfacet
  facet normal 0.997814 0.0660906 0
    outer loop
      vertex 13.0738 26.5143 -12
      vertex 13.0082 27.504 -11.998
      vertex 13.0082 27.504 8.72835
    endloop
  endfacet
  facet normal 0.997814 0.0660906 -7.30135e-013
    outer loop
      vertex 13.0083 27.503 -12
      vertex 13.0082 27.504 -11.998
      vertex 13.0738 26.5143 -12
    endloop
  endfacet
  facet normal 0.309017 0.951057 0
    outer loop
      vertex 23.839 13.5887 12
      vertex 23.839 13.5887 -12
      vertex 22.8956 13.8952 12
    endloop
  endfacet
  facet normal 0.309017 0.951057 0
    outer loop
      vertex 22.8956 13.8952 12
      vertex 23.839 13.5887 -12
      vertex 22.8956 13.8952 -12
    endloop
  endfacet
  facet normal 0.652586 0.757715 0
    outer loop
      vertex 18.5924 16.3168 12
      vertex 18.5924 16.3168 -12
      vertex 17.8408 16.9641 12
    endloop
  endfacet
  facet normal 0.652586 0.757715 0
    outer loop
      vertex 17.8408 16.9641 12
      vertex 18.5924 16.3168 -12
      vertex 17.8408 16.9641 -12
    endloop
  endfacet
  facet normal 0.894729 0.446609 -0
    outer loop
      vertex 14.3649 21.7483 -12
      vertex 14.3649 21.7483 12
      vertex 14.8079 20.8608 12
    endloop
  endfacet
  facet normal 0.894729 0.446609 -0
    outer loop
      vertex 14.8079 20.8608 -12
      vertex 14.3649 21.7483 -12
      vertex 14.8079 20.8608 12
    endloop
  endfacet
  facet normal 0.98038 0.197117 -0
    outer loop
      vertex 13.2046 25.5311 -12
      vertex 13.2046 25.5311 12
      vertex 13.4001 24.5586 12
    endloop
  endfacet
  facet normal 0.98038 0.197117 -0
    outer loop
      vertex 13.4001 24.5586 -12
      vertex 13.2046 25.5311 -12
      vertex 13.4001 24.5586 12
    endloop
  endfacet
  facet normal 0.863256 0.504766 -0
    outer loop
      vertex 14.8079 20.8608 -12
      vertex 14.8079 20.8608 12
      vertex 15.3086 20.0045 12
    endloop
  endfacet
  facet normal 0.863256 0.504766 -0
    outer loop
      vertex 15.3086 20.0045 -12
      vertex 14.8079 20.8608 -12
      vertex 15.3086 20.0045 12
    endloop
  endfacet
  facet normal 0.180881 0.983505 0
    outer loop
      vertex 25.776 13.1658 12
      vertex 25.776 13.1658 -12
      vertex 24.8005 13.3452 12
    endloop
  endfacet
  facet normal 0.180881 0.983505 0
    outer loop
      vertex 24.8005 13.3452 12
      vertex 25.776 13.1658 -12
      vertex 24.8005 13.3452 -12
    endloop
  endfacet
  facet normal 0.746821 0.665025 -0
    outer loop
      vertex 16.474 18.4005 -12
      vertex 16.474 18.4005 12
      vertex 17.1336 17.6597 12
    endloop
  endfacet
  facet normal 0.746821 0.665025 -0
    outer loop
      vertex 17.1336 17.6597 -12
      vertex 16.474 18.4005 -12
      vertex 17.1336 17.6597 12
    endloop
  endfacet
  facet normal 0.945817 0.324699 -0
    outer loop
      vertex 13.6595 23.6012 -12
      vertex 13.6595 23.6012 12
      vertex 13.9815 22.6631 12
    endloop
  endfacet
  facet normal 0.945817 0.324699 -0
    outer loop
      vertex 13.9815 22.6631 -12
      vertex 13.6595 23.6012 -12
      vertex 13.9815 22.6631 12
    endloop
  endfacet
  facet normal 0.991264 0.131892 -0
    outer loop
      vertex 13.0738 26.5143 -12
      vertex 13.0738 26.5143 12
      vertex 13.2046 25.5311 12
    endloop
  endfacet
  facet normal 0.991264 0.131892 -0
    outer loop
      vertex 13.2046 25.5311 -12
      vertex 13.0738 26.5143 -12
      vertex 13.2046 25.5311 12
    endloop
  endfacet
  facet normal 0.828009 0.560715 -0
    outer loop
      vertex 15.3086 20.0045 -12
      vertex 15.3086 20.0045 12
      vertex 15.8647 19.1832 12
    endloop
  endfacet
  facet normal 0.828009 0.560715 -0
    outer loop
      vertex 15.8647 19.1832 -12
      vertex 15.3086 20.0045 -12
      vertex 15.8647 19.1832 12
    endloop
  endfacet
  facet normal 0.245485 0.9694 0
    outer loop
      vertex 24.8005 13.3452 12
      vertex 24.8005 13.3452 -12
      vertex 23.839 13.5887 12
    endloop
  endfacet
  facet normal 0.245485 0.9694 0
    outer loop
      vertex 23.839 13.5887 12
      vertex 24.8005 13.3452 -12
      vertex 23.839 13.5887 -12
    endloop
  endfacet
  facet normal 0.0495838 0.99877 0
    outer loop
      vertex 27.752 13.0021 12
      vertex 27.752 13.0021 -9.08727
      vertex 26.7613 13.0512 12
    endloop
  endfacet
  facet normal 0.0495838 0.99877 0
    outer loop
      vertex 26.7613 13.0512 12
      vertex 27.752 13.0021 -9.08727
      vertex 26.7613 13.0512 -11.1334
    endloop
  endfacet
  facet normal 0.431754 0.901991 0
    outer loop
      vertex 21.9746 14.2634 12
      vertex 21.9746 14.2634 -12
      vertex 21.0799 14.6917 12
    endloop
  endfacet
  facet normal 0.431754 0.901991 0
    outer loop
      vertex 21.0799 14.6917 12
      vertex 21.9746 14.2634 -12
      vertex 21.0799 14.6917 -12
    endloop
  endfacet
  facet normal 0.601081 0.799188 0
    outer loop
      vertex 19.3851 15.7206 12
      vertex 19.3851 15.7206 -12
      vertex 18.5924 16.3168 12
    endloop
  endfacet
  facet normal 0.601081 0.799188 0
    outer loop
      vertex 18.5924 16.3168 12
      vertex 19.3851 15.7206 -12
      vertex 18.5924 16.3168 -12
    endloop
  endfacet
  facet normal 0.701237 0.712928 0
    outer loop
      vertex 17.8408 16.9641 12
      vertex 17.8408 16.9641 -12
      vertex 17.1336 17.6597 12
    endloop
  endfacet
  facet normal 0.701237 0.712928 0
    outer loop
      vertex 17.1336 17.6597 12
      vertex 17.8408 16.9641 -12
      vertex 17.1336 17.6597 -12
    endloop
  endfacet
  facet normal 0.92229 0.386499 -0
    outer loop
      vertex 13.9815 22.6631 -12
      vertex 13.9815 22.6631 12
      vertex 14.3649 21.7483 12
    endloop
  endfacet
  facet normal 0.92229 0.386499 -0
    outer loop
      vertex 14.3649 21.7483 -12
      vertex 13.9815 22.6631 -12
      vertex 14.3649 21.7483 12
    endloop
  endfacet
  facet normal -0.0165339 0.999863 0
    outer loop
      vertex 28.7438 13.0185 12
      vertex 28.7438 13.0185 -6.90767
      vertex 27.752 13.0021 12
    endloop
  endfacet
  facet normal -0.0165339 0.999863 0
    outer loop
      vertex 27.752 13.0021 12
      vertex 28.7438 13.0185 -6.90767
      vertex 27.752 13.0021 -9.08727
    endloop
  endfacet
  facet normal 0.371197 0.928554 0
    outer loop
      vertex 22.8956 13.8952 12
      vertex 22.8956 13.8952 -12
      vertex 21.9746 14.2634 12
    endloop
  endfacet
  facet normal 0.371197 0.928554 0
    outer loop
      vertex 21.9746 14.2634 12
      vertex 22.8956 13.8952 -12
      vertex 21.9746 14.2634 -12
    endloop
  endfacet
  facet normal 0.546948 0.837166 0
    outer loop
      vertex 20.2155 15.1781 12
      vertex 20.2155 15.1781 -12
      vertex 19.3851 15.7206 12
    endloop
  endfacet
  facet normal 0.546948 0.837166 0
    outer loop
      vertex 19.3851 15.7206 12
      vertex 20.2155 15.1781 -12
      vertex 19.3851 15.7206 -12
    endloop
  endfacet
  facet normal 0 -1 0
    outer loop
      vertex -9.5 8 -12
      vertex -5.99406 8 -12
      vertex -6.49519 8 -11.25
    endloop
  endfacet
  facet normal 0 -1 -0
    outer loop
      vertex -6.9291 8 -10.3701
      vertex -9.5 8 -12
      vertex -6.49519 8 -11.25
    endloop
  endfacet
  facet normal 0 -1 -0
    outer loop
      vertex -7.24444 8 -9.44114
      vertex -9.5 8 -12
      vertex -6.9291 8 -10.3701
    endloop
  endfacet
  facet normal 0 -1 0
    outer loop
      vertex -3.75 8 -1.00481
      vertex -9.47478 8 4.10088
      vertex -9.5 8 4
    endloop
  endfacet
  facet normal 0 -1 0
    outer loop
      vertex -1.94114 8 -0.255556
      vertex -7.5 8 12
      vertex -9.47478 8 4.10088
    endloop
  endfacet
  facet normal 0 -1 0
    outer loop
      vertex -7.43584 8 -6.52105
      vertex -9.5 8 -12
      vertex -7.5 8 -7.5
    endloop
  endfacet
  facet normal -0 -1 0
    outer loop
      vertex -7.24444 8 -5.55886
      vertex -9.5 8 4
      vertex -7.43584 8 -6.52105
    endloop
  endfacet
  facet normal -0 -1 0
    outer loop
      vertex -6.9291 8 -4.62987
      vertex -9.5 8 4
      vertex -7.24444 8 -5.55886
    endloop
  endfacet
  facet normal -0 -1 0
    outer loop
      vertex -6.92006 8 -4.61154
      vertex -9.5 8 4
      vertex -6.9291 8 -4.62987
    endloop
  endfacet
  facet normal -0 -1 0
    outer loop
      vertex -6.49519 8 -3.75
      vertex -9.5 8 4
      vertex -6.92006 8 -4.61154
    endloop
  endfacet
  facet normal -0 -1 0
    outer loop
      vertex -5.95015 8 -2.93429
      vertex -9.5 8 4
      vertex -6.49519 8 -3.75
    endloop
  endfacet
  facet normal 0 -1 0
    outer loop
      vertex -3.47197e-015 8 -2.55351e-015
      vertex 8 8 12
      vertex -7.5 8 12
    endloop
  endfacet
  facet normal -0 -1 0
    outer loop
      vertex -4.56571 8 -1.54985
      vertex -9.5 8 4
      vertex -5.3033 8 -2.1967
    endloop
  endfacet
  facet normal -0 -1 0
    outer loop
      vertex -3.75 8 -1.00481
      vertex -9.5 8 4
      vertex -4.56571 8 -1.54985
    endloop
  endfacet
  facet normal -0 -1 0
    outer loop
      vertex -2.88846 8 -0.579943
      vertex -9.47478 8 4.10088
      vertex -3.75 8 -1.00481
    endloop
  endfacet
  facet normal -0 -1 0
    outer loop
      vertex -2.87013 8 -0.570904
      vertex -9.47478 8 4.10088
      vertex -2.88846 8 -0.579943
    endloop
  endfacet
  facet normal -0 -1 0
    outer loop
      vertex -1.94114 8 -0.255556
      vertex -9.47478 8 4.10088
      vertex -2.87013 8 -0.570904
    endloop
  endfacet
  facet normal -0 -1 0
    outer loop
      vertex -0.978946 8 -0.0641635
      vertex -7.5 8 12
      vertex -1.94114 8 -0.255556
    endloop
  endfacet
  facet normal -0 -1 0
    outer loop
      vertex -3.47197e-015 8 -2.55351e-015
      vertex -7.5 8 12
      vertex -0.978946 8 -0.0641635
    endloop
  endfacet
  facet normal 0 -1 0
    outer loop
      vertex 0.978946 8 -0.0641635
      vertex 8 8 12
      vertex -3.47197e-015 8 -2.55351e-015
    endloop
  endfacet
  facet normal 0 -1 0
    outer loop
      vertex 1.94114 8 -0.255556
      vertex 8 8 12
      vertex 0.978946 8 -0.0641635
    endloop
  endfacet
  facet normal 0 -1 0
    outer loop
      vertex 2.87013 8 -0.570904
      vertex 8 8 12
      vertex 1.94114 8 -0.255556
    endloop
  endfacet
  facet normal 0 -1 0
    outer loop
      vertex 3.75 8 -1.00481
      vertex 8 8 12
      vertex 2.87013 8 -0.570904
    endloop
  endfacet
  facet normal 0 -1 0
    outer loop
      vertex 4.56571 8 -1.54985
      vertex 8 8 12
      vertex 3.75 8 -1.00481
    endloop
  endfacet
  facet normal 0 -1 0
    outer loop
      vertex 5.3033 8 -2.1967
      vertex 8 8 12
      vertex 4.56571 8 -1.54985
    endloop
  endfacet
  facet normal 0 -1 0
    outer loop
      vertex 5.95015 8 -2.93429
      vertex 8 8 12
      vertex 5.3033 8 -2.1967
    endloop
  endfacet
  facet normal 0 -1 0
    outer loop
      vertex 6.49519 8 -3.75
      vertex 8 8 12
      vertex 5.95015 8 -2.93429
    endloop
  endfacet
  facet normal 0 -1 0
    outer loop
      vertex 6.9291 8 -4.62987
      vertex 8 8 12
      vertex 6.49519 8 -3.75
    endloop
  endfacet
  facet normal 0 -1 0
    outer loop
      vertex 7.24444 8 -5.55886
      vertex 8 8 12
      vertex 6.9291 8 -4.62987
    endloop
  endfacet
  facet normal 0 -1 0
    outer loop
      vertex 7.43584 8 -6.52105
      vertex 8 8 -12
      vertex 8 8 12
    endloop
  endfacet
  facet normal 0 -1 0
    outer loop
      vertex 7.5 8 -7.5
      vertex 8 8 -12
      vertex 7.43584 8 -6.52105
    endloop
  endfacet
  facet normal 0 -1 0
    outer loop
      vertex 7.43584 8 -8.47895
      vertex 8 8 -12
      vertex 7.5 8 -7.5
    endloop
  endfacet
  facet normal 0 -1 0
    outer loop
      vertex 7.24444 8 -9.44114
      vertex 8 8 -12
      vertex 7.43584 8 -8.47895
    endloop
  endfacet
  facet normal 0 -1 0
    outer loop
      vertex 6.9291 8 -10.3701
      vertex 8 8 -12
      vertex 7.24444 8 -9.44114
    endloop
  endfacet
  facet normal 0 -1 0
    outer loop
      vertex 6.92006 8 -10.3885
      vertex 8 8 -12
      vertex 6.9291 8 -10.3701
    endloop
  endfacet
  facet normal 0 -1 0
    outer loop
      vertex 6.49519 8 -11.25
      vertex 8 8 -12
      vertex 6.92006 8 -10.3885
    endloop
  endfacet
  facet normal 0 -1 -0
    outer loop
      vertex 6.48384 8 -11.267
      vertex 5.99406 8 -12
      vertex 8 8 -12
    endloop
  endfacet
  facet normal 0 -1 0
    outer loop
      vertex 6.48384 8 -11.267
      vertex 8 8 -12
      vertex 6.49519 8 -11.25
    endloop
  endfacet
  facet normal 0 -1 0
    outer loop
      vertex 7.43584 8 -6.52105
      vertex 8 8 12
      vertex 7.24444 8 -5.55886
    endloop
  endfacet
  facet normal -0 -1 0
    outer loop
      vertex -5.3033 8 -2.1967
      vertex -9.5 8 4
      vertex -5.95015 8 -2.93429
    endloop
  endfacet
  facet normal 0 -1 -0
    outer loop
      vertex -7.5 8 -7.5
      vertex -9.5 8 -12
      vertex -7.43584 8 -8.47895
    endloop
  endfacet
  facet normal -0 -1 0
    outer loop
      vertex -7.43584 8 -6.52105
      vertex -9.5 8 4
      vertex -9.5 8 -12
    endloop
  endfacet
  facet normal 0 -1 -0
    outer loop
      vertex -7.43584 8 -8.47895
      vertex -9.5 8 -12
      vertex -7.24444 8 -9.44114
    endloop
  endfacet
  facet normal -1 -0 0
    outer loop
      vertex 8 -5.99406 12
      vertex 8 -6.49519 11.25
      vertex 8 -11.5 12
    endloop
  endfacet
  facet normal -1 0 0
    outer loop
      vertex 8 -11.5 12
      vertex 8 -6.49519 11.25
      vertex 8 -6.92006 10.3885
    endloop
  endfacet
  facet normal -1 -0 0
    outer loop
      vertex 8 -6.92006 10.3885
      vertex 8 -6.9291 10.3701
      vertex 8 -11.5 12
    endloop
  endfacet
  facet normal -1 -0 0
    outer loop
      vertex 8 -6.9291 10.3701
      vertex 8 -7.24444 9.44114
      vertex 8 -11.5 12
    endloop
  endfacet
  facet normal -1 -0 0
    outer loop
      vertex 8 -7.24444 9.44114
      vertex 8 -7.43584 8.47895
      vertex 8 -11.5 12
    endloop
  endfacet
  facet normal -1 -0 0
    outer loop
      vertex 8 -7.43584 8.47895
      vertex 8 -7.5 7.5
      vertex 8 -11.5 12
    endloop
  endfacet
  facet normal -1 -0 -0
    outer loop
      vertex 8 -7.5 7.5
      vertex 8 -7.43584 6.52105
      vertex 8 -11.5 12
    endloop
  endfacet
  facet normal -1 -0 -0
    outer loop
      vertex 8 -7.43584 6.52105
      vertex 8 -7.24444 5.55886
      vertex 8 -11.5 12
    endloop
  endfacet
  facet normal -1 -0 0
    outer loop
      vertex 8 -7.24444 5.55886
      vertex 8 -11.5 -4
      vertex 8 -11.5 12
    endloop
  endfacet
  facet normal -1 -0 0
    outer loop
      vertex 8 -6.9291 4.62987
      vertex 8 -11.5 -4
      vertex 8 -7.24444 5.55886
    endloop
  endfacet
  facet normal -1 -0 0
    outer loop
      vertex 8 -6.49519 3.75
      vertex 8 -11.5 -4
      vertex 8 -6.9291 4.62987
    endloop
  endfacet
  facet normal -1 -0 0
    outer loop
      vertex 8 -5.95015 2.93429
      vertex 8 -11.5 -4
      vertex 8 -6.49519 3.75
    endloop
  endfacet
  facet normal -1 -0 0
    outer loop
      vertex 8 -5.31678 2.21207
      vertex 8 -11.5 -4
      vertex 8 -5.95015 2.93429
    endloop
  endfacet
  facet normal -1 -0 0
    outer loop
      vertex 8 -4.56571 1.54985
      vertex 8 -11.5 -4
      vertex 8 -5.3033 2.1967
    endloop
  endfacet
  facet normal -1 -0 0
    outer loop
      vertex 8 -3.75 1.00481
      vertex 8 -11.5 -4
      vertex 8 -4.56571 1.54985
    endloop
  endfacet
  facet normal -1 -0 0
    outer loop
      vertex 8 -2.87013 0.570904
      vertex 8 -11.5 -4
      vertex 8 -3.75 1.00481
    endloop
  endfacet
  facet normal -1 -0 0
    outer loop
      vertex 8 -1.94114 0.255556
      vertex 8 -7.58173 -11.8365
      vertex 8 -2.87013 0.570904
    endloop
  endfacet
  facet normal -1 -0 0
    outer loop
      vertex 8 -0.978946 0.0641635
      vertex 8 -7.58173 -11.8365
      vertex 8 -1.94114 0.255556
    endloop
  endfacet
  facet normal -1 -0 0
    outer loop
      vertex 8 0 -2.55351e-015
      vertex 8 -7.58173 -11.8365
      vertex 8 -0.978946 0.0641635
    endloop
  endfacet
  facet normal -1 0 -0
    outer loop
      vertex 8 0.978946 0.0641635
      vertex 8 8 -12
      vertex 8 0 -2.55351e-015
    endloop
  endfacet
  facet normal -1 0 -0
    outer loop
      vertex 8 1.94114 0.255556
      vertex 8 8 -12
      vertex 8 0.978946 0.0641635
    endloop
  endfacet
  facet normal -1 0 -0
    outer loop
      vertex 8 2.87013 0.570904
      vertex 8 8 -12
      vertex 8 1.94114 0.255556
    endloop
  endfacet
  facet normal -1 0 -0
    outer loop
      vertex 8 3.75 1.00481
      vertex 8 8 -12
      vertex 8 2.87013 0.570904
    endloop
  endfacet
  facet normal -1 0 -0
    outer loop
      vertex 8 4.56571 1.54985
      vertex 8 8 -12
      vertex 8 3.75 1.00481
    endloop
  endfacet
  facet normal -1 0 -0
    outer loop
      vertex 8 5.3033 2.1967
      vertex 8 8 -12
      vertex 8 4.56571 1.54985
    endloop
  endfacet
  facet normal -1 0 -0
    outer loop
      vertex 8 5.31678 2.21207
      vertex 8 8 -12
      vertex 8 5.3033 2.1967
    endloop
  endfacet
  facet normal -1 0 -0
    outer loop
      vertex 8 5.95015 2.93429
      vertex 8 8 -12
      vertex 8 5.31678 2.21207
    endloop
  endfacet
  facet normal -1 0 -0
    outer loop
      vertex 8 6.49519 3.75
      vertex 8 8 -12
      vertex 8 5.95015 2.93429
    endloop
  endfacet
  facet normal -1 0 -0
    outer loop
      vertex 8 6.9291 4.62987
      vertex 8 8 -12
      vertex 8 6.49519 3.75
    endloop
  endfacet
  facet normal -1 0 -0
    outer loop
      vertex 8 7.24444 5.55886
      vertex 8 8 -12
      vertex 8 6.9291 4.62987
    endloop
  endfacet
  facet normal -1 0 -0
    outer loop
      vertex 8 7.5 7.5
      vertex 8 8 12
      vertex 8 7.43584 6.52105
    endloop
  endfacet
  facet normal -1 0 0
    outer loop
      vertex 8 7.43584 8.47895
      vertex 8 8 12
      vertex 8 7.5 7.5
    endloop
  endfacet
  facet normal -1 0 0
    outer loop
      vertex 8 7.24444 9.44114
      vertex 8 8 12
      vertex 8 7.43584 8.47895
    endloop
  endfacet
  facet normal -1 0 0
    outer loop
      vertex 8 6.93567 10.3508
      vertex 8 8 12
      vertex 8 7.24444 9.44114
    endloop
  endfacet
  facet normal -1 0 0
    outer loop
      vertex 8 6.9291 10.3701
      vertex 8 8 12
      vertex 8 6.93567 10.3508
    endloop
  endfacet
  facet normal -1 0 0
    outer loop
      vertex 8 6.48384 11.267
      vertex 8 5.99406 12
      vertex 8 8 12
    endloop
  endfacet
  facet normal -1 0 0
    outer loop
      vertex 8 6.49519 11.25
      vertex 8 6.48384 11.267
      vertex 8 8 12
    endloop
  endfacet
  facet normal -1 0 0
    outer loop
      vertex 8 6.49519 11.25
      vertex 8 8 12
      vertex 8 6.9291 10.3701
    endloop
  endfacet
  facet normal -1 0 0
    outer loop
      vertex 8 7.43584 6.52105
      vertex 8 8 12
      vertex 8 8 -12
    endloop
  endfacet
  facet normal -1 0 -0
    outer loop
      vertex 8 7.43584 6.52105
      vertex 8 8 -12
      vertex 8 7.24444 5.55886
    endloop
  endfacet
  facet normal -1 0 -0
    outer loop
      vertex 8 0 -2.55351e-015
      vertex 8 8 -12
      vertex 8 -7.5 -12
    endloop
  endfacet
  facet normal -1 -0 0
    outer loop
      vertex 8 -5.3033 2.1967
      vertex 8 -11.5 -4
      vertex 8 -5.31678 2.21207
    endloop
  endfacet
  facet normal -1 0 0
    outer loop
      vertex 8 0 -2.55351e-015
      vertex 8 -7.5 -12
      vertex 8 -7.58173 -11.8365
    endloop
  endfacet
  facet normal -1 0 0
    outer loop
      vertex 8 -2.87013 0.570904
      vertex 8 -7.58173 -11.8365
      vertex 8 -11.5 -4
    endloop
  endfacet
  facet normal 1 -0 0
    outer loop
      vertex 11.0581 12.5214 12
      vertex 11.0581 13.4786 -12
      vertex 11.0581 13.4786 12
    endloop
  endfacet
  facet normal 1 0 0
    outer loop
      vertex 11.0581 12.5214 12
      vertex 11.0581 12.5214 -12
      vertex 11.0581 13.4786 -12
    endloop
  endfacet
  facet normal 0.885456 0.464723 -3.43964e-017
    outer loop
      vertex 11.0581 12.5214 -12
      vertex 11.0581 12.5214 12
      vertex 11.202 12.2471 12
    endloop
  endfacet
  facet normal 0.885456 0.464723 -6.58017e-017
    outer loop
      vertex 11.3591 11.948 -12
      vertex 11.0581 12.5214 -12
      vertex 11.202 12.2471 12
    endloop
  endfacet
  facet normal -0.354605 -0.935016 1.3841e-016
    outer loop
      vertex 13.2411 14.9854 12
      vertex 14.1361 14.646 -12
      vertex 14.1361 14.646 12
    endloop
  endfacet
  facet normal -0.354605 -0.935016 1.3841e-016
    outer loop
      vertex 13.2411 14.9854 12
      vertex 13.2411 14.9854 -12
      vertex 14.1361 14.646 -12
    endloop
  endfacet
  facet normal 0.120537 -0.992709 1.4695e-016
    outer loop
      vertex 12.2908 14.87 12
      vertex 13.2411 14.9854 -12
      vertex 13.2411 14.9854 12
    endloop
  endfacet
  facet normal 0.120537 -0.992709 1.4695e-016
    outer loop
      vertex 12.2908 14.87 12
      vertex 12.2908 14.87 -12
      vertex 13.2411 14.9854 -12
    endloop
  endfacet
  facet normal 0.120537 0.992709 -1.4695e-016
    outer loop
      vertex 13.2411 11.0146 12
      vertex 13.2411 11.0146 -12
      vertex 12.2908 11.13 12
    endloop
  endfacet
  facet normal 0.120537 0.992709 -1.4695e-016
    outer loop
      vertex 12.2908 11.13 12
      vertex 13.2411 11.0146 -12
      vertex 12.2908 11.13 -12
    endloop
  endfacet
  facet normal -0.970942 -0.239316 -3.17735e-017
    outer loop
      vertex 14.845 13.6287 12
      vertex 14.7709 13.9294 -12
      vertex 14.9259 13.3007 -12
    endloop
  endfacet
  facet normal -0.970942 -0.239316 3.54258e-017
    outer loop
      vertex 14.845 13.6287 12
      vertex 14.7709 13.9294 12
      vertex 14.7709 13.9294 -12
    endloop
  endfacet
  facet normal 0.885456 -0.464723 6.87929e-017
    outer loop
      vertex 11.0581 13.4786 12
      vertex 11.503 14.3262 -12
      vertex 11.503 14.3262 12
    endloop
  endfacet
  facet normal 0.885456 -0.464723 6.87928e-017
    outer loop
      vertex 11.0581 13.4786 12
      vertex 11.0581 13.4786 -12
      vertex 11.503 14.3262 -12
    endloop
  endfacet
  facet normal 0.568065 -0.822984 1.21826e-016
    outer loop
      vertex 11.503 14.3262 12
      vertex 12.2908 14.87 -12
      vertex 12.2908 14.87 12
    endloop
  endfacet
  facet normal 0.568065 -0.822984 1.21826e-016
    outer loop
      vertex 11.503 14.3262 12
      vertex 11.503 14.3262 -12
      vertex 12.2908 14.87 -12
    endloop
  endfacet
  facet normal -0.748511 0.663123 -9.81619e-017
    outer loop
      vertex 14.7709 12.0706 12
      vertex 14.7709 12.0706 -12
      vertex 14.1361 11.354 12
    endloop
  endfacet
  facet normal -0.748511 0.663123 -9.81619e-017
    outer loop
      vertex 14.1361 11.354 12
      vertex 14.7709 12.0706 -12
      vertex 14.1361 11.354 -12
    endloop
  endfacet
  facet normal -0.970942 -0.239316 1.77129e-017
    outer loop
      vertex 15 13 -12
      vertex 15 13 12
      vertex 14.9259 13.3007 -12
    endloop
  endfacet
  facet normal -0.970942 -0.239316 -1.27623e-017
    outer loop
      vertex 14.9259 13.3007 -12
      vertex 15 13 12
      vertex 14.845 13.6287 12
    endloop
  endfacet
  facet normal 0.885456 0.464723 -6.87927e-017
    outer loop
      vertex 11.3591 11.948 -12
      vertex 11.503 11.6738 12
      vertex 11.503 11.6738 -12
    endloop
  endfacet
  facet normal 0.885456 0.464723 -8.37478e-017
    outer loop
      vertex 11.3591 11.948 -12
      vertex 11.202 12.2471 12
      vertex 11.503 11.6738 12
    endloop
  endfacet
  facet normal 0.568065 0.822984 -1.21826e-016
    outer loop
      vertex 12.2908 11.13 12
      vertex 12.2908 11.13 -12
      vertex 11.503 11.6738 12
    endloop
  endfacet
  facet normal 0.568065 0.822984 -1.21826e-016
    outer loop
      vertex 11.503 11.6738 12
      vertex 12.2908 11.13 -12
      vertex 11.503 11.6738 -12
    endloop
  endfacet
  facet normal -0.354605 0.935016 -1.3841e-016
    outer loop
      vertex 14.1361 11.354 12
      vertex 14.1361 11.354 -12
      vertex 13.2411 11.0146 12
    endloop
  endfacet
  facet normal -0.354605 0.935016 -1.3841e-016
    outer loop
      vertex 13.2411 11.0146 12
      vertex 14.1361 11.354 -12
      vertex 13.2411 11.0146 -12
    endloop
  endfacet
  facet normal -0.970942 0.239316 -1.77129e-017
    outer loop
      vertex 15 13 12
      vertex 15 13 -12
      vertex 14.9259 12.6993 12
    endloop
  endfacet
  facet normal -0.970942 0.239316 3.52069e-018
    outer loop
      vertex 14.9259 12.6993 12
      vertex 15 13 -12
      vertex 14.845 12.3713 -12
    endloop
  endfacet
  facet normal -0.970942 0.239316 4.1015e-017
    outer loop
      vertex 14.9259 12.6993 12
      vertex 14.845 12.3713 -12
      vertex 14.7709 12.0706 12
    endloop
  endfacet
  facet normal -0.970942 0.239316 -3.54258e-017
    outer loop
      vertex 14.7709 12.0706 12
      vertex 14.845 12.3713 -12
      vertex 14.7709 12.0706 -12
    endloop
  endfacet
  facet normal -0.748511 -0.663123 9.81619e-017
    outer loop
      vertex 14.7709 13.9294 12
      vertex 14.1361 14.646 -12
      vertex 14.7709 13.9294 -12
    endloop
  endfacet
  facet normal -0.748511 -0.663123 9.81616e-017
    outer loop
      vertex 14.7709 13.9294 12
      vertex 14.1361 14.646 12
      vertex 14.1361 14.646 -12
    endloop
  endfacet
endsolid OpenSCAD_Model
