solid OpenSCAD_Model
  facet normal -1 7.62385e-017 0
    outer loop
      vertex -11.5 8 0
      vertex -11.5 8 16
      vertex -11.5 31.3 0
    endloop
  endfacet
  facet normal -1 7.62385e-017 0
    outer loop
      vertex -11.5 31.3 0
      vertex -11.5 8 16
      vertex -11.5 31.3 16
    endloop
  endfacet
  facet normal 0 -1 0
    outer loop
      vertex 31.49 -11.5 8
      vertex 8 -11.5 24
      vertex 8 -11.5 8
    endloop
  endfacet
  facet normal 0 -1 0
    outer loop
      vertex 31.49 -11.5 8
      vertex 31.49 -11.5 24
      vertex 8 -11.5 24
    endloop
  endfacet
  facet normal 0 0 -1
    outer loop
      vertex -11.5 8 0
      vertex -5.9197 19.9118 0
      vertex -5.9197 8 0
    endloop
  endfacet
  facet normal 0 0 -1
    outer loop
      vertex -5.9197 19.9118 0
      vertex -11.5 31.3 0
      vertex -5.9197 31.3 0
    endloop
  endfacet
  facet normal 0 0 -1
    outer loop
      vertex -11.5 8 0
      vertex -11.5 31.3 0
      vertex -5.9197 19.9118 0
    endloop
  endfacet
  facet normal 0 0 -1
    outer loop
      vertex 5.9197 8 0
      vertex 11.1981 12.1322 0
      vertex 8 8 0
    endloop
  endfacet
  facet normal 0 0 -1
    outer loop
      vertex 5.9197 19.0882 0
      vertex 14.2968 21.899 0
      vertex 12.555 14.9499 0
    endloop
  endfacet
  facet normal 0 0 -1
    outer loop
      vertex 5.9197 19.0882 0
      vertex 5.9197 31.3 0
      vertex 13.3278 24.8813 0
    endloop
  endfacet
  facet normal 0 0 -1
    outer loop
      vertex 5.9197 31.3 0
      vertex 11.5 31.3 0
      vertex 13 28 0
    endloop
  endfacet
  facet normal 0 0 -1
    outer loop
      vertex 11.5 31.3 0
      vertex 13.1414 29.3457 0
      vertex 13 28 0
    endloop
  endfacet
  facet normal 0 0 -1
    outer loop
      vertex 5.9197 31.3 0
      vertex 13 28 0
      vertex 13.3278 24.8813 0
    endloop
  endfacet
  facet normal 0 -0 -1
    outer loop
      vertex 13.3278 24.8813 0
      vertex 14.2968 21.899 0
      vertex 5.9197 19.0882 0
    endloop
  endfacet
  facet normal -0 0 -1
    outer loop
      vertex 11.6371 14.2179 0
      vertex 11.1981 13.8678 0
      vertex 5.9197 19.0882 0
    endloop
  endfacet
  facet normal 0 0 -1
    outer loop
      vertex 14.247 14.5637 0
      vertex 15.8647 19.1832 0
      vertex 17.963 16.8528 0
    endloop
  endfacet
  facet normal 0 0 -1
    outer loop
      vertex 14.247 11.4363 0
      vertex 8 8 0
      vertex 12.555 11.0501 0
    endloop
  endfacet
  facet normal -0 -0 -1
    outer loop
      vertex 26.4321 13.0822 0
      vertex 31.49 7.5 0
      vertex 23.3647 13.7342 0
    endloop
  endfacet
  facet normal 0 0 -1
    outer loop
      vertex 26.4321 13.0822 0
      vertex 26.8014 13.0822 0
      vertex 31.49 7.5 0
    endloop
  endfacet
  facet normal 0 0 -1
    outer loop
      vertex 31.49 -7.5 0
      vertex 8 -7.5 0
      vertex 14.247 11.4363 0
    endloop
  endfacet
  facet normal 0 0 -1
    outer loop
      vertex 31.49 -7.5 0
      vertex 14.247 11.4363 0
      vertex 31.49 7.5 0
    endloop
  endfacet
  facet normal 0 0 -1
    outer loop
      vertex 5.9197 8 0
      vertex 5.9197 19.0882 0
      vertex 11.1981 13.8678 0
    endloop
  endfacet
  facet normal 0 0 -1
    outer loop
      vertex 5.9197 8 0
      vertex 11.1981 13.8678 0
      vertex 11.1981 12.1322 0
    endloop
  endfacet
  facet normal 0 -0 -1
    outer loop
      vertex 17.963 16.8528 0
      vertex 20.5 15.0096 0
      vertex 15 13 0
    endloop
  endfacet
  facet normal 0 0 -1
    outer loop
      vertex 8 8 0
      vertex 11.1981 12.1322 0
      vertex 12.555 11.0501 0
    endloop
  endfacet
  facet normal 0 0 -1
    outer loop
      vertex 8 8 0
      vertex 14.247 11.4363 0
      vertex 8 -7.5 0
    endloop
  endfacet
  facet normal 0 -0 -1
    outer loop
      vertex 23.3647 13.7342 0
      vertex 31.49 7.5 0
      vertex 14.247 11.4363 0
    endloop
  endfacet
  facet normal -0 0 -1
    outer loop
      vertex 23.3647 13.7342 0
      vertex 14.4906 11.9422 0
      vertex 20.5 15.0096 0
    endloop
  endfacet
  facet normal 0 0 -1
    outer loop
      vertex 14.247 11.4363 0
      vertex 14.4906 11.9422 0
      vertex 23.3647 13.7342 0
    endloop
  endfacet
  facet normal 0 0 -1
    outer loop
      vertex 14.4906 11.9422 0
      vertex 15 13 0
      vertex 20.5 15.0096 0
    endloop
  endfacet
  facet normal 0 0 -1
    outer loop
      vertex 17.963 16.8528 0
      vertex 15 13 0
      vertex 14.7564 13.5059 0
    endloop
  endfacet
  facet normal 0 0 -1
    outer loop
      vertex 17.963 16.8528 0
      vertex 14.7564 13.5059 0
      vertex 14.247 14.5637 0
    endloop
  endfacet
  facet normal 0 0 -1
    outer loop
      vertex 15.8647 19.1832 0
      vertex 14.247 14.5637 0
      vertex 12.555 14.9499 0
    endloop
  endfacet
  facet normal -0 0 -1
    outer loop
      vertex 15.8647 19.1832 0
      vertex 12.555 14.9499 0
      vertex 14.2968 21.899 0
    endloop
  endfacet
  facet normal -0 0 -1
    outer loop
      vertex 12.555 14.9499 0
      vertex 11.6371 14.2179 0
      vertex 5.9197 19.0882 0
    endloop
  endfacet
  facet normal 1.05685e-018 -0.894427 -0.447214
    outer loop
      vertex 31.49 -7.5 0
      vertex 31.49 -11.5 8
      vertex 8 -7.58173 0.16347
    endloop
  endfacet
  facet normal 0 -0.894427 -0.447214
    outer loop
      vertex 8 -7.5 0
      vertex 31.49 -7.5 0
      vertex 8 -7.58173 0.16347
    endloop
  endfacet
  facet normal 1 -2.36848e-016 -5.62513e-016
    outer loop
      vertex 31.49 -11.5 8
      vertex 31.49 -7.5 0
      vertex 31.49 7.5 0
    endloop
  endfacet
  facet normal -0.0474465 0.998874 0
    outer loop
      vertex -11.5 31.3 0
      vertex -11.5 31.3 16
      vertex -7.5 31.49 8
    endloop
  endfacet
  facet normal -0.0474465 0.998874 0
    outer loop
      vertex -7.5 31.49 8
      vertex -11.5 31.3 16
      vertex -7.5 31.49 24
    endloop
  endfacet
  facet normal -0.894427 6.81898e-017 0.447214
    outer loop
      vertex -11.5 8 16
      vertex -11.4496 8 16.1009
      vertex -11.5 31.3 16
    endloop
  endfacet
  facet normal -0.894427 6.81828e-017 0.447214
    outer loop
      vertex -11.5 31.3 16
      vertex -11.4496 8 16.1009
      vertex -7.5 31.49 24
    endloop
  endfacet
  facet normal 0.612846 0.735476 0.288955
    outer loop
      vertex 7.5 31.49 24
      vertex 13 28 21.2181
      vertex 11.5 31.3 16
    endloop
  endfacet
  facet normal 0.612846 0.735476 0.288955
    outer loop
      vertex 7.5 31.49 24
      vertex 13.1259 26.8021 24
      vertex 13 28 21.2181
    endloop
  endfacet
  facet normal 0.612846 0.735476 0.288955
    outer loop
      vertex 11.5 31.3 16
      vertex 13 28 21.2181
      vertex 13.1727 29.6432 16.6694
    endloop
  endfacet
  facet normal 0.612846 0.735476 0.288955
    outer loop
      vertex 31.49 11.5 24
      vertex 29.8353 13.139 23.3378
      vertex 29.5865 13.0861 24
    endloop
  endfacet
  facet normal -0 -0.894427 -0.447214
    outer loop
      vertex 31.49 -11.5 8
      vertex 8 -11.5 8
      vertex 8 -7.58173 0.16347
    endloop
  endfacet
  facet normal 1 0 0
    outer loop
      vertex 31.49 7.5 16
      vertex 31.49 6.73259 16.3231
      vertex 31.49 6.49519 15.75
    endloop
  endfacet
  facet normal 1 0 0
    outer loop
      vertex 31.49 7.5 16
      vertex 31.49 5.3033 14.1967
      vertex 31.49 7.5 0
    endloop
  endfacet
  facet normal 1 0 0
    outer loop
      vertex 31.49 7.5 16
      vertex 31.49 6.49519 15.75
      vertex 31.49 6.49469 15.7494
    endloop
  endfacet
  facet normal 1 0 0
    outer loop
      vertex 31.49 7.5 16
      vertex 31.49 6.49469 15.7494
      vertex 31.49 5.3033 14.1967
    endloop
  endfacet
  facet normal 1 0 0
    outer loop
      vertex 31.49 7.5 0
      vertex 31.49 5.3033 14.1967
      vertex 31.49 3.75 13.0048
    endloop
  endfacet
  facet normal 1 0 0
    outer loop
      vertex 31.49 7.5 0
      vertex 31.49 3.75 13.0048
      vertex 31.49 1.94114 12.2556
    endloop
  endfacet
  facet normal 1 0 0
    outer loop
      vertex 31.49 7.5 0
      vertex 31.49 -1.94114 12.2556
      vertex 31.49 -11.5 8
    endloop
  endfacet
  facet normal 1 0 0
    outer loop
      vertex 31.49 1.94114 12.2556
      vertex 31.49 0 12
      vertex 31.49 7.5 0
    endloop
  endfacet
  facet normal 1 0 0
    outer loop
      vertex 31.49 0 12
      vertex 31.49 -1.94114 12.2556
      vertex 31.49 7.5 0
    endloop
  endfacet
  facet normal 1 0 0
    outer loop
      vertex 31.49 -1.94114 12.2556
      vertex 31.49 -3.75 13.0048
      vertex 31.49 -11.5 8
    endloop
  endfacet
  facet normal 1 0 0
    outer loop
      vertex 31.49 -3.75 13.0048
      vertex 31.49 -5.3033 14.1967
      vertex 31.49 -11.5 8
    endloop
  endfacet
  facet normal 1 0 0
    outer loop
      vertex 31.49 -5.3033 14.1967
      vertex 31.49 -6.49469 15.7494
      vertex 31.49 -11.5 8
    endloop
  endfacet
  facet normal 1 0 0
    outer loop
      vertex 31.49 -6.49469 15.7494
      vertex 31.49 -6.49519 15.75
      vertex 31.49 -11.5 8
    endloop
  endfacet
  facet normal 1 0 0
    outer loop
      vertex 31.49 -7.24444 17.5589
      vertex 31.49 -11.5 24
      vertex 31.49 -11.5 8
    endloop
  endfacet
  facet normal 1 0 0
    outer loop
      vertex 31.49 -7.24444 17.5589
      vertex 31.49 -11.5 8
      vertex 31.49 -6.49519 15.75
    endloop
  endfacet
  facet normal 1 0 0
    outer loop
      vertex 31.49 -7.5 19.5
      vertex 31.49 -11.5 24
      vertex 31.49 -7.24444 17.5589
    endloop
  endfacet
  facet normal 1 0 0
    outer loop
      vertex 31.49 -7.24444 21.4411
      vertex 31.49 -11.5 24
      vertex 31.49 -7.5 19.5
    endloop
  endfacet
  facet normal 1 0 0
    outer loop
      vertex 31.49 -6.97391 22.0943
      vertex 31.49 -11.5 24
      vertex 31.49 -7.24444 21.4411
    endloop
  endfacet
  facet normal 0 0 1
    outer loop
      vertex 7.5 31.49 24
      vertex -7.5 31.49 24
      vertex 11.1981 13.8678 24
    endloop
  endfacet
  facet normal -0 0 1
    outer loop
      vertex 8 8 24
      vertex 8 5.9197 24
      vertex 12.555 11.0501 24
    endloop
  endfacet
  facet normal 0 0 1
    outer loop
      vertex 31.49 11.5 24
      vertex 29.5865 13.0861 24
      vertex 29.5679 13.0822 24
    endloop
  endfacet
  facet normal 0 0 1
    outer loop
      vertex 31.49 5.9197 24
      vertex 26.4321 13.0822 24
      vertex 19.0882 5.9197 24
    endloop
  endfacet
  facet normal 0 0 1
    outer loop
      vertex 31.49 11.5 24
      vertex 26.4321 13.0822 24
      vertex 31.49 5.9197 24
    endloop
  endfacet
  facet normal 0 0 1
    outer loop
      vertex 31.49 11.5 24
      vertex 29.5679 13.0822 24
      vertex 26.4321 13.0822 24
    endloop
  endfacet
  facet normal 0 0 1
    outer loop
      vertex 19.0882 5.9197 24
      vertex 26.4321 13.0822 24
      vertex 23.3647 13.7342 24
    endloop
  endfacet
  facet normal 0 0 1
    outer loop
      vertex 19.0882 5.9197 24
      vertex 23.3647 13.7342 24
      vertex 20.5 15.0096 24
    endloop
  endfacet
  facet normal 0 0 1
    outer loop
      vertex 11.1981 13.8678 24
      vertex -7.5 31.49 24
      vertex -7.5 8 24
    endloop
  endfacet
  facet normal 0 0 1
    outer loop
      vertex 14.2968 21.899 24
      vertex 11.1981 13.8678 24
      vertex 12.116 14.5998 24
    endloop
  endfacet
  facet normal 0 0 1
    outer loop
      vertex 12.555 14.9499 24
      vertex 15.8647 19.1832 24
      vertex 14.2968 21.899 24
    endloop
  endfacet
  facet normal 0 0 1
    outer loop
      vertex 8 8 24
      vertex 11.1981 12.1322 24
      vertex 11.1981 13.8678 24
    endloop
  endfacet
  facet normal 0 0 1
    outer loop
      vertex 13.1259 26.8021 24
      vertex 7.5 31.49 24
      vertex 13.3278 24.8813 24
    endloop
  endfacet
  facet normal 0 0 1
    outer loop
      vertex 11.1981 13.8678 24
      vertex -7.5 8 24
      vertex 8 8 24
    endloop
  endfacet
  facet normal 0 0 1
    outer loop
      vertex 7.5 31.49 24
      vertex 11.1981 13.8678 24
      vertex 13.3278 24.8813 24
    endloop
  endfacet
  facet normal 0 0 1
    outer loop
      vertex 11.1981 13.8678 24
      vertex 14.2968 21.899 24
      vertex 13.3278 24.8813 24
    endloop
  endfacet
  facet normal 0 0 1
    outer loop
      vertex 14.2968 21.899 24
      vertex 12.116 14.5998 24
      vertex 12.555 14.9499 24
    endloop
  endfacet
  facet normal 0 -0 1
    outer loop
      vertex 19.0882 5.9197 24
      vertex 20.5 15.0096 24
      vertex 14.7564 12.4941 24
    endloop
  endfacet
  facet normal 0 0 1
    outer loop
      vertex 15.8647 19.1832 24
      vertex 14.247 14.5637 24
      vertex 17.963 16.8528 24
    endloop
  endfacet
  facet normal 0 0 1
    outer loop
      vertex 15 13 24
      vertex 20.5 15.0096 24
      vertex 17.963 16.8528 24
    endloop
  endfacet
  facet normal 0 -0 1
    outer loop
      vertex 14.247 14.5637 24
      vertex 15.8647 19.1832 24
      vertex 12.555 14.9499 24
    endloop
  endfacet
  facet normal -0 0 1
    outer loop
      vertex 14.247 14.5637 24
      vertex 14.4906 14.0578 24
      vertex 17.963 16.8528 24
    endloop
  endfacet
  facet normal -0 0 1
    outer loop
      vertex 14.4906 14.0578 24
      vertex 15 13 24
      vertex 17.963 16.8528 24
    endloop
  endfacet
  facet normal -0 0 1
    outer loop
      vertex 15 13 24
      vertex 14.7564 12.4941 24
      vertex 20.5 15.0096 24
    endloop
  endfacet
  facet normal 0 0 1
    outer loop
      vertex 11.1981 12.1322 24
      vertex 8 8 24
      vertex 12.555 11.0501 24
    endloop
  endfacet
  facet normal 0 0 1
    outer loop
      vertex 14.7564 12.4941 24
      vertex 14.247 11.4363 24
      vertex 19.0882 5.9197 24
    endloop
  endfacet
  facet normal 0 0 1
    outer loop
      vertex 12.555 11.0501 24
      vertex 8 5.9197 24
      vertex 19.0882 5.9197 24
    endloop
  endfacet
  facet normal -0 0 1
    outer loop
      vertex 12.555 11.0501 24
      vertex 19.0882 5.9197 24
      vertex 14.247 11.4363 24
    endloop
  endfacet
  facet normal 0 0 1
    outer loop
      vertex 31.49 -11.5 24
      vertex 19.9118 -5.9197 24
      vertex 8 -11.5 24
    endloop
  endfacet
  facet normal 0 0 1
    outer loop
      vertex 31.49 -5.9197 24
      vertex 19.9118 -5.9197 24
      vertex 31.49 -11.5 24
    endloop
  endfacet
  facet normal 0 0 1
    outer loop
      vertex 19.9118 -5.9197 24
      vertex 8 -5.9197 24
      vertex 8 -11.5 24
    endloop
  endfacet
  facet normal -0.894427 1.01457e-016 0.447214
    outer loop
      vertex -7.5 8 24
      vertex -7.5 31.49 24
      vertex -11.4496 8 16.1009
    endloop
  endfacet
  facet normal 3.94085e-015 0.999718 -0.0237433
    outer loop
      vertex -7.24444 31.453 6.44114
      vertex -7.5 31.49 8
      vertex -6.59874 31.49 8
    endloop
  endfacet
  facet normal 2.0416e-015 0.999718 -0.0237433
    outer loop
      vertex -11.5 31.3 0
      vertex -7.5 31.49 8
      vertex -7.5 31.4069 4.5
    endloop
  endfacet
  facet normal 1.1308e-015 0.999718 -0.0237433
    outer loop
      vertex -7.5 31.49 8
      vertex -7.24444 31.453 6.44114
      vertex -7.5 31.4069 4.5
    endloop
  endfacet
  facet normal -1.33907e-016 0.999718 -0.0237433
    outer loop
      vertex -11.5 31.3 0
      vertex -7.5 31.4069 4.5
      vertex -7.24444 31.3608 2.55886
    endloop
  endfacet
  facet normal 2.05348e-015 0.999718 -0.0237433
    outer loop
      vertex -11.5 31.3 0
      vertex -7.24444 31.3608 2.55886
      vertex -6.97391 31.3453 1.90572
    endloop
  endfacet
  facet normal 0 0.999718 -0.0237433
    outer loop
      vertex 7.5 31.49 8
      vertex 6.73259 31.4823 7.67688
      vertex 6.59874 31.49 8
    endloop
  endfacet
  facet normal -0 1 0
    outer loop
      vertex 5.3033 31.49 9.8033
      vertex 7.5 31.49 24
      vertex 7.5 31.49 8
    endloop
  endfacet
  facet normal 0 1 0
    outer loop
      vertex 6.49519 31.49 8.25
      vertex 7.5 31.49 8
      vertex 6.59874 31.49 8
    endloop
  endfacet
  facet normal 0 1 0
    outer loop
      vertex 5.3033 31.49 9.8033
      vertex 7.5 31.49 8
      vertex 6.49519 31.49 8.25
    endloop
  endfacet
  facet normal 2.36848e-016 1 -1.4803e-016
    outer loop
      vertex -7.5 31.49 24
      vertex 7.5 31.49 24
      vertex 1.74386e-015 31.49 12
    endloop
  endfacet
  facet normal 0 1 0
    outer loop
      vertex 7.5 31.49 24
      vertex 5.3033 31.49 9.8033
      vertex 3.75 31.49 10.9952
    endloop
  endfacet
  facet normal 0 1 0
    outer loop
      vertex 7.5 31.49 24
      vertex 3.75 31.49 10.9952
      vertex 1.94114 31.49 11.7444
    endloop
  endfacet
  facet normal 0 1 0
    outer loop
      vertex 7.5 31.49 24
      vertex 1.94114 31.49 11.7444
      vertex 1.74386e-015 31.49 12
    endloop
  endfacet
  facet normal 3.60137e-017 1 -2.73551e-016
    outer loop
      vertex -7.5 31.49 24
      vertex 1.74386e-015 31.49 12
      vertex -1.94114 31.49 11.7444
    endloop
  endfacet
  facet normal 1.01083e-016 1 -2.44037e-016
    outer loop
      vertex -7.5 31.49 24
      vertex -1.94114 31.49 11.7444
      vertex -3.74925 31.49 10.9955
    endloop
  endfacet
  facet normal 1.01083e-016 1 -2.44037e-016
    outer loop
      vertex -7.5 31.49 24
      vertex -3.74925 31.49 10.9955
      vertex -3.75 31.49 10.9952
    endloop
  endfacet
  facet normal 3.94196e-015 1 -1.63281e-015
    outer loop
      vertex -6.4955 31.49 8.24925
      vertex -6.59874 31.49 8
      vertex -7.5 31.49 8
    endloop
  endfacet
  facet normal 1.71644e-016 1 -2.2369e-016
    outer loop
      vertex -7.5 31.49 24
      vertex -3.75 31.49 10.9952
      vertex -5.3033 31.49 9.8033
    endloop
  endfacet
  facet normal 1.6173e-015 1 0
    outer loop
      vertex -7.5 31.49 24
      vertex -5.3033 31.49 9.8033
      vertex -7.5 31.49 8
    endloop
  endfacet
  facet normal 4.37e-015 1 -3.35322e-015
    outer loop
      vertex -5.3033 31.49 9.8033
      vertex -6.49519 31.49 8.25
      vertex -7.5 31.49 8
    endloop
  endfacet
  facet normal 3.94196e-015 1 -1.63281e-015
    outer loop
      vertex -6.49519 31.49 8.25
      vertex -6.4955 31.49 8.24925
      vertex -7.5 31.49 8
    endloop
  endfacet
  facet normal 0.703722 0.710475 -0
    outer loop
      vertex 11.5 31.3 0
      vertex 11.5 31.3 16
      vertex 13.1727 29.6432 0.669417
    endloop
  endfacet
  facet normal 0.703722 0.710475 -0
    outer loop
      vertex 13.1727 29.6432 0.669417
      vertex 11.5 31.3 16
      vertex 13.1727 29.6432 16.6694
    endloop
  endfacet
  facet normal 0.703722 0.710475 -0
    outer loop
      vertex 29.8353 13.139 7.33778
      vertex 29.8353 13.139 23.3378
      vertex 31.49 11.5 8
    endloop
  endfacet
  facet normal 0.703722 0.710475 -0
    outer loop
      vertex 31.49 11.5 8
      vertex 29.8353 13.139 23.3378
      vertex 31.49 11.5 24
    endloop
  endfacet
  facet normal 1 -0 0
    outer loop
      vertex 31.49 5.9197 24
      vertex 31.49 6.49519 23.25
      vertex 31.49 11.5 24
    endloop
  endfacet
  facet normal 1 -0 0
    outer loop
      vertex 31.49 6.49519 23.25
      vertex 31.49 7.24413 21.4419
      vertex 31.49 11.5 24
    endloop
  endfacet
  facet normal 1 -0 0
    outer loop
      vertex 31.49 7.24413 21.4419
      vertex 31.49 7.24444 21.4411
      vertex 31.49 11.5 24
    endloop
  endfacet
  facet normal 1 1.03075e-015 2.44803e-015
    outer loop
      vertex 31.49 6.73259 16.3231
      vertex 31.49 7.5 16
      vertex 31.49 7.24444 17.5589
    endloop
  endfacet
  facet normal 1 -0 0
    outer loop
      vertex 31.49 7.24444 21.4411
      vertex 31.49 7.5 19.5
      vertex 31.49 11.5 24
    endloop
  endfacet
  facet normal 1 -1.14194e-015 1.01506e-015
    outer loop
      vertex 31.49 7.5 19.5
      vertex 31.49 7.5 16
      vertex 31.49 11.5 24
    endloop
  endfacet
  facet normal 1 -7.71015e-015 1.01506e-015
    outer loop
      vertex 31.49 7.24444 17.5589
      vertex 31.49 7.5 16
      vertex 31.49 7.5 19.5
    endloop
  endfacet
  facet normal 1 6.36652e-016 -4.8852e-016
    outer loop
      vertex 31.49 -11.5 24
      vertex 31.49 -6.49469 23.2506
      vertex 31.49 -5.9197 24
    endloop
  endfacet
  facet normal 1 1.10283e-015 2.61922e-015
    outer loop
      vertex 31.49 -11.5 24
      vertex 31.49 -6.97391 22.0943
      vertex 31.49 -6.4955 23.2492
    endloop
  endfacet
  facet normal 1 6.68372e-016 -2.76849e-016
    outer loop
      vertex 31.49 -11.5 24
      vertex 31.49 -6.4955 23.2492
      vertex 31.49 -6.49519 23.25
    endloop
  endfacet
  facet normal 1 6.36652e-016 -4.8852e-016
    outer loop
      vertex 31.49 -11.5 24
      vertex 31.49 -6.49519 23.25
      vertex 31.49 -6.49469 23.2506
    endloop
  endfacet
  facet normal 0.0474465 0.998874 0
    outer loop
      vertex 7.5 31.49 8
      vertex 11.5 31.3 16
      vertex 11.5 31.3 0
    endloop
  endfacet
  facet normal 0.0474465 0.998874 -0
    outer loop
      vertex 7.5 31.49 8
      vertex 7.5 31.49 24
      vertex 11.5 31.3 16
    endloop
  endfacet
  facet normal 6.24243e-017 0.999718 -0.0237433
    outer loop
      vertex -11.5 31.3 0
      vertex -6.97391 31.3453 1.90572
      vertex -6.49519 31.3178 0.75
    endloop
  endfacet
  facet normal 8.43515e-015 0.999718 -0.0237433
    outer loop
      vertex -11.5 31.3 0
      vertex -6.49519 31.3178 0.75
      vertex -6.48613 31.3175 0.738191
    endloop
  endfacet
  facet normal 6.36473e-016 0.999718 -0.0237433
    outer loop
      vertex -11.5 31.3 0
      vertex -6.48613 31.3175 0.738191
      vertex -5.9197 31.3 0
    endloop
  endfacet
  facet normal 0 0.999718 -0.0237433
    outer loop
      vertex 5.9197 31.3 0
      vertex 6.49519 31.3178 0.75
      vertex 11.5 31.3 0
    endloop
  endfacet
  facet normal 9.68968e-015 0.999718 -0.0237433
    outer loop
      vertex 11.5 31.3 0
      vertex 6.49519 31.3178 0.75
      vertex 6.50087 31.3181 0.763707
    endloop
  endfacet
  facet normal 8.55655e-017 0.999718 -0.0237433
    outer loop
      vertex 6.50087 31.3181 0.763707
      vertex 7.24444 31.3608 2.55886
      vertex 11.5 31.3 0
    endloop
  endfacet
  facet normal 8.82869e-016 0.999718 -0.0237433
    outer loop
      vertex 7.24444 31.3608 2.55886
      vertex 7.5 31.4069 4.5
      vertex 11.5 31.3 0
    endloop
  endfacet
  facet normal -1.18982e-015 0.999718 -0.0237433
    outer loop
      vertex 7.5 31.4069 4.5
      vertex 7.5 31.49 8
      vertex 11.5 31.3 0
    endloop
  endfacet
  facet normal -1.02053e-015 0.999718 -0.0237433
    outer loop
      vertex 7.24444 31.453 6.44114
      vertex 7.5 31.49 8
      vertex 7.5 31.4069 4.5
    endloop
  endfacet
  facet normal -3.24311e-015 0.999718 -0.0237433
    outer loop
      vertex 7.24444 31.453 6.44114
      vertex 6.73259 31.4823 7.67688
      vertex 7.5 31.49 8
    endloop
  endfacet
  facet normal 1 8.88178e-016 0
    outer loop
      vertex 31.49 7.5 16
      vertex 31.49 7.5 0
      vertex 31.49 11.5 8
    endloop
  endfacet
  facet normal 1 8.88178e-016 0
    outer loop
      vertex 31.49 11.5 24
      vertex 31.49 7.5 16
      vertex 31.49 11.5 8
    endloop
  endfacet
  facet normal 0.728972 0.612275 -0.306137
    outer loop
      vertex 13.1414 29.3457 0
      vertex 11.5 31.3 0
      vertex 13.1727 29.6432 0.669417
    endloop
  endfacet
  facet normal 0.728972 0.612275 -0.306137
    outer loop
      vertex 29.5679 13.0822 6.58752
      vertex 31.49 7.5 0
      vertex 26.8014 13.0822 0
    endloop
  endfacet
  facet normal 0.728972 0.612275 -0.306137
    outer loop
      vertex 29.5679 13.0822 6.58752
      vertex 31.49 11.5 8
      vertex 31.49 7.5 0
    endloop
  endfacet
  facet normal 0.728972 0.612275 -0.306137
    outer loop
      vertex 29.8353 13.139 7.33778
      vertex 31.49 11.5 8
      vertex 29.5679 13.0822 6.58752
    endloop
  endfacet
  facet normal 0.991445 -2.15768e-016 0.130526
    outer loop
      vertex -7.5 8 4.5
      vertex -7.24444 8 2.55886
      vertex -7.24444 31.3608 2.55886
    endloop
  endfacet
  facet normal 0.991445 -2.12867e-016 0.130526
    outer loop
      vertex -7.5 31.4069 4.5
      vertex -7.5 8 4.5
      vertex -7.24444 31.3608 2.55886
    endloop
  endfacet
  facet normal -0.92388 9.56068e-017 0.382683
    outer loop
      vertex 7.24444 8 2.55886
      vertex 7.24444 31.3608 2.55886
      vertex 7.22883 8 2.52117
    endloop
  endfacet
  facet normal -0.92388 1.22449e-016 0.382683
    outer loop
      vertex 7.22883 8 2.52117
      vertex 7.24444 31.3608 2.55886
      vertex 6.50087 31.3181 0.763707
    endloop
  endfacet
  facet normal -0.92388 1.14323e-016 0.382683
    outer loop
      vertex 6.50087 31.3181 0.763707
      vertex 6.49519 8 0.75
      vertex 7.22883 8 2.52117
    endloop
  endfacet
  facet normal -0.92388 9.21388e-017 0.382683
    outer loop
      vertex 6.50087 31.3181 0.763707
      vertex 6.49519 31.3178 0.75
      vertex 6.49519 8 0.75
    endloop
  endfacet
  facet normal 0.793353 -2.95774e-016 0.608761
    outer loop
      vertex -6.49519 8 0.75
      vertex -5.9197 8 0
      vertex -5.9197 19.9118 0
    endloop
  endfacet
  facet normal 0.793353 -2.00003e-015 0.608761
    outer loop
      vertex -6.48613 31.3175 0.738191
      vertex -6.49519 31.3178 0.75
      vertex -5.9197 19.9118 0
    endloop
  endfacet
  facet normal 0.793353 -2.87323e-016 0.608761
    outer loop
      vertex -6.49519 31.3178 0.75
      vertex -6.49519 8 0.75
      vertex -5.9197 19.9118 0
    endloop
  endfacet
  facet normal 0.991445 -1.63018e-016 -0.130526
    outer loop
      vertex -7.24444 8 6.44114
      vertex -7.5 31.4069 4.5
      vertex -7.24444 31.453 6.44114
    endloop
  endfacet
  facet normal 0.991445 -1.63338e-016 -0.130526
    outer loop
      vertex -7.24444 8 6.44114
      vertex -7.5 8 4.5
      vertex -7.5 31.4069 4.5
    endloop
  endfacet
  facet normal -0.793353 2.42058e-016 -0.608761
    outer loop
      vertex 6.49519 31.49 8.25
      vertex 5.3033 8 9.8033
      vertex 5.3033 31.49 9.8033
    endloop
  endfacet
  facet normal -0.793353 2.88094e-016 -0.608761
    outer loop
      vertex 6.49519 31.49 8.25
      vertex 6.49519 8 8.25
      vertex 5.3033 8 9.8033
    endloop
  endfacet
  facet normal -0.130526 2.53303e-016 -0.991445
    outer loop
      vertex 1.94114 31.49 11.7444
      vertex 1.94114 8 11.7444
      vertex 1.74386e-015 31.49 12
    endloop
  endfacet
  facet normal -0.130526 2.53907e-016 -0.991445
    outer loop
      vertex 1.74386e-015 31.49 12
      vertex 1.94114 8 11.7444
      vertex -3.47197e-015 8 12
    endloop
  endfacet
  facet normal -0.991445 1.63339e-016 0.130526
    outer loop
      vertex 7.5 31.4069 4.5
      vertex 7.24444 31.3608 2.55886
      vertex 7.5 8 4.5
    endloop
  endfacet
  facet normal -0.991445 1.6118e-016 0.130526
    outer loop
      vertex 7.5 8 4.5
      vertex 7.24444 31.3608 2.55886
      vertex 7.24444 8 2.55886
    endloop
  endfacet
  facet normal 0.92388 -9.71569e-017 -0.382683
    outer loop
      vertex -7.22883 8 6.47883
      vertex -7.24444 31.453 6.44114
      vertex -6.59874 31.49 8
    endloop
  endfacet
  facet normal 0.92388 8.49548e-017 -0.382683
    outer loop
      vertex -6.4955 31.49 8.24925
      vertex -7.22883 8 6.47883
      vertex -6.59874 31.49 8
    endloop
  endfacet
  facet normal 0.92388 -1.02477e-016 -0.382683
    outer loop
      vertex -7.22883 8 6.47883
      vertex -7.24444 8 6.44114
      vertex -7.24444 31.453 6.44114
    endloop
  endfacet
  facet normal 0.608761 5.33864e-017 -0.793353
    outer loop
      vertex -3.75 31.49 10.9952
      vertex -3.75 8 10.9952
      vertex -5.3033 31.49 9.8033
    endloop
  endfacet
  facet normal 0.608761 4.90053e-018 -0.793353
    outer loop
      vertex -5.3033 31.49 9.8033
      vertex -3.75 8 10.9952
      vertex -5.3033 8 9.8033
    endloop
  endfacet
  facet normal -0.382683 2.19314e-016 -0.92388
    outer loop
      vertex 3.75 31.49 10.9952
      vertex 3.75 8 10.9952
      vertex 1.94114 31.49 11.7444
    endloop
  endfacet
  facet normal -0.382683 2.92797e-016 -0.92388
    outer loop
      vertex 1.94114 31.49 11.7444
      vertex 3.75 8 10.9952
      vertex 1.94114 8 11.7444
    endloop
  endfacet
  facet normal -0.92388 2.61481e-016 -0.382683
    outer loop
      vertex 6.59874 31.49 8
      vertex 6.49519 8 8.25
      vertex 6.49519 31.49 8.25
    endloop
  endfacet
  facet normal -0.92388 2.81448e-016 -0.382683
    outer loop
      vertex 6.59874 31.49 8
      vertex 6.73259 31.4823 7.67688
      vertex 6.49519 8 8.25
    endloop
  endfacet
  facet normal -0.92388 2.47402e-016 -0.382683
    outer loop
      vertex 6.73259 31.4823 7.67688
      vertex 7.24444 31.453 6.44114
      vertex 7.24444 8 6.44114
    endloop
  endfacet
  facet normal -0.92388 2.85276e-016 -0.382683
    outer loop
      vertex 6.73259 31.4823 7.67688
      vertex 7.24444 8 6.44114
      vertex 6.49519 8 8.25
    endloop
  endfacet
  facet normal -0.608761 2.35079e-016 -0.793353
    outer loop
      vertex 5.3033 31.49 9.8033
      vertex 5.3033 8 9.8033
      vertex 3.75 31.49 10.9952
    endloop
  endfacet
  facet normal -0.608761 2.46588e-016 -0.793353
    outer loop
      vertex 3.75 31.49 10.9952
      vertex 5.3033 8 9.8033
      vertex 3.75 8 10.9952
    endloop
  endfacet
  facet normal 0.92388 -2.6159e-016 0.382683
    outer loop
      vertex -6.97391 31.3453 1.90572
      vertex -6.49519 8 0.75
      vertex -6.49519 31.3178 0.75
    endloop
  endfacet
  facet normal 0.92388 -2.89982e-016 0.382683
    outer loop
      vertex -6.97391 31.3453 1.90572
      vertex -7.24444 8 2.55886
      vertex -6.49519 8 0.75
    endloop
  endfacet
  facet normal 0.92388 -2.55653e-016 0.382683
    outer loop
      vertex -7.24444 31.3608 2.55886
      vertex -7.24444 8 2.55886
      vertex -6.97391 31.3453 1.90572
    endloop
  endfacet
  facet normal 0.793353 -3.71246e-016 0.608761
    outer loop
      vertex -5.9197 19.9118 0
      vertex -5.9197 31.3 0
      vertex -6.48613 31.3175 0.738191
    endloop
  endfacet
  facet normal 0.92388 -8.7846e-017 -0.382683
    outer loop
      vertex -6.49519 8 8.25
      vertex -6.4955 31.49 8.24925
      vertex -6.49519 31.49 8.25
    endloop
  endfacet
  facet normal 0.92388 -1.13823e-016 -0.382683
    outer loop
      vertex -6.49519 8 8.25
      vertex -7.22883 8 6.47883
      vertex -6.4955 31.49 8.24925
    endloop
  endfacet
  facet normal 0.793353 -5.79158e-017 -0.608761
    outer loop
      vertex -5.3033 8 9.8033
      vertex -6.49519 31.49 8.25
      vertex -5.3033 31.49 9.8033
    endloop
  endfacet
  facet normal 0.793353 -1.18791e-017 -0.608761
    outer loop
      vertex -5.3033 8 9.8033
      vertex -6.49519 8 8.25
      vertex -6.49519 31.49 8.25
    endloop
  endfacet
  facet normal 0.382683 1.30014e-016 -0.92388
    outer loop
      vertex -3.74925 31.49 10.9955
      vertex -3.75 8 10.9952
      vertex -3.75 31.49 10.9952
    endloop
  endfacet
  facet normal 0.382683 1.46196e-016 -0.92388
    outer loop
      vertex -3.74925 31.49 10.9955
      vertex -1.97883 8 11.7288
      vertex -3.75 8 10.9952
    endloop
  endfacet
  facet normal -0.991445 2.12448e-016 -0.130526
    outer loop
      vertex 7.5 31.4069 4.5
      vertex 7.24444 8 6.44114
      vertex 7.24444 31.453 6.44114
    endloop
  endfacet
  facet normal -0.991445 2.12867e-016 -0.130526
    outer loop
      vertex 7.5 31.4069 4.5
      vertex 7.5 8 4.5
      vertex 7.24444 8 6.44114
    endloop
  endfacet
  facet normal 0.130526 1.95942e-016 -0.991445
    outer loop
      vertex 1.74386e-015 31.49 12
      vertex -3.47197e-015 8 12
      vertex -1.94114 31.49 11.7444
    endloop
  endfacet
  facet normal 0.130526 1.21572e-016 -0.991445
    outer loop
      vertex -1.94114 31.49 11.7444
      vertex -3.47197e-015 8 12
      vertex -1.94114 8 11.7444
    endloop
  endfacet
  facet normal -0.793353 1.04369e-015 0.608761
    outer loop
      vertex 6.49519 8 0.75
      vertex 5.9197 19.0882 0
      vertex 6.47036 8 0.71764
    endloop
  endfacet
  facet normal -0.793353 1.77648e-017 0.608761
    outer loop
      vertex 6.49519 8 0.75
      vertex 6.49519 31.3178 0.75
      vertex 5.9197 19.0882 0
    endloop
  endfacet
  facet normal -0.793353 0 0.608761
    outer loop
      vertex 6.49519 31.3178 0.75
      vertex 5.9197 31.3 0
      vertex 5.9197 19.0882 0
    endloop
  endfacet
  facet normal 0.382683 5.65307e-017 -0.92388
    outer loop
      vertex -1.94114 8 11.7444
      vertex -1.97883 8 11.7288
      vertex -1.94114 31.49 11.7444
    endloop
  endfacet
  facet normal 0.382683 5.23232e-017 -0.92388
    outer loop
      vertex -1.94114 31.49 11.7444
      vertex -1.97883 8 11.7288
      vertex -3.74925 31.49 10.9955
    endloop
  endfacet
  facet normal -0.793353 1.27097e-016 0.608761
    outer loop
      vertex 5.9197 8 0
      vertex 6.47036 8 0.71764
      vertex 5.9197 19.0882 0
    endloop
  endfacet
  facet normal 1.82577e-016 0.793353 -0.608761
    outer loop
      vertex 19.9118 -5.9197 24
      vertex 31.49 -5.9197 24
      vertex 31.49 -6.49469 23.2506
    endloop
  endfacet
  facet normal -5.78796e-017 0.92388 0.382683
    outer loop
      vertex 31.49 -6.49519 15.75
      vertex 8 -7.24444 17.5589
      vertex 31.49 -7.24444 17.5589
    endloop
  endfacet
  facet normal -5.78784e-017 0.92388 0.382683
    outer loop
      vertex 31.49 -6.49519 15.75
      vertex 8 -6.49519 15.75
      vertex 8 -7.24444 17.5589
    endloop
  endfacet
  facet normal -2.24925e-016 -0.130526 0.991445
    outer loop
      vertex 8 1.94114 12.2556
      vertex 31.49 0 12
      vertex 31.49 1.94114 12.2556
    endloop
  endfacet
  facet normal -2.24925e-016 -0.130526 0.991445
    outer loop
      vertex 8 1.94114 12.2556
      vertex 8 0 12
      vertex 31.49 0 12
    endloop
  endfacet
  facet normal 1.15117e-016 0.92388 -0.382683
    outer loop
      vertex 31.49 -6.4955 23.2492
      vertex 31.49 -6.97391 22.0943
      vertex 8 -7.22883 21.4788
    endloop
  endfacet
  facet normal 1.40566e-016 0.92388 -0.382683
    outer loop
      vertex 8 -7.22883 21.4788
      vertex 31.49 -6.97391 22.0943
      vertex 31.49 -7.24444 21.4411
    endloop
  endfacet
  facet normal 5.78784e-017 0.92388 -0.382683
    outer loop
      vertex 8 -7.22883 21.4788
      vertex 31.49 -7.24444 21.4411
      vertex 8 -7.24444 21.4411
    endloop
  endfacet
  facet normal -9.20713e-017 -0.793353 0.608761
    outer loop
      vertex 8 6.49519 15.75
      vertex 31.49 6.49469 15.7494
      vertex 31.49 6.49519 15.75
    endloop
  endfacet
  facet normal -1.1343e-016 -0.793353 0.608761
    outer loop
      vertex 8 6.49519 15.75
      vertex 8 5.32813 14.2291
      vertex 31.49 6.49469 15.7494
    endloop
  endfacet
  facet normal -1.79984e-016 -0.608761 0.793353
    outer loop
      vertex 8 5.3033 14.1967
      vertex 31.49 3.75 13.0048
      vertex 31.49 5.3033 14.1967
    endloop
  endfacet
  facet normal -1.79985e-016 -0.608761 0.793353
    outer loop
      vertex 8 5.3033 14.1967
      vertex 8 3.75 13.0048
      vertex 31.49 3.75 13.0048
    endloop
  endfacet
  facet normal -3.94822e-017 0.991445 0.130526
    outer loop
      vertex 31.49 -7.24444 17.5589
      vertex 8 -7.5 19.5
      vertex 31.49 -7.5 19.5
    endloop
  endfacet
  facet normal -1.97413e-017 0.991445 0.130526
    outer loop
      vertex 31.49 -7.24444 17.5589
      vertex 8 -7.24444 17.5589
      vertex 8 -7.5 19.5
    endloop
  endfacet
  facet normal 1.97413e-017 0.991445 -0.130526
    outer loop
      vertex 31.49 -7.24444 21.4411
      vertex 31.49 -7.5 19.5
      vertex 8 -7.24444 21.4411
    endloop
  endfacet
  facet normal 3.94828e-017 0.991445 -0.130526
    outer loop
      vertex 8 -7.24444 21.4411
      vertex 31.49 -7.5 19.5
      vertex 8 -7.5 19.5
    endloop
  endfacet
  facet normal 5.78784e-017 0.92388 -0.382683
    outer loop
      vertex 31.49 -6.49519 23.25
      vertex 31.49 -6.4955 23.2492
      vertex 8 -6.49519 23.25
    endloop
  endfacet
  facet normal 6.08809e-017 0.92388 -0.382683
    outer loop
      vertex 8 -6.49519 23.25
      vertex 31.49 -6.4955 23.2492
      vertex 8 -7.22883 21.4788
    endloop
  endfacet
  facet normal 1.77465e-016 0.793353 -0.608761
    outer loop
      vertex 19.9118 -5.9197 24
      vertex 8 -6.49519 23.25
      vertex 8 -5.9197 24
    endloop
  endfacet
  facet normal 5.80963e-014 0.793353 -0.608761
    outer loop
      vertex 19.9118 -5.9197 24
      vertex 31.49 -6.49469 23.2506
      vertex 31.49 -6.49519 23.25
    endloop
  endfacet
  facet normal 9.20709e-017 0.793353 -0.608761
    outer loop
      vertex 19.9118 -5.9197 24
      vertex 31.49 -6.49519 23.25
      vertex 8 -6.49519 23.25
    endloop
  endfacet
  facet normal -5.78784e-017 -0.92388 0.382683
    outer loop
      vertex 8 6.49519 15.75
      vertex 31.49 6.49519 15.75
      vertex 31.49 6.73259 16.3231
    endloop
  endfacet
  facet normal -5.78784e-017 -0.92388 0.382683
    outer loop
      vertex 31.49 7.24444 17.5589
      vertex 8 7.24444 17.5589
      vertex 31.49 6.73259 16.3231
    endloop
  endfacet
  facet normal -9.43607e-017 -0.92388 0.382683
    outer loop
      vertex 8 7.24444 17.5589
      vertex 8 6.49519 15.75
      vertex 31.49 6.73259 16.3231
    endloop
  endfacet
  facet normal -9.20713e-017 0.793353 0.608761
    outer loop
      vertex 31.49 -6.49469 15.7494
      vertex 8 -6.49519 15.75
      vertex 31.49 -6.49519 15.75
    endloop
  endfacet
  facet normal -1.13436e-016 0.793353 0.608761
    outer loop
      vertex 31.49 -6.49469 15.7494
      vertex 8 -5.32813 14.2291
      vertex 8 -6.49519 15.75
    endloop
  endfacet
  facet normal -2.09596e-016 0.382683 0.92388
    outer loop
      vertex 8 -1.94114 12.2556
      vertex 31.49 -3.75 13.0048
      vertex 31.49 -1.94114 12.2556
    endloop
  endfacet
  facet normal -2.09597e-016 0.382683 0.92388
    outer loop
      vertex 8 -1.94114 12.2556
      vertex 8 -3.75 13.0048
      vertex 31.49 -3.75 13.0048
    endloop
  endfacet
  facet normal -2.09596e-016 -0.382683 0.92388
    outer loop
      vertex 8 3.75 13.0048
      vertex 31.49 1.94114 12.2556
      vertex 31.49 3.75 13.0048
    endloop
  endfacet
  facet normal -2.09597e-016 -0.382683 0.92388
    outer loop
      vertex 8 3.75 13.0048
      vertex 8 1.94114 12.2556
      vertex 31.49 1.94114 12.2556
    endloop
  endfacet
  facet normal -1.50611e-016 -0.793353 0.608761
    outer loop
      vertex 8 5.32813 14.2291
      vertex 31.49 5.3033 14.1967
      vertex 31.49 6.49469 15.7494
    endloop
  endfacet
  facet normal -1.38107e-016 -0.793353 0.608761
    outer loop
      vertex 8 5.32813 14.2291
      vertex 8 5.3033 14.1967
      vertex 31.49 5.3033 14.1967
    endloop
  endfacet
  facet normal 5.78784e-017 -0.92388 -0.382683
    outer loop
      vertex 31.49 7.24413 21.4419
      vertex 8 7.24444 21.4411
      vertex 31.49 7.24444 21.4411
    endloop
  endfacet
  facet normal 1.99776e-017 -0.92388 -0.382683
    outer loop
      vertex 31.49 7.24413 21.4419
      vertex 8 6.5108 23.2123
      vertex 8 7.24444 21.4411
    endloop
  endfacet
  facet normal -1.97413e-017 -0.991445 0.130526
    outer loop
      vertex 8 7.5 19.5
      vertex 31.49 7.24444 17.5589
      vertex 31.49 7.5 19.5
    endloop
  endfacet
  facet normal -1.97417e-017 -0.991445 0.130526
    outer loop
      vertex 8 7.5 19.5
      vertex 8 7.24444 17.5589
      vertex 31.49 7.24444 17.5589
    endloop
  endfacet
  facet normal 1.27096e-016 -0.793353 -0.608761
    outer loop
      vertex 8 6.47036 23.2824
      vertex 19.0882 5.9197 24
      vertex 8 5.9197 24
    endloop
  endfacet
  facet normal 9.35633e-018 -0.92388 -0.382683
    outer loop
      vertex 31.49 6.49519 23.25
      vertex 8 6.5108 23.2123
      vertex 31.49 7.24413 21.4419
    endloop
  endfacet
  facet normal -0 -0.92388 -0.382683
    outer loop
      vertex 31.49 6.49519 23.25
      vertex 8 6.49519 23.25
      vertex 8 6.5108 23.2123
    endloop
  endfacet
  facet normal -1.50902e-016 0.793353 0.608761
    outer loop
      vertex 31.49 -5.3033 14.1967
      vertex 8 -5.32813 14.2291
      vertex 31.49 -6.49469 15.7494
    endloop
  endfacet
  facet normal -1.38107e-016 0.793353 0.608761
    outer loop
      vertex 31.49 -5.3033 14.1967
      vertex 8 -5.3033 14.1967
      vertex 8 -5.32813 14.2291
    endloop
  endfacet
  facet normal -1.79984e-016 0.608761 0.793353
    outer loop
      vertex 8 -3.75 13.0048
      vertex 31.49 -5.3033 14.1967
      vertex 31.49 -3.75 13.0048
    endloop
  endfacet
  facet normal -1.79985e-016 0.608761 0.793353
    outer loop
      vertex 8 -3.75 13.0048
      vertex 8 -5.3033 14.1967
      vertex 31.49 -5.3033 14.1967
    endloop
  endfacet
  facet normal -2.24925e-016 0.130526 0.991445
    outer loop
      vertex 8 0 12
      vertex 31.49 -1.94114 12.2556
      vertex 31.49 0 12
    endloop
  endfacet
  facet normal -2.24925e-016 0.130526 0.991445
    outer loop
      vertex 8 0 12
      vertex 8 -1.94114 12.2556
      vertex 31.49 -1.94114 12.2556
    endloop
  endfacet
  facet normal 1.97417e-017 -0.991445 -0.130526
    outer loop
      vertex 8 7.24444 21.4411
      vertex 8 7.5 19.5
      vertex 31.49 7.5 19.5
    endloop
  endfacet
  facet normal 1.97413e-017 -0.991445 -0.130526
    outer loop
      vertex 31.49 7.24444 21.4411
      vertex 8 7.24444 21.4411
      vertex 31.49 7.5 19.5
    endloop
  endfacet
  facet normal 0 -0.793353 -0.608761
    outer loop
      vertex 19.0882 5.9197 24
      vertex 8 6.49519 23.25
      vertex 31.49 6.49519 23.25
    endloop
  endfacet
  facet normal 5.68176e-017 -0.793353 -0.608761
    outer loop
      vertex 31.49 5.9197 24
      vertex 19.0882 5.9197 24
      vertex 31.49 6.49519 23.25
    endloop
  endfacet
  facet normal 4.50034e-015 -0.793353 -0.608761
    outer loop
      vertex 19.0882 5.9197 24
      vertex 8 6.47036 23.2824
      vertex 8 6.49519 23.25
    endloop
  endfacet
  facet normal 0.994522 0.104528 4.71584e-017
    outer loop
      vertex 13.3278 24.8813 24
      vertex 13 28 21.2181
      vertex 13.1259 26.8021 24
    endloop
  endfacet
  facet normal 0.994522 0.104528 0
    outer loop
      vertex 13.3278 24.8813 24
      vertex 13.3278 24.8813 0
      vertex 13 28 21.2181
    endloop
  endfacet
  facet normal 0.994522 0.104528 0
    outer loop
      vertex 13.3278 24.8813 0
      vertex 13 28 0
      vertex 13 28 21.2181
    endloop
  endfacet
  facet normal 0.406737 0.913545 0
    outer loop
      vertex 23.3647 13.7342 24
      vertex 23.3647 13.7342 0
      vertex 20.5 15.0096 24
    endloop
  endfacet
  facet normal 0.406737 0.913545 0
    outer loop
      vertex 20.5 15.0096 24
      vertex 23.3647 13.7342 0
      vertex 20.5 15.0096 0
    endloop
  endfacet
  facet normal 0.951057 0.309017 -0
    outer loop
      vertex 13.3278 24.8813 0
      vertex 13.3278 24.8813 24
      vertex 14.2968 21.899 24
    endloop
  endfacet
  facet normal 0.951057 0.309017 -0
    outer loop
      vertex 14.2968 21.899 0
      vertex 13.3278 24.8813 0
      vertex 14.2968 21.899 24
    endloop
  endfacet
  facet normal 0.994522 -0.104528 -1.80934e-016
    outer loop
      vertex 13 28 0
      vertex 13.1414 29.3457 0
      vertex 13.1727 29.6432 0.669417
    endloop
  endfacet
  facet normal 0.994522 -0.104528 0
    outer loop
      vertex 13.1727 29.6432 16.6694
      vertex 13 28 0
      vertex 13.1727 29.6432 0.669417
    endloop
  endfacet
  facet normal 0.994522 -0.104528 0
    outer loop
      vertex 13 28 21.2181
      vertex 13 28 0
      vertex 13.1727 29.6432 16.6694
    endloop
  endfacet
  facet normal 0.207912 0.978148 0
    outer loop
      vertex 26.4321 13.0822 24
      vertex 26.4321 13.0822 0
      vertex 23.3647 13.7342 24
    endloop
  endfacet
  facet normal 0.207912 0.978148 0
    outer loop
      vertex 23.3647 13.7342 24
      vertex 26.4321 13.0822 0
      vertex 23.3647 13.7342 0
    endloop
  endfacet
  facet normal -0.207912 0.978148 2.52003e-014
    outer loop
      vertex 29.5865 13.0861 24
      vertex 29.8353 13.139 23.3378
      vertex 29.5679 13.0822 24
    endloop
  endfacet
  facet normal -0.207912 0.978148 0
    outer loop
      vertex 29.5679 13.0822 24
      vertex 29.8353 13.139 23.3378
      vertex 29.8353 13.139 7.33778
    endloop
  endfacet
  facet normal -0.207912 0.978148 0
    outer loop
      vertex 29.5679 13.0822 24
      vertex 29.8353 13.139 7.33778
      vertex 29.5679 13.0822 6.58752
    endloop
  endfacet
  facet normal 0 1 0
    outer loop
      vertex 29.5679 13.0822 24
      vertex 29.5679 13.0822 6.58752
      vertex 26.4321 13.0822 24
    endloop
  endfacet
  facet normal 0 1 0
    outer loop
      vertex 26.4321 13.0822 24
      vertex 29.5679 13.0822 6.58752
      vertex 26.4321 13.0822 0
    endloop
  endfacet
  facet normal 0 1 0
    outer loop
      vertex 29.5679 13.0822 6.58752
      vertex 26.8014 13.0822 0
      vertex 26.4321 13.0822 0
    endloop
  endfacet
  facet normal 0.866025 0.5 -0
    outer loop
      vertex 14.2968 21.899 0
      vertex 14.2968 21.899 24
      vertex 15.8647 19.1832 24
    endloop
  endfacet
  facet normal 0.866025 0.5 -0
    outer loop
      vertex 15.8647 19.1832 0
      vertex 14.2968 21.899 0
      vertex 15.8647 19.1832 24
    endloop
  endfacet
  facet normal 0.743145 0.669131 -0
    outer loop
      vertex 15.8647 19.1832 0
      vertex 15.8647 19.1832 24
      vertex 17.963 16.8528 24
    endloop
  endfacet
  facet normal 0.743145 0.669131 -0
    outer loop
      vertex 17.963 16.8528 0
      vertex 15.8647 19.1832 0
      vertex 17.963 16.8528 24
    endloop
  endfacet
  facet normal 0.587785 0.809017 0
    outer loop
      vertex 20.5 15.0096 24
      vertex 20.5 15.0096 0
      vertex 17.963 16.8528 24
    endloop
  endfacet
  facet normal 0.587785 0.809017 0
    outer loop
      vertex 17.963 16.8528 24
      vertex 20.5 15.0096 0
      vertex 17.963 16.8528 0
    endloop
  endfacet
  facet normal 0 -1 0
    outer loop
      vertex -11.5 8 0
      vertex -5.9197 8 0
      vertex -6.49519 8 0.75
    endloop
  endfacet
  facet normal 0 -1 0
    outer loop
      vertex -5.3033 8 9.8033
      vertex -11.4496 8 16.1009
      vertex -11.5 8 16
    endloop
  endfacet
  facet normal 0 -1 0
    outer loop
      vertex -1.97883 8 11.7288
      vertex -7.5 8 24
      vertex -11.4496 8 16.1009
    endloop
  endfacet
  facet normal 0 -1 0
    outer loop
      vertex -7.24444 8 6.44114
      vertex -11.5 8 0
      vertex -7.5 8 4.5
    endloop
  endfacet
  facet normal -0 -1 0
    outer loop
      vertex -7.22883 8 6.47883
      vertex -11.5 8 16
      vertex -7.24444 8 6.44114
    endloop
  endfacet
  facet normal -0 -1 0
    outer loop
      vertex -6.49519 8 8.25
      vertex -11.5 8 16
      vertex -7.22883 8 6.47883
    endloop
  endfacet
  facet normal 0 -1 0
    outer loop
      vertex -3.47197e-015 8 12
      vertex 8 8 24
      vertex -7.5 8 24
    endloop
  endfacet
  facet normal -0 -1 0
    outer loop
      vertex -3.75 8 10.9952
      vertex -11.4496 8 16.1009
      vertex -5.3033 8 9.8033
    endloop
  endfacet
  facet normal -0 -1 0
    outer loop
      vertex -1.97883 8 11.7288
      vertex -11.4496 8 16.1009
      vertex -3.75 8 10.9952
    endloop
  endfacet
  facet normal -0 -1 0
    outer loop
      vertex -1.94114 8 11.7444
      vertex -7.5 8 24
      vertex -1.97883 8 11.7288
    endloop
  endfacet
  facet normal -0 -1 0
    outer loop
      vertex -3.47197e-015 8 12
      vertex -7.5 8 24
      vertex -1.94114 8 11.7444
    endloop
  endfacet
  facet normal 0 -1 0
    outer loop
      vertex 1.94114 8 11.7444
      vertex 8 8 24
      vertex -3.47197e-015 8 12
    endloop
  endfacet
  facet normal 0 -1 0
    outer loop
      vertex 3.75 8 10.9952
      vertex 8 8 24
      vertex 1.94114 8 11.7444
    endloop
  endfacet
  facet normal 0 -1 0
    outer loop
      vertex 5.3033 8 9.8033
      vertex 8 8 24
      vertex 3.75 8 10.9952
    endloop
  endfacet
  facet normal 0 -1 0
    outer loop
      vertex 6.49519 8 8.25
      vertex 8 8 24
      vertex 5.3033 8 9.8033
    endloop
  endfacet
  facet normal 0 -1 0
    outer loop
      vertex 7.24444 8 6.44114
      vertex 8 8 24
      vertex 6.49519 8 8.25
    endloop
  endfacet
  facet normal 0 -1 0
    outer loop
      vertex 7.5 8 4.5
      vertex 8 8 0
      vertex 8 8 24
    endloop
  endfacet
  facet normal 0 -1 0
    outer loop
      vertex 7.24444 8 2.55886
      vertex 8 8 0
      vertex 7.5 8 4.5
    endloop
  endfacet
  facet normal 0 -1 0
    outer loop
      vertex 7.22883 8 2.52117
      vertex 8 8 0
      vertex 7.24444 8 2.55886
    endloop
  endfacet
  facet normal 0 -1 0
    outer loop
      vertex 6.49519 8 0.75
      vertex 8 8 0
      vertex 7.22883 8 2.52117
    endloop
  endfacet
  facet normal 0 -1 -0
    outer loop
      vertex 6.47036 8 0.71764
      vertex 5.9197 8 0
      vertex 8 8 0
    endloop
  endfacet
  facet normal 0 -1 0
    outer loop
      vertex 6.47036 8 0.71764
      vertex 8 8 0
      vertex 6.49519 8 0.75
    endloop
  endfacet
  facet normal 0 -1 0
    outer loop
      vertex 7.5 8 4.5
      vertex 8 8 24
      vertex 7.24444 8 6.44114
    endloop
  endfacet
  facet normal -0 -1 0
    outer loop
      vertex -5.3033 8 9.8033
      vertex -11.5 8 16
      vertex -6.49519 8 8.25
    endloop
  endfacet
  facet normal 0 -1 -0
    outer loop
      vertex -7.5 8 4.5
      vertex -11.5 8 0
      vertex -7.24444 8 2.55886
    endloop
  endfacet
  facet normal -0 -1 0
    outer loop
      vertex -7.24444 8 6.44114
      vertex -11.5 8 16
      vertex -11.5 8 0
    endloop
  endfacet
  facet normal 0 -1 -0
    outer loop
      vertex -7.24444 8 2.55886
      vertex -11.5 8 0
      vertex -6.49519 8 0.75
    endloop
  endfacet
  facet normal -1 -0 0
    outer loop
      vertex 8 -5.9197 24
      vertex 8 -6.49519 23.25
      vertex 8 -11.5 24
    endloop
  endfacet
  facet normal -1 0 0
    outer loop
      vertex 8 -11.5 24
      vertex 8 -6.49519 23.25
      vertex 8 -7.22883 21.4788
    endloop
  endfacet
  facet normal -1 -0 0
    outer loop
      vertex 8 -7.22883 21.4788
      vertex 8 -7.24444 21.4411
      vertex 8 -11.5 24
    endloop
  endfacet
  facet normal -1 -0 0
    outer loop
      vertex 8 -7.24444 21.4411
      vertex 8 -7.5 19.5
      vertex 8 -11.5 24
    endloop
  endfacet
  facet normal -1 -0 -0
    outer loop
      vertex 8 -7.5 19.5
      vertex 8 -7.24444 17.5589
      vertex 8 -11.5 24
    endloop
  endfacet
  facet normal -1 -0 0
    outer loop
      vertex 8 -7.24444 17.5589
      vertex 8 -11.5 8
      vertex 8 -11.5 24
    endloop
  endfacet
  facet normal -1 -0 0
    outer loop
      vertex 8 -6.49519 15.75
      vertex 8 -11.5 8
      vertex 8 -7.24444 17.5589
    endloop
  endfacet
  facet normal -1 -0 0
    outer loop
      vertex 8 -5.32813 14.2291
      vertex 8 -11.5 8
      vertex 8 -6.49519 15.75
    endloop
  endfacet
  facet normal -1 -0 0
    outer loop
      vertex 8 -3.75 13.0048
      vertex 8 -11.5 8
      vertex 8 -5.3033 14.1967
    endloop
  endfacet
  facet normal -1 -0 0
    outer loop
      vertex 8 -1.94114 12.2556
      vertex 8 -11.5 8
      vertex 8 -3.75 13.0048
    endloop
  endfacet
  facet normal -1 -0 0
    outer loop
      vertex 8 0 12
      vertex 8 -7.58173 0.16347
      vertex 8 -1.94114 12.2556
    endloop
  endfacet
  facet normal -1 0 -0
    outer loop
      vertex 8 1.94114 12.2556
      vertex 8 8 0
      vertex 8 0 12
    endloop
  endfacet
  facet normal -1 0 -0
    outer loop
      vertex 8 3.75 13.0048
      vertex 8 8 0
      vertex 8 1.94114 12.2556
    endloop
  endfacet
  facet normal -1 0 -0
    outer loop
      vertex 8 5.3033 14.1967
      vertex 8 8 0
      vertex 8 3.75 13.0048
    endloop
  endfacet
  facet normal -1 0 -0
    outer loop
      vertex 8 5.32813 14.2291
      vertex 8 8 0
      vertex 8 5.3033 14.1967
    endloop
  endfacet
  facet normal -1 0 -0
    outer loop
      vertex 8 6.49519 15.75
      vertex 8 8 0
      vertex 8 5.32813 14.2291
    endloop
  endfacet
  facet normal -1 0 -0
    outer loop
      vertex 8 7.24444 17.5589
      vertex 8 8 0
      vertex 8 6.49519 15.75
    endloop
  endfacet
  facet normal -1 0 0
    outer loop
      vertex 8 7.24444 21.4411
      vertex 8 6.5108 23.2123
      vertex 8 8 24
    endloop
  endfacet
  facet normal -1 0 0
    outer loop
      vertex 8 6.5108 23.2123
      vertex 8 6.49519 23.25
      vertex 8 8 24
    endloop
  endfacet
  facet normal -1 0 0
    outer loop
      vertex 8 6.49519 23.25
      vertex 8 6.47036 23.2824
      vertex 8 8 24
    endloop
  endfacet
  facet normal -1 0 0
    outer loop
      vertex 8 6.47036 23.2824
      vertex 8 5.9197 24
      vertex 8 8 24
    endloop
  endfacet
  facet normal -1 0 0
    outer loop
      vertex 8 7.5 19.5
      vertex 8 7.24444 21.4411
      vertex 8 8 24
    endloop
  endfacet
  facet normal -1 0 0
    outer loop
      vertex 8 7.5 19.5
      vertex 8 8 24
      vertex 8 8 0
    endloop
  endfacet
  facet normal -1 0 -0
    outer loop
      vertex 8 7.5 19.5
      vertex 8 8 0
      vertex 8 7.24444 17.5589
    endloop
  endfacet
  facet normal -1 0 -0
    outer loop
      vertex 8 0 12
      vertex 8 8 0
      vertex 8 -7.5 0
    endloop
  endfacet
  facet normal -1 -0 0
    outer loop
      vertex 8 -5.3033 14.1967
      vertex 8 -11.5 8
      vertex 8 -5.32813 14.2291
    endloop
  endfacet
  facet normal -1 0 0
    outer loop
      vertex 8 0 12
      vertex 8 -7.5 0
      vertex 8 -7.58173 0.16347
    endloop
  endfacet
  facet normal -1 0 0
    outer loop
      vertex 8 -1.94114 12.2556
      vertex 8 -7.58173 0.16347
      vertex 8 -11.5 8
    endloop
  endfacet
  facet normal 1 -0 0
    outer loop
      vertex 11.1981 12.1322 24
      vertex 11.1981 13.8678 0
      vertex 11.1981 13.8678 24
    endloop
  endfacet
  facet normal 1 0 0
    outer loop
      vertex 11.1981 12.1322 24
      vertex 11.1981 12.1322 0
      vertex 11.1981 13.8678 0
    endloop
  endfacet
  facet normal -0.900969 0.433884 -3.21138e-017
    outer loop
      vertex 15 13 24
      vertex 15 13 0
      vertex 14.7564 12.4941 24
    endloop
  endfacet
  facet normal -0.900969 0.433884 -7.05607e-017
    outer loop
      vertex 14.7564 12.4941 24
      vertex 15 13 0
      vertex 14.4906 11.9422 0
    endloop
  endfacet
  facet normal 0.62349 -0.781831 1.15734e-016
    outer loop
      vertex 12.116 14.5998 24
      vertex 12.555 14.9499 0
      vertex 12.555 14.9499 24
    endloop
  endfacet
  facet normal 0.62349 -0.781831 1.53379e-016
    outer loop
      vertex 12.116 14.5998 24
      vertex 11.6371 14.2179 0
      vertex 12.555 14.9499 0
    endloop
  endfacet
  facet normal -0.222521 0.974928 -1.44318e-016
    outer loop
      vertex 14.247 11.4363 24
      vertex 14.247 11.4363 0
      vertex 12.555 11.0501 24
    endloop
  endfacet
  facet normal -0.222521 0.974928 -1.44318e-016
    outer loop
      vertex 12.555 11.0501 24
      vertex 14.247 11.4363 0
      vertex 12.555 11.0501 0
    endloop
  endfacet
  facet normal 0.62349 0.781831 -1.15734e-016
    outer loop
      vertex 12.555 11.0501 24
      vertex 12.555 11.0501 0
      vertex 11.1981 12.1322 24
    endloop
  endfacet
  facet normal 0.62349 0.781831 -1.15734e-016
    outer loop
      vertex 11.1981 12.1322 24
      vertex 12.555 11.0501 0
      vertex 11.1981 12.1322 0
    endloop
  endfacet
  facet normal 0.62349 -0.781831 9.91097e-017
    outer loop
      vertex 11.1981 13.8678 24
      vertex 11.6371 14.2179 0
      vertex 12.116 14.5998 24
    endloop
  endfacet
  facet normal 0.62349 -0.781831 5.78672e-017
    outer loop
      vertex 11.1981 13.8678 24
      vertex 11.1981 13.8678 0
      vertex 11.6371 14.2179 0
    endloop
  endfacet
  facet normal -0.900969 -0.433884 3.21138e-017
    outer loop
      vertex 15 13 0
      vertex 15 13 24
      vertex 14.7564 13.5059 0
    endloop
  endfacet
  facet normal -0.900969 -0.433884 5.38058e-017
    outer loop
      vertex 14.7564 13.5059 0
      vertex 15 13 24
      vertex 14.4906 14.0578 24
    endloop
  endfacet
  facet normal -0.900969 0.433884 -3.57685e-017
    outer loop
      vertex 14.7564 12.4941 24
      vertex 14.4906 11.9422 0
      vertex 14.247 11.4363 24
    endloop
  endfacet
  facet normal -0.900969 0.433884 -6.42277e-017
    outer loop
      vertex 14.247 11.4363 24
      vertex 14.4906 11.9422 0
      vertex 14.247 11.4363 0
    endloop
  endfacet
  facet normal -0.222521 -0.974928 1.44318e-016
    outer loop
      vertex 12.555 14.9499 24
      vertex 14.247 14.5637 0
      vertex 14.247 14.5637 24
    endloop
  endfacet
  facet normal -0.222521 -0.974928 1.44318e-016
    outer loop
      vertex 12.555 14.9499 24
      vertex 12.555 14.9499 0
      vertex 14.247 14.5637 0
    endloop
  endfacet
  facet normal -0.900969 -0.433884 5.25235e-017
    outer loop
      vertex 14.4906 14.0578 24
      vertex 14.247 14.5637 0
      vertex 14.7564 13.5059 0
    endloop
  endfacet
  facet normal -0.900969 -0.433884 6.42276e-017
    outer loop
      vertex 14.4906 14.0578 24
      vertex 14.247 14.5637 24
      vertex 14.247 14.5637 0
    endloop
  endfacet
endsolid OpenSCAD_Model
