solid OpenSCAD_Model
  facet normal -1 7.62385e-017 0
    outer loop
      vertex -9.5 8 -12
      vertex -9.5 8 4
      vertex -9.5 31.3 -12
    endloop
  endfacet
  facet normal -1 7.62385e-017 0
    outer loop
      vertex -9.5 31.3 -12
      vertex -9.5 8 4
      vertex -9.5 31.3 4
    endloop
  endfacet
  facet normal 0 -1 0
    outer loop
      vertex 31.49 -11.5 -4
      vertex 8 -11.5 12
      vertex 8 -11.5 -4
    endloop
  endfacet
  facet normal 0 -1 0
    outer loop
      vertex 31.49 -11.5 -4
      vertex 31.49 -11.5 12
      vertex 8 -11.5 12
    endloop
  endfacet
  facet normal 0 0 -1
    outer loop
      vertex -9.5 8 -12
      vertex -5.9197 19.9118 -12
      vertex -5.9197 8 -12
    endloop
  endfacet
  facet normal 0 0 -1
    outer loop
      vertex -5.9197 19.9118 -12
      vertex -9.5 31.3 -12
      vertex -5.9197 31.3 -12
    endloop
  endfacet
  facet normal 0 0 -1
    outer loop
      vertex -9.5 8 -12
      vertex -9.5 31.3 -12
      vertex -5.9197 19.9118 -12
    endloop
  endfacet
  facet normal 0 0 -1
    outer loop
      vertex 5.9197 8 -12
      vertex 11.1981 12.1322 -12
      vertex 8 8 -12
    endloop
  endfacet
  facet normal 0 0 -1
    outer loop
      vertex 5.9197 19.0882 -12
      vertex 14.2968 21.899 -12
      vertex 12.555 14.9499 -12
    endloop
  endfacet
  facet normal 0 0 -1
    outer loop
      vertex 5.9197 19.0882 -12
      vertex 5.9197 31.3 -12
      vertex 13.3278 24.8813 -12
    endloop
  endfacet
  facet normal 0 0 -1
    outer loop
      vertex 5.9197 31.3 -12
      vertex 9.5 31.3 -12
      vertex 13.0579 27.4493 -12
    endloop
  endfacet
  facet normal 0 0 -1
    outer loop
      vertex 5.9197 31.3 -12
      vertex 13.0579 27.4493 -12
      vertex 13.3278 24.8813 -12
    endloop
  endfacet
  facet normal 0 0 -1
    outer loop
      vertex 5.9197 19.0882 -12
      vertex 13.3278 24.8813 -12
      vertex 14.2968 21.899 -12
    endloop
  endfacet
  facet normal -0 0 -1
    outer loop
      vertex 11.6371 14.2179 -12
      vertex 11.1981 13.8678 -12
      vertex 5.9197 19.0882 -12
    endloop
  endfacet
  facet normal 0 0 -1
    outer loop
      vertex 14.247 14.5637 -12
      vertex 15.8647 19.1832 -12
      vertex 17.963 16.8528 -12
    endloop
  endfacet
  facet normal 0 0 -1
    outer loop
      vertex 14.247 11.4363 -12
      vertex 8 8 -12
      vertex 12.555 11.0501 -12
    endloop
  endfacet
  facet normal 0 0 -1
    outer loop
      vertex 23.3647 13.7342 -12
      vertex 26.308 13.1085 -12
      vertex 31.49 7.5 -12
    endloop
  endfacet
  facet normal 0 0 -1
    outer loop
      vertex 31.49 -7.5 -12
      vertex 8 -7.5 -12
      vertex 14.247 11.4363 -12
    endloop
  endfacet
  facet normal 0 0 -1
    outer loop
      vertex 31.49 -7.5 -12
      vertex 14.247 11.4363 -12
      vertex 31.49 7.5 -12
    endloop
  endfacet
  facet normal 0 0 -1
    outer loop
      vertex 5.9197 8 -12
      vertex 5.9197 19.0882 -12
      vertex 11.1981 13.8678 -12
    endloop
  endfacet
  facet normal 0 0 -1
    outer loop
      vertex 5.9197 8 -12
      vertex 11.1981 13.8678 -12
      vertex 11.1981 12.1322 -12
    endloop
  endfacet
  facet normal 0 -0 -1
    outer loop
      vertex 17.963 16.8528 -12
      vertex 20.5 15.0096 -12
      vertex 15 13 -12
    endloop
  endfacet
  facet normal 0 0 -1
    outer loop
      vertex 8 8 -12
      vertex 11.1981 12.1322 -12
      vertex 12.555 11.0501 -12
    endloop
  endfacet
  facet normal 0 0 -1
    outer loop
      vertex 8 8 -12
      vertex 14.247 11.4363 -12
      vertex 8 -7.5 -12
    endloop
  endfacet
  facet normal 0 -0 -1
    outer loop
      vertex 23.3647 13.7342 -12
      vertex 31.49 7.5 -12
      vertex 14.247 11.4363 -12
    endloop
  endfacet
  facet normal -0 0 -1
    outer loop
      vertex 23.3647 13.7342 -12
      vertex 14.4906 11.9422 -12
      vertex 20.5 15.0096 -12
    endloop
  endfacet
  facet normal 0 0 -1
    outer loop
      vertex 14.247 11.4363 -12
      vertex 14.4906 11.9422 -12
      vertex 23.3647 13.7342 -12
    endloop
  endfacet
  facet normal 0 0 -1
    outer loop
      vertex 14.4906 11.9422 -12
      vertex 15 13 -12
      vertex 20.5 15.0096 -12
    endloop
  endfacet
  facet normal 0 0 -1
    outer loop
      vertex 17.963 16.8528 -12
      vertex 15 13 -12
      vertex 14.7564 13.5059 -12
    endloop
  endfacet
  facet normal 0 0 -1
    outer loop
      vertex 17.963 16.8528 -12
      vertex 14.7564 13.5059 -12
      vertex 14.247 14.5637 -12
    endloop
  endfacet
  facet normal 0 0 -1
    outer loop
      vertex 15.8647 19.1832 -12
      vertex 14.247 14.5637 -12
      vertex 12.555 14.9499 -12
    endloop
  endfacet
  facet normal -0 0 -1
    outer loop
      vertex 15.8647 19.1832 -12
      vertex 12.555 14.9499 -12
      vertex 14.2968 21.899 -12
    endloop
  endfacet
  facet normal -0 0 -1
    outer loop
      vertex 12.555 14.9499 -12
      vertex 11.6371 14.2179 -12
      vertex 5.9197 19.0882 -12
    endloop
  endfacet
  facet normal 0 -0.894427 -0.447214
    outer loop
      vertex 31.49 -7.5 -12
      vertex 31.49 -11.5 -4
      vertex 8 -7.58173 -11.8365
    endloop
  endfacet
  facet normal 0 -0.894427 -0.447214
    outer loop
      vertex 8 -7.5 -12
      vertex 31.49 -7.5 -12
      vertex 8 -7.58173 -11.8365
    endloop
  endfacet
  facet normal 1 -2.36848e-016 -5.62513e-016
    outer loop
      vertex 31.49 -11.5 -4
      vertex 31.49 -7.5 -12
      vertex 31.49 7.5 -12
    endloop
  endfacet
  facet normal -0.0945742 0.995518 0
    outer loop
      vertex -9.5 31.3 -12
      vertex -9.5 31.3 4
      vertex -7.5 31.49 -4
    endloop
  endfacet
  facet normal -0.0945742 0.995518 0
    outer loop
      vertex -7.5 31.49 -4
      vertex -9.5 31.3 4
      vertex -7.5 31.49 12
    endloop
  endfacet
  facet normal -0.970143 7.39622e-017 0.242536
    outer loop
      vertex -9.5 8 4
      vertex -9.47478 8 4.10088
      vertex -9.5 31.3 4
    endloop
  endfacet
  facet normal -0.970143 7.39546e-017 0.242536
    outer loop
      vertex -9.5 31.3 4
      vertex -9.47478 8 4.10088
      vertex -7.5 31.49 12
    endloop
  endfacet
  facet normal 0.633813 0.760639 0.140388
    outer loop
      vertex 7.5 31.49 12
      vertex 13 28 6.07826
      vertex 9.5 31.3 4
    endloop
  endfacet
  facet normal 0.633813 0.760639 0.140388
    outer loop
      vertex 7.5 31.49 12
      vertex 13.1259 26.8021 12
      vertex 13 28 6.07826
    endloop
  endfacet
  facet normal 0.633813 0.760639 0.140388
    outer loop
      vertex 9.5 31.3 4
      vertex 13 28 6.07826
      vertex 13.0143 28.1357 5.2785
    endloop
  endfacet
  facet normal 0.633813 0.760639 0.140388
    outer loop
      vertex 31.49 11.5 12
      vertex 29.7013 13.1105 11.3493
      vertex 29.5865 13.0861 12
    endloop
  endfacet
  facet normal -0 -0.894427 -0.447214
    outer loop
      vertex 31.49 -11.5 -4
      vertex 8 -11.5 -4
      vertex 8 -7.58173 -11.8365
    endloop
  endfacet
  facet normal 1 0 0
    outer loop
      vertex 31.49 7.5 4
      vertex 31.49 6.73259 4.32312
      vertex 31.49 6.49519 3.75
    endloop
  endfacet
  facet normal 1 0 0
    outer loop
      vertex 31.49 7.5 4
      vertex 31.49 5.3033 2.1967
      vertex 31.49 7.5 -12
    endloop
  endfacet
  facet normal 1 0 0
    outer loop
      vertex 31.49 7.5 4
      vertex 31.49 6.49519 3.75
      vertex 31.49 6.49469 3.74935
    endloop
  endfacet
  facet normal 1 0 0
    outer loop
      vertex 31.49 7.5 4
      vertex 31.49 6.49469 3.74935
      vertex 31.49 5.3033 2.1967
    endloop
  endfacet
  facet normal 1 0 0
    outer loop
      vertex 31.49 7.5 -12
      vertex 31.49 5.3033 2.1967
      vertex 31.49 3.75 1.00481
    endloop
  endfacet
  facet normal 1 0 0
    outer loop
      vertex 31.49 7.5 -12
      vertex 31.49 3.75 1.00481
      vertex 31.49 1.94114 0.255556
    endloop
  endfacet
  facet normal 1 0 0
    outer loop
      vertex 31.49 7.5 -12
      vertex 31.49 -1.94114 0.255556
      vertex 31.49 -11.5 -4
    endloop
  endfacet
  facet normal 1 0 0
    outer loop
      vertex 31.49 1.94114 0.255556
      vertex 31.49 0 2.66231e-015
      vertex 31.49 7.5 -12
    endloop
  endfacet
  facet normal 1 0 0
    outer loop
      vertex 31.49 0 2.66231e-015
      vertex 31.49 -1.94114 0.255556
      vertex 31.49 7.5 -12
    endloop
  endfacet
  facet normal 1 0 0
    outer loop
      vertex 31.49 -1.94114 0.255556
      vertex 31.49 -3.75 1.00481
      vertex 31.49 -11.5 -4
    endloop
  endfacet
  facet normal 1 0 0
    outer loop
      vertex 31.49 -3.75 1.00481
      vertex 31.49 -5.3033 2.1967
      vertex 31.49 -11.5 -4
    endloop
  endfacet
  facet normal 1 0 0
    outer loop
      vertex 31.49 -5.3033 2.1967
      vertex 31.49 -6.49469 3.74935
      vertex 31.49 -11.5 -4
    endloop
  endfacet
  facet normal 1 0 0
    outer loop
      vertex 31.49 -6.49469 3.74935
      vertex 31.49 -6.49519 3.75
      vertex 31.49 -11.5 -4
    endloop
  endfacet
  facet normal 1 0 0
    outer loop
      vertex 31.49 -7.24444 5.55886
      vertex 31.49 -11.5 12
      vertex 31.49 -11.5 -4
    endloop
  endfacet
  facet normal 1 0 0
    outer loop
      vertex 31.49 -7.24444 5.55886
      vertex 31.49 -11.5 -4
      vertex 31.49 -6.49519 3.75
    endloop
  endfacet
  facet normal 1 0 0
    outer loop
      vertex 31.49 -7.5 7.5
      vertex 31.49 -11.5 12
      vertex 31.49 -7.24444 5.55886
    endloop
  endfacet
  facet normal 1 0 0
    outer loop
      vertex 31.49 -7.24444 9.44114
      vertex 31.49 -11.5 12
      vertex 31.49 -7.5 7.5
    endloop
  endfacet
  facet normal 1 0 0
    outer loop
      vertex 31.49 -6.97391 10.0943
      vertex 31.49 -11.5 12
      vertex 31.49 -7.24444 9.44114
    endloop
  endfacet
  facet normal 0 0 1
    outer loop
      vertex 7.5 31.49 12
      vertex -7.5 31.49 12
      vertex 11.1981 13.8678 12
    endloop
  endfacet
  facet normal -0 0 1
    outer loop
      vertex 8 8 12
      vertex 8 5.9197 12
      vertex 12.555 11.0501 12
    endloop
  endfacet
  facet normal 0 0 1
    outer loop
      vertex 31.49 11.5 12
      vertex 29.5865 13.0861 12
      vertex 29.5679 13.0822 12
    endloop
  endfacet
  facet normal 0 0 1
    outer loop
      vertex 31.49 5.9197 12
      vertex 26.4321 13.0822 12
      vertex 19.0882 5.9197 12
    endloop
  endfacet
  facet normal 0 0 1
    outer loop
      vertex 31.49 11.5 12
      vertex 26.4321 13.0822 12
      vertex 31.49 5.9197 12
    endloop
  endfacet
  facet normal 0 0 1
    outer loop
      vertex 31.49 11.5 12
      vertex 29.5679 13.0822 12
      vertex 26.4321 13.0822 12
    endloop
  endfacet
  facet normal 0 0 1
    outer loop
      vertex 19.0882 5.9197 12
      vertex 26.4321 13.0822 12
      vertex 23.3647 13.7342 12
    endloop
  endfacet
  facet normal 0 0 1
    outer loop
      vertex 19.0882 5.9197 12
      vertex 23.3647 13.7342 12
      vertex 20.5 15.0096 12
    endloop
  endfacet
  facet normal 0 0 1
    outer loop
      vertex 11.1981 13.8678 12
      vertex -7.5 31.49 12
      vertex -7.5 8 12
    endloop
  endfacet
  facet normal 0 0 1
    outer loop
      vertex 14.2968 21.899 12
      vertex 11.1981 13.8678 12
      vertex 12.116 14.5998 12
    endloop
  endfacet
  facet normal 0 0 1
    outer loop
      vertex 12.555 14.9499 12
      vertex 15.8647 19.1832 12
      vertex 14.2968 21.899 12
    endloop
  endfacet
  facet normal 0 0 1
    outer loop
      vertex 8 8 12
      vertex 11.1981 12.1322 12
      vertex 11.1981 13.8678 12
    endloop
  endfacet
  facet normal 0 0 1
    outer loop
      vertex 13.1259 26.8021 12
      vertex 7.5 31.49 12
      vertex 13.3278 24.8813 12
    endloop
  endfacet
  facet normal 0 0 1
    outer loop
      vertex 11.1981 13.8678 12
      vertex -7.5 8 12
      vertex 8 8 12
    endloop
  endfacet
  facet normal 0 0 1
    outer loop
      vertex 7.5 31.49 12
      vertex 11.1981 13.8678 12
      vertex 13.3278 24.8813 12
    endloop
  endfacet
  facet normal 0 0 1
    outer loop
      vertex 11.1981 13.8678 12
      vertex 14.2968 21.899 12
      vertex 13.3278 24.8813 12
    endloop
  endfacet
  facet normal 0 0 1
    outer loop
      vertex 14.2968 21.899 12
      vertex 12.116 14.5998 12
      vertex 12.555 14.9499 12
    endloop
  endfacet
  facet normal 0 -0 1
    outer loop
      vertex 19.0882 5.9197 12
      vertex 20.5 15.0096 12
      vertex 14.7564 12.4941 12
    endloop
  endfacet
  facet normal 0 0 1
    outer loop
      vertex 15.8647 19.1832 12
      vertex 14.247 14.5637 12
      vertex 17.963 16.8528 12
    endloop
  endfacet
  facet normal 0 0 1
    outer loop
      vertex 15 13 12
      vertex 20.5 15.0096 12
      vertex 17.963 16.8528 12
    endloop
  endfacet
  facet normal 0 -0 1
    outer loop
      vertex 14.247 14.5637 12
      vertex 15.8647 19.1832 12
      vertex 12.555 14.9499 12
    endloop
  endfacet
  facet normal -0 0 1
    outer loop
      vertex 14.247 14.5637 12
      vertex 14.4906 14.0578 12
      vertex 17.963 16.8528 12
    endloop
  endfacet
  facet normal -0 0 1
    outer loop
      vertex 14.4906 14.0578 12
      vertex 15 13 12
      vertex 17.963 16.8528 12
    endloop
  endfacet
  facet normal -0 0 1
    outer loop
      vertex 15 13 12
      vertex 14.7564 12.4941 12
      vertex 20.5 15.0096 12
    endloop
  endfacet
  facet normal 0 0 1
    outer loop
      vertex 11.1981 12.1322 12
      vertex 8 8 12
      vertex 12.555 11.0501 12
    endloop
  endfacet
  facet normal 0 0 1
    outer loop
      vertex 14.7564 12.4941 12
      vertex 14.247 11.4363 12
      vertex 19.0882 5.9197 12
    endloop
  endfacet
  facet normal 0 0 1
    outer loop
      vertex 12.555 11.0501 12
      vertex 8 5.9197 12
      vertex 19.0882 5.9197 12
    endloop
  endfacet
  facet normal -0 0 1
    outer loop
      vertex 12.555 11.0501 12
      vertex 19.0882 5.9197 12
      vertex 14.247 11.4363 12
    endloop
  endfacet
  facet normal 0 0 1
    outer loop
      vertex 31.49 -11.5 12
      vertex 19.9118 -5.9197 12
      vertex 8 -11.5 12
    endloop
  endfacet
  facet normal 0 0 1
    outer loop
      vertex 31.49 -5.9197 12
      vertex 19.9118 -5.9197 12
      vertex 31.49 -11.5 12
    endloop
  endfacet
  facet normal 0 0 1
    outer loop
      vertex 19.9118 -5.9197 12
      vertex 8 -5.9197 12
      vertex 8 -11.5 12
    endloop
  endfacet
  facet normal -0.970143 1.10046e-016 0.242536
    outer loop
      vertex -7.5 8 12
      vertex -7.5 31.49 12
      vertex -9.47478 8 4.10088
    endloop
  endfacet
  facet normal 3.94085e-015 0.999718 -0.0237433
    outer loop
      vertex -7.24444 31.453 -5.55886
      vertex -7.5 31.49 -4
      vertex -6.59874 31.49 -4
    endloop
  endfacet
  facet normal 4.1073e-015 0.999718 -0.0237433
    outer loop
      vertex -9.5 31.3 -12
      vertex -7.5 31.49 -4
      vertex -7.5 31.4069 -7.5
    endloop
  endfacet
  facet normal 1.17656e-015 0.999718 -0.0237433
    outer loop
      vertex -7.5 31.49 -4
      vertex -7.24444 31.453 -5.55886
      vertex -7.5 31.4069 -7.5
    endloop
  endfacet
  facet normal -2.3851e-016 0.999718 -0.0237433
    outer loop
      vertex -9.5 31.3 -12
      vertex -7.5 31.4069 -7.5
      vertex -7.24444 31.3608 -9.44114
    endloop
  endfacet
  facet normal 1.9884e-015 0.999718 -0.0237433
    outer loop
      vertex -9.5 31.3 -12
      vertex -7.24444 31.3608 -9.44114
      vertex -6.72537 31.331 -10.6943
    endloop
  endfacet
  facet normal 0 0.999718 -0.0237433
    outer loop
      vertex 7.5 31.49 -4
      vertex 6.74576 31.4816 -4.35494
      vertex 6.59874 31.49 -4
    endloop
  endfacet
  facet normal -0 1 0
    outer loop
      vertex 5.3033 31.49 -2.1967
      vertex 7.5 31.49 12
      vertex 7.5 31.49 -4
    endloop
  endfacet
  facet normal 0 1 0
    outer loop
      vertex 6.49519 31.49 -3.75
      vertex 7.5 31.49 -4
      vertex 6.59874 31.49 -4
    endloop
  endfacet
  facet normal 0 1 0
    outer loop
      vertex 5.3033 31.49 -2.1967
      vertex 7.5 31.49 -4
      vertex 6.49519 31.49 -3.75
    endloop
  endfacet
  facet normal 2.36848e-016 1 -1.4803e-016
    outer loop
      vertex -7.5 31.49 12
      vertex 7.5 31.49 12
      vertex 1.74386e-015 31.49 2.66231e-015
    endloop
  endfacet
  facet normal 0 1 0
    outer loop
      vertex 7.5 31.49 12
      vertex 5.3033 31.49 -2.1967
      vertex 3.75 31.49 -1.00481
    endloop
  endfacet
  facet normal 0 1 0
    outer loop
      vertex 7.5 31.49 12
      vertex 3.75 31.49 -1.00481
      vertex 1.94114 31.49 -0.255556
    endloop
  endfacet
  facet normal 0 1 0
    outer loop
      vertex 7.5 31.49 12
      vertex 1.94114 31.49 -0.255556
      vertex 1.74386e-015 31.49 2.66231e-015
    endloop
  endfacet
  facet normal 3.60137e-017 1 -2.73551e-016
    outer loop
      vertex -7.5 31.49 12
      vertex 1.74386e-015 31.49 2.66231e-015
      vertex -1.94114 31.49 -0.255556
    endloop
  endfacet
  facet normal 1.01083e-016 1 -2.44037e-016
    outer loop
      vertex -7.5 31.49 12
      vertex -1.94114 31.49 -0.255556
      vertex -3.74925 31.49 -1.0045
    endloop
  endfacet
  facet normal 1.01083e-016 1 -2.44037e-016
    outer loop
      vertex -7.5 31.49 12
      vertex -3.74925 31.49 -1.0045
      vertex -3.75 31.49 -1.00481
    endloop
  endfacet
  facet normal 3.94196e-015 1 -1.63281e-015
    outer loop
      vertex -6.4955 31.49 -3.75075
      vertex -6.59874 31.49 -4
      vertex -7.5 31.49 -4
    endloop
  endfacet
  facet normal 1.71644e-016 1 -2.2369e-016
    outer loop
      vertex -7.5 31.49 12
      vertex -3.75 31.49 -1.00481
      vertex -5.3033 31.49 -2.1967
    endloop
  endfacet
  facet normal 1.6173e-015 1 0
    outer loop
      vertex -7.5 31.49 12
      vertex -5.3033 31.49 -2.1967
      vertex -7.5 31.49 -4
    endloop
  endfacet
  facet normal 4.37e-015 1 -3.35322e-015
    outer loop
      vertex -5.3033 31.49 -2.1967
      vertex -6.49519 31.49 -3.75
      vertex -7.5 31.49 -4
    endloop
  endfacet
  facet normal 3.94196e-015 1 -1.63281e-015
    outer loop
      vertex -6.49519 31.49 -3.75
      vertex -6.4955 31.49 -3.75075
      vertex -7.5 31.49 -4
    endloop
  endfacet
  facet normal 0.669133 0.743143 -0
    outer loop
      vertex 9.5 31.3 -12
      vertex 9.5 31.3 4
      vertex 13.0143 28.1357 -10.7215
    endloop
  endfacet
  facet normal 0.669133 0.743143 -0
    outer loop
      vertex 13.0143 28.1357 -10.7215
      vertex 9.5 31.3 4
      vertex 13.0143 28.1357 5.2785
    endloop
  endfacet
  facet normal 0.669133 0.743143 -0
    outer loop
      vertex 29.7013 13.1105 -4.65072
      vertex 29.7013 13.1105 11.3493
      vertex 31.49 11.5 -4
    endloop
  endfacet
  facet normal 0.669133 0.743143 -0
    outer loop
      vertex 31.49 11.5 -4
      vertex 29.7013 13.1105 11.3493
      vertex 31.49 11.5 12
    endloop
  endfacet
  facet normal 1 -0 0
    outer loop
      vertex 31.49 5.9197 12
      vertex 31.49 6.49519 11.25
      vertex 31.49 11.5 12
    endloop
  endfacet
  facet normal 1 -0 0
    outer loop
      vertex 31.49 6.49519 11.25
      vertex 31.49 7.24413 9.4419
      vertex 31.49 11.5 12
    endloop
  endfacet
  facet normal 1 -0 0
    outer loop
      vertex 31.49 7.24413 9.4419
      vertex 31.49 7.24444 9.44114
      vertex 31.49 11.5 12
    endloop
  endfacet
  facet normal 1 1.03075e-015 2.44803e-015
    outer loop
      vertex 31.49 6.73259 4.32312
      vertex 31.49 7.5 4
      vertex 31.49 7.24444 5.55886
    endloop
  endfacet
  facet normal 1 -0 0
    outer loop
      vertex 31.49 7.24444 9.44114
      vertex 31.49 7.5 7.5
      vertex 31.49 11.5 12
    endloop
  endfacet
  facet normal 1 -1.14194e-015 1.01506e-015
    outer loop
      vertex 31.49 7.5 7.5
      vertex 31.49 7.5 4
      vertex 31.49 11.5 12
    endloop
  endfacet
  facet normal 1 -7.71015e-015 1.01506e-015
    outer loop
      vertex 31.49 7.24444 5.55886
      vertex 31.49 7.5 4
      vertex 31.49 7.5 7.5
    endloop
  endfacet
  facet normal 1 6.36652e-016 -4.8852e-016
    outer loop
      vertex 31.49 -11.5 12
      vertex 31.49 -6.49469 11.2506
      vertex 31.49 -5.9197 12
    endloop
  endfacet
  facet normal 1 1.10283e-015 2.61922e-015
    outer loop
      vertex 31.49 -11.5 12
      vertex 31.49 -6.97391 10.0943
      vertex 31.49 -6.4955 11.2492
    endloop
  endfacet
  facet normal 1 6.68372e-016 -2.76849e-016
    outer loop
      vertex 31.49 -11.5 12
      vertex 31.49 -6.4955 11.2492
      vertex 31.49 -6.49519 11.25
    endloop
  endfacet
  facet normal 1 6.36652e-016 -4.8852e-016
    outer loop
      vertex 31.49 -11.5 12
      vertex 31.49 -6.49519 11.25
      vertex 31.49 -6.49469 11.2506
    endloop
  endfacet
  facet normal 0.0945742 0.995518 0
    outer loop
      vertex 7.5 31.49 -4
      vertex 9.5 31.3 4
      vertex 9.5 31.3 -12
    endloop
  endfacet
  facet normal 0.0945742 0.995518 -0
    outer loop
      vertex 7.5 31.49 -4
      vertex 7.5 31.49 12
      vertex 9.5 31.3 4
    endloop
  endfacet
  facet normal -3.94917e-016 0.999718 -0.0237433
    outer loop
      vertex -9.5 31.3 -12
      vertex -6.72537 31.331 -10.6943
      vertex -6.49519 31.3178 -11.25
    endloop
  endfacet
  facet normal 1.35219e-014 0.999718 -0.0237433
    outer loop
      vertex -9.5 31.3 -12
      vertex -6.49519 31.3178 -11.25
      vertex -6.48613 31.3175 -11.2618
    endloop
  endfacet
  facet normal 9.92014e-016 0.999718 -0.0237433
    outer loop
      vertex -9.5 31.3 -12
      vertex -6.48613 31.3175 -11.2618
      vertex -5.9197 31.3 -12
    endloop
  endfacet
  facet normal 0 0.999718 -0.0237433
    outer loop
      vertex 5.9197 31.3 -12
      vertex 6.49519 31.3178 -11.25
      vertex 9.5 31.3 -12
    endloop
  endfacet
  facet normal -4.38056e-014 0.999718 -0.0237433
    outer loop
      vertex 9.5 31.3 -12
      vertex 6.49519 31.3178 -11.25
      vertex 6.50087 31.3181 -11.2363
    endloop
  endfacet
  facet normal 1.28334e-016 0.999718 -0.0237433
    outer loop
      vertex 6.50087 31.3181 -11.2363
      vertex 7.24444 31.3608 -9.44114
      vertex 9.5 31.3 -12
    endloop
  endfacet
  facet normal 1.56527e-015 0.999718 -0.0237433
    outer loop
      vertex 7.24444 31.3608 -9.44114
      vertex 7.5 31.4069 -7.5
      vertex 9.5 31.3 -12
    endloop
  endfacet
  facet normal -2.40375e-015 0.999718 -0.0237433
    outer loop
      vertex 7.5 31.4069 -7.5
      vertex 7.5 31.49 -4
      vertex 9.5 31.3 -12
    endloop
  endfacet
  facet normal -2.2688e-015 0.999718 -0.0237433
    outer loop
      vertex 7.24444 31.453 -5.55886
      vertex 6.74576 31.4816 -4.35494
      vertex 7.5 31.49 -4
    endloop
  endfacet
  facet normal -1.0663e-015 0.999718 -0.0237433
    outer loop
      vertex 7.24444 31.453 -5.55886
      vertex 7.5 31.49 -4
      vertex 7.5 31.4069 -7.5
    endloop
  endfacet
  facet normal 1 8.88178e-016 0
    outer loop
      vertex 31.49 7.5 4
      vertex 31.49 7.5 -12
      vertex 31.49 11.5 -4
    endloop
  endfacet
  facet normal 1 8.88178e-016 0
    outer loop
      vertex 31.49 11.5 12
      vertex 31.49 7.5 4
      vertex 31.49 11.5 -4
    endloop
  endfacet
  facet normal 0.695535 0.642639 -0.32132
    outer loop
      vertex 13 28 -11.0238
      vertex 13.0579 27.4493 -12
      vertex 9.5 31.3 -12
    endloop
  endfacet
  facet normal 0.695535 0.642639 -0.32132
    outer loop
      vertex 13.0143 28.1357 -10.7215
      vertex 13 28 -11.0238
      vertex 9.5 31.3 -12
    endloop
  endfacet
  facet normal 0.695535 0.642639 -0.32132
    outer loop
      vertex 26.4321 13.0822 -11.7841
      vertex 31.49 7.5 -12
      vertex 26.308 13.1085 -12
    endloop
  endfacet
  facet normal 0.695535 0.642639 -0.32132
    outer loop
      vertex 26.4321 13.0822 -11.7841
      vertex 29.5679 13.0822 -4.99622
      vertex 31.49 7.5 -12
    endloop
  endfacet
  facet normal 0.695535 0.642639 -0.32132
    outer loop
      vertex 31.49 11.5 -4
      vertex 31.49 7.5 -12
      vertex 29.5679 13.0822 -4.99622
    endloop
  endfacet
  facet normal 0.695535 0.642639 -0.32132
    outer loop
      vertex 29.7013 13.1105 -4.65072
      vertex 31.49 11.5 -4
      vertex 29.5679 13.0822 -4.99622
    endloop
  endfacet
  facet normal 0.991445 -2.08324e-016 0.130526
    outer loop
      vertex -7.5 8 -7.5
      vertex -7.24444 8 -9.44114
      vertex -7.24444 31.3608 -9.44114
    endloop
  endfacet
  facet normal 0.991445 -2.12867e-016 0.130526
    outer loop
      vertex -7.5 31.4069 -7.5
      vertex -7.5 8 -7.5
      vertex -7.24444 31.3608 -9.44114
    endloop
  endfacet
  facet normal -0.92388 1.17431e-016 0.382683
    outer loop
      vertex 7.24444 8 -9.44114
      vertex 7.24444 31.3608 -9.44114
      vertex 7.22883 8 -9.47883
    endloop
  endfacet
  facet normal -0.92388 1.44084e-016 0.382683
    outer loop
      vertex 7.22883 8 -9.47883
      vertex 7.24444 31.3608 -9.44114
      vertex 6.50087 31.3181 -11.2363
    endloop
  endfacet
  facet normal -0.92388 1.25269e-016 0.382683
    outer loop
      vertex 6.50087 31.3181 -11.2363
      vertex 6.49519 8 -11.25
      vertex 7.22883 8 -9.47883
    endloop
  endfacet
  facet normal -0.92388 1.17648e-016 0.382683
    outer loop
      vertex 6.50087 31.3181 -11.2363
      vertex 6.49519 31.3178 -11.25
      vertex 6.49519 8 -11.25
    endloop
  endfacet
  facet normal 0.793353 -2.95774e-016 0.608761
    outer loop
      vertex -6.49519 8 -11.25
      vertex -5.9197 8 -12
      vertex -5.9197 19.9118 -12
    endloop
  endfacet
  facet normal 0.793353 -5.02121e-015 0.608761
    outer loop
      vertex -6.48613 31.3175 -11.2618
      vertex -6.49519 31.3178 -11.25
      vertex -5.9197 19.9118 -12
    endloop
  endfacet
  facet normal 0.793353 -2.43846e-016 0.608761
    outer loop
      vertex -6.49519 31.3178 -11.25
      vertex -6.49519 8 -11.25
      vertex -5.9197 19.9118 -12
    endloop
  endfacet
  facet normal 0.991445 -1.63018e-016 -0.130526
    outer loop
      vertex -7.24444 8 -5.55886
      vertex -7.5 31.4069 -7.5
      vertex -7.24444 31.453 -5.55886
    endloop
  endfacet
  facet normal 0.991445 -1.63338e-016 -0.130526
    outer loop
      vertex -7.24444 8 -5.55886
      vertex -7.5 8 -7.5
      vertex -7.5 31.4069 -7.5
    endloop
  endfacet
  facet normal -0.793353 2.76585e-016 -0.608761
    outer loop
      vertex 6.49519 31.49 -3.75
      vertex 5.3033 8 -2.1967
      vertex 5.3033 31.49 -2.1967
    endloop
  endfacet
  facet normal -0.793353 2.76585e-016 -0.608761
    outer loop
      vertex 6.49519 31.49 -3.75
      vertex 6.49519 8 -3.75
      vertex 5.3033 8 -2.1967
    endloop
  endfacet
  facet normal -0.130526 2.46274e-016 -0.991445
    outer loop
      vertex 1.94114 31.49 -0.255556
      vertex 1.94114 8 -0.255556
      vertex 1.74386e-015 31.49 2.66231e-015
    endloop
  endfacet
  facet normal -0.130526 2.49128e-016 -0.991445
    outer loop
      vertex 1.74386e-015 31.49 2.66231e-015
      vertex 1.94114 8 -0.255556
      vertex -3.47197e-015 8 -2.55351e-015
    endloop
  endfacet
  facet normal -0.991445 1.63339e-016 0.130526
    outer loop
      vertex 7.5 31.4069 -7.5
      vertex 7.24444 31.3608 -9.44114
      vertex 7.5 8 -7.5
    endloop
  endfacet
  facet normal -0.991445 1.68624e-016 0.130526
    outer loop
      vertex 7.5 8 -7.5
      vertex 7.24444 31.3608 -9.44114
      vertex 7.24444 8 -9.44114
    endloop
  endfacet
  facet normal 0.92388 -9.75072e-017 -0.382683
    outer loop
      vertex -7.22883 8 -5.52117
      vertex -7.24444 31.453 -5.55886
      vertex -6.59874 31.49 -4
    endloop
  endfacet
  facet normal 0.92388 -1.06133e-016 -0.382683
    outer loop
      vertex -6.4955 31.49 -3.75075
      vertex -7.22883 8 -5.52117
      vertex -6.59874 31.49 -4
    endloop
  endfacet
  facet normal 0.92388 -1.02477e-016 -0.382683
    outer loop
      vertex -7.22883 8 -5.52117
      vertex -7.24444 8 -5.55886
      vertex -7.24444 31.453 -5.55886
    endloop
  endfacet
  facet normal 0.608761 4.58871e-017 -0.793353
    outer loop
      vertex -3.75 31.49 -1.00481
      vertex -3.75 8 -1.00481
      vertex -5.3033 31.49 -2.1967
    endloop
  endfacet
  facet normal 0.608761 4.98967e-017 -0.793353
    outer loop
      vertex -5.3033 31.49 -2.1967
      vertex -3.75 8 -1.00481
      vertex -5.3033 8 -2.1967
    endloop
  endfacet
  facet normal -0.382683 2.80446e-016 -0.92388
    outer loop
      vertex 3.75 31.49 -1.00481
      vertex 3.75 8 -1.00481
      vertex 1.94114 31.49 -0.255556
    endloop
  endfacet
  facet normal -0.382683 2.86247e-016 -0.92388
    outer loop
      vertex 1.94114 31.49 -0.255556
      vertex 3.75 8 -1.00481
      vertex 1.94114 8 -0.255556
    endloop
  endfacet
  facet normal -0.92388 2.54247e-016 -0.382683
    outer loop
      vertex 6.59874 31.49 -4
      vertex 6.49519 8 -3.75
      vertex 6.49519 31.49 -3.75
    endloop
  endfacet
  facet normal -0.92388 2.51437e-016 -0.382683
    outer loop
      vertex 6.59874 31.49 -4
      vertex 6.74576 31.4816 -4.35494
      vertex 6.49519 8 -3.75
    endloop
  endfacet
  facet normal -0.92388 2.47401e-016 -0.382683
    outer loop
      vertex 6.74576 31.4816 -4.35494
      vertex 7.24444 31.453 -5.55886
      vertex 7.24444 8 -5.55886
    endloop
  endfacet
  facet normal -0.92388 2.78003e-016 -0.382683
    outer loop
      vertex 6.74576 31.4816 -4.35494
      vertex 7.24444 8 -5.55886
      vertex 6.49519 8 -3.75
    endloop
  endfacet
  facet normal -0.608761 2.80075e-016 -0.793353
    outer loop
      vertex 5.3033 31.49 -2.1967
      vertex 5.3033 8 -2.1967
      vertex 3.75 31.49 -1.00481
    endloop
  endfacet
  facet normal -0.608761 2.99083e-016 -0.793353
    outer loop
      vertex 3.75 31.49 -1.00481
      vertex 5.3033 8 -2.1967
      vertex 3.75 8 -1.00481
    endloop
  endfacet
  facet normal 0.92388 -2.34259e-016 0.382683
    outer loop
      vertex -6.72537 31.331 -10.6943
      vertex -6.49519 8 -11.25
      vertex -6.49519 31.3178 -11.25
    endloop
  endfacet
  facet normal 0.92388 -2.47105e-016 0.382683
    outer loop
      vertex -6.72537 31.331 -10.6943
      vertex -7.24444 8 -9.44114
      vertex -6.49519 8 -11.25
    endloop
  endfacet
  facet normal 0.92388 -2.33828e-016 0.382683
    outer loop
      vertex -7.24444 31.3608 -9.44114
      vertex -7.24444 8 -9.44114
      vertex -6.72537 31.331 -10.6943
    endloop
  endfacet
  facet normal 0.793353 -3.71246e-016 0.608761
    outer loop
      vertex -5.9197 19.9118 -12
      vertex -5.9197 31.3 -12
      vertex -6.48613 31.3175 -11.2618
    endloop
  endfacet
  facet normal 0.92388 -9.50808e-017 -0.382683
    outer loop
      vertex -6.49519 8 -3.75
      vertex -6.4955 31.49 -3.75075
      vertex -6.49519 31.49 -3.75
    endloop
  endfacet
  facet normal 0.92388 -1.06585e-016 -0.382683
    outer loop
      vertex -6.49519 8 -3.75
      vertex -7.22883 8 -5.52117
      vertex -6.4955 31.49 -3.75075
    endloop
  endfacet
  facet normal 0.793353 -2.3389e-017 -0.608761
    outer loop
      vertex -5.3033 8 -2.1967
      vertex -6.49519 31.49 -3.75
      vertex -5.3033 31.49 -2.1967
    endloop
  endfacet
  facet normal 0.793353 -2.3388e-017 -0.608761
    outer loop
      vertex -5.3033 8 -2.1967
      vertex -6.49519 8 -3.75
      vertex -6.49519 31.49 -3.75
    endloop
  endfacet
  facet normal 0.382683 1.2128e-016 -0.92388
    outer loop
      vertex -3.74925 31.49 -1.0045
      vertex -3.75 8 -1.00481
      vertex -3.75 31.49 -1.00481
    endloop
  endfacet
  facet normal 0.382683 1.20014e-016 -0.92388
    outer loop
      vertex -3.74925 31.49 -1.0045
      vertex -1.97883 8 -0.271166
      vertex -3.75 8 -1.00481
    endloop
  endfacet
  facet normal -0.991445 2.12448e-016 -0.130526
    outer loop
      vertex 7.5 31.4069 -7.5
      vertex 7.24444 8 -5.55886
      vertex 7.24444 31.453 -5.55886
    endloop
  endfacet
  facet normal -0.991445 2.12867e-016 -0.130526
    outer loop
      vertex 7.5 31.4069 -7.5
      vertex 7.5 8 -7.5
      vertex 7.24444 8 -5.55886
    endloop
  endfacet
  facet normal 0.130526 1.91162e-016 -0.991445
    outer loop
      vertex 1.74386e-015 31.49 2.66231e-015
      vertex -3.47197e-015 8 -2.55351e-015
      vertex -1.94114 31.49 -0.255556
    endloop
  endfacet
  facet normal 0.130526 1.89518e-016 -0.991445
    outer loop
      vertex -1.94114 31.49 -0.255556
      vertex -3.47197e-015 8 -2.55351e-015
      vertex -1.94114 8 -0.255556
    endloop
  endfacet
  facet normal -0.793353 4.97415e-018 0.608761
    outer loop
      vertex 6.49519 8 -11.25
      vertex 5.9197 19.0882 -12
      vertex 6.47036 8 -11.2824
    endloop
  endfacet
  facet normal -0.793353 5.83434e-017 0.608761
    outer loop
      vertex 6.49519 8 -11.25
      vertex 6.49519 31.3178 -11.25
      vertex 5.9197 19.0882 -12
    endloop
  endfacet
  facet normal -0.793353 0 0.608761
    outer loop
      vertex 6.49519 31.3178 -11.25
      vertex 5.9197 31.3 -12
      vertex 5.9197 19.0882 -12
    endloop
  endfacet
  facet normal 0.382683 1.19846e-016 -0.92388
    outer loop
      vertex -1.94114 8 -0.255556
      vertex -1.97883 8 -0.271166
      vertex -1.94114 31.49 -0.255556
    endloop
  endfacet
  facet normal 0.382683 1.18913e-016 -0.92388
    outer loop
      vertex -1.94114 31.49 -0.255556
      vertex -1.97883 8 -0.271166
      vertex -3.74925 31.49 -1.0045
    endloop
  endfacet
  facet normal -0.793353 1.27097e-016 0.608761
    outer loop
      vertex 5.9197 8 -12
      vertex 6.47036 8 -11.2824
      vertex 5.9197 19.0882 -12
    endloop
  endfacet
  facet normal 1.82577e-016 0.793353 -0.608761
    outer loop
      vertex 19.9118 -5.9197 12
      vertex 31.49 -5.9197 12
      vertex 31.49 -6.49469 11.2506
    endloop
  endfacet
  facet normal 1.15117e-016 0.92388 -0.382683
    outer loop
      vertex 31.49 -6.4955 11.2492
      vertex 31.49 -6.97391 10.0943
      vertex 8 -7.22883 9.47883
    endloop
  endfacet
  facet normal 1.13297e-016 0.92388 -0.382683
    outer loop
      vertex 8 -7.22883 9.47883
      vertex 31.49 -6.97391 10.0943
      vertex 31.49 -7.24444 9.44114
    endloop
  endfacet
  facet normal 5.78785e-017 0.92388 -0.382683
    outer loop
      vertex 8 -7.22883 9.47883
      vertex 31.49 -7.24444 9.44114
      vertex 8 -7.24444 9.44114
    endloop
  endfacet
  facet normal -1.64986e-016 -0.608761 0.793353
    outer loop
      vertex 8 5.3033 2.1967
      vertex 31.49 3.75 1.00481
      vertex 31.49 5.3033 2.1967
    endloop
  endfacet
  facet normal -1.72484e-016 -0.608761 0.793353
    outer loop
      vertex 8 5.3033 2.1967
      vertex 8 3.75 1.00481
      vertex 31.49 3.75 1.00481
    endloop
  endfacet
  facet normal -2.46764e-017 0.991445 0.130526
    outer loop
      vertex 31.49 -7.24444 5.55886
      vertex 8 -7.5 7.5
      vertex 31.49 -7.5 7.5
    endloop
  endfacet
  facet normal -2.46766e-017 0.991445 0.130526
    outer loop
      vertex 31.49 -7.24444 5.55886
      vertex 8 -7.24444 5.55886
      vertex 8 -7.5 7.5
    endloop
  endfacet
  facet normal 8.68177e-017 0.92388 -0.382683
    outer loop
      vertex 31.49 -6.49519 11.25
      vertex 31.49 -6.4955 11.2492
      vertex 8 -6.49519 11.25
    endloop
  endfacet
  facet normal 8.98078e-017 0.92388 -0.382683
    outer loop
      vertex 8 -6.49519 11.25
      vertex 31.49 -6.4955 11.2492
      vertex 8 -7.22883 9.47883
    endloop
  endfacet
  facet normal 1.77465e-016 0.793353 -0.608761
    outer loop
      vertex 19.9118 -5.9197 12
      vertex 8 -6.49519 11.25
      vertex 8 -5.9197 12
    endloop
  endfacet
  facet normal 5.8191e-014 0.793353 -0.608761
    outer loop
      vertex 19.9118 -5.9197 12
      vertex 31.49 -6.49469 11.2506
      vertex 31.49 -6.49519 11.25
    endloop
  endfacet
  facet normal 1.38107e-016 0.793353 -0.608761
    outer loop
      vertex 19.9118 -5.9197 12
      vertex 31.49 -6.49519 11.25
      vertex 8 -6.49519 11.25
    endloop
  endfacet
  facet normal -2.20239e-016 -0.130526 0.991445
    outer loop
      vertex 8 1.94114 0.255556
      vertex 31.49 0 2.66231e-015
      vertex 31.49 1.94114 0.255556
    endloop
  endfacet
  facet normal -2.20145e-016 -0.130526 0.991445
    outer loop
      vertex 8 1.94114 0.255556
      vertex 8 0 -2.55351e-015
      vertex 31.49 0 2.66231e-015
    endloop
  endfacet
  facet normal -1.26598e-016 -0.793353 0.608761
    outer loop
      vertex 8 6.49519 3.75
      vertex 31.49 6.49469 3.74935
      vertex 31.49 6.49519 3.75
    endloop
  endfacet
  facet normal -1.36434e-016 -0.793353 0.608761
    outer loop
      vertex 8 6.49519 3.75
      vertex 8 5.32813 2.22906
      vertex 31.49 6.49469 3.74935
    endloop
  endfacet
  facet normal 1.97413e-017 0.991445 -0.130526
    outer loop
      vertex 31.49 -7.24444 9.44114
      vertex 31.49 -7.5 7.5
      vertex 8 -7.24444 9.44114
    endloop
  endfacet
  facet normal 2.46764e-017 0.991445 -0.130526
    outer loop
      vertex 8 -7.24444 9.44114
      vertex 31.49 -7.5 7.5
      vertex 8 -7.5 7.5
    endloop
  endfacet
  facet normal 1.27096e-016 -0.793353 -0.608761
    outer loop
      vertex 8 6.47036 11.2824
      vertex 19.0882 5.9197 12
      vertex 8 5.9197 12
    endloop
  endfacet
  facet normal 3.82956e-017 -0.92388 -0.382683
    outer loop
      vertex 31.49 6.49519 11.25
      vertex 8 6.5108 11.2123
      vertex 31.49 7.24413 9.4419
    endloop
  endfacet
  facet normal 2.89392e-017 -0.92388 -0.382683
    outer loop
      vertex 31.49 6.49519 11.25
      vertex 8 6.49519 11.25
      vertex 8 6.5108 11.2123
    endloop
  endfacet
  facet normal -7.23494e-017 0.92388 0.382683
    outer loop
      vertex 31.49 -6.49519 3.75
      vertex 8 -7.24444 5.55886
      vertex 31.49 -7.24444 5.55886
    endloop
  endfacet
  facet normal -7.95829e-017 0.92388 0.382683
    outer loop
      vertex 31.49 -6.49519 3.75
      vertex 8 -6.49519 3.75
      vertex 8 -7.24444 5.55886
    endloop
  endfacet
  facet normal -2.0523e-016 0.382683 0.92388
    outer loop
      vertex 8 -1.94114 0.255556
      vertex 31.49 -3.75 1.00481
      vertex 31.49 -1.94114 0.255556
    endloop
  endfacet
  facet normal -2.00862e-016 0.382683 0.92388
    outer loop
      vertex 8 -1.94114 0.255556
      vertex 8 -3.75 1.00481
      vertex 31.49 -3.75 1.00481
    endloop
  endfacet
  facet normal -1.26598e-016 0.793353 0.608761
    outer loop
      vertex 31.49 -6.49469 3.74935
      vertex 8 -6.49519 3.75
      vertex 31.49 -6.49519 3.75
    endloop
  endfacet
  facet normal -1.3644e-016 0.793353 0.608761
    outer loop
      vertex 31.49 -6.49469 3.74935
      vertex 8 -5.32813 2.22906
      vertex 8 -6.49519 3.75
    endloop
  endfacet
  facet normal -2.00863e-016 -0.382683 0.92388
    outer loop
      vertex 8 3.75 1.00481
      vertex 31.49 1.94114 0.255556
      vertex 31.49 3.75 1.00481
    endloop
  endfacet
  facet normal -2.05231e-016 -0.382683 0.92388
    outer loop
      vertex 8 3.75 1.00481
      vertex 8 1.94114 0.255556
      vertex 31.49 1.94114 0.255556
    endloop
  endfacet
  facet normal -7.95829e-017 -0.92388 0.382683
    outer loop
      vertex 8 6.49519 3.75
      vertex 31.49 6.49519 3.75
      vertex 31.49 6.73259 4.32312
    endloop
  endfacet
  facet normal -7.23481e-017 -0.92388 0.382683
    outer loop
      vertex 31.49 7.24444 5.55886
      vertex 8 7.24444 5.55886
      vertex 31.49 6.73259 4.32312
    endloop
  endfacet
  facet normal -1.14131e-016 -0.92388 0.382683
    outer loop
      vertex 8 7.24444 5.55886
      vertex 8 6.49519 3.75
      vertex 31.49 6.73259 4.32312
    endloop
  endfacet
  facet normal -1.27833e-016 -0.793353 0.608761
    outer loop
      vertex 8 5.32813 2.22906
      vertex 31.49 5.3033 2.1967
      vertex 31.49 6.49469 3.74935
    endloop
  endfacet
  facet normal -1.26598e-016 -0.793353 0.608761
    outer loop
      vertex 8 5.32813 2.22906
      vertex 8 5.3033 2.1967
      vertex 31.49 5.3033 2.1967
    endloop
  endfacet
  facet normal -2.46766e-017 -0.991445 0.130526
    outer loop
      vertex 8 7.5 7.5
      vertex 31.49 7.24444 5.55886
      vertex 31.49 7.5 7.5
    endloop
  endfacet
  facet normal -2.46764e-017 -0.991445 0.130526
    outer loop
      vertex 8 7.5 7.5
      vertex 8 7.24444 5.55886
      vertex 31.49 7.24444 5.55886
    endloop
  endfacet
  facet normal 5.78784e-017 -0.92388 -0.382683
    outer loop
      vertex 31.49 7.24413 9.4419
      vertex 8 7.24444 9.44114
      vertex 31.49 7.24444 9.44114
    endloop
  endfacet
  facet normal 4.89168e-017 -0.92388 -0.382683
    outer loop
      vertex 31.49 7.24413 9.4419
      vertex 8 6.5108 11.2123
      vertex 8 7.24444 9.44114
    endloop
  endfacet
  facet normal -2.20145e-016 0.130526 0.991445
    outer loop
      vertex 8 0 -2.55351e-015
      vertex 31.49 -1.94114 0.255556
      vertex 31.49 0 2.66231e-015
    endloop
  endfacet
  facet normal -2.20239e-016 0.130526 0.991445
    outer loop
      vertex 8 0 -2.55351e-015
      vertex 8 -1.94114 0.255556
      vertex 31.49 -1.94114 0.255556
    endloop
  endfacet
  facet normal -1.28124e-016 0.793353 0.608761
    outer loop
      vertex 31.49 -5.3033 2.1967
      vertex 8 -5.32813 2.22906
      vertex 31.49 -6.49469 3.74935
    endloop
  endfacet
  facet normal -1.26598e-016 0.793353 0.608761
    outer loop
      vertex 31.49 -5.3033 2.1967
      vertex 8 -5.3033 2.1967
      vertex 8 -5.32813 2.22906
    endloop
  endfacet
  facet normal -1.72485e-016 0.608761 0.793353
    outer loop
      vertex 8 -3.75 1.00481
      vertex 31.49 -5.3033 2.1967
      vertex 31.49 -3.75 1.00481
    endloop
  endfacet
  facet normal -1.64987e-016 0.608761 0.793353
    outer loop
      vertex 8 -3.75 1.00481
      vertex 8 -5.3033 2.1967
      vertex 31.49 -5.3033 2.1967
    endloop
  endfacet
  facet normal 2.4677e-017 -0.991445 -0.130526
    outer loop
      vertex 8 7.24444 9.44114
      vertex 8 7.5 7.5
      vertex 31.49 7.5 7.5
    endloop
  endfacet
  facet normal 1.97413e-017 -0.991445 -0.130526
    outer loop
      vertex 31.49 7.24444 9.44114
      vertex 8 7.24444 9.44114
      vertex 31.49 7.5 7.5
    endloop
  endfacet
  facet normal 4.60349e-017 -0.793353 -0.608761
    outer loop
      vertex 19.0882 5.9197 12
      vertex 8 6.49519 11.25
      vertex 31.49 6.49519 11.25
    endloop
  endfacet
  facet normal 5.68176e-017 -0.793353 -0.608761
    outer loop
      vertex 31.49 5.9197 12
      vertex 19.0882 5.9197 12
      vertex 31.49 6.49519 11.25
    endloop
  endfacet
  facet normal 2.24004e-015 -0.793353 -0.608761
    outer loop
      vertex 19.0882 5.9197 12
      vertex 8 6.47036 11.2824
      vertex 8 6.49519 11.25
    endloop
  endfacet
  facet normal 0.994522 0.104528 2.21538e-017
    outer loop
      vertex 13.3278 24.8813 12
      vertex 13 28 6.07826
      vertex 13.1259 26.8021 12
    endloop
  endfacet
  facet normal 0.994522 0.104528 0
    outer loop
      vertex 13.3278 24.8813 12
      vertex 13.3278 24.8813 -12
      vertex 13 28 6.07826
    endloop
  endfacet
  facet normal 0.994522 0.104528 0
    outer loop
      vertex 13.3278 24.8813 -12
      vertex 13 28 -11.0238
      vertex 13 28 6.07826
    endloop
  endfacet
  facet normal 0.994522 0.104528 -2.20778e-015
    outer loop
      vertex 13.0579 27.4493 -12
      vertex 13 28 -11.0238
      vertex 13.3278 24.8813 -12
    endloop
  endfacet
  facet normal 0.406737 0.913545 0
    outer loop
      vertex 23.3647 13.7342 12
      vertex 23.3647 13.7342 -12
      vertex 20.5 15.0096 12
    endloop
  endfacet
  facet normal 0.406737 0.913545 0
    outer loop
      vertex 20.5 15.0096 12
      vertex 23.3647 13.7342 -12
      vertex 20.5 15.0096 -12
    endloop
  endfacet
  facet normal 0 1 0
    outer loop
      vertex 29.5679 13.0822 12
      vertex 29.5679 13.0822 -4.99622
      vertex 26.4321 13.0822 12
    endloop
  endfacet
  facet normal 0 1 0
    outer loop
      vertex 26.4321 13.0822 12
      vertex 29.5679 13.0822 -4.99622
      vertex 26.4321 13.0822 -11.7841
    endloop
  endfacet
  facet normal 0.951057 0.309017 -0
    outer loop
      vertex 13.3278 24.8813 -12
      vertex 13.3278 24.8813 12
      vertex 14.2968 21.899 12
    endloop
  endfacet
  facet normal 0.951057 0.309017 -0
    outer loop
      vertex 14.2968 21.899 -12
      vertex 13.3278 24.8813 -12
      vertex 14.2968 21.899 12
    endloop
  endfacet
  facet normal -0.207912 0.978148 1.38974e-014
    outer loop
      vertex 29.5865 13.0861 12
      vertex 29.7013 13.1105 11.3493
      vertex 29.5679 13.0822 12
    endloop
  endfacet
  facet normal -0.207912 0.978148 0
    outer loop
      vertex 29.5679 13.0822 12
      vertex 29.7013 13.1105 11.3493
      vertex 29.5679 13.0822 -4.99622
    endloop
  endfacet
  facet normal -0.207912 0.978148 0
    outer loop
      vertex 29.7013 13.1105 11.3493
      vertex 29.7013 13.1105 -4.65072
      vertex 29.5679 13.0822 -4.99622
    endloop
  endfacet
  facet normal 0.994522 -0.104528 0
    outer loop
      vertex 13 28 -11.0238
      vertex 13.0143 28.1357 -10.7215
      vertex 13.0143 28.1357 5.2785
    endloop
  endfacet
  facet normal 0.994522 -0.104528 0
    outer loop
      vertex 13 28 6.07826
      vertex 13 28 -11.0238
      vertex 13.0143 28.1357 5.2785
    endloop
  endfacet
  facet normal 0.207912 0.978148 0
    outer loop
      vertex 26.4321 13.0822 12
      vertex 26.4321 13.0822 -11.7841
      vertex 23.3647 13.7342 12
    endloop
  endfacet
  facet normal 0.207912 0.978148 0
    outer loop
      vertex 23.3647 13.7342 12
      vertex 26.4321 13.0822 -11.7841
      vertex 23.3647 13.7342 -12
    endloop
  endfacet
  facet normal 0.207912 0.978148 -3.81889e-015
    outer loop
      vertex 26.4321 13.0822 -11.7841
      vertex 26.308 13.1085 -12
      vertex 23.3647 13.7342 -12
    endloop
  endfacet
  facet normal 0.587785 0.809017 0
    outer loop
      vertex 20.5 15.0096 12
      vertex 20.5 15.0096 -12
      vertex 17.963 16.8528 12
    endloop
  endfacet
  facet normal 0.587785 0.809017 0
    outer loop
      vertex 17.963 16.8528 12
      vertex 20.5 15.0096 -12
      vertex 17.963 16.8528 -12
    endloop
  endfacet
  facet normal 0.743145 0.669131 -0
    outer loop
      vertex 15.8647 19.1832 -12
      vertex 15.8647 19.1832 12
      vertex 17.963 16.8528 12
    endloop
  endfacet
  facet normal 0.743145 0.669131 -0
    outer loop
      vertex 17.963 16.8528 -12
      vertex 15.8647 19.1832 -12
      vertex 17.963 16.8528 12
    endloop
  endfacet
  facet normal 0.866025 0.5 -0
    outer loop
      vertex 14.2968 21.899 -12
      vertex 14.2968 21.899 12
      vertex 15.8647 19.1832 12
    endloop
  endfacet
  facet normal 0.866025 0.5 -0
    outer loop
      vertex 15.8647 19.1832 -12
      vertex 14.2968 21.899 -12
      vertex 15.8647 19.1832 12
    endloop
  endfacet
  facet normal 0 -1 0
    outer loop
      vertex -9.5 8 -12
      vertex -5.9197 8 -12
      vertex -6.49519 8 -11.25
    endloop
  endfacet
  facet normal 0 -1 0
    outer loop
      vertex -3.75 8 -1.00481
      vertex -9.47478 8 4.10088
      vertex -9.5 8 4
    endloop
  endfacet
  facet normal 0 -1 0
    outer loop
      vertex -1.94114 8 -0.255556
      vertex -7.5 8 12
      vertex -9.47478 8 4.10088
    endloop
  endfacet
  facet normal 0 -1 0
    outer loop
      vertex -7.24444 8 -5.55886
      vertex -9.5 8 -12
      vertex -7.5 8 -7.5
    endloop
  endfacet
  facet normal -0 -1 0
    outer loop
      vertex -7.22883 8 -5.52117
      vertex -9.5 8 4
      vertex -7.24444 8 -5.55886
    endloop
  endfacet
  facet normal -0 -1 0
    outer loop
      vertex -6.49519 8 -3.75
      vertex -9.5 8 4
      vertex -7.22883 8 -5.52117
    endloop
  endfacet
  facet normal 0 -1 0
    outer loop
      vertex -3.47197e-015 8 -2.55351e-015
      vertex 8 8 12
      vertex -7.5 8 12
    endloop
  endfacet
  facet normal -0 -1 0
    outer loop
      vertex -3.75 8 -1.00481
      vertex -9.5 8 4
      vertex -5.3033 8 -2.1967
    endloop
  endfacet
  facet normal -0 -1 0
    outer loop
      vertex -1.97883 8 -0.271166
      vertex -9.47478 8 4.10088
      vertex -3.75 8 -1.00481
    endloop
  endfacet
  facet normal -0 -1 0
    outer loop
      vertex -1.94114 8 -0.255556
      vertex -9.47478 8 4.10088
      vertex -1.97883 8 -0.271166
    endloop
  endfacet
  facet normal -0 -1 0
    outer loop
      vertex -3.47197e-015 8 -2.55351e-015
      vertex -7.5 8 12
      vertex -1.94114 8 -0.255556
    endloop
  endfacet
  facet normal 0 -1 0
    outer loop
      vertex 1.94114 8 -0.255556
      vertex 8 8 12
      vertex -3.47197e-015 8 -2.55351e-015
    endloop
  endfacet
  facet normal 0 -1 0
    outer loop
      vertex 3.75 8 -1.00481
      vertex 8 8 12
      vertex 1.94114 8 -0.255556
    endloop
  endfacet
  facet normal 0 -1 0
    outer loop
      vertex 5.3033 8 -2.1967
      vertex 8 8 12
      vertex 3.75 8 -1.00481
    endloop
  endfacet
  facet normal 0 -1 0
    outer loop
      vertex 6.49519 8 -3.75
      vertex 8 8 12
      vertex 5.3033 8 -2.1967
    endloop
  endfacet
  facet normal 0 -1 0
    outer loop
      vertex 7.24444 8 -5.55886
      vertex 8 8 12
      vertex 6.49519 8 -3.75
    endloop
  endfacet
  facet normal 0 -1 0
    outer loop
      vertex 7.5 8 -7.5
      vertex 8 8 -12
      vertex 8 8 12
    endloop
  endfacet
  facet normal 0 -1 0
    outer loop
      vertex 7.24444 8 -9.44114
      vertex 8 8 -12
      vertex 7.5 8 -7.5
    endloop
  endfacet
  facet normal 0 -1 0
    outer loop
      vertex 7.22883 8 -9.47883
      vertex 8 8 -12
      vertex 7.24444 8 -9.44114
    endloop
  endfacet
  facet normal 0 -1 0
    outer loop
      vertex 6.49519 8 -11.25
      vertex 8 8 -12
      vertex 7.22883 8 -9.47883
    endloop
  endfacet
  facet normal 0 -1 -0
    outer loop
      vertex 6.47036 8 -11.2824
      vertex 5.9197 8 -12
      vertex 8 8 -12
    endloop
  endfacet
  facet normal 0 -1 0
    outer loop
      vertex 6.47036 8 -11.2824
      vertex 8 8 -12
      vertex 6.49519 8 -11.25
    endloop
  endfacet
  facet normal 0 -1 0
    outer loop
      vertex 7.5 8 -7.5
      vertex 8 8 12
      vertex 7.24444 8 -5.55886
    endloop
  endfacet
  facet normal -0 -1 0
    outer loop
      vertex -5.3033 8 -2.1967
      vertex -9.5 8 4
      vertex -6.49519 8 -3.75
    endloop
  endfacet
  facet normal 0 -1 -0
    outer loop
      vertex -7.5 8 -7.5
      vertex -9.5 8 -12
      vertex -7.24444 8 -9.44114
    endloop
  endfacet
  facet normal -0 -1 0
    outer loop
      vertex -7.24444 8 -5.55886
      vertex -9.5 8 4
      vertex -9.5 8 -12
    endloop
  endfacet
  facet normal 0 -1 -0
    outer loop
      vertex -7.24444 8 -9.44114
      vertex -9.5 8 -12
      vertex -6.49519 8 -11.25
    endloop
  endfacet
  facet normal -1 -0 0
    outer loop
      vertex 8 -5.9197 12
      vertex 8 -6.49519 11.25
      vertex 8 -11.5 12
    endloop
  endfacet
  facet normal -1 0 0
    outer loop
      vertex 8 -11.5 12
      vertex 8 -6.49519 11.25
      vertex 8 -7.22883 9.47883
    endloop
  endfacet
  facet normal -1 -0 0
    outer loop
      vertex 8 -7.22883 9.47883
      vertex 8 -7.24444 9.44114
      vertex 8 -11.5 12
    endloop
  endfacet
  facet normal -1 -0 0
    outer loop
      vertex 8 -7.24444 9.44114
      vertex 8 -7.5 7.5
      vertex 8 -11.5 12
    endloop
  endfacet
  facet normal -1 -0 -0
    outer loop
      vertex 8 -7.5 7.5
      vertex 8 -7.24444 5.55886
      vertex 8 -11.5 12
    endloop
  endfacet
  facet normal -1 -0 0
    outer loop
      vertex 8 -7.24444 5.55886
      vertex 8 -11.5 -4
      vertex 8 -11.5 12
    endloop
  endfacet
  facet normal -1 -0 0
    outer loop
      vertex 8 -6.49519 3.75
      vertex 8 -11.5 -4
      vertex 8 -7.24444 5.55886
    endloop
  endfacet
  facet normal -1 -0 0
    outer loop
      vertex 8 -5.32813 2.22906
      vertex 8 -11.5 -4
      vertex 8 -6.49519 3.75
    endloop
  endfacet
  facet normal -1 -0 0
    outer loop
      vertex 8 -3.75 1.00481
      vertex 8 -11.5 -4
      vertex 8 -5.3033 2.1967
    endloop
  endfacet
  facet normal -1 -0 0
    outer loop
      vertex 8 -1.94114 0.255556
      vertex 8 -11.5 -4
      vertex 8 -3.75 1.00481
    endloop
  endfacet
  facet normal -1 -0 0
    outer loop
      vertex 8 0 -2.55351e-015
      vertex 8 -7.58173 -11.8365
      vertex 8 -1.94114 0.255556
    endloop
  endfacet
  facet normal -1 0 -0
    outer loop
      vertex 8 1.94114 0.255556
      vertex 8 8 -12
      vertex 8 0 -2.55351e-015
    endloop
  endfacet
  facet normal -1 0 -0
    outer loop
      vertex 8 3.75 1.00481
      vertex 8 8 -12
      vertex 8 1.94114 0.255556
    endloop
  endfacet
  facet normal -1 0 -0
    outer loop
      vertex 8 5.3033 2.1967
      vertex 8 8 -12
      vertex 8 3.75 1.00481
    endloop
  endfacet
  facet normal -1 0 -0
    outer loop
      vertex 8 5.32813 2.22906
      vertex 8 8 -12
      vertex 8 5.3033 2.1967
    endloop
  endfacet
  facet normal -1 0 -0
    outer loop
      vertex 8 6.49519 3.75
      vertex 8 8 -12
      vertex 8 5.32813 2.22906
    endloop
  endfacet
  facet normal -1 0 -0
    outer loop
      vertex 8 7.24444 5.55886
      vertex 8 8 -12
      vertex 8 6.49519 3.75
    endloop
  endfacet
  facet normal -1 0 0
    outer loop
      vertex 8 7.24444 9.44114
      vertex 8 6.5108 11.2123
      vertex 8 8 12
    endloop
  endfacet
  facet normal -1 0 0
    outer loop
      vertex 8 6.5108 11.2123
      vertex 8 6.49519 11.25
      vertex 8 8 12
    endloop
  endfacet
  facet normal -1 0 0
    outer loop
      vertex 8 6.49519 11.25
      vertex 8 6.47036 11.2824
      vertex 8 8 12
    endloop
  endfacet
  facet normal -1 0 0
    outer loop
      vertex 8 6.47036 11.2824
      vertex 8 5.9197 12
      vertex 8 8 12
    endloop
  endfacet
  facet normal -1 0 0
    outer loop
      vertex 8 7.5 7.5
      vertex 8 7.24444 9.44114
      vertex 8 8 12
    endloop
  endfacet
  facet normal -1 0 0
    outer loop
      vertex 8 7.5 7.5
      vertex 8 8 12
      vertex 8 8 -12
    endloop
  endfacet
  facet normal -1 0 -0
    outer loop
      vertex 8 7.5 7.5
      vertex 8 8 -12
      vertex 8 7.24444 5.55886
    endloop
  endfacet
  facet normal -1 0 -0
    outer loop
      vertex 8 0 -2.55351e-015
      vertex 8 8 -12
      vertex 8 -7.5 -12
    endloop
  endfacet
  facet normal -1 -0 0
    outer loop
      vertex 8 -5.3033 2.1967
      vertex 8 -11.5 -4
      vertex 8 -5.32813 2.22906
    endloop
  endfacet
  facet normal -1 0 0
    outer loop
      vertex 8 0 -2.55351e-015
      vertex 8 -7.5 -12
      vertex 8 -7.58173 -11.8365
    endloop
  endfacet
  facet normal -1 0 0
    outer loop
      vertex 8 -1.94114 0.255556
      vertex 8 -7.58173 -11.8365
      vertex 8 -11.5 -4
    endloop
  endfacet
  facet normal 1 -0 0
    outer loop
      vertex 11.1981 12.1322 12
      vertex 11.1981 13.8678 -12
      vertex 11.1981 13.8678 12
    endloop
  endfacet
  facet normal 1 0 0
    outer loop
      vertex 11.1981 12.1322 12
      vertex 11.1981 12.1322 -12
      vertex 11.1981 13.8678 -12
    endloop
  endfacet
  facet normal -0.900969 0.433884 -3.21138e-017
    outer loop
      vertex 15 13 12
      vertex 15 13 -12
      vertex 14.7564 12.4941 12
    endloop
  endfacet
  facet normal -0.900969 0.433884 -7.05607e-017
    outer loop
      vertex 14.7564 12.4941 12
      vertex 15 13 -12
      vertex 14.4906 11.9422 -12
    endloop
  endfacet
  facet normal 0.62349 -0.781831 1.15734e-016
    outer loop
      vertex 12.116 14.5998 12
      vertex 12.555 14.9499 -12
      vertex 12.555 14.9499 12
    endloop
  endfacet
  facet normal 0.62349 -0.781831 1.53379e-016
    outer loop
      vertex 12.116 14.5998 12
      vertex 11.6371 14.2179 -12
      vertex 12.555 14.9499 -12
    endloop
  endfacet
  facet normal -0.222521 0.974928 -1.44318e-016
    outer loop
      vertex 14.247 11.4363 12
      vertex 14.247 11.4363 -12
      vertex 12.555 11.0501 12
    endloop
  endfacet
  facet normal -0.222521 0.974928 -1.44318e-016
    outer loop
      vertex 12.555 11.0501 12
      vertex 14.247 11.4363 -12
      vertex 12.555 11.0501 -12
    endloop
  endfacet
  facet normal 0.62349 0.781831 -1.15734e-016
    outer loop
      vertex 12.555 11.0501 12
      vertex 12.555 11.0501 -12
      vertex 11.1981 12.1322 12
    endloop
  endfacet
  facet normal 0.62349 0.781831 -1.15734e-016
    outer loop
      vertex 11.1981 12.1322 12
      vertex 12.555 11.0501 -12
      vertex 11.1981 12.1322 -12
    endloop
  endfacet
  facet normal 0.62349 -0.781831 9.91097e-017
    outer loop
      vertex 11.1981 13.8678 12
      vertex 11.6371 14.2179 -12
      vertex 12.116 14.5998 12
    endloop
  endfacet
  facet normal 0.62349 -0.781831 5.78672e-017
    outer loop
      vertex 11.1981 13.8678 12
      vertex 11.1981 13.8678 -12
      vertex 11.6371 14.2179 -12
    endloop
  endfacet
  facet normal -0.900969 -0.433884 3.21138e-017
    outer loop
      vertex 15 13 -12
      vertex 15 13 12
      vertex 14.7564 13.5059 -12
    endloop
  endfacet
  facet normal -0.900969 -0.433884 5.38058e-017
    outer loop
      vertex 14.7564 13.5059 -12
      vertex 15 13 12
      vertex 14.4906 14.0578 12
    endloop
  endfacet
  facet normal -0.900969 0.433884 -3.57685e-017
    outer loop
      vertex 14.7564 12.4941 12
      vertex 14.4906 11.9422 -12
      vertex 14.247 11.4363 12
    endloop
  endfacet
  facet normal -0.900969 0.433884 -6.42277e-017
    outer loop
      vertex 14.247 11.4363 12
      vertex 14.4906 11.9422 -12
      vertex 14.247 11.4363 -12
    endloop
  endfacet
  facet normal -0.222521 -0.974928 1.44318e-016
    outer loop
      vertex 12.555 14.9499 12
      vertex 14.247 14.5637 -12
      vertex 14.247 14.5637 12
    endloop
  endfacet
  facet normal -0.222521 -0.974928 1.44318e-016
    outer loop
      vertex 12.555 14.9499 12
      vertex 12.555 14.9499 -12
      vertex 14.247 14.5637 -12
    endloop
  endfacet
  facet normal -0.900969 -0.433884 5.25235e-017
    outer loop
      vertex 14.4906 14.0578 12
      vertex 14.247 14.5637 -12
      vertex 14.7564 13.5059 -12
    endloop
  endfacet
  facet normal -0.900969 -0.433884 6.42276e-017
    outer loop
      vertex 14.4906 14.0578 12
      vertex 14.247 14.5637 12
      vertex 14.247 14.5637 -12
    endloop
  endfacet
endsolid OpenSCAD_Model
