solid OpenSCAD_Model
  facet normal -0.991445 0.130526 0
    outer loop
      vertex -44.3378 -1.21884 10.2832
      vertex -44.3378 -1.21884 13.2832
      vertex -43.9368 1.82698 10.2832
    endloop
  endfacet
  facet normal -0.991445 0.130526 0
    outer loop
      vertex -43.5449 4.80326 10.2756
      vertex -43.0585 8.49809 13.2832
      vertex -43.0585 8.49809 7.54118
    endloop
  endfacet
  facet normal -0.991445 0.130526 2.72502e-013
    outer loop
      vertex -43.5463 4.79299 10.2832
      vertex -43.0585 8.49809 13.2832
      vertex -43.5449 4.80326 10.2756
    endloop
  endfacet
  facet normal -0.991445 0.130526 -1.93284e-015
    outer loop
      vertex -44.3378 -1.21884 13.2832
      vertex -43.0585 8.49809 13.2832
      vertex -43.5473 4.78526 10.2832
    endloop
  endfacet
  facet normal -0.991445 0.130526 -8.87464e-014
    outer loop
      vertex -43.0585 8.49809 13.2832
      vertex -43.5463 4.79299 10.2832
      vertex -43.5473 4.78526 10.2832
    endloop
  endfacet
  facet normal -0.991445 0.130526 4.80679e-016
    outer loop
      vertex -44.3378 -1.21884 13.2832
      vertex -43.5473 4.78526 10.2832
      vertex -43.9368 1.82698 10.2832
    endloop
  endfacet
  facet normal -0.130526 -0.991445 0
    outer loop
      vertex -44.3378 -1.21884 -13.2822
      vertex -31.945 -2.85039 -10.2822
      vertex -44.3378 -1.21884 -10.2822
    endloop
  endfacet
  facet normal -0.130526 -0.991445 -1.58048e-017
    outer loop
      vertex -44.3378 -1.21884 -13.2822
      vertex -29.8284 -3.12904 -13.2822
      vertex -31.945 -2.85039 -10.2822
    endloop
  endfacet
  facet normal -0.0313018 -0.597302 -0.801405
    outer loop
      vertex 4.67242e-014 16 -29
      vertex -14.7518 -4.31559 -13.2822
      vertex -14.9958 -4.3028 -13.2822
    endloop
  endfacet
  facet normal -0.130526 -0.991445 0
    outer loop
      vertex -29.8284 -3.12904 10.2832
      vertex -44.3378 -1.21884 13.2832
      vertex -44.3378 -1.21884 10.2832
    endloop
  endfacet
  facet normal -0.130526 -0.991445 0
    outer loop
      vertex -29.8284 -3.12904 10.2832
      vertex -29.8284 -3.12904 13.2832
      vertex -44.3378 -1.21884 13.2832
    endloop
  endfacet
  facet normal 5.78958e-015 -0.604761 -0.796407
    outer loop
      vertex 4.67242e-014 16 -29
      vertex 0.122203 -4.69868 -13.2822
      vertex -0.122203 -4.69868 -13.2822
    endloop
  endfacet
  facet normal -0.130526 -0.991445 -0
    outer loop
      vertex -29.8284 -3.12904 -10.2822
      vertex -31.945 -2.85039 -10.2822
      vertex -29.8284 -3.12904 -13.2822
    endloop
  endfacet
  facet normal -0.0784591 -0.996917 1.35515e-016
    outer loop
      vertex -20.418 -3.87607 -10.2822
      vertex -27.4571 -3.32208 -10.2822
      vertex -29.5853 -3.15458 -13.2822
    endloop
  endfacet
  facet normal -0.0784591 -0.996917 0
    outer loop
      vertex -14.9958 -4.3028 -13.2822
      vertex -14.9958 -4.3028 -10.2822
      vertex -20.418 -3.87607 -10.2822
    endloop
  endfacet
  facet normal -0.0784591 -0.996917 7.90931e-017
    outer loop
      vertex -14.9958 -4.3028 -13.2822
      vertex -20.418 -3.87607 -10.2822
      vertex -29.5853 -3.15458 -13.2822
    endloop
  endfacet
  facet normal -0.081668 -0.777019 0.624157
    outer loop
      vertex -3.63845 16.3824 41
      vertex -29.5853 -3.15458 13.2832
      vertex 4.67242e-014 16 41
    endloop
  endfacet
  facet normal -0.677791 0.735255 0
    outer loop
      vertex -13.005 45.2098 41
      vertex -13.005 45.2098 -29
      vertex -41.6638 18.7908 3.7627
    endloop
  endfacet
  facet normal -0.35538 -0.158225 -0.921233
    outer loop
      vertex -16.6435 28.0922 -29
      vertex -15.1554 24.75 -29
      vertex -44.3378 -1.21884 -13.2822
    endloop
  endfacet
  facet normal 0.0416696 -0.79514 0.604992
    outer loop
      vertex 14.9958 -4.3028 13.2832
      vertex 4.67242e-014 16 41
      vertex 14.7518 -4.31559 13.2832
    endloop
  endfacet
  facet normal -0.0816696 -0.777018 0.624158
    outer loop
      vertex -3.63845 16.3824 41
      vertex -29.8284 -3.12904 13.2832
      vertex -29.5853 -3.15458 13.2832
    endloop
  endfacet
  facet normal 0.545609 -0.242921 0.80206
    outer loop
      vertex 16.6435 28.0922 41
      vertex 15.1554 24.75 41
      vertex 44.3378 -1.21884 13.2832
    endloop
  endfacet
  facet normal -0.991445 0.130526 -1.9608e-015
    outer loop
      vertex -43.0585 8.49809 7.54118
      vertex -41.8986 17.3088 6.7627
      vertex -42.3863 13.6037 3.7627
    endloop
  endfacet
  facet normal -0.991445 0.130526 0
    outer loop
      vertex -43.0585 8.49809 7.54118
      vertex -43.0585 8.49809 13.2832
      vertex -41.8986 17.3088 6.7627
    endloop
  endfacet
  facet normal -0.991445 0.130526 0
    outer loop
      vertex -42.3863 13.6037 3.7627
      vertex -41.8986 17.3088 6.7627
      vertex -41.8986 17.3088 0.762695
    endloop
  endfacet
  facet normal -0.991445 0.130526 0
    outer loop
      vertex -41.8986 17.3088 0.762695
      vertex -42.3863 13.6037 3.50472
      vertex -42.3863 13.6037 3.7627
    endloop
  endfacet
  facet normal -0.991445 0.130526 0
    outer loop
      vertex -43.0585 8.49809 -7.61042
      vertex -42.3877 13.5937 -3.93592
      vertex -43.0585 8.49809 -13.2822
    endloop
  endfacet
  facet normal -0.991445 0.130526 -1.66809e-013
    outer loop
      vertex -43.0585 8.49809 -13.2822
      vertex -42.3877 13.5937 -3.93592
      vertex -42.3863 13.6037 -3.92871
    endloop
  endfacet
  facet normal -0.991445 0.130526 0
    outer loop
      vertex -42.3863 13.6037 -3.92871
      vertex -42.3863 13.6037 3.50472
      vertex -41.8986 17.3088 0.762695
    endloop
  endfacet
  facet normal -0.991445 0.130526 2.93202e-015
    outer loop
      vertex -42.3863 13.6037 -3.92871
      vertex -41.8986 17.3088 0.762695
      vertex -43.0585 8.49809 -13.2822
    endloop
  endfacet
  facet normal -0.613553 0.130415 -0.778809
    outer loop
      vertex -16.6435 38.9078 -29
      vertex -17.4041 35.3292 -29
      vertex -43.0585 8.49809 -13.2822
    endloop
  endfacet
  facet normal -0.991445 0.130526 -9.1591e-016
    outer loop
      vertex -41.8986 17.3088 0.762695
      vertex -41.8986 17.3088 -6.92871
      vertex -43.0585 8.49809 -13.2822
    endloop
  endfacet
  facet normal 0.146014 -0.449386 -0.881324
    outer loop
      vertex 7.11789 17.513 -29
      vertex 44.3378 -1.21884 -13.2822
      vertex 3.63845 16.3824 -29
    endloop
  endfacet
  facet normal -0.0784591 -0.996917 0
    outer loop
      vertex -27.4571 -3.32208 -10.2822
      vertex -29.5853 -3.15458 -10.2822
      vertex -29.5853 -3.15458 -13.2822
    endloop
  endfacet
  facet normal -0.777471 0.102356 0.620534
    outer loop
      vertex -17.4041 35.3292 41
      vertex -43.0585 8.49809 13.2832
      vertex -44.3378 -1.21884 13.2832
    endloop
  endfacet
  facet normal -0.0784591 -0.996917 0
    outer loop
      vertex -24.2141 -3.57731 10.2832
      vertex -29.5853 -3.15458 13.2832
      vertex -29.5853 -3.15458 10.2832
    endloop
  endfacet
  facet normal -0.0784591 -0.996917 -1.43364e-016
    outer loop
      vertex -24.2141 -3.57731 10.2832
      vertex -14.9958 -4.3028 13.2832
      vertex -29.5853 -3.15458 13.2832
    endloop
  endfacet
  facet normal -0.0784591 -0.996917 -6.23446e-017
    outer loop
      vertex -14.9958 -4.3028 13.2832
      vertex -24.2141 -3.57731 10.2832
      vertex -15.3452 -4.27531 10.2832
    endloop
  endfacet
  facet normal -0.0784591 -0.996917 0
    outer loop
      vertex -14.9958 -4.3028 10.2832
      vertex -14.9958 -4.3028 13.2832
      vertex -15.3452 -4.27531 10.2832
    endloop
  endfacet
  facet normal -0.0523336 -0.99863 0
    outer loop
      vertex -14.7518 -4.31559 10.2832
      vertex -14.9958 -4.3028 13.2832
      vertex -14.9958 -4.3028 10.2832
    endloop
  endfacet
  facet normal -0.0523336 -0.99863 0
    outer loop
      vertex -14.7518 -4.31559 10.2832
      vertex -14.7518 -4.31559 13.2832
      vertex -14.9958 -4.3028 13.2832
    endloop
  endfacet
  facet normal 0.0158327 -0.604626 -0.796352
    outer loop
      vertex 14.7518 -4.31559 -13.2822
      vertex 0.122203 -4.69868 -13.2822
      vertex 4.67242e-014 16 -29
    endloop
  endfacet
  facet normal 0.792438 0.57574 0.201408
    outer loop
      vertex 41.6638 18.7908 3.7627
      vertex 13.005 45.2098 41
      vertex 15.1554 42.25 41
    endloop
  endfacet
  facet normal 0.991445 0.130526 -4.80691e-016
    outer loop
      vertex 43.9368 1.82698 -10.2822
      vertex 44.3378 -1.21884 -13.2822
      vertex 43.5473 4.78526 -10.2822
    endloop
  endfacet
  facet normal 0.991445 0.130526 8.87468e-014
    outer loop
      vertex 43.5473 4.78526 -10.2822
      vertex 43.0585 8.49809 -13.2822
      vertex 43.5463 4.79299 -10.2822
    endloop
  endfacet
  facet normal 0.991445 0.130526 0
    outer loop
      vertex 43.0585 8.49809 -7.61042
      vertex 43.5449 4.80326 -10.2748
      vertex 43.0585 8.49809 -13.2822
    endloop
  endfacet
  facet normal 0.991445 0.130526 -2.75875e-013
    outer loop
      vertex 43.5449 4.80326 -10.2748
      vertex 43.5463 4.79299 -10.2822
      vertex 43.0585 8.49809 -13.2822
    endloop
  endfacet
  facet normal 0.991445 0.130526 1.93283e-015
    outer loop
      vertex 43.5473 4.78526 -10.2822
      vertex 44.3378 -1.21884 -13.2822
      vertex 43.0585 8.49809 -13.2822
    endloop
  endfacet
  facet normal 0.991445 0.130526 0
    outer loop
      vertex 44.3378 -1.21884 -10.2822
      vertex 44.3378 -1.21884 -13.2822
      vertex 43.9368 1.82698 -10.2822
    endloop
  endfacet
  facet normal -0.991445 0.130526 0
    outer loop
      vertex -44.3378 -1.21884 -10.2822
      vertex -43.5509 4.75776 -10.2822
      vertex -44.3378 -1.21884 -13.2822
    endloop
  endfacet
  facet normal -0.991445 0.130526 -2.26617e-016
    outer loop
      vertex -44.3378 -1.21884 -13.2822
      vertex -43.5509 4.75776 -10.2822
      vertex -43.0585 8.49809 -13.2822
    endloop
  endfacet
  facet normal -0.991445 0.130526 6.40067e-013
    outer loop
      vertex -43.5496 4.76761 -10.2822
      vertex -43.0585 8.49809 -13.2822
      vertex -43.5509 4.75776 -10.2822
    endloop
  endfacet
  facet normal -0.991445 0.130526 1.01504e-013
    outer loop
      vertex -43.5473 4.78526 -10.2822
      vertex -43.0585 8.49809 -13.2822
      vertex -43.5496 4.76761 -10.2822
    endloop
  endfacet
  facet normal -0.991445 0.130526 8.06728e-016
    outer loop
      vertex -43.5463 4.79299 -10.2822
      vertex -43.3217 6.49927 -9.05181
      vertex -43.0585 8.49809 -13.2822
    endloop
  endfacet
  facet normal -0.991445 0.130526 -1.0393e-012
    outer loop
      vertex -43.5463 4.79299 -10.2822
      vertex -43.0585 8.49809 -13.2822
      vertex -43.5473 4.78526 -10.2822
    endloop
  endfacet
  facet normal -0.991445 0.130526 0
    outer loop
      vertex -43.0585 8.49809 -7.61042
      vertex -43.0585 8.49809 -13.2822
      vertex -43.3217 6.49927 -9.05181
    endloop
  endfacet
  facet normal -0.100869 -0.766175 0.634667
    outer loop
      vertex -3.63845 16.3824 41
      vertex -44.3378 -1.21884 13.2832
      vertex -29.8284 -3.12904 13.2832
    endloop
  endfacet
  facet normal -0.0464212 -0.589837 -0.806187
    outer loop
      vertex 4.67242e-014 16 -29
      vertex -14.9958 -4.3028 -13.2822
      vertex -29.5853 -3.15458 -13.2822
    endloop
  endfacet
  facet normal -0.026177 -0.999657 0
    outer loop
      vertex -7.25905 -4.5118 10.2832
      vertex -14.7518 -4.31559 13.2832
      vertex -14.7518 -4.31559 10.2832
    endloop
  endfacet
  facet normal -0.026177 -0.999657 -9.88466e-017
    outer loop
      vertex -7.25905 -4.5118 10.2832
      vertex -0.122203 -4.69868 13.2832
      vertex -14.7518 -4.31559 13.2832
    endloop
  endfacet
  facet normal -0.026177 -0.999657 0
    outer loop
      vertex -0.122203 -4.69868 10.2832
      vertex -0.122203 -4.69868 13.2832
      vertex -7.25905 -4.5118 10.2832
    endloop
  endfacet
  facet normal -0.0523336 -0.99863 0
    outer loop
      vertex -14.9958 -4.3028 -13.2822
      vertex -14.7518 -4.31559 -10.2822
      vertex -14.9958 -4.3028 -10.2822
    endloop
  endfacet
  facet normal -0.0523336 -0.99863 0
    outer loop
      vertex -14.9958 -4.3028 -13.2822
      vertex -14.7518 -4.31559 -13.2822
      vertex -14.7518 -4.31559 -10.2822
    endloop
  endfacet
  facet normal -0.0158327 -0.604626 -0.796352
    outer loop
      vertex 4.67242e-014 16 -29
      vertex -0.122203 -4.69868 -13.2822
      vertex -14.7518 -4.31559 -13.2822
    endloop
  endfacet
  facet normal -0.0209752 -0.801011 0.598281
    outer loop
      vertex 4.67242e-014 16 41
      vertex -14.7518 -4.31559 13.2832
      vertex -0.122203 -4.69868 13.2832
    endloop
  endfacet
  facet normal -0.0620843 -0.788856 0.611434
    outer loop
      vertex 4.67242e-014 16 41
      vertex -29.5853 -3.15458 13.2832
      vertex -14.9958 -4.3028 13.2832
    endloop
  endfacet
  facet normal -0.0416696 -0.79514 0.604992
    outer loop
      vertex 4.67242e-014 16 41
      vertex -14.9958 -4.3028 13.2832
      vertex -14.7518 -4.31559 13.2832
    endloop
  endfacet
  facet normal -0.104531 -0.994522 0
    outer loop
      vertex -29.8284 -3.12904 -13.2822
      vertex -29.5853 -3.15458 -10.2822
      vertex -29.8284 -3.12904 -10.2822
    endloop
  endfacet
  facet normal -0.104531 -0.994522 0
    outer loop
      vertex -29.8284 -3.12904 -13.2822
      vertex -29.5853 -3.15458 -13.2822
      vertex -29.5853 -3.15458 -10.2822
    endloop
  endfacet
  facet normal -0.104531 -0.994522 0
    outer loop
      vertex -29.5853 -3.15458 10.2832
      vertex -29.8284 -3.12904 13.2832
      vertex -29.8284 -3.12904 10.2832
    endloop
  endfacet
  facet normal -0.104531 -0.994522 0
    outer loop
      vertex -29.5853 -3.15458 10.2832
      vertex -29.5853 -3.15458 13.2832
      vertex -29.8284 -3.12904 13.2832
    endloop
  endfacet
  facet normal 0.081668 -0.777019 0.624157
    outer loop
      vertex 3.63845 16.3824 41
      vertex 4.67242e-014 16 41
      vertex 29.5853 -3.15458 13.2832
    endloop
  endfacet
  facet normal 0.0523336 -0.99863 0
    outer loop
      vertex 14.7518 -4.31559 10.2832
      vertex 14.9958 -4.3028 13.2832
      vertex 14.7518 -4.31559 13.2832
    endloop
  endfacet
  facet normal 0.0523336 -0.99863 0
    outer loop
      vertex 14.7518 -4.31559 10.2832
      vertex 14.9958 -4.3028 10.2832
      vertex 14.9958 -4.3028 13.2832
    endloop
  endfacet
  facet normal 0.841904 0.388222 0.374808
    outer loop
      vertex 41.8986 17.3088 6.7627
      vertex 15.1554 42.25 41
      vertex 43.0585 8.49809 13.2832
    endloop
  endfacet
  facet normal -0.987689 0.156428 -9.12441e-016
    outer loop
      vertex -41.8986 17.3088 0.762695
      vertex -41.6638 18.7908 -3.92871
      vertex -41.8986 17.3088 -6.92871
    endloop
  endfacet
  facet normal -0.987689 0.156428 -9.1244e-016
    outer loop
      vertex -41.8986 17.3088 0.762695
      vertex -41.6638 18.7908 3.7627
      vertex -41.6638 18.7908 -3.92871
    endloop
  endfacet
  facet normal -0.762548 0.601722 -0.237596
    outer loop
      vertex -41.6638 18.7908 -3.92871
      vertex -13.005 45.2098 -29
      vertex -41.8986 17.3088 -6.92871
    endloop
  endfacet
  facet normal -0.104528 0.994522 0
    outer loop
      vertex -3.63845 50.6176 -29
      vertex -3.63845 50.6176 41
      vertex 4.2661e-014 51 -29
    endloop
  endfacet
  facet normal -0.104528 0.994522 0
    outer loop
      vertex 4.2661e-014 51 -29
      vertex -3.63845 50.6176 41
      vertex 4.2661e-014 51 41
    endloop
  endfacet
  facet normal -0.987689 0.156428 0
    outer loop
      vertex -41.8986 17.3088 6.7627
      vertex -41.6638 18.7908 3.7627
      vertex -41.8986 17.3088 0.762695
    endloop
  endfacet
  facet normal -0.0605057 -0.575674 -0.815438
    outer loop
      vertex -3.63845 16.3824 -29
      vertex 4.67242e-014 16 -29
      vertex -29.5853 -3.15458 -13.2822
    endloop
  endfacet
  facet normal -0.0605069 -0.575673 -0.815439
    outer loop
      vertex -3.63845 16.3824 -29
      vertex -29.5853 -3.15458 -13.2822
      vertex -29.8284 -3.12904 -13.2822
    endloop
  endfacet
  facet normal 0.026177 -0.999657 0
    outer loop
      vertex 7.25905 -4.5118 -10.2822
      vertex 0.122203 -4.69868 -10.2822
      vertex 0.122203 -4.69868 -13.2822
    endloop
  endfacet
  facet normal 0.026177 -0.999657 0
    outer loop
      vertex 14.7518 -4.31559 -13.2822
      vertex 14.7518 -4.31559 -10.2822
      vertex 7.25905 -4.5118 -10.2822
    endloop
  endfacet
  facet normal 0.026177 -0.999657 9.88441e-017
    outer loop
      vertex 14.7518 -4.31559 -13.2822
      vertex 7.25905 -4.5118 -10.2822
      vertex 0.122203 -4.69868 -13.2822
    endloop
  endfacet
  facet normal -0.799788 0.17 0.575707
    outer loop
      vertex -17.4041 35.3292 41
      vertex -16.6435 38.9078 41
      vertex -43.0585 8.49809 13.2832
    endloop
  endfacet
  facet normal -0.792438 0.57574 0.201408
    outer loop
      vertex -15.1554 42.25 41
      vertex -13.005 45.2098 41
      vertex -41.6638 18.7908 3.7627
    endloop
  endfacet
  facet normal 0.0784591 -0.996917 0
    outer loop
      vertex 29.5853 -3.15458 13.2832
      vertex 27.4571 -3.32208 10.2832
      vertex 29.5853 -3.15458 10.2832
    endloop
  endfacet
  facet normal 0.130526 -0.991445 0
    outer loop
      vertex 44.3378 -1.21884 -13.2822
      vertex 29.8284 -3.12904 -10.2822
      vertex 29.8284 -3.12904 -13.2822
    endloop
  endfacet
  facet normal 0.130526 -0.991445 0
    outer loop
      vertex 44.3378 -1.21884 -13.2822
      vertex 44.3378 -1.21884 -10.2822
      vertex 29.8284 -3.12904 -10.2822
    endloop
  endfacet
  facet normal 0.104531 -0.994522 0
    outer loop
      vertex 29.5853 -3.15458 10.2832
      vertex 29.8284 -3.12904 13.2832
      vertex 29.5853 -3.15458 13.2832
    endloop
  endfacet
  facet normal 0.104531 -0.994522 0
    outer loop
      vertex 29.5853 -3.15458 10.2832
      vertex 29.8284 -3.12904 10.2832
      vertex 29.8284 -3.12904 13.2832
    endloop
  endfacet
  facet normal 0.777471 0.102356 0.620534
    outer loop
      vertex 43.0585 8.49809 13.2832
      vertex 17.4041 35.3292 41
      vertex 44.3378 -1.21884 13.2832
    endloop
  endfacet
  facet normal 0.987689 0.156428 9.1244e-016
    outer loop
      vertex 41.8986 17.3088 -0.928711
      vertex 41.6638 18.7908 -3.92871
      vertex 41.6638 18.7908 3.7627
    endloop
  endfacet
  facet normal 0.987689 0.156428 9.12441e-016
    outer loop
      vertex 41.8986 17.3088 6.7627
      vertex 41.8986 17.3088 -0.928711
      vertex 41.6638 18.7908 3.7627
    endloop
  endfacet
  facet normal 0.991445 0.130526 -0
    outer loop
      vertex 43.0585 8.49809 7.54118
      vertex 43.0585 8.49809 13.2832
      vertex 43.3232 6.48795 9.02882
    endloop
  endfacet
  facet normal 0.5 0.866025 -0
    outer loop
      vertex 7.11789 49.487 -29
      vertex 7.11789 49.487 41
      vertex 10.2862 47.6578 -29
    endloop
  endfacet
  facet normal 0.5 0.866025 -0
    outer loop
      vertex 10.2862 47.6578 -29
      vertex 7.11789 49.487 41
      vertex 10.2862 47.6578 41
    endloop
  endfacet
  facet normal -0.677791 0.735255 -6.26221e-016
    outer loop
      vertex -13.005 45.2098 -29
      vertex -41.6638 18.7908 -3.92871
      vertex -41.6638 18.7908 3.7627
    endloop
  endfacet
  facet normal -0.5 0.866025 0
    outer loop
      vertex -10.2862 47.6578 -29
      vertex -10.2862 47.6578 41
      vertex -7.11789 49.487 -29
    endloop
  endfacet
  facet normal -0.5 0.866025 0
    outer loop
      vertex -7.11789 49.487 -29
      vertex -10.2862 47.6578 41
      vertex -7.11789 49.487 41
    endloop
  endfacet
  facet normal -0.309017 0.951057 0
    outer loop
      vertex -7.11789 49.487 -29
      vertex -7.11789 49.487 41
      vertex -3.63845 50.6176 -29
    endloop
  endfacet
  facet normal -0.309017 0.951057 0
    outer loop
      vertex -3.63845 50.6176 -29
      vertex -7.11789 49.487 41
      vertex -3.63845 50.6176 41
    endloop
  endfacet
  facet normal 0.0605057 -0.575674 -0.815438
    outer loop
      vertex 3.63845 16.3824 -29
      vertex 29.5853 -3.15458 -13.2822
      vertex 4.67242e-014 16 -29
    endloop
  endfacet
  facet normal 0.0464212 -0.589837 -0.806187
    outer loop
      vertex 29.5853 -3.15458 -13.2822
      vertex 14.9958 -4.3028 -13.2822
      vertex 4.67242e-014 16 -29
    endloop
  endfacet
  facet normal 0.0784591 -0.996917 0
    outer loop
      vertex 29.5853 -3.15458 -13.2822
      vertex 29.5853 -3.15458 -10.2822
      vertex 24.2141 -3.57731 -10.2822
    endloop
  endfacet
  facet normal 0.0784591 -0.996917 1.43369e-016
    outer loop
      vertex 29.5853 -3.15458 -13.2822
      vertex 24.2141 -3.57731 -10.2822
      vertex 14.9958 -4.3028 -13.2822
    endloop
  endfacet
  facet normal 0.0784591 -0.996917 6.23486e-017
    outer loop
      vertex 24.2141 -3.57731 -10.2822
      vertex 15.3452 -4.27531 -10.2822
      vertex 14.9958 -4.3028 -13.2822
    endloop
  endfacet
  facet normal 0.0784591 -0.996917 0
    outer loop
      vertex 15.3452 -4.27531 -10.2822
      vertex 14.9958 -4.3028 -10.2822
      vertex 14.9958 -4.3028 -13.2822
    endloop
  endfacet
  facet normal -0.026177 -0.999657 -4.60153e-018
    outer loop
      vertex -0.122203 -4.69868 -10.2822
      vertex -2.2563 -4.6428 -10.2822
      vertex -0.122203 -4.69868 -13.2822
    endloop
  endfacet
  facet normal -0.026177 -0.999657 0
    outer loop
      vertex -14.7518 -4.31559 -13.2822
      vertex -8.70501 -4.47393 -10.2822
      vertex -14.7518 -4.31559 -10.2822
    endloop
  endfacet
  facet normal -0.026177 -0.999657 1.91944e-016
    outer loop
      vertex -14.7518 -4.31559 -13.2822
      vertex -0.122203 -4.69868 -13.2822
      vertex -8.70501 -4.47393 -10.2822
    endloop
  endfacet
  facet normal -0.026177 -0.999657 -5.54629e-018
    outer loop
      vertex -0.122203 -4.69868 -13.2822
      vertex -2.2563 -4.6428 -10.2822
      vertex -8.70501 -4.47393 -10.2822
    endloop
  endfacet
  facet normal -0.0741652 -0.563341 -0.822889
    outer loop
      vertex -3.63845 16.3824 -29
      vertex -29.8284 -3.12904 -13.2822
      vertex -44.3378 -1.21884 -13.2822
    endloop
  endfacet
  facet normal -0.717166 0 0.696902
    outer loop
      vertex -17.4041 31.6708 41
      vertex -17.4041 35.3292 41
      vertex -44.3378 -1.21884 13.2832
    endloop
  endfacet
  facet normal -0.669131 0.743145 0
    outer loop
      vertex -13.005 45.2098 -29
      vertex -13.005 45.2098 41
      vertex -10.2862 47.6578 -29
    endloop
  endfacet
  facet normal -0.669131 0.743145 0
    outer loop
      vertex -10.2862 47.6578 -29
      vertex -13.005 45.2098 41
      vertex -10.2862 47.6578 41
    endloop
  endfacet
  facet normal 0.717166 -6.9643e-016 0.696902
    outer loop
      vertex 17.4041 35.3292 41
      vertex 17.4041 31.6708 41
      vertex 44.3378 -1.21884 13.2832
    endloop
  endfacet
  facet normal 0.991445 0.130526 9.1591e-016
    outer loop
      vertex 41.8986 17.3088 -0.928711
      vertex 41.8986 17.3088 6.7627
      vertex 43.0585 8.49809 13.2832
    endloop
  endfacet
  facet normal 0.991445 0.130526 0
    outer loop
      vertex 44.3378 -1.21884 13.2832
      vertex 44.3378 -1.21884 10.2832
      vertex 43.5509 4.75776 10.2832
    endloop
  endfacet
  facet normal 0.991445 0.130526 2.26617e-016
    outer loop
      vertex 44.3378 -1.21884 13.2832
      vertex 43.5509 4.75776 10.2832
      vertex 43.0585 8.49809 13.2832
    endloop
  endfacet
  facet normal 0.991445 0.130526 -6.40067e-013
    outer loop
      vertex 43.5509 4.75776 10.2832
      vertex 43.5496 4.76761 10.2832
      vertex 43.0585 8.49809 13.2832
    endloop
  endfacet
  facet normal 0.991445 0.130526 -1.01504e-013
    outer loop
      vertex 43.5496 4.76761 10.2832
      vertex 43.5473 4.78526 10.2832
      vertex 43.0585 8.49809 13.2832
    endloop
  endfacet
  facet normal 0.991445 0.130526 1.0393e-012
    outer loop
      vertex 43.5473 4.78526 10.2832
      vertex 43.5463 4.79299 10.2832
      vertex 43.0585 8.49809 13.2832
    endloop
  endfacet
  facet normal 0.991445 0.130526 -8.21336e-016
    outer loop
      vertex 43.5463 4.79299 10.2832
      vertex 43.3232 6.48795 9.02882
      vertex 43.0585 8.49809 13.2832
    endloop
  endfacet
  facet normal 0.677791 0.735255 6.26152e-016
    outer loop
      vertex 41.6638 18.7908 3.7627
      vertex 41.6638 18.7908 -3.92871
      vertex 13.005 45.2098 41
    endloop
  endfacet
  facet normal 0.669131 0.743145 -0
    outer loop
      vertex 10.2862 47.6578 -29
      vertex 10.2862 47.6578 41
      vertex 13.005 45.2098 -29
    endloop
  endfacet
  facet normal 0.669131 0.743145 -0
    outer loop
      vertex 13.005 45.2098 -29
      vertex 10.2862 47.6578 41
      vertex 13.005 45.2098 41
    endloop
  endfacet
  facet normal 0.104528 0.994522 -0
    outer loop
      vertex 4.2661e-014 51 -29
      vertex 4.2661e-014 51 41
      vertex 3.63845 50.6176 -29
    endloop
  endfacet
  facet normal 0.104528 0.994522 -0
    outer loop
      vertex 3.63845 50.6176 -29
      vertex 4.2661e-014 51 41
      vertex 3.63845 50.6176 41
    endloop
  endfacet
  facet normal 0.309017 0.951057 -0
    outer loop
      vertex 3.63845 50.6176 -29
      vertex 3.63845 50.6176 41
      vertex 7.11789 49.487 -29
    endloop
  endfacet
  facet normal 0.309017 0.951057 -0
    outer loop
      vertex 7.11789 49.487 -29
      vertex 3.63845 50.6176 41
      vertex 7.11789 49.487 41
    endloop
  endfacet
  facet normal 0.0313018 -0.597302 -0.801405
    outer loop
      vertex 14.9958 -4.3028 -13.2822
      vertex 14.7518 -4.31559 -13.2822
      vertex 4.67242e-014 16 -29
    endloop
  endfacet
  facet normal 0.0523336 -0.99863 0
    outer loop
      vertex 14.9958 -4.3028 -13.2822
      vertex 14.7518 -4.31559 -10.2822
      vertex 14.7518 -4.31559 -13.2822
    endloop
  endfacet
  facet normal 0.0523336 -0.99863 0
    outer loop
      vertex 14.9958 -4.3028 -13.2822
      vertex 14.9958 -4.3028 -10.2822
      vertex 14.7518 -4.31559 -10.2822
    endloop
  endfacet
  facet normal 0.104531 -0.994522 0
    outer loop
      vertex 29.8284 -3.12904 -13.2822
      vertex 29.5853 -3.15458 -10.2822
      vertex 29.5853 -3.15458 -13.2822
    endloop
  endfacet
  facet normal 0.104531 -0.994522 0
    outer loop
      vertex 29.8284 -3.12904 -13.2822
      vertex 29.8284 -3.12904 -10.2822
      vertex 29.5853 -3.15458 -10.2822
    endloop
  endfacet
  facet normal -0.504026 -0 -0.863688
    outer loop
      vertex -17.4041 35.3292 -29
      vertex -17.4041 31.6708 -29
      vertex -44.3378 -1.21884 -13.2822
    endloop
  endfacet
  facet normal -0.469674 -0.341238 0.814226
    outer loop
      vertex -15.1554 24.75 41
      vertex -44.3378 -1.21884 13.2832
      vertex -13.005 21.7902 41
    endloop
  endfacet
  facet normal -0.393874 -0.437441 0.808399
    outer loop
      vertex -13.005 21.7902 41
      vertex -44.3378 -1.21884 13.2832
      vertex -10.2862 19.3422 41
    endloop
  endfacet
  facet normal -0.798975 0.561639 0.214945
    outer loop
      vertex -15.1554 42.25 41
      vertex -41.6638 18.7908 3.7627
      vertex -41.8986 17.3088 6.7627
    endloop
  endfacet
  facet normal -0.841904 0.388222 0.374808
    outer loop
      vertex -15.1554 42.25 41
      vertex -41.8986 17.3088 6.7627
      vertex -43.0585 8.49809 13.2832
    endloop
  endfacet
  facet normal 0.0620843 -0.788856 0.611434
    outer loop
      vertex 29.5853 -3.15458 13.2832
      vertex 4.67242e-014 16 41
      vertex 14.9958 -4.3028 13.2832
    endloop
  endfacet
  facet normal 0.0784591 -0.996917 -7.9098e-017
    outer loop
      vertex 20.418 -3.87607 10.2832
      vertex 29.5853 -3.15458 13.2832
      vertex 14.9958 -4.3028 13.2832
    endloop
  endfacet
  facet normal 0.0784591 -0.996917 0
    outer loop
      vertex 14.9958 -4.3028 10.2832
      vertex 20.418 -3.87607 10.2832
      vertex 14.9958 -4.3028 13.2832
    endloop
  endfacet
  facet normal 0.0784591 -0.996917 -1.35515e-016
    outer loop
      vertex 20.418 -3.87607 10.2832
      vertex 27.4571 -3.32208 10.2832
      vertex 29.5853 -3.15458 13.2832
    endloop
  endfacet
  facet normal 0.026177 -0.999657 4.60145e-018
    outer loop
      vertex 2.2563 -4.6428 10.2832
      vertex 0.122203 -4.69868 13.2832
      vertex 0.122203 -4.69868 10.2832
    endloop
  endfacet
  facet normal 0.311326 -0.539233 0.782498
    outer loop
      vertex 10.2862 19.3422 41
      vertex 7.11789 17.513 41
      vertex 44.3378 -1.21884 13.2832
    endloop
  endfacet
  facet normal 0.84095 0.374415 0.390661
    outer loop
      vertex 43.0585 8.49809 13.2832
      vertex 15.1554 42.25 41
      vertex 16.6435 38.9078 41
    endloop
  endfacet
  facet normal 0.613553 0.130415 -0.778809
    outer loop
      vertex 43.0585 8.49809 -13.2822
      vertex 17.4041 35.3292 -29
      vertex 16.6435 38.9078 -29
    endloop
  endfacet
  facet normal 0.762548 0.601722 -0.237596
    outer loop
      vertex 41.8986 17.3088 -6.92871
      vertex 13.005 45.2098 -29
      vertex 41.6638 18.7908 -3.92871
    endloop
  endfacet
  facet normal 0.577519 0.0760318 -0.812829
    outer loop
      vertex 43.0585 8.49809 -13.2822
      vertex 44.3378 -1.21884 -13.2822
      vertex 17.4041 35.3292 -29
    endloop
  endfacet
  facet normal 0.0605069 -0.575673 -0.815439
    outer loop
      vertex 29.8284 -3.12904 -13.2822
      vertex 29.5853 -3.15458 -13.2822
      vertex 3.63845 16.3824 -29
    endloop
  endfacet
  facet normal 0.0741652 -0.563341 -0.822889
    outer loop
      vertex 44.3378 -1.21884 -13.2822
      vertex 29.8284 -3.12904 -13.2822
      vertex 3.63845 16.3824 -29
    endloop
  endfacet
  facet normal -0.255383 -0.283632 -0.924301
    outer loop
      vertex -13.005 21.7902 -29
      vertex -10.2862 19.3422 -29
      vertex -44.3378 -1.21884 -13.2822
    endloop
  endfacet
  facet normal -0.577519 0.0760318 -0.812829
    outer loop
      vertex -43.0585 8.49809 -13.2822
      vertex -17.4041 35.3292 -29
      vertex -44.3378 -1.21884 -13.2822
    endloop
  endfacet
  facet normal -0.627051 -0.133284 0.767491
    outer loop
      vertex -17.4041 31.6708 41
      vertex -44.3378 -1.21884 13.2832
      vertex -16.6435 28.0922 41
    endloop
  endfacet
  facet normal 0 0 1
    outer loop
      vertex -14.4206 35.0157 41
      vertex -17.4041 35.3292 41
      vertex -17.4041 31.6708 41
    endloop
  endfacet
  facet normal 0 0 1
    outer loop
      vertex -13.7903 37.9807 41
      vertex -16.6435 38.9078 41
      vertex -17.4041 35.3292 41
    endloop
  endfacet
  facet normal 0 0 1
    outer loop
      vertex -13.005 45.2098 41
      vertex -15.1554 42.25 41
      vertex -12.5574 40.75 41
    endloop
  endfacet
  facet normal 0 0 1
    outer loop
      vertex -15.1554 42.25 41
      vertex -16.6435 38.9078 41
      vertex -13.7903 37.9807 41
    endloop
  endfacet
  facet normal 0 0 1
    outer loop
      vertex -14.4206 31.9843 41
      vertex -17.4041 31.6708 41
      vertex -13.7903 29.0193 41
    endloop
  endfacet
  facet normal -0 0 1
    outer loop
      vertex -17.4041 35.3292 41
      vertex -14.4206 35.0157 41
      vertex -13.7903 37.9807 41
    endloop
  endfacet
  facet normal 0 0 1
    outer loop
      vertex -14.4206 35.0157 41
      vertex -17.4041 31.6708 41
      vertex -14.4206 31.9843 41
    endloop
  endfacet
  facet normal 0 0 1
    outer loop
      vertex -13.005 45.2098 41
      vertex -8.52289 45.2307 41
      vertex -10.2862 47.6578 41
    endloop
  endfacet
  facet normal 0 0 1
    outer loop
      vertex -3.63845 50.6176 41
      vertex -7.11789 49.487 41
      vertex -5.89768 46.7464 41
    endloop
  endfacet
  facet normal 0 -0 1
    outer loop
      vertex -13.7903 37.9807 41
      vertex -12.5574 40.75 41
      vertex -15.1554 42.25 41
    endloop
  endfacet
  facet normal 0 -0 1
    outer loop
      vertex -8.52289 45.2307 41
      vertex -7.11789 49.487 41
      vertex -10.2862 47.6578 41
    endloop
  endfacet
  facet normal -0 0 1
    outer loop
      vertex -13.005 45.2098 41
      vertex -10.7756 43.2024 41
      vertex -8.52289 45.2307 41
    endloop
  endfacet
  facet normal 0 0 1
    outer loop
      vertex -10.7756 43.2024 41
      vertex -13.005 45.2098 41
      vertex -12.5574 40.75 41
    endloop
  endfacet
  facet normal -0 0 1
    outer loop
      vertex -3.63845 50.6176 41
      vertex 4.28256e-014 48 41
      vertex 4.2661e-014 51 41
    endloop
  endfacet
  facet normal 0 0 1
    outer loop
      vertex 7.11789 49.487 41
      vertex 3.63845 50.6176 41
      vertex 5.89768 46.7464 41
    endloop
  endfacet
  facet normal 0 0 1
    outer loop
      vertex -8.52289 45.2307 41
      vertex -5.89768 46.7464 41
      vertex -7.11789 49.487 41
    endloop
  endfacet
  facet normal 0 -0 1
    outer loop
      vertex 4.28256e-014 48 41
      vertex 3.63845 50.6176 41
      vertex 4.2661e-014 51 41
    endloop
  endfacet
  facet normal 0 0 1
    outer loop
      vertex -3.63845 50.6176 41
      vertex -3.01472 47.6831 41
      vertex 4.28256e-014 48 41
    endloop
  endfacet
  facet normal 0 0 1
    outer loop
      vertex -3.01472 47.6831 41
      vertex -3.63845 50.6176 41
      vertex -5.89768 46.7464 41
    endloop
  endfacet
  facet normal 0 0 1
    outer loop
      vertex 7.11789 49.487 41
      vertex 5.89768 46.7464 41
      vertex 10.2862 47.6578 41
    endloop
  endfacet
  facet normal 0 0 1
    outer loop
      vertex 15.1554 42.25 41
      vertex 13.005 45.2098 41
      vertex 12.5574 40.75 41
    endloop
  endfacet
  facet normal -0 0 1
    outer loop
      vertex 4.28256e-014 48 41
      vertex 3.01472 47.6831 41
      vertex 3.63845 50.6176 41
    endloop
  endfacet
  facet normal 0 -0 1
    outer loop
      vertex 10.7756 43.2024 41
      vertex 13.005 45.2098 41
      vertex 10.2862 47.6578 41
    endloop
  endfacet
  facet normal 0 0 1
    outer loop
      vertex 10.2862 47.6578 41
      vertex 5.89768 46.7464 41
      vertex 8.52289 45.2307 41
    endloop
  endfacet
  facet normal 0 0 1
    outer loop
      vertex 5.89768 46.7464 41
      vertex 3.63845 50.6176 41
      vertex 3.01472 47.6831 41
    endloop
  endfacet
  facet normal 0 0 1
    outer loop
      vertex 15.1554 42.25 41
      vertex 12.5574 40.75 41
      vertex 16.6435 38.9078 41
    endloop
  endfacet
  facet normal 0 -0 1
    outer loop
      vertex 17.4041 31.6708 41
      vertex 17.4041 35.3292 41
      vertex 14.4206 35.0157 41
    endloop
  endfacet
  facet normal -0 0 1
    outer loop
      vertex 8.52289 45.2307 41
      vertex 10.7756 43.2024 41
      vertex 10.2862 47.6578 41
    endloop
  endfacet
  facet normal -0 0 1
    outer loop
      vertex 13.7903 37.9807 41
      vertex 17.4041 35.3292 41
      vertex 16.6435 38.9078 41
    endloop
  endfacet
  facet normal 0 0 1
    outer loop
      vertex 16.6435 38.9078 41
      vertex 12.5574 40.75 41
      vertex 13.7903 37.9807 41
    endloop
  endfacet
  facet normal 0 -0 1
    outer loop
      vertex 12.5574 40.75 41
      vertex 13.005 45.2098 41
      vertex 10.7756 43.2024 41
    endloop
  endfacet
  facet normal 0 0 1
    outer loop
      vertex 17.4041 31.6708 41
      vertex 13.7903 29.0193 41
      vertex 16.6435 28.0922 41
    endloop
  endfacet
  facet normal 0 -0 1
    outer loop
      vertex 13.005 21.7902 41
      vertex 15.1554 24.75 41
      vertex 10.7756 23.7976 41
    endloop
  endfacet
  facet normal 0 0 1
    outer loop
      vertex 13.7903 37.9807 41
      vertex 14.4206 35.0157 41
      vertex 17.4041 35.3292 41
    endloop
  endfacet
  facet normal 0 0 1
    outer loop
      vertex 13.7903 29.0193 41
      vertex 15.1554 24.75 41
      vertex 16.6435 28.0922 41
    endloop
  endfacet
  facet normal 0 0 1
    outer loop
      vertex 17.4041 31.6708 41
      vertex 14.4206 31.9843 41
      vertex 13.7903 29.0193 41
    endloop
  endfacet
  facet normal -0 0 1
    outer loop
      vertex 14.4206 31.9843 41
      vertex 17.4041 31.6708 41
      vertex 14.4206 35.0157 41
    endloop
  endfacet
  facet normal 0 0 1
    outer loop
      vertex 13.005 21.7902 41
      vertex 8.52289 21.7693 41
      vertex 10.2862 19.3422 41
    endloop
  endfacet
  facet normal 0 -0 1
    outer loop
      vertex 3.63845 16.3824 41
      vertex 7.11789 17.513 41
      vertex 3.01472 19.3169 41
    endloop
  endfacet
  facet normal 0 0 1
    outer loop
      vertex 13.7903 29.0193 41
      vertex 12.5574 26.25 41
      vertex 15.1554 24.75 41
    endloop
  endfacet
  facet normal 0 0 1
    outer loop
      vertex 8.52289 21.7693 41
      vertex 7.11789 17.513 41
      vertex 10.2862 19.3422 41
    endloop
  endfacet
  facet normal 0 0 1
    outer loop
      vertex 13.005 21.7902 41
      vertex 10.7756 23.7976 41
      vertex 8.52289 21.7693 41
    endloop
  endfacet
  facet normal 0 0 1
    outer loop
      vertex 10.7756 23.7976 41
      vertex 15.1554 24.75 41
      vertex 12.5574 26.25 41
    endloop
  endfacet
  facet normal 0 0 1
    outer loop
      vertex 3.63845 16.3824 41
      vertex 3.01472 19.3169 41
      vertex 4.67242e-014 16 41
    endloop
  endfacet
  facet normal -0 0 1
    outer loop
      vertex -7.11789 17.513 41
      vertex -3.63845 16.3824 41
      vertex -3.01472 19.3169 41
    endloop
  endfacet
  facet normal 0 0 1
    outer loop
      vertex 8.52289 21.7693 41
      vertex 5.89768 20.2536 41
      vertex 7.11789 17.513 41
    endloop
  endfacet
  facet normal 0 0 1
    outer loop
      vertex -3.01472 19.3169 41
      vertex -3.63845 16.3824 41
      vertex 4.67242e-014 16 41
    endloop
  endfacet
  facet normal 0 -0 1
    outer loop
      vertex 4.67242e-014 16 41
      vertex 3.01472 19.3169 41
      vertex 4.61922e-014 19 41
    endloop
  endfacet
  facet normal -0 0 1
    outer loop
      vertex 3.01472 19.3169 41
      vertex 7.11789 17.513 41
      vertex 5.89768 20.2536 41
    endloop
  endfacet
  facet normal 0 0 1
    outer loop
      vertex -7.11789 17.513 41
      vertex -8.52289 21.7693 41
      vertex -10.2862 19.3422 41
    endloop
  endfacet
  facet normal 0 0 1
    outer loop
      vertex 4.61922e-014 19 41
      vertex -3.01472 19.3169 41
      vertex 4.67242e-014 16 41
    endloop
  endfacet
  facet normal 0 0 1
    outer loop
      vertex -8.52289 21.7693 41
      vertex -13.005 21.7902 41
      vertex -10.2862 19.3422 41
    endloop
  endfacet
  facet normal 0 0 1
    outer loop
      vertex -3.01472 19.3169 41
      vertex -5.89768 20.2536 41
      vertex -7.11789 17.513 41
    endloop
  endfacet
  facet normal 0 0 1
    outer loop
      vertex -10.7756 23.7976 41
      vertex -15.1554 24.75 41
      vertex -13.005 21.7902 41
    endloop
  endfacet
  facet normal 0 0 1
    outer loop
      vertex -5.89768 20.2536 41
      vertex -8.52289 21.7693 41
      vertex -7.11789 17.513 41
    endloop
  endfacet
  facet normal 0 0 1
    outer loop
      vertex -8.52289 21.7693 41
      vertex -10.7756 23.7976 41
      vertex -13.005 21.7902 41
    endloop
  endfacet
  facet normal 0 0 1
    outer loop
      vertex -12.5574 26.25 41
      vertex -16.6435 28.0922 41
      vertex -15.1554 24.75 41
    endloop
  endfacet
  facet normal 0 0 1
    outer loop
      vertex -10.7756 23.7976 41
      vertex -12.5574 26.25 41
      vertex -15.1554 24.75 41
    endloop
  endfacet
  facet normal 0 0 1
    outer loop
      vertex -12.5574 26.25 41
      vertex -13.7903 29.0193 41
      vertex -16.6435 28.0922 41
    endloop
  endfacet
  facet normal 0 0 1
    outer loop
      vertex -13.7903 29.0193 41
      vertex -17.4041 31.6708 41
      vertex -16.6435 28.0922 41
    endloop
  endfacet
  facet normal -0.545609 -0.242921 0.80206
    outer loop
      vertex -16.6435 28.0922 41
      vertex -44.3378 -1.21884 13.2832
      vertex -15.1554 24.75 41
    endloop
  endfacet
  facet normal -0.311326 -0.539233 0.782498
    outer loop
      vertex -10.2862 19.3422 41
      vertex -44.3378 -1.21884 13.2832
      vertex -7.11789 17.513 41
    endloop
  endfacet
  facet normal -0.212295 -0.653378 0.726655
    outer loop
      vertex -7.11789 17.513 41
      vertex -44.3378 -1.21884 13.2832
      vertex -3.63845 16.3824 41
    endloop
  endfacet
  facet normal -0.84095 0.374415 0.390661
    outer loop
      vertex -16.6435 38.9078 41
      vertex -15.1554 42.25 41
      vertex -43.0585 8.49809 13.2832
    endloop
  endfacet
  facet normal 0.130526 -0.991445 0
    outer loop
      vertex 31.945 -2.85039 10.2832
      vertex 29.8284 -3.12904 13.2832
      vertex 29.8284 -3.12904 10.2832
    endloop
  endfacet
  facet normal 0.130526 -0.991445 1.58394e-017
    outer loop
      vertex 31.945 -2.85039 10.2832
      vertex 44.3378 -1.21884 13.2832
      vertex 29.8284 -3.12904 13.2832
    endloop
  endfacet
  facet normal 0.130526 -0.991445 0
    outer loop
      vertex 31.945 -2.85039 10.2832
      vertex 44.3378 -1.21884 10.2832
      vertex 44.3378 -1.21884 13.2832
    endloop
  endfacet
  facet normal 0.0209752 -0.801011 0.598281
    outer loop
      vertex 14.7518 -4.31559 13.2832
      vertex 4.67242e-014 16 41
      vertex 0.122203 -4.69868 13.2832
    endloop
  endfacet
  facet normal 0.026177 -0.999657 -1.91944e-016
    outer loop
      vertex 8.70501 -4.47393 10.2832
      vertex 14.7518 -4.31559 13.2832
      vertex 0.122203 -4.69868 13.2832
    endloop
  endfacet
  facet normal 0.026177 -0.999657 5.54769e-018
    outer loop
      vertex 2.2563 -4.6428 10.2832
      vertex 8.70501 -4.47393 10.2832
      vertex 0.122203 -4.69868 13.2832
    endloop
  endfacet
  facet normal 0.026177 -0.999657 0
    outer loop
      vertex 8.70501 -4.47393 10.2832
      vertex 14.7518 -4.31559 10.2832
      vertex 14.7518 -4.31559 13.2832
    endloop
  endfacet
  facet normal 0 -1 0
    outer loop
      vertex -0.122203 -4.69868 -13.2822
      vertex 1.82326e-015 -4.69868 -10.2822
      vertex -0.122203 -4.69868 -10.2822
    endloop
  endfacet
  facet normal 0 -1 0
    outer loop
      vertex -0.122203 -4.69868 -13.2822
      vertex 0.122203 -4.69868 -13.2822
      vertex 1.82326e-015 -4.69868 -10.2822
    endloop
  endfacet
  facet normal 0 -1 0
    outer loop
      vertex 0.122203 -4.69868 -13.2822
      vertex 0.122203 -4.69868 -10.2822
      vertex 1.82326e-015 -4.69868 -10.2822
    endloop
  endfacet
  facet normal -0 -1 0
    outer loop
      vertex -1.82343e-015 -4.69868 10.2832
      vertex -0.122203 -4.69868 13.2832
      vertex -0.122203 -4.69868 10.2832
    endloop
  endfacet
  facet normal 0 -1 0
    outer loop
      vertex -1.82343e-015 -4.69868 10.2832
      vertex 0.122203 -4.69868 13.2832
      vertex -0.122203 -4.69868 13.2832
    endloop
  endfacet
  facet normal 0 -1 0
    outer loop
      vertex 0.122203 -4.69868 10.2832
      vertex 0.122203 -4.69868 13.2832
      vertex -1.82343e-015 -4.69868 10.2832
    endloop
  endfacet
  facet normal -4.34652e-015 -0.801232 0.598354
    outer loop
      vertex 4.67242e-014 16 41
      vertex -0.122203 -4.69868 13.2832
      vertex 0.122203 -4.69868 13.2832
    endloop
  endfacet
  facet normal 0.393874 -0.437441 0.808399
    outer loop
      vertex 13.005 21.7902 41
      vertex 10.2862 19.3422 41
      vertex 44.3378 -1.21884 13.2832
    endloop
  endfacet
  facet normal 0.0816696 -0.777018 0.624158
    outer loop
      vertex 29.8284 -3.12904 13.2832
      vertex 3.63845 16.3824 41
      vertex 29.5853 -3.15458 13.2832
    endloop
  endfacet
  facet normal 0.100869 -0.766175 0.634667
    outer loop
      vertex 44.3378 -1.21884 13.2832
      vertex 3.63845 16.3824 41
      vertex 29.8284 -3.12904 13.2832
    endloop
  endfacet
  facet normal 0.627051 -0.133284 0.767491
    outer loop
      vertex 17.4041 31.6708 41
      vertex 16.6435 28.0922 41
      vertex 44.3378 -1.21884 13.2832
    endloop
  endfacet
  facet normal 0.798975 0.561639 0.214945
    outer loop
      vertex 41.6638 18.7908 3.7627
      vertex 15.1554 42.25 41
      vertex 41.8986 17.3088 6.7627
    endloop
  endfacet
  facet normal 0.991445 0.130526 1.98508e-015
    outer loop
      vertex 43.0585 8.49809 -7.61042
      vertex 41.8986 17.3088 -6.92871
      vertex 42.3863 13.6037 -3.92871
    endloop
  endfacet
  facet normal 0.991445 0.130526 0
    outer loop
      vertex 41.8986 17.3088 -0.928711
      vertex 42.3863 13.6037 -3.92871
      vertex 41.8986 17.3088 -6.92871
    endloop
  endfacet
  facet normal 0.991445 0.130526 0
    outer loop
      vertex 42.3863 13.6037 -3.60051
      vertex 42.3863 13.6037 -3.92871
      vertex 41.8986 17.3088 -0.928711
    endloop
  endfacet
  facet normal 0.991445 0.130526 0
    outer loop
      vertex 43.0585 8.49809 -7.61042
      vertex 43.0585 8.49809 -13.2822
      vertex 41.8986 17.3088 -6.92871
    endloop
  endfacet
  facet normal 0.987689 0.156428 -0
    outer loop
      vertex 41.8986 17.3088 -6.92871
      vertex 41.6638 18.7908 -3.92871
      vertex 41.8986 17.3088 -0.928711
    endloop
  endfacet
  facet normal 0.771408 0.56046 -0.301354
    outer loop
      vertex 15.1554 42.25 -29
      vertex 13.005 45.2098 -29
      vertex 41.8986 17.3088 -6.92871
    endloop
  endfacet
  facet normal 0.778526 0.431287 -0.455949
    outer loop
      vertex 43.0585 8.49809 -13.2822
      vertex 15.1554 42.25 -29
      vertex 41.8986 17.3088 -6.92871
    endloop
  endfacet
  facet normal 0.35538 -0.158225 -0.921233
    outer loop
      vertex 16.6435 28.0922 -29
      vertex 44.3378 -1.21884 -13.2822
      vertex 15.1554 24.75 -29
    endloop
  endfacet
  facet normal -0.303262 -0.220333 -0.927084
    outer loop
      vertex -15.1554 24.75 -29
      vertex -13.005 21.7902 -29
      vertex -44.3378 -1.21884 -13.2822
    endloop
  endfacet
  facet normal -0.205653 -0.356202 -0.911497
    outer loop
      vertex -10.2862 19.3422 -29
      vertex -7.11789 17.513 -29
      vertex -44.3378 -1.21884 -13.2822
    endloop
  endfacet
  facet normal 0 0 -1
    outer loop
      vertex -17.4041 31.6708 -29
      vertex -13.7903 29.0193 -29
      vertex -16.6435 28.0922 -29
    endloop
  endfacet
  facet normal 0 0 -1
    outer loop
      vertex -17.4041 31.6708 -29
      vertex -17.4041 35.3292 -29
      vertex -14.4206 35.0157 -29
    endloop
  endfacet
  facet normal 0 0 -1
    outer loop
      vertex -17.4041 35.3292 -29
      vertex -13.7903 37.9807 -29
      vertex -14.4206 35.0157 -29
    endloop
  endfacet
  facet normal -0 0 -1
    outer loop
      vertex -10.7756 23.7976 -29
      vertex -13.005 21.7902 -29
      vertex -15.1554 24.75 -29
    endloop
  endfacet
  facet normal 0 0 -1
    outer loop
      vertex -16.6435 28.0922 -29
      vertex -12.5574 26.25 -29
      vertex -15.1554 24.75 -29
    endloop
  endfacet
  facet normal 0 0 -1
    outer loop
      vertex -13.7903 29.0193 -29
      vertex -17.4041 31.6708 -29
      vertex -14.4206 31.9843 -29
    endloop
  endfacet
  facet normal 0 -0 -1
    outer loop
      vertex -14.4206 35.0157 -29
      vertex -14.4206 31.9843 -29
      vertex -17.4041 31.6708 -29
    endloop
  endfacet
  facet normal 0 0 -1
    outer loop
      vertex -10.2862 19.3422 -29
      vertex -13.005 21.7902 -29
      vertex -8.52289 21.7693 -29
    endloop
  endfacet
  facet normal 0 0 -1
    outer loop
      vertex -3.01472 19.3169 -29
      vertex -3.63845 16.3824 -29
      vertex -7.11789 17.513 -29
    endloop
  endfacet
  facet normal 0 0 -1
    outer loop
      vertex -16.6435 28.0922 -29
      vertex -13.7903 29.0193 -29
      vertex -12.5574 26.25 -29
    endloop
  endfacet
  facet normal 0 0 -1
    outer loop
      vertex -10.2862 19.3422 -29
      vertex -8.52289 21.7693 -29
      vertex -7.11789 17.513 -29
    endloop
  endfacet
  facet normal 0 0 -1
    outer loop
      vertex -8.52289 21.7693 -29
      vertex -13.005 21.7902 -29
      vertex -10.7756 23.7976 -29
    endloop
  endfacet
  facet normal 0 -0 -1
    outer loop
      vertex -12.5574 26.25 -29
      vertex -10.7756 23.7976 -29
      vertex -15.1554 24.75 -29
    endloop
  endfacet
  facet normal 0 0 -1
    outer loop
      vertex 4.67242e-014 16 -29
      vertex -3.63845 16.3824 -29
      vertex -3.01472 19.3169 -29
    endloop
  endfacet
  facet normal 0 0 -1
    outer loop
      vertex 3.01472 19.3169 -29
      vertex 7.11789 17.513 -29
      vertex 3.63845 16.3824 -29
    endloop
  endfacet
  facet normal 0 0 -1
    outer loop
      vertex -7.11789 17.513 -29
      vertex -8.52289 21.7693 -29
      vertex -5.89768 20.2536 -29
    endloop
  endfacet
  facet normal 0 0 -1
    outer loop
      vertex 4.67242e-014 16 -29
      vertex 3.01472 19.3169 -29
      vertex 3.63845 16.3824 -29
    endloop
  endfacet
  facet normal -0 -0 -1
    outer loop
      vertex 4.61922e-014 19 -29
      vertex 4.67242e-014 16 -29
      vertex -3.01472 19.3169 -29
    endloop
  endfacet
  facet normal 0 -0 -1
    outer loop
      vertex -5.89768 20.2536 -29
      vertex -3.01472 19.3169 -29
      vertex -7.11789 17.513 -29
    endloop
  endfacet
  facet normal -0 0 -1
    outer loop
      vertex 10.2862 19.3422 -29
      vertex 7.11789 17.513 -29
      vertex 8.52289 21.7693 -29
    endloop
  endfacet
  facet normal 0 0 -1
    outer loop
      vertex 10.7756 23.7976 -29
      vertex 15.1554 24.75 -29
      vertex 13.005 21.7902 -29
    endloop
  endfacet
  facet normal 0 0 -1
    outer loop
      vertex 4.67242e-014 16 -29
      vertex 4.61922e-014 19 -29
      vertex 3.01472 19.3169 -29
    endloop
  endfacet
  facet normal 0 0 -1
    outer loop
      vertex 10.2862 19.3422 -29
      vertex 8.52289 21.7693 -29
      vertex 13.005 21.7902 -29
    endloop
  endfacet
  facet normal 0 0 -1
    outer loop
      vertex 8.52289 21.7693 -29
      vertex 7.11789 17.513 -29
      vertex 5.89768 20.2536 -29
    endloop
  endfacet
  facet normal 0 0 -1
    outer loop
      vertex 3.01472 19.3169 -29
      vertex 5.89768 20.2536 -29
      vertex 7.11789 17.513 -29
    endloop
  endfacet
  facet normal -0 0 -1
    outer loop
      vertex 16.6435 28.0922 -29
      vertex 15.1554 24.75 -29
      vertex 13.7903 29.0193 -29
    endloop
  endfacet
  facet normal 0 0 -1
    outer loop
      vertex 14.4206 35.0157 -29
      vertex 17.4041 35.3292 -29
      vertex 17.4041 31.6708 -29
    endloop
  endfacet
  facet normal -0 0 -1
    outer loop
      vertex 13.005 21.7902 -29
      vertex 8.52289 21.7693 -29
      vertex 10.7756 23.7976 -29
    endloop
  endfacet
  facet normal 0 0 -1
    outer loop
      vertex 16.6435 28.0922 -29
      vertex 13.7903 29.0193 -29
      vertex 17.4041 31.6708 -29
    endloop
  endfacet
  facet normal 0 -0 -1
    outer loop
      vertex 13.7903 29.0193 -29
      vertex 15.1554 24.75 -29
      vertex 12.5574 26.25 -29
    endloop
  endfacet
  facet normal 0 0 -1
    outer loop
      vertex 10.7756 23.7976 -29
      vertex 12.5574 26.25 -29
      vertex 15.1554 24.75 -29
    endloop
  endfacet
  facet normal 0 -0 -1
    outer loop
      vertex 16.6435 38.9078 -29
      vertex 17.4041 35.3292 -29
      vertex 13.7903 37.9807 -29
    endloop
  endfacet
  facet normal 0 0 -1
    outer loop
      vertex 12.5574 40.75 -29
      vertex 13.005 45.2098 -29
      vertex 15.1554 42.25 -29
    endloop
  endfacet
  facet normal -0 0 -1
    outer loop
      vertex 17.4041 31.6708 -29
      vertex 13.7903 29.0193 -29
      vertex 14.4206 31.9843 -29
    endloop
  endfacet
  facet normal 0 0 -1
    outer loop
      vertex 16.6435 38.9078 -29
      vertex 12.5574 40.75 -29
      vertex 15.1554 42.25 -29
    endloop
  endfacet
  facet normal 0 0 -1
    outer loop
      vertex 13.7903 37.9807 -29
      vertex 17.4041 35.3292 -29
      vertex 14.4206 35.0157 -29
    endloop
  endfacet
  facet normal 0 0 -1
    outer loop
      vertex 14.4206 31.9843 -29
      vertex 14.4206 35.0157 -29
      vertex 17.4041 31.6708 -29
    endloop
  endfacet
  facet normal 0 0 -1
    outer loop
      vertex 10.2862 47.6578 -29
      vertex 13.005 45.2098 -29
      vertex 10.7756 43.2024 -29
    endloop
  endfacet
  facet normal 0 0 -1
    outer loop
      vertex 5.89768 46.7464 -29
      vertex 3.63845 50.6176 -29
      vertex 7.11789 49.487 -29
    endloop
  endfacet
  facet normal -0 0 -1
    outer loop
      vertex 16.6435 38.9078 -29
      vertex 13.7903 37.9807 -29
      vertex 12.5574 40.75 -29
    endloop
  endfacet
  facet normal -0 0 -1
    outer loop
      vertex 10.2862 47.6578 -29
      vertex 5.89768 46.7464 -29
      vertex 7.11789 49.487 -29
    endloop
  endfacet
  facet normal 0 0 -1
    outer loop
      vertex 8.52289 45.2307 -29
      vertex 10.2862 47.6578 -29
      vertex 10.7756 43.2024 -29
    endloop
  endfacet
  facet normal 0 0 -1
    outer loop
      vertex 12.5574 40.75 -29
      vertex 10.7756 43.2024 -29
      vertex 13.005 45.2098 -29
    endloop
  endfacet
  facet normal 0 0 -1
    outer loop
      vertex 4.2661e-014 51 -29
      vertex 3.63845 50.6176 -29
      vertex 4.28256e-014 48 -29
    endloop
  endfacet
  facet normal 0 0 -1
    outer loop
      vertex -5.89768 46.7464 -29
      vertex -7.11789 49.487 -29
      vertex -3.63845 50.6176 -29
    endloop
  endfacet
  facet normal 0 0 -1
    outer loop
      vertex 10.2862 47.6578 -29
      vertex 8.52289 45.2307 -29
      vertex 5.89768 46.7464 -29
    endloop
  endfacet
  facet normal 0 -0 -1
    outer loop
      vertex 4.2661e-014 51 -29
      vertex 4.28256e-014 48 -29
      vertex -3.63845 50.6176 -29
    endloop
  endfacet
  facet normal 0 0 -1
    outer loop
      vertex 4.28256e-014 48 -29
      vertex 3.63845 50.6176 -29
      vertex 3.01472 47.6831 -29
    endloop
  endfacet
  facet normal 0 0 -1
    outer loop
      vertex 5.89768 46.7464 -29
      vertex 3.01472 47.6831 -29
      vertex 3.63845 50.6176 -29
    endloop
  endfacet
  facet normal 0 0 -1
    outer loop
      vertex -10.2862 47.6578 -29
      vertex -7.11789 49.487 -29
      vertex -8.52289 45.2307 -29
    endloop
  endfacet
  facet normal 0 0 -1
    outer loop
      vertex -12.5574 40.75 -29
      vertex -15.1554 42.25 -29
      vertex -13.005 45.2098 -29
    endloop
  endfacet
  facet normal 0 0 -1
    outer loop
      vertex -3.63845 50.6176 -29
      vertex 4.28256e-014 48 -29
      vertex -3.01472 47.6831 -29
    endloop
  endfacet
  facet normal 0 -0 -1
    outer loop
      vertex -10.2862 47.6578 -29
      vertex -8.52289 45.2307 -29
      vertex -13.005 45.2098 -29
    endloop
  endfacet
  facet normal -0 0 -1
    outer loop
      vertex -3.01472 47.6831 -29
      vertex -5.89768 46.7464 -29
      vertex -3.63845 50.6176 -29
    endloop
  endfacet
  facet normal -0 0 -1
    outer loop
      vertex -5.89768 46.7464 -29
      vertex -8.52289 45.2307 -29
      vertex -7.11789 49.487 -29
    endloop
  endfacet
  facet normal 0 0 -1
    outer loop
      vertex -13.005 45.2098 -29
      vertex -8.52289 45.2307 -29
      vertex -10.7756 43.2024 -29
    endloop
  endfacet
  facet normal 0 -0 -1
    outer loop
      vertex -15.1554 42.25 -29
      vertex -13.7903 37.9807 -29
      vertex -16.6435 38.9078 -29
    endloop
  endfacet
  facet normal 0 0 -1
    outer loop
      vertex -13.005 45.2098 -29
      vertex -10.7756 43.2024 -29
      vertex -12.5574 40.75 -29
    endloop
  endfacet
  facet normal 0 0 -1
    outer loop
      vertex -15.1554 42.25 -29
      vertex -12.5574 40.75 -29
      vertex -13.7903 37.9807 -29
    endloop
  endfacet
  facet normal 0 -0 -1
    outer loop
      vertex -16.6435 38.9078 -29
      vertex -13.7903 37.9807 -29
      vertex -17.4041 35.3292 -29
    endloop
  endfacet
  facet normal -0.418719 -0.0890014 -0.903744
    outer loop
      vertex -17.4041 31.6708 -29
      vertex -16.6435 28.0922 -29
      vertex -44.3378 -1.21884 -13.2822
    endloop
  endfacet
  facet normal -0.731411 0.325645 -0.59916
    outer loop
      vertex -15.1554 42.25 -29
      vertex -16.6435 38.9078 -29
      vertex -43.0585 8.49809 -13.2822
    endloop
  endfacet
  facet normal 0.469674 -0.341238 0.814226
    outer loop
      vertex 15.1554 24.75 41
      vertex 13.005 21.7902 41
      vertex 44.3378 -1.21884 13.2832
    endloop
  endfacet
  facet normal 0.212295 -0.653378 0.726655
    outer loop
      vertex 7.11789 17.513 41
      vertex 3.63845 16.3824 41
      vertex 44.3378 -1.21884 13.2832
    endloop
  endfacet
  facet normal 0.799788 0.17 0.575707
    outer loop
      vertex 43.0585 8.49809 13.2832
      vertex 16.6435 38.9078 41
      vertex 17.4041 35.3292 41
    endloop
  endfacet
  facet normal 0.677791 0.735255 0
    outer loop
      vertex 13.005 45.2098 41
      vertex 41.6638 18.7908 -3.92871
      vertex 13.005 45.2098 -29
    endloop
  endfacet
  facet normal 0.991445 0.130526 0
    outer loop
      vertex 43.0585 8.49809 13.2832
      vertex 43.0585 8.49809 7.54118
      vertex 42.3877 13.5937 3.77009
    endloop
  endfacet
  facet normal 0.991445 0.130526 1.64769e-013
    outer loop
      vertex 43.0585 8.49809 13.2832
      vertex 42.3877 13.5937 3.77009
      vertex 42.3863 13.6037 3.7627
    endloop
  endfacet
  facet normal 0.991445 0.130526 -2.77178e-015
    outer loop
      vertex 43.0585 8.49809 13.2832
      vertex 42.3863 13.6037 3.7627
      vertex 41.8986 17.3088 -0.928711
    endloop
  endfacet
  facet normal 0.991445 0.130526 0
    outer loop
      vertex 42.3863 13.6037 3.7627
      vertex 42.3863 13.6037 -3.60051
      vertex 41.8986 17.3088 -0.928711
    endloop
  endfacet
  facet normal 0.731411 0.325645 -0.59916
    outer loop
      vertex 16.6435 38.9078 -29
      vertex 15.1554 42.25 -29
      vertex 43.0585 8.49809 -13.2822
    endloop
  endfacet
  facet normal 0.418719 -0.0890014 -0.903744
    outer loop
      vertex 17.4041 31.6708 -29
      vertex 44.3378 -1.21884 -13.2822
      vertex 16.6435 28.0922 -29
    endloop
  endfacet
  facet normal 0.255383 -0.283632 -0.924301
    outer loop
      vertex 13.005 21.7902 -29
      vertex 44.3378 -1.21884 -13.2822
      vertex 10.2862 19.3422 -29
    endloop
  endfacet
  facet normal 0.205653 -0.356202 -0.911497
    outer loop
      vertex 10.2862 19.3422 -29
      vertex 44.3378 -1.21884 -13.2822
      vertex 7.11789 17.513 -29
    endloop
  endfacet
  facet normal -0.146014 -0.449386 -0.881324
    outer loop
      vertex -7.11789 17.513 -29
      vertex -3.63845 16.3824 -29
      vertex -44.3378 -1.21884 -13.2822
    endloop
  endfacet
  facet normal -0.778526 0.431287 -0.455949
    outer loop
      vertex -41.8986 17.3088 -6.92871
      vertex -15.1554 42.25 -29
      vertex -43.0585 8.49809 -13.2822
    endloop
  endfacet
  facet normal -0.771408 0.56046 -0.301354
    outer loop
      vertex -13.005 45.2098 -29
      vertex -15.1554 42.25 -29
      vertex -41.8986 17.3088 -6.92871
    endloop
  endfacet
  facet normal 0.504026 -4.89453e-016 -0.863688
    outer loop
      vertex 17.4041 35.3292 -29
      vertex 44.3378 -1.21884 -13.2822
      vertex 17.4041 31.6708 -29
    endloop
  endfacet
  facet normal 0.303262 -0.220333 -0.927084
    outer loop
      vertex 15.1554 24.75 -29
      vertex 44.3378 -1.21884 -13.2822
      vertex 13.005 21.7902 -29
    endloop
  endfacet
  facet normal 1 5.86e-016 -0
    outer loop
      vertex -14.4206 35.0157 -29
      vertex -14.4206 35.0157 41
      vertex -14.4206 31.9843 41
    endloop
  endfacet
  facet normal 1 5.86e-016 -0
    outer loop
      vertex -14.4206 31.9843 -29
      vertex -14.4206 35.0157 -29
      vertex -14.4206 31.9843 41
    endloop
  endfacet
  facet normal -0.809017 -0.587785 -0
    outer loop
      vertex 12.5574 40.75 41
      vertex 10.7756 43.2024 -29
      vertex 12.5574 40.75 -29
    endloop
  endfacet
  facet normal -0.809017 -0.587785 0
    outer loop
      vertex 12.5574 40.75 41
      vertex 10.7756 43.2024 41
      vertex 10.7756 43.2024 -29
    endloop
  endfacet
  facet normal 0.309017 -0.951057 0
    outer loop
      vertex -5.89768 46.7464 41
      vertex -3.01472 47.6831 -29
      vertex -3.01472 47.6831 41
    endloop
  endfacet
  facet normal 0.309017 -0.951057 0
    outer loop
      vertex -5.89768 46.7464 41
      vertex -5.89768 46.7464 -29
      vertex -3.01472 47.6831 -29
    endloop
  endfacet
  facet normal -0.309017 0.951057 0
    outer loop
      vertex 5.89768 20.2536 41
      vertex 5.89768 20.2536 -29
      vertex 3.01472 19.3169 41
    endloop
  endfacet
  facet normal -0.309017 0.951057 0
    outer loop
      vertex 3.01472 19.3169 41
      vertex 5.89768 20.2536 -29
      vertex 3.01472 19.3169 -29
    endloop
  endfacet
  facet normal 0.5 0.866025 0
    outer loop
      vertex -5.89768 20.2536 41
      vertex -5.89768 20.2536 -29
      vertex -8.52289 21.7693 41
    endloop
  endfacet
  facet normal 0.5 0.866025 0
    outer loop
      vertex -8.52289 21.7693 41
      vertex -5.89768 20.2536 -29
      vertex -8.52289 21.7693 -29
    endloop
  endfacet
  facet normal 0.104528 0.994522 0
    outer loop
      vertex 4.61922e-014 19 41
      vertex 4.61922e-014 19 -29
      vertex -3.01472 19.3169 41
    endloop
  endfacet
  facet normal 0.104528 0.994522 0
    outer loop
      vertex -3.01472 19.3169 41
      vertex 4.61922e-014 19 -29
      vertex -3.01472 19.3169 -29
    endloop
  endfacet
  facet normal -0.104528 0.994522 0
    outer loop
      vertex 3.01472 19.3169 41
      vertex 3.01472 19.3169 -29
      vertex 4.61922e-014 19 41
    endloop
  endfacet
  facet normal -0.104528 0.994522 0
    outer loop
      vertex 4.61922e-014 19 41
      vertex 3.01472 19.3169 -29
      vertex 4.61922e-014 19 -29
    endloop
  endfacet
  facet normal 0.809017 0.587785 -0
    outer loop
      vertex -12.5574 26.25 -29
      vertex -12.5574 26.25 41
      vertex -10.7756 23.7976 41
    endloop
  endfacet
  facet normal 0.809017 0.587785 -0
    outer loop
      vertex -10.7756 23.7976 -29
      vertex -12.5574 26.25 -29
      vertex -10.7756 23.7976 41
    endloop
  endfacet
  facet normal 0.669131 0.743145 0
    outer loop
      vertex -8.52289 21.7693 41
      vertex -8.52289 21.7693 -29
      vertex -10.7756 23.7976 41
    endloop
  endfacet
  facet normal 0.669131 0.743145 0
    outer loop
      vertex -10.7756 23.7976 41
      vertex -8.52289 21.7693 -29
      vertex -10.7756 23.7976 -29
    endloop
  endfacet
  facet normal 0.978148 0.207912 -0
    outer loop
      vertex -14.4206 31.9843 -29
      vertex -14.4206 31.9843 41
      vertex -13.7903 29.0193 41
    endloop
  endfacet
  facet normal 0.978148 0.207912 -0
    outer loop
      vertex -13.7903 29.0193 -29
      vertex -14.4206 31.9843 -29
      vertex -13.7903 29.0193 41
    endloop
  endfacet
  facet normal -0.669131 -0.743145 0
    outer loop
      vertex 8.52289 45.2307 41
      vertex 10.7756 43.2024 -29
      vertex 10.7756 43.2024 41
    endloop
  endfacet
  facet normal -0.669131 -0.743145 -0
    outer loop
      vertex 8.52289 45.2307 41
      vertex 8.52289 45.2307 -29
      vertex 10.7756 43.2024 -29
    endloop
  endfacet
  facet normal -0.104528 -0.994522 0
    outer loop
      vertex 4.28256e-014 48 41
      vertex 3.01472 47.6831 -29
      vertex 3.01472 47.6831 41
    endloop
  endfacet
  facet normal -0.104528 -0.994522 -0
    outer loop
      vertex 4.28256e-014 48 41
      vertex 4.28256e-014 48 -29
      vertex 3.01472 47.6831 -29
    endloop
  endfacet
  facet normal 0.5 -0.866025 0
    outer loop
      vertex -8.52289 45.2307 41
      vertex -5.89768 46.7464 -29
      vertex -5.89768 46.7464 41
    endloop
  endfacet
  facet normal 0.5 -0.866025 0
    outer loop
      vertex -8.52289 45.2307 41
      vertex -8.52289 45.2307 -29
      vertex -5.89768 46.7464 -29
    endloop
  endfacet
  facet normal 0.978148 -0.207912 0
    outer loop
      vertex -14.4206 35.0157 41
      vertex -13.7903 37.9807 -29
      vertex -13.7903 37.9807 41
    endloop
  endfacet
  facet normal 0.978148 -0.207912 0
    outer loop
      vertex -14.4206 35.0157 41
      vertex -14.4206 35.0157 -29
      vertex -13.7903 37.9807 -29
    endloop
  endfacet
  facet normal -0.669131 0.743145 0
    outer loop
      vertex 10.7756 23.7976 41
      vertex 10.7756 23.7976 -29
      vertex 8.52289 21.7693 41
    endloop
  endfacet
  facet normal -0.669131 0.743145 0
    outer loop
      vertex 8.52289 21.7693 41
      vertex 10.7756 23.7976 -29
      vertex 8.52289 21.7693 -29
    endloop
  endfacet
  facet normal -0.809017 0.587785 0
    outer loop
      vertex 12.5574 26.25 41
      vertex 12.5574 26.25 -29
      vertex 10.7756 23.7976 41
    endloop
  endfacet
  facet normal -0.809017 0.587785 0
    outer loop
      vertex 10.7756 23.7976 41
      vertex 12.5574 26.25 -29
      vertex 10.7756 23.7976 -29
    endloop
  endfacet
  facet normal 0.309017 0.951057 0
    outer loop
      vertex -3.01472 19.3169 41
      vertex -3.01472 19.3169 -29
      vertex -5.89768 20.2536 41
    endloop
  endfacet
  facet normal 0.309017 0.951057 0
    outer loop
      vertex -5.89768 20.2536 41
      vertex -3.01472 19.3169 -29
      vertex -5.89768 20.2536 -29
    endloop
  endfacet
  facet normal 0.913545 0.406737 -0
    outer loop
      vertex -13.7903 29.0193 -29
      vertex -13.7903 29.0193 41
      vertex -12.5574 26.25 41
    endloop
  endfacet
  facet normal 0.913545 0.406737 -0
    outer loop
      vertex -12.5574 26.25 -29
      vertex -13.7903 29.0193 -29
      vertex -12.5574 26.25 41
    endloop
  endfacet
  facet normal -0.978148 0.207912 0
    outer loop
      vertex 14.4206 31.9843 41
      vertex 14.4206 31.9843 -29
      vertex 13.7903 29.0193 41
    endloop
  endfacet
  facet normal -0.978148 0.207912 0
    outer loop
      vertex 13.7903 29.0193 41
      vertex 14.4206 31.9843 -29
      vertex 13.7903 29.0193 -29
    endloop
  endfacet
  facet normal -1 -0 -0
    outer loop
      vertex 14.4206 35.0157 41
      vertex 14.4206 35.0157 -29
      vertex 14.4206 31.9843 41
    endloop
  endfacet
  facet normal -1 0 0
    outer loop
      vertex 14.4206 31.9843 41
      vertex 14.4206 35.0157 -29
      vertex 14.4206 31.9843 -29
    endloop
  endfacet
  facet normal -0.5 -0.866025 0
    outer loop
      vertex 5.89768 46.7464 41
      vertex 8.52289 45.2307 -29
      vertex 8.52289 45.2307 41
    endloop
  endfacet
  facet normal -0.5 -0.866025 -0
    outer loop
      vertex 5.89768 46.7464 41
      vertex 5.89768 46.7464 -29
      vertex 8.52289 45.2307 -29
    endloop
  endfacet
  facet normal -0.913545 -0.406737 -0
    outer loop
      vertex 13.7903 37.9807 41
      vertex 12.5574 40.75 -29
      vertex 13.7903 37.9807 -29
    endloop
  endfacet
  facet normal -0.913545 -0.406737 0
    outer loop
      vertex 13.7903 37.9807 41
      vertex 12.5574 40.75 41
      vertex 12.5574 40.75 -29
    endloop
  endfacet
  facet normal -0.978148 -0.207912 -0
    outer loop
      vertex 14.4206 35.0157 41
      vertex 13.7903 37.9807 -29
      vertex 14.4206 35.0157 -29
    endloop
  endfacet
  facet normal -0.978148 -0.207912 0
    outer loop
      vertex 14.4206 35.0157 41
      vertex 13.7903 37.9807 41
      vertex 13.7903 37.9807 -29
    endloop
  endfacet
  facet normal -0.309017 -0.951057 0
    outer loop
      vertex 3.01472 47.6831 41
      vertex 5.89768 46.7464 -29
      vertex 5.89768 46.7464 41
    endloop
  endfacet
  facet normal -0.309017 -0.951057 -0
    outer loop
      vertex 3.01472 47.6831 41
      vertex 3.01472 47.6831 -29
      vertex 5.89768 46.7464 -29
    endloop
  endfacet
  facet normal 0.104528 -0.994522 0
    outer loop
      vertex -3.01472 47.6831 41
      vertex 4.28256e-014 48 -29
      vertex 4.28256e-014 48 41
    endloop
  endfacet
  facet normal 0.104528 -0.994522 0
    outer loop
      vertex -3.01472 47.6831 41
      vertex -3.01472 47.6831 -29
      vertex 4.28256e-014 48 -29
    endloop
  endfacet
  facet normal 0.809017 -0.587785 0
    outer loop
      vertex -12.5574 40.75 41
      vertex -10.7756 43.2024 -29
      vertex -10.7756 43.2024 41
    endloop
  endfacet
  facet normal 0.809017 -0.587785 0
    outer loop
      vertex -12.5574 40.75 41
      vertex -12.5574 40.75 -29
      vertex -10.7756 43.2024 -29
    endloop
  endfacet
  facet normal 0.669131 -0.743145 0
    outer loop
      vertex -10.7756 43.2024 41
      vertex -8.52289 45.2307 -29
      vertex -8.52289 45.2307 41
    endloop
  endfacet
  facet normal 0.669131 -0.743145 0
    outer loop
      vertex -10.7756 43.2024 41
      vertex -10.7756 43.2024 -29
      vertex -8.52289 45.2307 -29
    endloop
  endfacet
  facet normal 0.913545 -0.406737 0
    outer loop
      vertex -13.7903 37.9807 41
      vertex -12.5574 40.75 -29
      vertex -12.5574 40.75 41
    endloop
  endfacet
  facet normal 0.913545 -0.406737 0
    outer loop
      vertex -13.7903 37.9807 41
      vertex -13.7903 37.9807 -29
      vertex -12.5574 40.75 -29
    endloop
  endfacet
  facet normal -0.5 0.866025 0
    outer loop
      vertex 8.52289 21.7693 41
      vertex 8.52289 21.7693 -29
      vertex 5.89768 20.2536 41
    endloop
  endfacet
  facet normal -0.5 0.866025 0
    outer loop
      vertex 5.89768 20.2536 41
      vertex 8.52289 21.7693 -29
      vertex 5.89768 20.2536 -29
    endloop
  endfacet
  facet normal -0.913545 0.406737 0
    outer loop
      vertex 13.7903 29.0193 41
      vertex 13.7903 29.0193 -29
      vertex 12.5574 26.25 41
    endloop
  endfacet
  facet normal -0.913545 0.406737 0
    outer loop
      vertex 12.5574 26.25 41
      vertex 13.7903 29.0193 -29
      vertex 12.5574 26.25 -29
    endloop
  endfacet
  facet normal 1.8954e-016 -0.594878 -0.803816
    outer loop
      vertex 42.3877 13.5937 3.77009
      vertex 43.0585 8.49809 7.54118
      vertex -43.5449 4.80326 10.2756
    endloop
  endfacet
  facet normal 1.79107e-016 -0.594878 -0.803816
    outer loop
      vertex -43.5449 4.80326 10.2756
      vertex 43.0585 8.49809 7.54118
      vertex 43.3232 6.48795 9.02882
    endloop
  endfacet
  facet normal 1.76819e-016 -0.594878 -0.803816
    outer loop
      vertex -43.5449 4.80326 10.2756
      vertex 43.3232 6.48795 9.02882
      vertex 43.5463 4.79299 10.2832
    endloop
  endfacet
  facet normal 1.63948e-016 -0.594878 -0.803816
    outer loop
      vertex -43.5449 4.80326 10.2756
      vertex 43.5463 4.79299 10.2832
      vertex -43.5463 4.79299 10.2832
    endloop
  endfacet
  facet normal -1.60446e-016 -0.5849 0.811106
    outer loop
      vertex -42.3877 13.5937 -3.93592
      vertex 43.5449 4.80326 -10.2748
      vertex 43.0585 8.49809 -7.61042
    endloop
  endfacet
  facet normal -1.66741e-016 -0.5849 0.811106
    outer loop
      vertex 42.3863 13.6037 -3.92871
      vertex -42.3877 13.5937 -3.93592
      vertex 43.0585 8.49809 -7.61042
    endloop
  endfacet
  facet normal -1.7846e-016 -0.5849 0.811106
    outer loop
      vertex -42.3863 13.6037 -3.92871
      vertex -42.3877 13.5937 -3.93592
      vertex 42.3863 13.6037 -3.92871
    endloop
  endfacet
  facet normal 2.03962e-016 -5.1608e-016 -1
    outer loop
      vertex 43.5463 4.79299 10.2832
      vertex -1.82343e-015 1.35097 10.2832
      vertex -43.5463 4.79299 10.2832
    endloop
  endfacet
  facet normal 1.61489e-016 2.12604e-017 -1
    outer loop
      vertex 43.5463 4.79299 10.2832
      vertex 43.5473 4.78526 10.2832
      vertex -1.82343e-015 1.35097 10.2832
    endloop
  endfacet
  facet normal 2.42234e-016 -3.18906e-017 -1
    outer loop
      vertex -43.5463 4.79299 10.2832
      vertex -1.82343e-015 1.35097 10.2832
      vertex -43.5473 4.78526 10.2832
    endloop
  endfacet
  facet normal 0 -1 -0
    outer loop
      vertex 42.3863 13.6037 -3.60051
      vertex -42.3863 13.6037 -3.92871
      vertex 42.3863 13.6037 -3.92871
    endloop
  endfacet
  facet normal -0 -1 0
    outer loop
      vertex 42.3863 13.6037 -3.60051
      vertex -42.3863 13.6037 3.50472
      vertex -42.3863 13.6037 -3.92871
    endloop
  endfacet
  facet normal 0 -1 -0
    outer loop
      vertex 42.3863 13.6037 3.7627
      vertex -42.3863 13.6037 3.50472
      vertex 42.3863 13.6037 -3.60051
    endloop
  endfacet
  facet normal 0 -1 0
    outer loop
      vertex -42.3863 13.6037 3.7627
      vertex -42.3863 13.6037 3.50472
      vertex 42.3863 13.6037 3.7627
    endloop
  endfacet
  facet normal 2.42234e-016 -3.18906e-017 -1
    outer loop
      vertex -43.9368 1.82698 10.2832
      vertex -43.5473 4.78526 10.2832
      vertex -1.82343e-015 1.35097 10.2832
    endloop
  endfacet
  facet normal 2.4515e-016 2.37272e-016 -1
    outer loop
      vertex -1.82343e-015 1.35097 10.2832
      vertex -24.2141 -3.57731 10.2832
      vertex -43.9368 1.82698 10.2832
    endloop
  endfacet
  facet normal -7.25854e-017 -9.22285e-016 -1
    outer loop
      vertex -43.9368 1.82698 10.2832
      vertex -24.2141 -3.57731 10.2832
      vertex -29.5853 -3.15458 10.2832
    endloop
  endfacet
  facet normal -1.07515e-016 -1.02291e-015 -1
    outer loop
      vertex -43.9368 1.82698 10.2832
      vertex -29.5853 -3.15458 10.2832
      vertex -29.8284 -3.12904 10.2832
    endloop
  endfacet
  facet normal 2.40685e-016 -3.16867e-017 -1
    outer loop
      vertex -43.9368 1.82698 10.2832
      vertex -29.8284 -3.12904 10.2832
      vertex -44.3378 -1.21884 10.2832
    endloop
  endfacet
  facet normal 1.65744e-016 -0.594878 -0.803816
    outer loop
      vertex -42.3863 13.6037 3.7627
      vertex 42.3877 13.5937 3.77009
      vertex -43.0585 8.49809 7.54118
    endloop
  endfacet
  facet normal 1.76856e-016 -0.594878 -0.803816
    outer loop
      vertex -42.3863 13.6037 3.7627
      vertex 42.3863 13.6037 3.7627
      vertex 42.3877 13.5937 3.77009
    endloop
  endfacet
  facet normal 1.52211e-016 -0.594878 -0.803816
    outer loop
      vertex -43.0585 8.49809 7.54118
      vertex 42.3877 13.5937 3.77009
      vertex -43.5449 4.80326 10.2756
    endloop
  endfacet
  facet normal -3.74042e-016 -5.89966e-016 1
    outer loop
      vertex -43.5496 4.76761 -10.2822
      vertex -20.418 -3.87607 -10.2822
      vertex -14.9958 -4.3028 -10.2822
    endloop
  endfacet
  facet normal 3.68722e-017 7.03597e-016 1
    outer loop
      vertex -14.7518 -4.31559 -10.2822
      vertex -43.5496 4.76761 -10.2822
      vertex -14.9958 -4.3028 -10.2822
    endloop
  endfacet
  facet normal -3.03613e-016 -3.75896e-016 1
    outer loop
      vertex -8.70501 -4.47393 -10.2822
      vertex -43.5496 4.76761 -10.2822
      vertex -14.7518 -4.31559 -10.2822
    endloop
  endfacet
  facet normal -1.46385e-016 1.9272e-017 1
    outer loop
      vertex -43.5496 4.76761 -10.2822
      vertex -43.5509 4.75776 -10.2822
      vertex -20.418 -3.87607 -10.2822
    endloop
  endfacet
  facet normal -2.26265e-016 3.30057e-016 1
    outer loop
      vertex 15.3452 -4.27531 -10.2822
      vertex 24.2141 -3.57731 -10.2822
      vertex 1.82326e-015 1.35097 -10.2822
    endloop
  endfacet
  facet normal -7.6849e-018 2.93474e-016 1
    outer loop
      vertex 1.82326e-015 1.35097 -10.2822
      vertex 0.122203 -4.69868 -10.2822
      vertex 7.25905 -4.5118 -10.2822
    endloop
  endfacet
  facet normal -1.45361e-014 0 1
    outer loop
      vertex 1.82326e-015 1.35097 -10.2822
      vertex 1.82326e-015 -4.69868 -10.2822
      vertex 0.122203 -4.69868 -10.2822
    endloop
  endfacet
  facet normal 1.45963e-016 2.18134e-016 -1
    outer loop
      vertex 43.5473 4.78526 10.2832
      vertex 8.70501 -4.47393 10.2832
      vertex -1.82343e-015 1.35097 10.2832
    endloop
  endfacet
  facet normal 1.97037e-016 2.59405e-017 -1
    outer loop
      vertex 43.5473 4.78526 10.2832
      vertex 43.5496 4.76761 10.2832
      vertex 8.70501 -4.47393 10.2832
    endloop
  endfacet
  facet normal 0 0 -1
    outer loop
      vertex -1.82343e-015 1.35097 10.2832
      vertex 8.70501 -4.47393 10.2832
      vertex 2.2563 -4.6428 10.2832
    endloop
  endfacet
  facet normal 0 0 -1
    outer loop
      vertex -1.82343e-015 1.35097 10.2832
      vertex 2.2563 -4.6428 10.2832
      vertex 0.122203 -4.69868 10.2832
    endloop
  endfacet
  facet normal 0 0 -1
    outer loop
      vertex -1.82343e-015 1.35097 10.2832
      vertex 0.122203 -4.69868 10.2832
      vertex -1.82343e-015 -4.69868 10.2832
    endloop
  endfacet
  facet normal 3.84629e-017 2.92155e-016 1
    outer loop
      vertex -43.5509 4.75776 -10.2822
      vertex -31.945 -2.85039 -10.2822
      vertex -29.8284 -3.12904 -10.2822
    endloop
  endfacet
  facet normal 2.89716e-017 2.7564e-016 1
    outer loop
      vertex -29.5853 -3.15458 -10.2822
      vertex -43.5509 4.75776 -10.2822
      vertex -29.8284 -3.12904 -10.2822
    endloop
  endfacet
  facet normal 2.05192e-017 2.60722e-016 1
    outer loop
      vertex -27.4571 -3.32208 -10.2822
      vertex -43.5509 4.75776 -10.2822
      vertex -29.5853 -3.15458 -10.2822
    endloop
  endfacet
  facet normal -2.78753e-016 -3.35384e-016 1
    outer loop
      vertex -20.418 -3.87607 -10.2822
      vertex -43.5509 4.75776 -10.2822
      vertex -27.4571 -3.32208 -10.2822
    endloop
  endfacet
  facet normal -1.40896e-016 1.85493e-017 1
    outer loop
      vertex -43.5509 4.75776 -10.2822
      vertex -44.3378 -1.21884 -10.2822
      vertex -31.945 -2.85039 -10.2822
    endloop
  endfacet
  facet normal 2.37317e-016 9.15222e-018 -1
    outer loop
      vertex -7.25905 -4.5118 10.2832
      vertex -14.7518 -4.31559 10.2832
      vertex -1.82343e-015 1.35097 10.2832
    endloop
  endfacet
  facet normal 2.58013e-015 -6.08988e-015 -1
    outer loop
      vertex -1.82343e-015 1.35097 10.2832
      vertex -14.7518 -4.31559 10.2832
      vertex -15.3452 -4.27531 10.2832
    endloop
  endfacet
  facet normal -1.0134e-014 -1.93377e-013 -1
    outer loop
      vertex -14.7518 -4.31559 10.2832
      vertex -14.9958 -4.3028 10.2832
      vertex -15.3452 -4.27531 10.2832
    endloop
  endfacet
  facet normal 1.45361e-014 0 -1
    outer loop
      vertex -1.82343e-015 -4.69868 10.2832
      vertex -0.122203 -4.69868 10.2832
      vertex -1.82343e-015 1.35097 10.2832
    endloop
  endfacet
  facet normal 7.6849e-018 2.93474e-016 -1
    outer loop
      vertex -1.82343e-015 1.35097 10.2832
      vertex -0.122203 -4.69868 10.2832
      vertex -7.25905 -4.5118 10.2832
    endloop
  endfacet
  facet normal 1.40896e-016 1.85493e-017 -1
    outer loop
      vertex 44.3378 -1.21884 10.2832
      vertex 31.945 -2.85039 10.2832
      vertex 43.5509 4.75776 10.2832
    endloop
  endfacet
  facet normal -3.84629e-017 2.92155e-016 -1
    outer loop
      vertex 43.5509 4.75776 10.2832
      vertex 31.945 -2.85039 10.2832
      vertex 29.8284 -3.12904 10.2832
    endloop
  endfacet
  facet normal -2.89716e-017 2.7564e-016 -1
    outer loop
      vertex 43.5509 4.75776 10.2832
      vertex 29.8284 -3.12904 10.2832
      vertex 29.5853 -3.15458 10.2832
    endloop
  endfacet
  facet normal -2.05192e-017 2.60722e-016 -1
    outer loop
      vertex 43.5509 4.75776 10.2832
      vertex 29.5853 -3.15458 10.2832
      vertex 27.4571 -3.32208 10.2832
    endloop
  endfacet
  facet normal 2.78753e-016 -3.35384e-016 -1
    outer loop
      vertex 43.5509 4.75776 10.2832
      vertex 27.4571 -3.32208 10.2832
      vertex 20.418 -3.87607 10.2832
    endloop
  endfacet
  facet normal -2.42234e-016 -3.18906e-017 1
    outer loop
      vertex 43.5463 4.79299 -10.2822
      vertex 1.82326e-015 1.35097 -10.2822
      vertex 43.5473 4.78526 -10.2822
    endloop
  endfacet
  facet normal -2.03962e-016 -5.1608e-016 1
    outer loop
      vertex 43.5463 4.79299 -10.2822
      vertex -43.5463 4.79299 -10.2822
      vertex 1.82326e-015 1.35097 -10.2822
    endloop
  endfacet
  facet normal -1.61489e-016 2.12604e-017 1
    outer loop
      vertex -43.5463 4.79299 -10.2822
      vertex -43.5473 4.78526 -10.2822
      vertex 1.82326e-015 1.35097 -10.2822
    endloop
  endfacet
  facet normal 0 0 1
    outer loop
      vertex 1.82326e-015 1.35097 -10.2822
      vertex -8.70501 -4.47393 -10.2822
      vertex -2.2563 -4.6428 -10.2822
    endloop
  endfacet
  facet normal 0 -0 1
    outer loop
      vertex -0.122203 -4.69868 -10.2822
      vertex 1.82326e-015 1.35097 -10.2822
      vertex -2.2563 -4.6428 -10.2822
    endloop
  endfacet
  facet normal 0 -0 1
    outer loop
      vertex 1.82326e-015 -4.69868 -10.2822
      vertex 1.82326e-015 1.35097 -10.2822
      vertex -0.122203 -4.69868 -10.2822
    endloop
  endfacet
  facet normal -1.45963e-016 2.18134e-016 1
    outer loop
      vertex 1.82326e-015 1.35097 -10.2822
      vertex -43.5473 4.78526 -10.2822
      vertex -8.70501 -4.47393 -10.2822
    endloop
  endfacet
  facet normal -1.97037e-016 2.59405e-017 1
    outer loop
      vertex -43.5473 4.78526 -10.2822
      vertex -43.5496 4.76761 -10.2822
      vertex -8.70501 -4.47393 -10.2822
    endloop
  endfacet
  facet normal 1.46385e-016 1.9272e-017 -1
    outer loop
      vertex 43.5509 4.75776 10.2832
      vertex 20.418 -3.87607 10.2832
      vertex 43.5496 4.76761 10.2832
    endloop
  endfacet
  facet normal 3.74042e-016 -5.89966e-016 -1
    outer loop
      vertex 43.5496 4.76761 10.2832
      vertex 20.418 -3.87607 10.2832
      vertex 14.9958 -4.3028 10.2832
    endloop
  endfacet
  facet normal -3.68722e-017 7.03597e-016 -1
    outer loop
      vertex 43.5496 4.76761 10.2832
      vertex 14.9958 -4.3028 10.2832
      vertex 14.7518 -4.31559 10.2832
    endloop
  endfacet
  facet normal 3.03613e-016 -3.75896e-016 -1
    outer loop
      vertex 43.5496 4.76761 10.2832
      vertex 14.7518 -4.31559 10.2832
      vertex 8.70501 -4.47393 10.2832
    endloop
  endfacet
  facet normal -1.65435e-016 -0.5849 0.811106
    outer loop
      vertex -43.5463 4.79299 -10.2822
      vertex 43.5463 4.79299 -10.2822
      vertex 43.5449 4.80326 -10.2748
    endloop
  endfacet
  facet normal -1.8642e-016 -0.5849 0.811106
    outer loop
      vertex -42.3877 13.5937 -3.93592
      vertex -43.0585 8.49809 -7.61042
      vertex 43.5449 4.80326 -10.2748
    endloop
  endfacet
  facet normal -1.72824e-016 -0.5849 0.811106
    outer loop
      vertex -43.0585 8.49809 -7.61042
      vertex -43.3217 6.49927 -9.05181
      vertex 43.5449 4.80326 -10.2748
    endloop
  endfacet
  facet normal -1.71811e-016 -0.5849 0.811106
    outer loop
      vertex -43.3217 6.49927 -9.05181
      vertex -43.5463 4.79299 -10.2822
      vertex 43.5449 4.80326 -10.2748
    endloop
  endfacet
  facet normal 7.25854e-017 -9.22285e-016 1
    outer loop
      vertex 43.9368 1.82698 -10.2822
      vertex 24.2141 -3.57731 -10.2822
      vertex 29.5853 -3.15458 -10.2822
    endloop
  endfacet
  facet normal 1.07515e-016 -1.02291e-015 1
    outer loop
      vertex 29.8284 -3.12904 -10.2822
      vertex 43.9368 1.82698 -10.2822
      vertex 29.5853 -3.15458 -10.2822
    endloop
  endfacet
  facet normal -2.40685e-016 -3.16867e-017 1
    outer loop
      vertex 44.3378 -1.21884 -10.2822
      vertex 43.9368 1.82698 -10.2822
      vertex 29.8284 -3.12904 -10.2822
    endloop
  endfacet
  facet normal -2.4515e-016 2.37272e-016 1
    outer loop
      vertex 43.9368 1.82698 -10.2822
      vertex 1.82326e-015 1.35097 -10.2822
      vertex 24.2141 -3.57731 -10.2822
    endloop
  endfacet
  facet normal -2.42234e-016 -3.18906e-017 1
    outer loop
      vertex 43.9368 1.82698 -10.2822
      vertex 43.5473 4.78526 -10.2822
      vertex 1.82326e-015 1.35097 -10.2822
    endloop
  endfacet
  facet normal -2.37317e-016 9.15222e-018 1
    outer loop
      vertex 1.82326e-015 1.35097 -10.2822
      vertex 7.25905 -4.5118 -10.2822
      vertex 14.7518 -4.31559 -10.2822
    endloop
  endfacet
  facet normal 1.0134e-014 -1.93377e-013 1
    outer loop
      vertex 14.9958 -4.3028 -10.2822
      vertex 15.3452 -4.27531 -10.2822
      vertex 14.7518 -4.31559 -10.2822
    endloop
  endfacet
  facet normal -2.58013e-015 -6.08988e-015 1
    outer loop
      vertex 15.3452 -4.27531 -10.2822
      vertex 1.82326e-015 1.35097 -10.2822
      vertex 14.7518 -4.31559 -10.2822
    endloop
  endfacet
  facet normal 2.26265e-016 3.30057e-016 -1
    outer loop
      vertex -24.2141 -3.57731 10.2832
      vertex -1.82343e-015 1.35097 10.2832
      vertex -15.3452 -4.27531 10.2832
    endloop
  endfacet
endsolid OpenSCAD_Model
