solid OpenSCAD_Model
  facet normal -1 0 0
    outer loop
      vertex -15.2832 -5.19629 0
      vertex -15.2832 -5.19629 10
      vertex -15.2832 0 0
    endloop
  endfacet
  facet normal -1 0 0
    outer loop
      vertex -15.2832 0 0
      vertex -15.2832 -5.19629 10
      vertex -15.2832 0 10
    endloop
  endfacet
  facet normal 0 0 -1
    outer loop
      vertex -10.2832 -5.19629 0
      vertex -3.7627 -14.083 0
      vertex -8.7627 -14.083 0
    endloop
  endfacet
  facet normal 0 0 -1
    outer loop
      vertex -15.2832 -5.19629 0
      vertex -15.2832 0 0
      vertex -10.2832 -5.19629 0
    endloop
  endfacet
  facet normal 0 0 -1
    outer loop
      vertex -15.2832 0 0
      vertex -10.2832 0 0
      vertex -10.2832 -5.19629 0
    endloop
  endfacet
  facet normal 0 0 -1
    outer loop
      vertex -15.2832 -5.19629 0
      vertex -10.2832 -5.19629 0
      vertex -8.7627 -14.083 0
    endloop
  endfacet
  facet normal -0 -0 -1
    outer loop
      vertex -3.7627 -14.083 0
      vertex -3.7627 -19.083 0
      vertex -8.7627 -14.083 0
    endloop
  endfacet
  facet normal 0 0 -1
    outer loop
      vertex 10.2822 -5.19629 0
      vertex 10.2822 0 0
      vertex 15.2822 -5.19629 0
    endloop
  endfacet
  facet normal 0 0 -1
    outer loop
      vertex 10.2822 -5.19629 0
      vertex 8.92871 -14.083 0
      vertex 3.92871 -14.083 0
    endloop
  endfacet
  facet normal 0 0 -1
    outer loop
      vertex 10.2822 0 0
      vertex 15.2822 0 0
      vertex 15.2822 -5.19629 0
    endloop
  endfacet
  facet normal 0 -0 -1
    outer loop
      vertex 10.2822 -5.19629 0
      vertex 15.2822 -5.19629 0
      vertex 8.92871 -14.083 0
    endloop
  endfacet
  facet normal 0 0 -1
    outer loop
      vertex 3.92871 -14.083 0
      vertex 8.92871 -14.083 0
      vertex 3.92871 -19.083 0
    endloop
  endfacet
  facet normal -0 -0 -1
    outer loop
      vertex 3.92871 -14.083 0
      vertex 3.92871 -19.083 0
      vertex -3.7627 -14.083 0
    endloop
  endfacet
  facet normal 0 0 -1
    outer loop
      vertex -3.7627 -14.083 0
      vertex 3.92871 -19.083 0
      vertex -3.7627 -19.083 0
    endloop
  endfacet
  facet normal 0 -0 1
    outer loop
      vertex 15.2822 -5.19629 10
      vertex 15.2822 0 10
      vertex 10.2822 0 10
    endloop
  endfacet
  facet normal 0 -0 1
    outer loop
      vertex -3.7627 -19.083 10
      vertex -3.7627 -14.083 10
      vertex -8.7627 -14.083 10
    endloop
  endfacet
  facet normal 0 0 1
    outer loop
      vertex 3.92871 -19.083 10
      vertex -3.7627 -14.083 10
      vertex -3.7627 -19.083 10
    endloop
  endfacet
  facet normal 0 0 1
    outer loop
      vertex -15.2832 0 10
      vertex -15.2832 -5.19629 10
      vertex -10.2832 -5.19629 10
    endloop
  endfacet
  facet normal 0 0 1
    outer loop
      vertex 15.2822 -5.19629 10
      vertex 10.2822 0 10
      vertex 10.2822 -5.19629 10
    endloop
  endfacet
  facet normal 0 0 1
    outer loop
      vertex 15.2822 -5.19629 10
      vertex 10.2822 -5.19629 10
      vertex 8.92871 -14.083 10
    endloop
  endfacet
  facet normal -0 0 1
    outer loop
      vertex -15.2832 -5.19629 10
      vertex -8.7627 -14.083 10
      vertex -10.2832 -5.19629 10
    endloop
  endfacet
  facet normal 0 0 1
    outer loop
      vertex 10.2822 -5.19629 10
      vertex 3.92871 -14.083 10
      vertex 8.92871 -14.083 10
    endloop
  endfacet
  facet normal -0 0 1
    outer loop
      vertex 3.92871 -14.083 10
      vertex 3.92871 -19.083 10
      vertex 8.92871 -14.083 10
    endloop
  endfacet
  facet normal -0 0 1
    outer loop
      vertex -3.7627 -14.083 10
      vertex 3.92871 -19.083 10
      vertex 3.92871 -14.083 10
    endloop
  endfacet
  facet normal 0 0 1
    outer loop
      vertex -10.2832 -5.19629 10
      vertex -8.7627 -14.083 10
      vertex -3.7627 -14.083 10
    endloop
  endfacet
  facet normal 0 0 1
    outer loop
      vertex -10.2832 0 10
      vertex -15.2832 0 10
      vertex -10.2832 -5.19629 10
    endloop
  endfacet
  facet normal -0.80625 -0.591575 0
    outer loop
      vertex -15.2832 -5.19629 0
      vertex -8.7627 -14.083 10
      vertex -15.2832 -5.19629 10
    endloop
  endfacet
  facet normal -0.80625 -0.591575 0
    outer loop
      vertex -15.2832 -5.19629 0
      vertex -8.7627 -14.083 0
      vertex -8.7627 -14.083 10
    endloop
  endfacet
  facet normal 1 0 0
    outer loop
      vertex 15.2822 0 0
      vertex 15.2822 -5.19629 10
      vertex 15.2822 -5.19629 0
    endloop
  endfacet
  facet normal 1 0 -0
    outer loop
      vertex 15.2822 0 0
      vertex 15.2822 0 10
      vertex 15.2822 -5.19629 10
    endloop
  endfacet
  facet normal 0 -1 0
    outer loop
      vertex 3.92871 -19.083 0
      vertex -3.7627 -19.083 10
      vertex -3.7627 -19.083 0
    endloop
  endfacet
  facet normal 0 -1 0
    outer loop
      vertex 3.92871 -19.083 0
      vertex 3.92871 -19.083 10
      vertex -3.7627 -19.083 10
    endloop
  endfacet
  facet normal -0.707107 -0.707107 0
    outer loop
      vertex -8.7627 -14.083 0
      vertex -3.7627 -19.083 10
      vertex -8.7627 -14.083 10
    endloop
  endfacet
  facet normal -0.707107 -0.707107 0
    outer loop
      vertex -8.7627 -14.083 0
      vertex -3.7627 -19.083 0
      vertex -3.7627 -19.083 10
    endloop
  endfacet
  facet normal 0.707107 -0.707107 0
    outer loop
      vertex 8.92871 -14.083 0
      vertex 3.92871 -19.083 10
      vertex 3.92871 -19.083 0
    endloop
  endfacet
  facet normal 0.707107 -0.707107 0
    outer loop
      vertex 8.92871 -14.083 0
      vertex 8.92871 -14.083 10
      vertex 3.92871 -19.083 10
    endloop
  endfacet
  facet normal 0.81348 -0.581593 0
    outer loop
      vertex 15.2822 -5.19629 0
      vertex 8.92871 -14.083 10
      vertex 8.92871 -14.083 0
    endloop
  endfacet
  facet normal 0.81348 -0.581593 0
    outer loop
      vertex 15.2822 -5.19629 0
      vertex 15.2822 -5.19629 10
      vertex 8.92871 -14.083 10
    endloop
  endfacet
  facet normal -1 -0 -0
    outer loop
      vertex 10.2822 0 10
      vertex 10.2822 0 0
      vertex 10.2822 -5.19629 10
    endloop
  endfacet
  facet normal -1 0 0
    outer loop
      vertex 10.2822 -5.19629 10
      vertex 10.2822 0 0
      vertex 10.2822 -5.19629 0
    endloop
  endfacet
  facet normal 1 -0 0
    outer loop
      vertex -10.2832 -5.19629 10
      vertex -10.2832 0 0
      vertex -10.2832 0 10
    endloop
  endfacet
  facet normal 1 0 0
    outer loop
      vertex -10.2832 -5.19629 10
      vertex -10.2832 -5.19629 0
      vertex -10.2832 0 0
    endloop
  endfacet
  facet normal 0.80625 0.591575 -0
    outer loop
      vertex -10.2832 -5.19629 0
      vertex -10.2832 -5.19629 10
      vertex -3.7627 -14.083 10
    endloop
  endfacet
  facet normal 0.80625 0.591575 -0
    outer loop
      vertex -3.7627 -14.083 0
      vertex -10.2832 -5.19629 0
      vertex -3.7627 -14.083 10
    endloop
  endfacet
  facet normal 0 1 0
    outer loop
      vertex 3.92871 -14.083 10
      vertex 3.92871 -14.083 0
      vertex -3.7627 -14.083 10
    endloop
  endfacet
  facet normal 0 1 0
    outer loop
      vertex -3.7627 -14.083 10
      vertex 3.92871 -14.083 0
      vertex -3.7627 -14.083 0
    endloop
  endfacet
  facet normal -0.81348 0.581593 0
    outer loop
      vertex 10.2822 -5.19629 10
      vertex 10.2822 -5.19629 0
      vertex 3.92871 -14.083 10
    endloop
  endfacet
  facet normal -0.81348 0.581593 0
    outer loop
      vertex 3.92871 -14.083 10
      vertex 10.2822 -5.19629 0
      vertex 3.92871 -14.083 0
    endloop
  endfacet
  facet normal 0 1 0
    outer loop
      vertex -10.2832 0 10
      vertex -10.2832 0 0
      vertex -15.2832 0 10
    endloop
  endfacet
  facet normal 0 1 0
    outer loop
      vertex -15.2832 0 10
      vertex -10.2832 0 0
      vertex -15.2832 0 0
    endloop
  endfacet
  facet normal 0 1 0
    outer loop
      vertex 15.2822 0 10
      vertex 15.2822 0 0
      vertex 10.2822 0 10
    endloop
  endfacet
  facet normal 0 1 0
    outer loop
      vertex 10.2822 0 10
      vertex 15.2822 0 0
      vertex 10.2822 0 0
    endloop
  endfacet
endsolid OpenSCAD_Model
