solid OpenSCAD_Model
  facet normal -1 0 0
    outer loop
      vertex -12 191.141 35.05
      vertex -12 187.136 35.8
      vertex -12 191.717 35.8
    endloop
  endfacet
  facet normal -1 0 0
    outer loop
      vertex -12 190.392 33.2411
      vertex -12 187.136 35.8
      vertex -12 191.141 35.05
    endloop
  endfacet
  facet normal -1 0 0
    outer loop
      vertex -12 187.136 20.8
      vertex -12 187.136 35.8
      vertex -12 190.392 29.3589
    endloop
  endfacet
  facet normal -1 0 0
    outer loop
      vertex -12 187.136 35.8
      vertex -12 190.392 33.2411
      vertex -12 190.136 31.3
    endloop
  endfacet
  facet normal -1 0 0
    outer loop
      vertex -12 187.136 35.8
      vertex -12 190.136 31.3
      vertex -12 190.392 29.3589
    endloop
  endfacet
  facet normal -1 0 0
    outer loop
      vertex -12 187.136 20.8
      vertex -12 190.392 29.3589
      vertex -12 191.141 27.55
    endloop
  endfacet
  facet normal -1 0 0
    outer loop
      vertex -12 187.136 20.8
      vertex -12 191.141 27.55
      vertex -12 192.333 25.9967
    endloop
  endfacet
  facet normal -1 0 0
    outer loop
      vertex -12 187.136 20.8
      vertex -12 192.333 25.9967
      vertex -12 193.886 24.8048
    endloop
  endfacet
  facet normal -1 0 0
    outer loop
      vertex -12 201.386 24.8048
      vertex -12 202.94 25.9967
      vertex -12 208.136 20.8
    endloop
  endfacet
  facet normal -1 0 0
    outer loop
      vertex -12 187.136 20.8
      vertex -12 193.886 24.8048
      vertex -12 195.695 24.0556
    endloop
  endfacet
  facet normal -1 0 0
    outer loop
      vertex -12 187.136 20.8
      vertex -12 197.636 23.8
      vertex -12 208.136 20.8
    endloop
  endfacet
  facet normal -1 0 -0
    outer loop
      vertex -12 195.695 24.0556
      vertex -12 197.636 23.8
      vertex -12 187.136 20.8
    endloop
  endfacet
  facet normal -1 0 0
    outer loop
      vertex -12 197.636 23.8
      vertex -12 199.577 24.0556
      vertex -12 208.136 20.8
    endloop
  endfacet
  facet normal -1 0 0
    outer loop
      vertex -12 199.577 24.0556
      vertex -12 201.386 24.8048
      vertex -12 208.136 20.8
    endloop
  endfacet
  facet normal -1 0 0
    outer loop
      vertex -12 202.94 25.9967
      vertex -12 204.132 27.55
      vertex -12 208.136 20.8
    endloop
  endfacet
  facet normal -1 0 0
    outer loop
      vertex -12 204.132 27.55
      vertex -12 204.881 29.3589
      vertex -12 208.136 20.8
    endloop
  endfacet
  facet normal -1 0 0
    outer loop
      vertex -12 204.881 29.3589
      vertex -12 208.136 35.8
      vertex -12 208.136 20.8
    endloop
  endfacet
  facet normal -1 0 -0
    outer loop
      vertex -12 205.136 31.3
      vertex -12 208.136 35.8
      vertex -12 204.881 29.3589
    endloop
  endfacet
  facet normal -1 0 0
    outer loop
      vertex -12 204.881 33.2411
      vertex -12 204.132 35.05
      vertex -12 208.136 35.8
    endloop
  endfacet
  facet normal -1 0 0
    outer loop
      vertex -12 204.132 35.05
      vertex -12 203.556 35.8
      vertex -12 208.136 35.8
    endloop
  endfacet
  facet normal -1 0 0
    outer loop
      vertex -12 205.136 31.3
      vertex -12 204.881 33.2411
      vertex -12 208.136 35.8
    endloop
  endfacet
  facet normal -0.952345 0 -0.305022
    outer loop
      vertex -12 187.136 20.8
      vertex -7.5 208.136 6.75
      vertex -7.5 187.136 6.75
    endloop
  endfacet
  facet normal -0.952345 0 -0.305022
    outer loop
      vertex -12 187.136 20.8
      vertex -12 208.136 20.8
      vertex -7.5 208.136 6.75
    endloop
  endfacet
  facet normal 0 0 1
    outer loop
      vertex 12 191.717 35.8
      vertex -12 191.717 35.8
      vertex -12 187.136 35.8
    endloop
  endfacet
  facet normal 0 -0 1
    outer loop
      vertex 12 187.136 35.8
      vertex 12 191.717 35.8
      vertex -12 187.136 35.8
    endloop
  endfacet
  facet normal 0 0 1
    outer loop
      vertex 12 203.556 35.8
      vertex -12 208.136 35.8
      vertex -12 203.556 35.8
    endloop
  endfacet
  facet normal 0 -0 1
    outer loop
      vertex 12 203.556 35.8
      vertex 12 208.136 35.8
      vertex -12 208.136 35.8
    endloop
  endfacet
  facet normal -0 -1 0
    outer loop
      vertex 12 187.136 35.8
      vertex -12 187.136 35.8
      vertex 0.482147 187.136 20.2708
    endloop
  endfacet
  facet normal 0 -1 0
    outer loop
      vertex -7.5 187.136 6.75
      vertex -3.88377 187.136 15.3427
      vertex -12 187.136 20.8
    endloop
  endfacet
  facet normal 0 -1 0
    outer loop
      vertex -1.41842 187.136 20.0401
      vertex -12 187.136 35.8
      vertex -12 187.136 20.8
    endloop
  endfacet
  facet normal -0 -1 0
    outer loop
      vertex -3.88377 187.136 15.6299
      vertex -12 187.136 20.8
      vertex -3.88377 187.136 15.3427
    endloop
  endfacet
  facet normal -0 -1 -0
    outer loop
      vertex -3.88377 187.136 17.2573
      vertex -12 187.136 20.8
      vertex -3.88377 187.136 15.6299
    endloop
  endfacet
  facet normal -0 -1 0
    outer loop
      vertex -3.1275 187.136 18.6982
      vertex -12 187.136 20.8
      vertex -3.88377 187.136 17.2573
    endloop
  endfacet
  facet normal 0 -1 0
    outer loop
      vertex -12 187.136 20.8
      vertex -2.99404 187.136 18.9525
      vertex -2.7577 187.136 19.1156
    endloop
  endfacet
  facet normal -0 -1 0
    outer loop
      vertex -2.99404 187.136 18.9525
      vertex -12 187.136 20.8
      vertex -3.1275 187.136 18.6982
    endloop
  endfacet
  facet normal 0 -1 0
    outer loop
      vertex -12 187.136 20.8
      vertex -2.7577 187.136 19.1156
      vertex -1.41842 187.136 20.0401
    endloop
  endfacet
  facet normal 0 -1 0
    outer loop
      vertex -12 187.136 35.8
      vertex -1.41842 187.136 20.0401
      vertex 0.482147 187.136 20.2708
    endloop
  endfacet
  facet normal 0 -1 -0
    outer loop
      vertex 12 187.136 35.8
      vertex 2.27226 187.136 19.5919
      vertex 12 187.136 20.8
    endloop
  endfacet
  facet normal 0 -1 0
    outer loop
      vertex 0.482147 187.136 20.2708
      vertex 2.00374 187.136 19.6938
      vertex 12 187.136 35.8
    endloop
  endfacet
  facet normal 0 -1 0
    outer loop
      vertex 2.00374 187.136 19.6938
      vertex 2.27226 187.136 19.5919
      vertex 12 187.136 35.8
    endloop
  endfacet
  facet normal 0 -1 0
    outer loop
      vertex 2.27226 187.136 19.5919
      vertex 2.46269 187.136 19.377
      vertex 12 187.136 20.8
    endloop
  endfacet
  facet normal 0 -1 0
    outer loop
      vertex -7.5 187.136 6.75
      vertex 7.5 187.136 6.75
      vertex 0.482147 187.136 12.3292
    endloop
  endfacet
  facet normal 0 -1 0
    outer loop
      vertex 2.46269 187.136 19.377
      vertex 3.54182 187.136 18.1589
      vertex 12 187.136 20.8
    endloop
  endfacet
  facet normal 0 -1 0
    outer loop
      vertex 3.54182 187.136 14.4411
      vertex 7.5 187.136 6.75
      vertex 12 187.136 20.8
    endloop
  endfacet
  facet normal 0 -1 0
    outer loop
      vertex 3.93127 187.136 16.5788
      vertex 12 187.136 20.8
      vertex 3.54182 187.136 18.1589
    endloop
  endfacet
  facet normal 0 -1 0
    outer loop
      vertex 4 187.136 16.3
      vertex 12 187.136 20.8
      vertex 3.93127 187.136 16.5788
    endloop
  endfacet
  facet normal 0 -1 0
    outer loop
      vertex 3.54182 187.136 14.4411
      vertex 12 187.136 20.8
      vertex 4 187.136 16.3
    endloop
  endfacet
  facet normal 0 -1 0
    outer loop
      vertex 7.5 187.136 6.75
      vertex 2.27226 187.136 13.0081
      vertex 0.482147 187.136 12.3292
    endloop
  endfacet
  facet normal 0 -1 0
    outer loop
      vertex 2.27226 187.136 13.0081
      vertex 7.5 187.136 6.75
      vertex 3.54182 187.136 14.4411
    endloop
  endfacet
  facet normal 0 -1 0
    outer loop
      vertex -7.5 187.136 6.75
      vertex 0.482147 187.136 12.3292
      vertex -1.41842 187.136 12.5599
    endloop
  endfacet
  facet normal 0 -1 0
    outer loop
      vertex -7.5 187.136 6.75
      vertex -1.41842 187.136 12.5599
      vertex -2.99404 187.136 13.6475
    endloop
  endfacet
  facet normal 0 -1 0
    outer loop
      vertex -7.5 187.136 6.75
      vertex -2.99404 187.136 13.6475
      vertex -3.88377 187.136 15.3427
    endloop
  endfacet
  facet normal 1 0 -0
    outer loop
      vertex 12 208.136 20.8
      vertex 12 208.136 35.8
      vertex 12 204.881 29.3589
    endloop
  endfacet
  facet normal 1 0 -0
    outer loop
      vertex 12 204.132 35.05
      vertex 12 208.136 35.8
      vertex 12 203.556 35.8
    endloop
  endfacet
  facet normal 1 0 0
    outer loop
      vertex 12 208.136 35.8
      vertex 12 204.881 33.2411
      vertex 12 205.136 31.3
    endloop
  endfacet
  facet normal 1 0 -0
    outer loop
      vertex 12 204.881 33.2411
      vertex 12 208.136 35.8
      vertex 12 204.132 35.05
    endloop
  endfacet
  facet normal 1 0 0
    outer loop
      vertex 12 208.136 35.8
      vertex 12 205.136 31.3
      vertex 12 204.881 29.3589
    endloop
  endfacet
  facet normal 1 0 0
    outer loop
      vertex 12 208.136 20.8
      vertex 12 204.881 29.3589
      vertex 12 204.132 27.55
    endloop
  endfacet
  facet normal 1 0 0
    outer loop
      vertex 12 208.136 20.8
      vertex 12 204.132 27.55
      vertex 12 202.94 25.9967
    endloop
  endfacet
  facet normal 1 0 0
    outer loop
      vertex 12 208.136 20.8
      vertex 12 202.94 25.9967
      vertex 12 201.386 24.8048
    endloop
  endfacet
  facet normal 1 0 0
    outer loop
      vertex 12 208.136 20.8
      vertex 12 201.386 24.8048
      vertex 12 199.577 24.0556
    endloop
  endfacet
  facet normal 1 0 0
    outer loop
      vertex 12 208.136 20.8
      vertex 12 197.636 23.8
      vertex 12 187.136 20.8
    endloop
  endfacet
  facet normal 1 0 0
    outer loop
      vertex 12 199.577 24.0556
      vertex 12 197.636 23.8
      vertex 12 208.136 20.8
    endloop
  endfacet
  facet normal 1 0 0
    outer loop
      vertex 12 197.636 23.8
      vertex 12 195.695 24.0556
      vertex 12 187.136 20.8
    endloop
  endfacet
  facet normal 1 0 0
    outer loop
      vertex 12 195.695 24.0556
      vertex 12 193.886 24.8048
      vertex 12 187.136 20.8
    endloop
  endfacet
  facet normal 1 0 0
    outer loop
      vertex 12 193.886 24.8048
      vertex 12 192.333 25.9967
      vertex 12 187.136 20.8
    endloop
  endfacet
  facet normal 1 0 0
    outer loop
      vertex 12 192.333 25.9967
      vertex 12 191.141 27.55
      vertex 12 187.136 20.8
    endloop
  endfacet
  facet normal 1 0 0
    outer loop
      vertex 12 190.392 29.3589
      vertex 12 187.136 35.8
      vertex 12 187.136 20.8
    endloop
  endfacet
  facet normal 1 0 0
    outer loop
      vertex 12 190.392 29.3589
      vertex 12 187.136 20.8
      vertex 12 191.141 27.55
    endloop
  endfacet
  facet normal 1 0 0
    outer loop
      vertex 12 190.136 31.3
      vertex 12 187.136 35.8
      vertex 12 190.392 29.3589
    endloop
  endfacet
  facet normal 1 0 0
    outer loop
      vertex 12 190.392 33.2411
      vertex 12 187.136 35.8
      vertex 12 190.136 31.3
    endloop
  endfacet
  facet normal 1 0 0
    outer loop
      vertex 12 191.141 35.05
      vertex 12 187.136 35.8
      vertex 12 190.392 33.2411
    endloop
  endfacet
  facet normal 1 0 0
    outer loop
      vertex 12 191.717 35.8
      vertex 12 187.136 35.8
      vertex 12 191.141 35.05
    endloop
  endfacet
  facet normal 0 1 0
    outer loop
      vertex 0.482147 208.136 12.3292
      vertex 7.5 208.136 6.75
      vertex -7.5 208.136 6.75
    endloop
  endfacet
  facet normal 0 1 0
    outer loop
      vertex -12 208.136 20.8
      vertex -3.88377 208.136 15.3427
      vertex -7.5 208.136 6.75
    endloop
  endfacet
  facet normal 0 1 0
    outer loop
      vertex -3.88377 208.136 16.9701
      vertex -3.88377 208.136 15.3427
      vertex -12 208.136 20.8
    endloop
  endfacet
  facet normal 0 1 0
    outer loop
      vertex -3.88377 208.136 15.3427
      vertex -2.99404 208.136 13.6475
      vertex -7.5 208.136 6.75
    endloop
  endfacet
  facet normal 0 1 0
    outer loop
      vertex 0.482147 208.136 12.3292
      vertex -7.5 208.136 6.75
      vertex -1.41842 208.136 12.5599
    endloop
  endfacet
  facet normal 0 1 0
    outer loop
      vertex -2.99404 208.136 13.6475
      vertex -1.41842 208.136 12.5599
      vertex -7.5 208.136 6.75
    endloop
  endfacet
  facet normal 0 1 0
    outer loop
      vertex 2.27226 208.136 13.0081
      vertex 7.5 208.136 6.75
      vertex 0.482147 208.136 12.3292
    endloop
  endfacet
  facet normal 0 1 0
    outer loop
      vertex 12 208.136 20.8
      vertex 7.5 208.136 6.75
      vertex 3.54182 208.136 14.4411
    endloop
  endfacet
  facet normal 0 1 0
    outer loop
      vertex 7.5 208.136 6.75
      vertex 2.27226 208.136 13.0081
      vertex 3.54182 208.136 14.4411
    endloop
  endfacet
  facet normal 0 1 0
    outer loop
      vertex 12 208.136 20.8
      vertex 3.54182 208.136 14.4411
      vertex 4 208.136 16.3
    endloop
  endfacet
  facet normal 0 1 -0
    outer loop
      vertex 12 208.136 20.8
      vertex 2.27226 208.136 19.5919
      vertex 12 208.136 35.8
    endloop
  endfacet
  facet normal 0 1 0
    outer loop
      vertex 12 208.136 20.8
      vertex 4 208.136 16.3
      vertex 3.61055 208.136 17.8801
    endloop
  endfacet
  facet normal 0 1 0
    outer loop
      vertex -1.41842 208.136 20.0401
      vertex -12 208.136 20.8
      vertex -12 208.136 35.8
    endloop
  endfacet
  facet normal 0 1 0
    outer loop
      vertex 12 208.136 20.8
      vertex 3.61055 208.136 17.8801
      vertex 3.54182 208.136 18.1589
    endloop
  endfacet
  facet normal 0 1 0
    outer loop
      vertex 12 208.136 35.8
      vertex 0.482147 208.136 20.2708
      vertex -12 208.136 35.8
    endloop
  endfacet
  facet normal 0 1 -0
    outer loop
      vertex 3.54182 208.136 18.1589
      vertex 3.35139 208.136 18.3738
      vertex 12 208.136 20.8
    endloop
  endfacet
  facet normal 0 1 -0
    outer loop
      vertex 3.35139 208.136 18.3738
      vertex 2.27226 208.136 19.5919
      vertex 12 208.136 20.8
    endloop
  endfacet
  facet normal 0 1 -0
    outer loop
      vertex 2.27226 208.136 19.5919
      vertex 0.750664 208.136 20.169
      vertex 12 208.136 35.8
    endloop
  endfacet
  facet normal 0 1 -0
    outer loop
      vertex -1.41842 208.136 20.0401
      vertex -12 208.136 35.8
      vertex 0.482147 208.136 20.2708
    endloop
  endfacet
  facet normal 0 1 -0
    outer loop
      vertex 0.750664 208.136 20.169
      vertex 0.482147 208.136 20.2708
      vertex 12 208.136 35.8
    endloop
  endfacet
  facet normal 0 1 -0
    outer loop
      vertex -1.65476 208.136 19.8769
      vertex -12 208.136 20.8
      vertex -1.41842 208.136 20.0401
    endloop
  endfacet
  facet normal 0 1 -0
    outer loop
      vertex -2.99404 208.136 18.9525
      vertex -12 208.136 20.8
      vertex -1.65476 208.136 19.8769
    endloop
  endfacet
  facet normal 0 1 -0
    outer loop
      vertex -3.75031 208.136 17.5115
      vertex -12 208.136 20.8
      vertex -2.99404 208.136 18.9525
    endloop
  endfacet
  facet normal 0 1 -0
    outer loop
      vertex -3.88377 208.136 17.2573
      vertex -12 208.136 20.8
      vertex -3.75031 208.136 17.5115
    endloop
  endfacet
  facet normal 0 1 -0
    outer loop
      vertex -3.88377 208.136 16.9701
      vertex -12 208.136 20.8
      vertex -3.88377 208.136 17.2573
    endloop
  endfacet
  facet normal 0 0 -1
    outer loop
      vertex -7.5 187.136 6.75
      vertex -7.5 208.136 6.75
      vertex 7.5 187.136 6.75
    endloop
  endfacet
  facet normal 0 0 -1
    outer loop
      vertex 7.5 187.136 6.75
      vertex -7.5 208.136 6.75
      vertex 7.5 208.136 6.75
    endloop
  endfacet
  facet normal 0.952345 0 -0.305022
    outer loop
      vertex 7.5 208.136 6.75
      vertex 12 187.136 20.8
      vertex 7.5 187.136 6.75
    endloop
  endfacet
  facet normal 0.952345 0 -0.305022
    outer loop
      vertex 7.5 208.136 6.75
      vertex 12 208.136 20.8
      vertex 12 187.136 20.8
    endloop
  endfacet
  facet normal -3.86432e-017 0.991445 0.130526
    outer loop
      vertex 12 190.392 29.3589
      vertex -12 190.136 31.3
      vertex 12 190.136 31.3
    endloop
  endfacet
  facet normal -1.93218e-017 0.991445 0.130526
    outer loop
      vertex 12 190.392 29.3589
      vertex -12 190.392 29.3589
      vertex -12 190.136 31.3
    endloop
  endfacet
  facet normal 3.86435e-017 0.991445 -0.130526
    outer loop
      vertex 12 190.392 33.2411
      vertex 12 190.136 31.3
      vertex -12 190.392 33.2411
    endloop
  endfacet
  facet normal 3.86438e-017 0.991445 -0.130526
    outer loop
      vertex -12 190.392 33.2411
      vertex 12 190.136 31.3
      vertex -12 190.136 31.3
    endloop
  endfacet
  facet normal 1.13297e-016 0.92388 -0.382683
    outer loop
      vertex 12 191.141 35.05
      vertex 12 190.392 33.2411
      vertex -12 191.141 35.05
    endloop
  endfacet
  facet normal 1.13297e-016 0.92388 -0.382683
    outer loop
      vertex -12 191.141 35.05
      vertex 12 190.392 33.2411
      vertex -12 190.392 33.2411
    endloop
  endfacet
  facet normal -2.3488e-016 0.608761 0.793353
    outer loop
      vertex -12 193.886 24.8048
      vertex 12 192.333 25.9967
      vertex 12 193.886 24.8048
    endloop
  endfacet
  facet normal -2.34879e-016 0.608761 0.793353
    outer loop
      vertex -12 193.886 24.8048
      vertex -12 192.333 25.9967
      vertex 12 192.333 25.9967
    endloop
  endfacet
  facet normal -1.93218e-017 -0.991445 0.130526
    outer loop
      vertex -12 205.136 31.3
      vertex 12 204.881 29.3589
      vertex 12 205.136 31.3
    endloop
  endfacet
  facet normal -1.93216e-017 -0.991445 0.130526
    outer loop
      vertex -12 205.136 31.3
      vertex -12 204.881 29.3589
      vertex 12 204.881 29.3589
    endloop
  endfacet
  facet normal 0 0.793353 -0.608761
    outer loop
      vertex 12 191.717 35.8
      vertex 12 191.141 35.05
      vertex -12 191.717 35.8
    endloop
  endfacet
  facet normal 1.8023e-016 0.793353 -0.608761
    outer loop
      vertex -12 191.717 35.8
      vertex 12 191.141 35.05
      vertex -12 191.141 35.05
    endloop
  endfacet
  facet normal 1.8023e-016 -0.793353 -0.608761
    outer loop
      vertex -12 203.556 35.8
      vertex -12 204.132 35.05
      vertex 12 204.132 35.05
    endloop
  endfacet
  facet normal -0 -0.793353 -0.608761
    outer loop
      vertex 12 203.556 35.8
      vertex -12 203.556 35.8
      vertex 12 204.132 35.05
    endloop
  endfacet
  facet normal 1.93216e-017 -0.991445 -0.130526
    outer loop
      vertex -12 204.881 33.2411
      vertex -12 205.136 31.3
      vertex 12 205.136 31.3
    endloop
  endfacet
  facet normal 3.86435e-017 -0.991445 -0.130526
    outer loop
      vertex 12 204.881 33.2411
      vertex -12 204.881 33.2411
      vertex 12 205.136 31.3
    endloop
  endfacet
  facet normal -9.01148e-017 -0.793353 0.608761
    outer loop
      vertex -12 204.132 27.55
      vertex 12 202.94 25.9967
      vertex 12 204.132 27.55
    endloop
  endfacet
  facet normal -9.01152e-017 -0.793353 0.608761
    outer loop
      vertex -12 204.132 27.55
      vertex -12 202.94 25.9967
      vertex 12 202.94 25.9967
    endloop
  endfacet
  facet normal -1.46763e-016 0.130526 0.991445
    outer loop
      vertex -12 197.636 23.8
      vertex 12 195.695 24.0556
      vertex 12 197.636 23.8
    endloop
  endfacet
  facet normal -1.46764e-016 0.130526 0.991445
    outer loop
      vertex -12 197.636 23.8
      vertex -12 195.695 24.0556
      vertex 12 195.695 24.0556
    endloop
  endfacet
  facet normal 1.13297e-016 -0.92388 -0.382683
    outer loop
      vertex -12 204.132 35.05
      vertex -12 204.881 33.2411
      vertex 12 204.881 33.2411
    endloop
  endfacet
  facet normal 1.13297e-016 -0.92388 -0.382683
    outer loop
      vertex 12 204.132 35.05
      vertex -12 204.132 35.05
      vertex 12 204.881 33.2411
    endloop
  endfacet
  facet normal -1.36762e-016 -0.382683 0.92388
    outer loop
      vertex -12 201.386 24.8048
      vertex 12 199.577 24.0556
      vertex 12 201.386 24.8048
    endloop
  endfacet
  facet normal -1.3676e-016 -0.382683 0.92388
    outer loop
      vertex -12 201.386 24.8048
      vertex -12 199.577 24.0556
      vertex 12 199.577 24.0556
    endloop
  endfacet
  facet normal -1.1744e-016 -0.608761 0.793353
    outer loop
      vertex -12 202.94 25.9967
      vertex 12 201.386 24.8048
      vertex 12 202.94 25.9967
    endloop
  endfacet
  facet normal -1.17441e-016 -0.608761 0.793353
    outer loop
      vertex -12 202.94 25.9967
      vertex -12 201.386 24.8048
      vertex 12 201.386 24.8048
    endloop
  endfacet
  facet normal -5.66485e-017 -0.92388 0.382683
    outer loop
      vertex -12 204.881 29.3589
      vertex 12 204.132 27.55
      vertex 12 204.881 29.3589
    endloop
  endfacet
  facet normal -5.66473e-017 -0.92388 0.382683
    outer loop
      vertex -12 204.881 29.3589
      vertex -12 204.132 27.55
      vertex 12 204.132 27.55
    endloop
  endfacet
  facet normal -1.36762e-016 0.382683 0.92388
    outer loop
      vertex -12 195.695 24.0556
      vertex 12 193.886 24.8048
      vertex 12 195.695 24.0556
    endloop
  endfacet
  facet normal -2.73523e-016 0.382683 0.92388
    outer loop
      vertex -12 195.695 24.0556
      vertex -12 193.886 24.8048
      vertex 12 193.886 24.8048
    endloop
  endfacet
  facet normal -9.01152e-017 0.793353 0.608761
    outer loop
      vertex 12 192.333 25.9967
      vertex -12 191.141 27.55
      vertex 12 191.141 27.55
    endloop
  endfacet
  facet normal -1.8023e-016 0.793353 0.608761
    outer loop
      vertex 12 192.333 25.9967
      vertex -12 192.333 25.9967
      vertex -12 191.141 27.55
    endloop
  endfacet
  facet normal -5.66496e-017 0.92388 0.382683
    outer loop
      vertex 12 191.141 27.55
      vertex -12 190.392 29.3589
      vertex 12 190.392 29.3589
    endloop
  endfacet
  facet normal -5.66485e-017 0.92388 0.382683
    outer loop
      vertex 12 191.141 27.55
      vertex -12 191.141 27.55
      vertex -12 190.392 29.3589
    endloop
  endfacet
  facet normal -1.46763e-016 -0.130526 0.991445
    outer loop
      vertex -12 199.577 24.0556
      vertex 12 197.636 23.8
      vertex 12 199.577 24.0556
    endloop
  endfacet
  facet normal -1.46763e-016 -0.130526 0.991445
    outer loop
      vertex -12 199.577 24.0556
      vertex -12 197.636 23.8
      vertex 12 197.636 23.8
    endloop
  endfacet
  facet normal 1 1.74153e-017 -2.72892e-016
    outer loop
      vertex -3.88377 187.136 15.6299
      vertex -3.88377 208.136 15.3427
      vertex -3.88377 208.136 16.9701
    endloop
  endfacet
  facet normal 1 -3.92419e-031 -1.54639e-015
    outer loop
      vertex -3.88377 187.136 15.6299
      vertex -3.88377 187.136 15.3427
      vertex -3.88377 208.136 15.3427
    endloop
  endfacet
  facet normal 1 0 0
    outer loop
      vertex -3.88377 187.136 17.2573
      vertex -3.88377 208.136 16.9701
      vertex -3.88377 208.136 17.2573
    endloop
  endfacet
  facet normal 1 0 0
    outer loop
      vertex -3.88377 187.136 17.2573
      vertex -3.88377 187.136 15.6299
      vertex -3.88377 208.136 16.9701
    endloop
  endfacet
  facet normal 0.885456 -1.57241e-016 -0.464723
    outer loop
      vertex -3.1275 187.136 18.6982
      vertex -2.99404 208.136 18.9525
      vertex -2.99404 187.136 18.9525
    endloop
  endfacet
  facet normal 0.885456 -1.04166e-016 -0.464723
    outer loop
      vertex -3.1275 187.136 18.6982
      vertex -3.75031 208.136 17.5115
      vertex -2.99404 208.136 18.9525
    endloop
  endfacet
  facet normal 0.885456 1.17931e-016 0.464723
    outer loop
      vertex -3.88377 208.136 15.3427
      vertex -2.99404 187.136 13.6475
      vertex -2.99404 208.136 13.6475
    endloop
  endfacet
  facet normal 0.885456 1.17931e-016 0.464723
    outer loop
      vertex -3.88377 208.136 15.3427
      vertex -3.88377 187.136 15.3427
      vertex -2.99404 187.136 13.6475
    endloop
  endfacet
  facet normal 0.120537 -1.67943e-016 -0.992709
    outer loop
      vertex 0.482147 208.136 20.2708
      vertex 0.482147 187.136 20.2708
      vertex -1.41842 208.136 20.0401
    endloop
  endfacet
  facet normal 0.120537 -1.67943e-016 -0.992709
    outer loop
      vertex -1.41842 208.136 20.0401
      vertex 0.482147 187.136 20.2708
      vertex -1.41842 187.136 20.0401
    endloop
  endfacet
  facet normal 0.885456 -7.86204e-017 -0.464723
    outer loop
      vertex -3.88377 187.136 17.2573
      vertex -3.88377 208.136 17.2573
      vertex -3.75031 208.136 17.5115
    endloop
  endfacet
  facet normal 0.885456 -1.19587e-016 -0.464723
    outer loop
      vertex -3.1275 187.136 18.6982
      vertex -3.88377 187.136 17.2573
      vertex -3.75031 208.136 17.5115
    endloop
  endfacet
  facet normal 0.120537 2.51915e-016 0.992709
    outer loop
      vertex -1.41842 208.136 12.5599
      vertex 0.482147 187.136 12.3292
      vertex 0.482147 208.136 12.3292
    endloop
  endfacet
  facet normal 0.120537 2.51915e-016 0.992709
    outer loop
      vertex -1.41842 208.136 12.5599
      vertex -1.41842 187.136 12.5599
      vertex 0.482147 187.136 12.3292
    endloop
  endfacet
  facet normal -0.354605 2.37273e-016 0.935016
    outer loop
      vertex 0.482147 208.136 12.3292
      vertex 2.27226 187.136 13.0081
      vertex 2.27226 208.136 13.0081
    endloop
  endfacet
  facet normal -0.354605 2.37275e-016 0.935016
    outer loop
      vertex 0.482147 208.136 12.3292
      vertex 0.482147 187.136 12.3292
      vertex 2.27226 187.136 13.0081
    endloop
  endfacet
  facet normal -0.354605 -1.58183e-016 -0.935016
    outer loop
      vertex 2.27226 187.136 19.5919
      vertex 2.00374 187.136 19.6938
      vertex 2.27226 208.136 19.5919
    endloop
  endfacet
  facet normal -0.354605 -2.6918e-016 -0.935016
    outer loop
      vertex 2.27226 208.136 19.5919
      vertex 2.00374 187.136 19.6938
      vertex 0.750664 208.136 20.169
    endloop
  endfacet
  facet normal -0.354605 -1.58183e-016 -0.935016
    outer loop
      vertex 0.750664 208.136 20.169
      vertex 0.482147 187.136 20.2708
      vertex 0.482147 208.136 20.2708
    endloop
  endfacet
  facet normal -0.354605 -1.39684e-016 -0.935016
    outer loop
      vertex 0.750664 208.136 20.169
      vertex 2.00374 187.136 19.6938
      vertex 0.482147 187.136 20.2708
    endloop
  endfacet
  facet normal 0.568065 2.08845e-016 0.822984
    outer loop
      vertex -2.99404 208.136 13.6475
      vertex -1.41842 187.136 12.5599
      vertex -1.41842 208.136 12.5599
    endloop
  endfacet
  facet normal 0.568065 2.08845e-016 0.822984
    outer loop
      vertex -2.99404 208.136 13.6475
      vertex -2.99404 187.136 13.6475
      vertex -1.41842 187.136 12.5599
    endloop
  endfacet
  facet normal -0.748511 -1.49917e-016 -0.663123
    outer loop
      vertex 3.35139 208.136 18.3738
      vertex 2.46269 187.136 19.377
      vertex 2.27226 208.136 19.5919
    endloop
  endfacet
  facet normal -0.748511 -1.12185e-016 -0.663123
    outer loop
      vertex 2.27226 208.136 19.5919
      vertex 2.46269 187.136 19.377
      vertex 2.27226 187.136 19.5919
    endloop
  endfacet
  facet normal -0.748511 1.68277e-016 0.663123
    outer loop
      vertex 3.54182 208.136 14.4411
      vertex 2.27226 187.136 13.0081
      vertex 3.54182 187.136 14.4411
    endloop
  endfacet
  facet normal -0.748511 1.68278e-016 0.663123
    outer loop
      vertex 3.54182 208.136 14.4411
      vertex 2.27226 208.136 13.0081
      vertex 2.27226 187.136 13.0081
    endloop
  endfacet
  facet normal -0.970942 4.04867e-017 0.239316
    outer loop
      vertex 4 208.136 16.3
      vertex 3.54182 187.136 14.4411
      vertex 4 187.136 16.3
    endloop
  endfacet
  facet normal -0.970942 6.07293e-017 0.239316
    outer loop
      vertex 4 208.136 16.3
      vertex 3.54182 208.136 14.4411
      vertex 3.54182 187.136 14.4411
    endloop
  endfacet
  facet normal -0.748511 -1.12185e-016 -0.663123
    outer loop
      vertex 3.54182 208.136 18.1589
      vertex 3.54182 187.136 18.1589
      vertex 3.35139 208.136 18.3738
    endloop
  endfacet
  facet normal -0.748511 -1.62953e-016 -0.663123
    outer loop
      vertex 3.35139 208.136 18.3738
      vertex 3.54182 187.136 18.1589
      vertex 2.46269 187.136 19.377
    endloop
  endfacet
  facet normal -0.970942 -4.04868e-017 -0.239316
    outer loop
      vertex 3.61055 208.136 17.8801
      vertex 3.54182 187.136 18.1589
      vertex 3.54182 208.136 18.1589
    endloop
  endfacet
  facet normal -0.970942 -8.83562e-017 -0.239316
    outer loop
      vertex 3.61055 208.136 17.8801
      vertex 3.93127 187.136 16.5788
      vertex 3.54182 187.136 18.1589
    endloop
  endfacet
  facet normal 0.568065 -1.79824e-016 -0.822984
    outer loop
      vertex -1.65476 208.136 19.8769
      vertex -2.7577 187.136 19.1156
      vertex -2.99404 208.136 18.9525
    endloop
  endfacet
  facet normal 0.568065 -2.7846e-016 -0.822984
    outer loop
      vertex -2.99404 208.136 18.9525
      vertex -2.7577 187.136 19.1156
      vertex -2.99404 187.136 18.9525
    endloop
  endfacet
  facet normal 0.568065 -1.3923e-016 -0.822984
    outer loop
      vertex -1.41842 208.136 20.0401
      vertex -1.41842 187.136 20.0401
      vertex -1.65476 208.136 19.8769
    endloop
  endfacet
  facet normal 0.568065 -1.84773e-016 -0.822984
    outer loop
      vertex -1.65476 208.136 19.8769
      vertex -1.41842 187.136 20.0401
      vertex -2.7577 187.136 19.1156
    endloop
  endfacet
  facet normal -0.970942 -4.04867e-017 -0.239316
    outer loop
      vertex 4 187.136 16.3
      vertex 3.93127 187.136 16.5788
      vertex 4 208.136 16.3
    endloop
  endfacet
  facet normal -0.970942 -3.81051e-017 -0.239316
    outer loop
      vertex 4 208.136 16.3
      vertex 3.93127 187.136 16.5788
      vertex 3.61055 208.136 17.8801
    endloop
  endfacet
endsolid OpenSCAD_Model
